<svg width="38" height="13" viewBox="0 0 38 13" fill="none" xmlns="http://www.w3.org/2000/svg">
<path d="M6.63525 0.450562C8.33325 0.456478 10.0853 0.857946 11.8873 1.66172L11.9726 1.69807L12.0031 1.78343V1.78935C12.1493 2.23392 12.2769 2.67765 12.38 3.12222C12.4831 3.56679 12.5685 4.01051 12.6294 4.45508C12.7147 5.03911 12.7629 5.61723 12.7756 6.20125V6.88248C12.7392 8.3548 12.4831 9.82797 12.0031 11.3003L11.9726 11.3857L11.8873 11.422C10.1834 12.1768 8.47355 12.5478 6.76964 12.5478C6.72738 12.5478 6.68428 12.5478 6.6361 12.5478V12.1337C6.68512 12.1337 6.72738 12.1337 6.76964 12.1337C8.38818 12.1337 10.0135 11.7871 11.6379 11.0806C12.3437 8.88981 12.5389 6.69907 12.222 4.50833C12.1611 4.08236 12.0758 3.64455 11.9726 3.21181C11.8814 2.81034 11.7656 2.40211 11.6379 2.00064C9.91545 1.24589 8.24873 0.868932 6.6361 0.863016V0.450562H6.63525ZM1.63847 1.66764C3.23251 0.852028 4.88824 0.450562 6.59807 0.450562C6.6099 0.450562 6.62258 0.450562 6.63441 0.450562V0.864705C6.62258 0.864705 6.6099 0.864705 6.59807 0.864705C4.9736 0.864705 3.40915 1.24166 1.89372 2.00234C1.27927 3.46283 0.931894 4.94783 0.914145 6.46326C0.889634 7.96602 1.19982 9.50596 1.88781 11.0763C3.47001 11.7643 5.05221 12.1168 6.63441 12.1354V12.5495C4.97276 12.5309 3.31196 12.1599 1.65031 11.4237L1.54043 11.3206C0.834696 9.73839 0.505916 8.1807 0.5 6.65343V6.54356C0.5 6.51313 0.5 6.48862 0.5 6.45819C0.518594 4.87008 0.889634 3.30562 1.54043 1.77244L1.63847 1.66764Z" fill="#003399"/>
<path fill-rule="evenodd" clip-rule="evenodd" d="M6.74387 9.87704C6.6585 8.7149 6.71344 7.50374 6.36691 6.39654C6.04405 5.36202 4.82105 4.77208 4.79654 3.6336C4.77203 2.7453 5.44734 1.71671 6.71344 1.71671C7.90009 1.71079 8.63625 2.57458 8.72162 3.5364C8.82473 4.65037 7.47411 5.39836 7.12082 6.45739C6.75654 7.54008 6.85966 8.73941 6.74387 9.87704Z" fill="#003399"/>
<path fill-rule="evenodd" clip-rule="evenodd" d="M7.21312 9.59725C7.1641 8.58725 7.1641 7.6195 7.4447 6.76163C7.75489 5.78797 8.39977 4.96644 9.38611 4.69852C10.0614 4.51596 11.0537 5.30706 10.8956 6.11675C10.7621 6.76755 10.1104 7.53498 9.06409 7.6195C8.57726 7.66176 8.37019 8.0514 8.06592 8.27706C9.42921 8.14352 10.3116 7.60767 10.926 7.04815C11.0173 7.52315 11.0782 8.32017 10.7071 8.59401C9.9769 9.11127 9.30159 8.69121 8.44372 8.93462C7.96111 9.07408 7.66276 9.37835 7.21312 9.59725Z" fill="#003399"/>
<path fill-rule="evenodd" clip-rule="evenodd" d="M6.28227 9.59725C6.33721 8.58725 6.33129 7.6195 6.05745 6.76163C5.74727 5.78797 5.10238 4.96644 4.11604 4.69852C3.44073 4.51596 2.44256 5.30706 2.60653 6.11675C2.74007 6.76755 3.39171 7.53498 4.43806 7.6195C4.91898 7.66176 5.13196 8.0514 5.43623 8.27706C4.06702 8.14352 3.19056 7.60767 2.5761 7.04815C2.48482 7.52315 2.42397 8.32017 2.79501 8.59401C3.52525 9.11127 4.20056 8.69121 5.05843 8.93462C5.54019 9.07408 5.83179 9.37835 6.28227 9.59725Z" fill="#003399"/>
<path fill-rule="evenodd" clip-rule="evenodd" d="M9.52599 11.0999V10.936L9.64769 10.9056L9.52599 10.723V10.4187L10.0737 11.1794L9.87928 11.2284L9.74574 11.0399L9.52599 11.0999ZM9.52599 10.4187V10.723L9.44062 10.6013L9.40428 10.9664L9.52599 10.936V11.0999L9.38569 11.1304L9.36117 11.3552L9.16678 11.4042L9.2944 10.412L9.4888 10.3629L9.52599 10.4187ZM7.7122 11.6299V11.4718H7.75446C7.82123 11.4659 7.86434 11.46 7.88209 11.4532C7.9066 11.4473 7.93111 11.4287 7.94294 11.411C7.96154 11.3865 7.96745 11.362 7.96745 11.3315C7.96154 11.3011 7.95562 11.2766 7.93703 11.2588C7.92519 11.2402 7.90068 11.2284 7.87617 11.2225C7.85166 11.2166 7.79672 11.2166 7.7122 11.2225V11.0636C7.76123 11.0636 7.79165 11.0577 7.80348 11.0577C7.83391 11.0518 7.85842 11.0332 7.87617 11.0154C7.89477 10.9968 7.90068 10.9732 7.89477 10.9427C7.89477 10.9123 7.88293 10.8878 7.86434 10.876C7.85251 10.8574 7.828 10.8455 7.79165 10.8455C7.77982 10.8455 7.75531 10.8455 7.7122 10.8515V10.6934C7.77897 10.6875 7.82799 10.6875 7.85842 10.6934C7.89477 10.6934 7.93111 10.7052 7.96154 10.7238C7.99196 10.7357 8.01647 10.7602 8.04098 10.7906C8.05958 10.821 8.07141 10.8574 8.07733 10.9005C8.08324 10.9436 8.07141 10.9858 8.05282 11.0222C8.03422 11.0585 8.0038 11.089 7.96154 11.1135C8.02239 11.1253 8.07141 11.1498 8.10184 11.1862C8.13818 11.2225 8.15678 11.2656 8.16269 11.3197C8.16269 11.362 8.15678 11.4051 8.1441 11.4473C8.1255 11.4896 8.10184 11.52 8.07141 11.5504C8.03507 11.5749 7.99872 11.5927 7.9497 11.6054C7.91928 11.6113 7.83983 11.6172 7.72488 11.6299H7.7122ZM8.86251 11.1185L9.05099 11.1431C9.03916 11.2462 9.00873 11.3315 8.95379 11.3924C8.89885 11.4473 8.82025 11.4896 8.72221 11.5082C8.6005 11.5268 8.49063 11.5023 8.39935 11.4355C8.30215 11.3628 8.24721 11.2588 8.21678 11.1126C8.19227 10.9605 8.21087 10.8329 8.27764 10.7357C8.33849 10.6385 8.43569 10.5776 8.56331 10.5531C8.6791 10.5345 8.77038 10.5531 8.85575 10.608C8.90477 10.6385 8.94703 10.6875 8.97746 10.7602L8.80081 10.8329C8.78222 10.7906 8.75179 10.7534 8.71545 10.7357C8.67319 10.7112 8.63008 10.7052 8.58191 10.7112C8.51514 10.723 8.46611 10.7602 8.42977 10.8143C8.39343 10.8751 8.38751 10.9546 8.40526 11.0636C8.42977 11.1794 8.46612 11.258 8.51514 11.3011C8.56416 11.3434 8.62501 11.362 8.69178 11.3501C8.7408 11.3383 8.77715 11.3138 8.80757 11.2774C8.838 11.2402 8.85659 11.1853 8.86251 11.1185ZM7.7122 10.6926V10.8506C7.68769 10.8506 7.66318 10.8565 7.63276 10.8565L7.52288 10.8684L7.54147 11.0814L7.6691 11.0695C7.68093 11.0695 7.69953 11.0695 7.71136 11.0636V11.2217C7.71136 11.2217 7.71136 11.2217 7.70544 11.2217L7.55922 11.2335L7.57782 11.4828L7.71136 11.471V11.629L7.40709 11.6595L7.32173 10.7281L7.69276 10.6976C7.70037 10.6926 7.70629 10.6926 7.7122 10.6926ZM6.53739 11.307V11.149C6.57964 11.149 6.60416 11.1431 6.62275 11.1371C6.64726 11.1312 6.66501 11.1126 6.6836 11.0949C6.69544 11.0704 6.7022 11.0459 6.7022 11.0222C6.70812 10.9858 6.69628 10.9613 6.67769 10.9368C6.65909 10.9123 6.63543 10.9005 6.605 10.8946C6.58641 10.8946 6.56866 10.8886 6.53823 10.8886V10.7306C6.62951 10.7306 6.68445 10.7365 6.71488 10.7492C6.76981 10.761 6.81207 10.7915 6.84842 10.8405C6.88476 10.8895 6.90335 10.9503 6.89744 11.023C6.89744 11.078 6.88561 11.1261 6.86701 11.1693C6.8425 11.2056 6.81799 11.236 6.78756 11.2605C6.75122 11.2791 6.72079 11.291 6.68445 11.3028C6.64726 11.307 6.59824 11.307 6.53739 11.307ZM6.53739 10.7289V10.887C6.51879 10.887 6.49513 10.887 6.4647 10.887L6.37342 10.881V11.149H6.47062C6.49513 11.149 6.51964 11.149 6.53739 11.149V11.307C6.52555 11.307 6.50696 11.307 6.48837 11.307H6.36666L6.36074 11.6603L6.17226 11.6544L6.19086 10.723L6.48921 10.7289C6.50696 10.7289 6.52555 10.7289 6.53739 10.7289ZM4.77939 11.2157V10.9301C4.83432 10.9419 4.87067 10.9419 4.88926 10.9419C4.91377 10.936 4.93152 10.9301 4.95011 10.9115C4.96195 10.8929 4.97462 10.8751 4.98054 10.8447C4.98646 10.8143 4.98054 10.7898 4.96871 10.7653C4.95688 10.7407 4.93237 10.7289 4.90194 10.7162C4.89011 10.7103 4.847 10.7044 4.78023 10.6917V10.5337L4.85968 10.5455C4.95688 10.5641 5.02365 10.5818 5.06675 10.6064C5.10986 10.6309 5.13944 10.6672 5.15803 10.7162C5.17663 10.7585 5.18254 10.8134 5.16986 10.8684C5.15803 10.9351 5.1276 10.9901 5.07858 11.0264C5.03632 11.0628 4.96871 11.0814 4.88419 11.0814C4.92053 11.1118 4.95096 11.1422 4.96955 11.1726C4.99406 11.209 5.01857 11.2639 5.049 11.3434L5.12845 11.5445L4.90954 11.5023L4.81235 11.2774C4.79713 11.258 4.79122 11.2343 4.77939 11.2157ZM5.31439 10.6376L5.49695 10.6562L5.45469 11.1616C5.44878 11.2411 5.44878 11.2952 5.44878 11.3138C5.45469 11.356 5.47329 11.3865 5.4978 11.411C5.52823 11.4414 5.56457 11.4532 5.61951 11.46C5.67444 11.4659 5.7167 11.4541 5.74121 11.4355C5.77164 11.4169 5.79024 11.3932 5.80207 11.3628C5.80798 11.3324 5.8139 11.2774 5.82066 11.2048L5.86292 10.6875L6.0514 10.7061L6.00914 11.1929C6.00322 11.3087 5.99055 11.3873 5.9728 11.4304C5.96096 11.4727 5.93645 11.5158 5.91194 11.5403C5.88152 11.5707 5.83926 11.5952 5.79024 11.6071C5.74798 11.6257 5.68712 11.6257 5.61359 11.6189C5.52231 11.613 5.45554 11.5944 5.41243 11.5699C5.36933 11.5454 5.33299 11.5149 5.30932 11.4845C5.28481 11.4482 5.27298 11.4118 5.26706 11.3746C5.26114 11.3197 5.26114 11.2411 5.26706 11.1371L5.31439 10.6376ZM3.83615 10.9115L3.87249 10.7593L4.26804 10.8624L4.17085 11.2217C4.12182 11.2521 4.06097 11.2707 3.97645 11.2766C3.897 11.2825 3.82432 11.2766 3.75163 11.258C3.65443 11.2335 3.57499 11.1912 3.52005 11.1363C3.45919 11.0754 3.42285 11.0027 3.40426 10.9233C3.39242 10.8379 3.39242 10.7526 3.41609 10.6681C3.4406 10.5768 3.48286 10.4973 3.54371 10.4306C3.59865 10.3697 3.67134 10.3334 3.7567 10.3148C3.82347 10.2962 3.90292 10.3029 3.98829 10.3266C4.09816 10.357 4.18268 10.3993 4.2317 10.4669C4.28072 10.5278 4.30439 10.6072 4.29847 10.6917L4.10999 10.6799C4.10999 10.6309 4.09816 10.5886 4.06773 10.5523C4.03731 10.5218 4.00096 10.4914 3.94602 10.4796C3.86658 10.461 3.79981 10.4677 3.73895 10.5041C3.6781 10.5404 3.63584 10.614 3.60541 10.7112C3.57499 10.821 3.5809 10.9056 3.61133 10.9732C3.64767 11.0399 3.70261 11.083 3.7753 11.1008C3.81756 11.1126 3.85474 11.1126 3.897 11.1126C3.93926 11.1067 3.97645 11.094 4.0128 11.0822L4.04322 10.9664L3.83615 10.9115ZM4.77939 10.5345L4.46328 10.4796L4.30523 11.3983L4.48779 11.4287L4.55456 11.045L4.59682 11.0509C4.63908 11.0568 4.66951 11.0695 4.6881 11.0754C4.7067 11.0873 4.71853 11.1059 4.73713 11.1245C4.74304 11.1431 4.76164 11.1735 4.77939 11.2157V10.9301C4.76079 10.9301 4.74304 10.9241 4.71853 10.9241L4.58499 10.8996L4.62133 10.6681L4.76755 10.6926C4.77347 10.6926 4.77939 10.6926 4.77939 10.6926V10.5345Z" fill="#003399"/>
<path fill-rule="evenodd" clip-rule="evenodd" d="M33.7823 9.39608V7.68034H34.5371V4.66215L33.7823 6.17167V2.40464H36.7456L37.5003 11.0822H34.5371V9.39692H33.7823V9.39608ZM33.7823 2.4038V6.17082L33.0276 7.68034H33.7823V9.39608H32.3582L31.7741 10.9901H29.9367V9.00644L31.9871 4.58271H31.5671L32.7351 2.4038H33.7823ZM29.9358 5.29436L30.8546 3.11545L29.9358 2.60411V5.29436ZM22.6275 4.461C22.6697 4.21167 22.6697 3.96825 22.6275 3.73667V4.461ZM29.9358 2.60495V5.29436L29.8141 5.58679C28.0003 4.29027 25.3228 5.471 25.1706 6.84021C25.0185 8.27028 26.108 9.4265 28.8886 8.56272L27.9336 11.1186C24.2637 11.526 22.8404 10.0722 22.6275 8.37424V7.41241C22.6824 6.96784 22.7982 6.53594 22.9562 6.13448C24.7633 1.64312 27.6969 2.65397 28.81 2.56861L28.974 2.06995L29.9358 2.60495ZM29.9358 9.00644L29.0171 10.9901H29.9358V9.00644ZM19.3295 10.936C21.2954 10.5464 23.2242 8.18576 21.2887 6.30521C22.0434 5.90374 22.5117 5.17941 22.6275 4.461V3.73667C22.4939 2.98783 21.9158 2.37929 20.8264 2.36154L19.3295 2.33111V3.99868H19.9499C20.6134 3.99868 20.528 5.71442 19.7006 5.71442H19.3295V7.02869C20.2237 7.19942 19.9076 8.44016 19.3295 8.82388V10.936ZM22.6275 7.41241V8.37424C22.5911 8.05729 22.5911 7.73527 22.6275 7.41241ZM16.7373 2.27617L15.5261 4.62496L16.0679 4.58271L14.6074 10.991H18.7877C18.9703 10.991 19.147 10.9724 19.3295 10.936V8.82388C19.2264 8.89657 19.1106 8.93967 18.9948 8.93967H17.4921L17.9907 7.01094H19.1165C19.196 7.01094 19.2687 7.01686 19.3295 7.02954V5.71526H18.2823L18.7024 3.99952H19.3295V2.33196L16.7373 2.27617Z" fill="#003399"/>
</svg>
