<svg width="38" height="13" viewBox="0 0 38 13" fill="none" xmlns="http://www.w3.org/2000/svg">
<g clip-path="url(#clip0_294_5606)">
<path fill-rule="evenodd" clip-rule="evenodd" d="M1.05762 5.29077L4.10505 9.11858L1.05762 11.633V5.29077Z" fill="#F15A23"/>
<path fill-rule="evenodd" clip-rule="evenodd" d="M2.28418 11.633L4.57722 9.7229L6.16212 11.633H2.28418Z" fill="#F15A23"/>
<path fill-rule="evenodd" clip-rule="evenodd" d="M1.05762 3.2425L1.85288 4.24418L5.12272 8.31267L6.18227 7.47253C6.18227 7.47253 5.30265 6.44137 4.71203 5.29071C3.55729 3.04103 4.37482 1.64038 4.37482 1.64038H1.05762V3.2425Z" fill="#F15A23"/>
<path fill-rule="evenodd" clip-rule="evenodd" d="M5.58887 8.94072L6.66795 8.05322C6.66795 8.05322 7.69854 9.40406 8.89354 9.7229C10.4595 10.1407 11.1529 9.11851 11.1529 9.11851V11.633H7.7133L8.48889 10.9653C8.48889 10.9653 8.08424 11.2339 7.09457 10.5513C6.51046 10.1484 5.58887 8.94072 5.58887 8.94072Z" fill="#F15A23"/>
<path fill-rule="evenodd" clip-rule="evenodd" d="M5.68822 1.63306C5.68822 1.63306 5.34398 2.1 5.58901 3.2425C5.85092 4.46368 6.89255 5.75615 6.89013 5.72722C6.89013 5.72722 6.95709 4.44385 7.71345 3.69072C9.32563 2.08542 11.153 3.04104 11.153 3.04104V1.64038L5.68822 1.63306Z" fill="#F15A23"/>
<path fill-rule="evenodd" clip-rule="evenodd" d="M11.1529 4.73333C11.1529 4.73333 10.1334 3.86377 9.24696 3.86377C8.11306 3.86377 7.49414 4.83852 7.49414 5.5456C7.49414 6.57551 7.99061 7.14778 8.48892 7.64396C9.20502 8.35701 10.0762 9.12605 11.1529 8.50708C11.1529 7.33561 11.1529 4.73333 11.1529 4.73333Z" fill="#F15A23"/>
<path fill-rule="evenodd" clip-rule="evenodd" d="M22.7637 1.73779H25.1695C25.1695 1.73779 27.3008 4.95111 28.3483 6.27871C29.3957 7.60632 30.5231 9.1185 30.5231 9.1185C30.5231 9.1185 30.5231 4.73333 30.5231 2.45741C30.5231 2.16972 29.7645 1.73779 29.7645 1.73779H32.5389C32.5389 1.73779 31.6285 2.1102 31.6285 2.45741C31.6285 5.29069 31.6285 12.1477 31.6285 12.1477C31.6285 12.1477 30.7551 11.6654 29.7645 10.5193C28.6516 9.23165 24.6927 4.0329 24.6927 4.0329C24.6927 4.0329 24.6927 8.94072 24.6927 10.7665C24.6927 11.1113 25.4513 11.633 25.4513 11.633H22.7637C22.7637 11.633 23.5006 11.1071 23.5006 10.7665C23.5006 8.31265 23.5006 4.73333 23.5006 2.45741C23.5006 2.15162 22.7637 1.73779 22.7637 1.73779Z" fill="#005E6A"/>
<path fill-rule="evenodd" clip-rule="evenodd" d="M34.0928 1.73779H37.1805C37.1805 1.73779 36.3514 2.12885 36.3514 2.45741C36.3514 4.73333 36.3514 8.50708 36.3514 10.7665C36.3514 11.1255 37.1805 11.633 37.1805 11.633H34.0928C34.0928 11.633 34.8647 11.114 34.8647 10.7665C34.8647 8.05322 34.8647 4.73333 34.8647 2.45741C34.8647 2.14153 34.0928 1.73779 34.0928 1.73779Z" fill="#005E6A"/>
<path fill-rule="evenodd" clip-rule="evenodd" d="M13.6797 1.73779C13.6797 1.73779 14.4802 2.13524 14.4802 2.45741C14.4802 4.73333 14.4802 8.05322 14.4802 10.7665C14.4802 11.1197 13.6797 11.633 13.6797 11.633C13.6797 11.633 17.6789 11.633 18.2542 11.633C18.5401 11.633 21.7422 11.1116 21.7422 8.65341C21.7422 6.19524 19.2548 5.96506 19.2548 5.96506C19.2548 5.96506 20.7701 5.5456 20.7701 3.86377C20.7701 2.05095 18.5401 1.73779 18.2542 1.73779C17.66 1.73779 13.6797 1.73779 13.6797 1.73779ZM16.1099 5.80216V2.70862C16.1099 2.70862 17.4359 2.70862 17.9683 2.70862C18.2542 2.70862 19.2548 3.04101 19.2548 4.27422C19.2548 5.29069 18.2542 5.80216 17.9683 5.80216C17.3201 5.80216 16.1099 5.80216 16.1099 5.80216ZM16.1099 6.61352C16.1099 6.61352 17.9683 6.61352 18.2542 6.61352C18.5401 6.61352 20.2269 7.0498 20.2269 8.50708C20.2269 9.99283 18.5401 10.5193 18.2542 10.5193C17.9683 10.5193 16.1099 10.5193 16.1099 10.5193V6.61352Z" fill="#005E6A"/>
</g>
<defs>
<clipPath id="clip0_294_5606">
<rect width="37" height="12" fill="white" transform="translate(0.5 0.5)"/>
</clipPath>
</defs>
</svg>
