<svg width="38" height="13" viewBox="0 0 38 13" fill="none" xmlns="http://www.w3.org/2000/svg">
<g clip-path="url(#clip0_294_5581)">
<path d="M10.5117 3.51181H12.5056C13.3131 3.51181 13.9151 3.99928 13.9151 5.02629C13.9151 5.77923 13.6358 6.19842 13.1513 6.42092V6.43811C13.729 6.60094 14.0271 7.02873 14.0271 7.75588C14.0271 9.1849 13.1138 9.48425 12.3375 9.48425H10.5117V3.51181ZM11.6669 5.87379H11.9899C12.3687 5.87379 12.7603 5.74535 12.7603 5.24018C12.7603 4.69305 12.3874 4.64147 12.002 4.64147H11.6669V5.87379ZM11.6669 8.3551H12.0086C12.4311 8.3551 12.8719 8.26913 12.8719 7.66183C12.8719 7.01154 12.4186 6.95187 12.0207 6.95187H11.6669V8.3551Z" fill="#00529C"/>
<path d="M15.5434 3.51181H16.9595L18.6304 9.48425H17.3633L17.0402 8.20946H15.4131L15.0713 9.48425H13.8975L15.5434 3.51181ZM16.2514 4.74412H16.239L15.6799 7.08031H16.7672L16.2514 4.74412Z" fill="#00529C"/>
<path d="M18.791 3.51181H20.2629L21.729 7.56777H21.7411L21.7227 3.51181H22.7788V9.48425H21.3436L19.8283 5.4025H19.8162L19.8529 9.48425H18.791V3.51181Z" fill="#00529C"/>
<path d="M23.1699 3.51181H24.3251V5.95065H24.3375L25.6417 3.51181H27.0329L25.4307 6.29248L27.1573 9.48425H25.685L24.3375 6.77185H24.3251V9.48425H23.1699V3.51181Z" fill="#00529C"/>
<path d="M28.5908 3.51181H30.5847C31.3919 3.51181 31.9946 3.99928 31.9946 5.02629C31.9946 5.77923 31.7153 6.19842 31.2307 6.42092V6.43811C31.8085 6.60094 32.1062 7.02873 32.1062 7.75588C32.1062 9.1849 31.1933 9.48425 30.417 9.48425H28.5908V3.51181ZM29.746 5.87379H30.069C30.4482 5.87379 30.8391 5.74535 30.8391 5.24018C30.8391 4.69305 30.4669 4.64147 30.0815 4.64147H29.746V5.87379ZM29.746 8.3551H30.0877C30.5098 8.3551 30.951 8.26913 30.951 7.66183C30.951 7.01154 30.4977 6.95187 30.1002 6.95187H29.746V8.3551Z" fill="#00529C"/>
<path d="M32.3623 3.51181H34.4245C35.1946 3.51181 35.8219 3.99119 35.8219 5.0182C35.8219 5.81361 35.5488 6.34406 34.9897 6.52357V6.54076C35.3619 6.6778 35.3869 7.13138 35.6046 7.85853L36.0267 9.48425H34.822L34.5735 8.40668C34.3375 7.37966 34.1881 7.12228 33.7597 7.12228H33.5175V9.48425H32.3623V3.51181ZM33.5175 5.99312H33.8217C34.1947 5.99312 34.6667 5.97593 34.6667 5.29985C34.6667 4.74412 34.263 4.64147 33.8217 4.64147H33.5175V5.99312Z" fill="#00529C"/>
<path d="M36.3447 3.5116H37.4999V9.48404H36.3447V3.5116Z" fill="#00529C"/>
<path d="M7.87502 0.500001H1.82913C1.09501 0.500001 0.5 1.33992 0.5 2.37603V2.39575V10.6245C0.5 11.6505 1.084 12.4848 1.80858 12.5H7.87171C8.60584 12.5 9.20121 11.6606 9.20121 10.6245L9.20378 2.37603C9.20378 1.33992 8.60914 0.500001 7.87502 0.500001ZM2.54747 11.5387L2.21785 11.5438C1.81849 11.5438 1.49474 11.0917 1.49474 10.534L1.4929 10.4546V2.8372L1.49511 2.42659C1.51016 1.88705 1.80784 1.45319 2.1973 1.45319H2.86792C3.47577 1.45319 3.96837 2.18135 3.96837 3.03946C3.96837 3.46422 3.84761 3.84954 3.65196 4.12968L1.94109 6.52149L3.54478 8.77121C3.75144 9.065 3.87624 9.45032 3.87624 9.87255C3.87624 10.7929 3.2816 11.5387 2.54747 11.5387ZM7.47749 11.5311L4.48777 11.5296C4.48777 11.5296 4.83317 10.5006 4.83317 9.86345C4.83317 9.08624 4.64487 8.39246 4.34975 7.93332L3.32711 6.49722L4.37067 5.01157C4.68157 4.60956 4.88786 3.89556 4.88786 3.08194C4.88786 2.43772 4.75866 1.86733 4.55053 1.45319H5.27475C5.8826 1.45319 6.37557 2.18135 6.37557 3.03946C6.37557 3.46422 6.2548 3.84954 6.05916 4.12968L4.38095 6.49671L7.86658 11.3931C7.75609 11.4887 7.61697 11.5311 7.47749 11.5311ZM8.20758 10.0025L5.70972 6.4952L6.89937 4.82953C7.14126 4.41235 7.29506 3.78431 7.29506 3.08194C7.29506 2.43367 7.16402 1.84862 6.95406 1.43447L7.4863 1.45672C7.88566 1.45672 8.20941 1.90879 8.20941 2.46654L8.20758 10.0025Z" fill="#00529C"/>
</g>
<defs>
<clipPath id="clip0_294_5581">
<rect width="37" height="12" fill="white" transform="translate(0.5 0.5)"/>
</clipPath>
</defs>
</svg>
