<svg width="38" height="12" viewBox="0 0 38 12" fill="none" xmlns="http://www.w3.org/2000/svg">
<path d="M12.7753 3.45032H12.7627V3.45167C12.767 3.45122 12.7705 3.45083 12.7753 3.45032Z" fill="#168F8C"/>
<path d="M12.8574 3.31543V11.9363H14.6339V5.47541C14.6339 4.99289 14.4083 3.53512 12.8574 3.31543Z" fill="#0CA49D"/>
<path d="M3.41426 10.4361C3.64019 10.4361 3.82487 10.4034 3.96835 10.338C4.11166 10.2726 4.22383 10.188 4.30492 10.0841C4.38579 9.98022 4.4414 9.86286 4.4718 9.73203C4.50215 9.60139 4.51729 9.46862 4.51729 9.33397C4.51729 9.18012 4.4996 9.04161 4.46412 8.91838C4.42885 8.79528 4.36805 8.69153 4.28198 8.6068C4.19609 8.5222 4.08216 8.45675 3.94049 8.41058C3.79881 8.36448 3.62001 8.34133 3.40409 8.34133H2.21013V10.4361H3.41426ZM2.21013 4.95965V7.03716H3.10062C3.28943 7.03716 3.45986 7.02181 3.61165 6.99099C3.76333 6.96017 3.89245 6.90639 3.99864 6.82933C4.10482 6.75247 4.18591 6.64672 4.24152 6.51201C4.29713 6.37737 4.32504 6.20811 4.32504 6.00421C4.32504 5.80419 4.30306 5.63776 4.25926 5.50505C4.21535 5.37228 4.14788 5.26556 4.05684 5.1847C3.9658 5.1039 3.85018 5.04625 3.71032 5.01156C3.57034 4.97693 3.40409 4.95965 3.21195 4.95965H2.21013ZM3.21195 3.49963C3.72123 3.49963 4.15472 3.55361 4.51226 3.66123C4.86969 3.76904 5.16157 3.9209 5.38761 4.11712C5.61349 4.31334 5.77788 4.55193 5.8809 4.83269C5.98369 5.11357 6.03517 5.42709 6.03517 5.77336C6.03517 5.96184 6.01155 6.14369 5.96448 6.31869C5.91718 6.49383 5.84286 6.65723 5.74171 6.80915C5.6405 6.9612 5.51064 7.10061 5.35213 7.22764C5.1935 7.35455 5.00306 7.46423 4.78046 7.55644C5.26606 7.69115 5.62535 7.90845 5.85807 8.20862C6.09078 8.50866 6.2073 8.8973 6.2073 9.37428C6.2073 9.73203 6.14655 10.065 6.02506 10.3727C5.90367 10.6805 5.7256 10.9488 5.4912 11.1777C5.25685 11.4066 4.96757 11.5855 4.62348 11.7144C4.27955 11.8433 3.88652 11.9077 3.44472 11.9077H0.5V3.49963H3.21195Z" fill="#0CA49D"/>
<path d="M11.3479 5.20772C11.2972 5.30012 11.2442 5.36931 11.1884 5.41548C11.1328 5.46165 11.0612 5.48474 10.9735 5.48474C10.8959 5.48474 10.8124 5.45681 10.723 5.40104C10.6337 5.34526 10.5324 5.28277 10.4195 5.21352C10.3065 5.14427 10.1774 5.08172 10.0324 5.02594C9.88745 4.97016 9.7221 4.9423 9.53646 4.9423C9.21604 4.9423 8.9774 5.0202 8.82058 5.17605C8.66377 5.33178 8.58527 5.54245 8.58527 5.80792C8.58527 5.97725 8.63257 6.11763 8.72694 6.22912C8.82132 6.34074 8.94541 6.43695 9.09895 6.51775C9.25238 6.59848 9.42785 6.67264 9.62513 6.73989C9.8224 6.80728 10.0239 6.88227 10.2297 6.96494C10.4354 7.04773 10.6371 7.14485 10.8343 7.25634C11.0317 7.36796 11.2071 7.51027 11.3606 7.6834C11.5141 7.85654 11.638 8.06714 11.7324 8.31527C11.8268 8.5634 11.8741 8.8626 11.8741 9.21261C11.8741 9.60132 11.8151 9.96487 11.6971 10.3033C11.5789 10.6419 11.4077 10.9372 11.1835 11.1891C10.9591 11.4412 10.6826 11.6392 10.3538 11.7835C10.0248 11.9279 9.65118 11.9999 9.233 11.9999C9.00362 11.9999 8.76995 11.973 8.53226 11.9192C8.29441 11.8653 8.06424 11.7893 7.84165 11.6911C7.61894 11.5931 7.40979 11.4767 7.21421 11.3421C7.0184 11.2075 6.84813 11.0574 6.70312 10.8919L7.20907 9.98015C7.24964 9.9147 7.30265 9.85996 7.36842 9.81572C7.4342 9.77149 7.50586 9.74937 7.58362 9.74937C7.68466 9.74937 7.78661 9.78587 7.88968 9.85899C7.99253 9.93211 8.10889 10.0128 8.2388 10.1014C8.36861 10.1899 8.51785 10.2706 8.68654 10.3438C8.85511 10.4168 9.0542 10.4534 9.28363 10.4534C9.59388 10.4534 9.83512 10.3754 10.0071 10.2197C10.1791 10.0639 10.2651 9.81669 10.2651 9.47816C10.2651 9.28187 10.2178 9.12234 10.1235 8.99911C10.0291 8.87608 9.90497 8.77407 9.75165 8.69321C9.59794 8.61247 9.42344 8.54128 9.22786 8.47977C9.03227 8.41832 8.83149 8.34996 8.62585 8.27484C8.41998 8.19985 8.21931 8.10757 8.02372 7.99795C7.82797 7.88827 7.65341 7.74402 7.50015 7.56514C7.3465 7.3862 7.22251 7.16309 7.12814 6.89568C7.03377 6.62834 6.98647 6.29844 6.98647 5.906C6.98647 5.59062 7.04208 5.28277 7.15346 4.98261C7.26484 4.68257 7.42833 4.41522 7.6442 4.18057C7.86013 3.94598 8.12499 3.75834 8.43857 3.61783C8.75226 3.47745 9.1115 3.40723 9.51634 3.40723C9.74227 3.40723 9.96238 3.42747 10.1767 3.46791C10.3907 3.50821 10.5941 3.56792 10.7863 3.64678C10.9787 3.72564 11.1581 3.81992 11.3251 3.92954C11.4921 4.03922 11.6413 4.16322 11.7729 4.30173L11.3479 5.20772Z" fill="#0CA49D"/>
<path d="M14.8288 0.208279C14.8249 0.137799 14.8178 0.0684163 14.8086 0C15.2061 0.467952 15.7737 0.742262 16.3885 0.697962C16.6825 0.676683 16.9576 0.584344 17.2023 0.437129C17.0122 0.815515 16.9136 1.25935 16.9396 1.72711C16.9717 2.30616 17.1889 2.82125 17.5209 3.20338C17.351 3.16436 17.1742 3.14934 16.9931 3.1625C16.2738 3.21434 15.6667 3.68945 15.3452 4.36142C15.2183 3.36813 14.5429 2.59595 13.6982 2.42604C14.4119 2.02824 14.882 1.16849 14.8288 0.208279Z" fill="#F9AD3C"/>
<path d="M17.877 8.49643C17.9584 8.49643 18.0286 8.48579 18.0874 8.46451C18.1463 8.44323 18.1944 8.41357 18.2317 8.37552C18.2699 8.33632 18.2979 8.29041 18.3155 8.23779C18.3332 8.18407 18.342 8.12533 18.342 8.06149C18.342 7.93723 18.3033 7.83928 18.2257 7.76764C18.1483 7.69484 18.032 7.65847 17.877 7.65847H17.4207V8.49643H17.877ZM17.4207 6.60553V7.42672H17.7975C17.878 7.42672 17.9476 7.41666 18.0065 7.39648C18.0663 7.37636 18.1154 7.34838 18.1536 7.31252C18.1929 7.27667 18.2218 7.2336 18.2405 7.18324C18.2591 7.13171 18.2685 7.07574 18.2685 7.01532C18.2685 6.87314 18.2312 6.76958 18.1566 6.70464C18.082 6.63855 17.9662 6.60553 17.8093 6.60553H17.4207ZM17.8093 6.34863C17.9388 6.34863 18.0502 6.36314 18.1433 6.39229C18.2375 6.42137 18.3146 6.46283 18.3744 6.51655C18.4352 6.57026 18.4799 6.63636 18.5083 6.7147C18.5368 6.79195 18.551 6.87926 18.551 6.9767C18.551 7.03602 18.5426 7.09309 18.526 7.14796C18.5103 7.20168 18.4863 7.2521 18.4539 7.29911C18.4215 7.34612 18.3803 7.38868 18.3302 7.42672C18.2812 7.46367 18.2233 7.49391 18.1566 7.51738C18.3116 7.55098 18.4279 7.61424 18.5054 7.70716C18.5838 7.79898 18.6231 7.91989 18.6231 8.06987C18.6231 8.17176 18.6064 8.26468 18.5731 8.34863C18.5407 8.43259 18.4926 8.50481 18.4288 8.56529C18.3661 8.62572 18.2886 8.67272 18.1964 8.70632C18.1041 8.73882 17.9991 8.755 17.8814 8.755H17.1367V6.34863H17.8093Z" fill="#0CA49D"/>
<path d="M20.1304 7.86166L19.7993 6.88262C19.7895 6.85353 19.7792 6.81994 19.7684 6.78189C19.7576 6.74269 19.7473 6.70129 19.7375 6.65764C19.7169 6.7483 19.6958 6.82387 19.6742 6.88429L19.3431 7.86166H20.1304ZM20.725 8.755H20.5043C20.4787 8.755 20.4582 8.74778 20.4424 8.73321C20.4267 8.71863 20.415 8.70019 20.4071 8.67775L20.2099 8.09676H19.2636L19.0664 8.67775C19.0605 8.69794 19.0492 8.71586 19.0326 8.73153C19.0159 8.7472 18.9953 8.755 18.9707 8.755H18.75L19.5933 6.34863H19.8817L20.725 8.755Z" fill="#0CA49D"/>
<path d="M22.7115 6.34863V8.755H22.5688C22.5462 8.755 22.5271 8.75055 22.5114 8.74159C22.4967 8.73263 22.4819 8.71754 22.4672 8.69626L21.2472 6.88262C21.2491 6.9106 21.2506 6.93807 21.2516 6.9649C21.2526 6.99178 21.2531 7.017 21.2531 7.04047V8.755H21.0029V6.34863H21.1501C21.1628 6.34863 21.1736 6.34973 21.1825 6.35199C21.1913 6.35308 21.1991 6.35592 21.206 6.36037C21.2129 6.36372 21.2197 6.36933 21.2266 6.37714C21.2335 6.38391 21.2408 6.39287 21.2487 6.40402L22.4687 8.21599C22.4667 8.18685 22.4648 8.15886 22.4628 8.13203C22.4618 8.10405 22.4614 8.07774 22.4614 8.05311V6.34863H22.7115Z" fill="#0CA49D"/>
<path d="M23.5341 7.40319H23.6415C23.6787 7.40319 23.7087 7.39816 23.7312 7.3881C23.7538 7.37688 23.7744 7.35843 23.7931 7.33271L24.495 6.42589C24.5147 6.39674 24.5353 6.37662 24.5569 6.3654C24.5785 6.35424 24.605 6.34863 24.6364 6.34863H24.8777L24.0742 7.38474C24.0545 7.41163 24.0354 7.43401 24.0168 7.45193C23.9991 7.4687 23.98 7.48269 23.9594 7.49391C23.9859 7.50397 24.0099 7.51906 24.0315 7.53924C24.0531 7.55827 24.0742 7.58348 24.0948 7.61482L24.9336 8.755H24.6864C24.6677 8.755 24.6516 8.75391 24.6378 8.75165C24.6251 8.7483 24.6138 8.74385 24.604 8.73824C24.5942 8.73153 24.5854 8.72425 24.5775 8.71638C24.5706 8.70748 24.5638 8.69736 24.5569 8.6862L23.8299 7.73069C23.8102 7.70271 23.7892 7.68311 23.7666 7.67189C23.744 7.65957 23.7097 7.65344 23.6635 7.65344H23.5341V8.755H23.25V6.34863H23.5341V7.40319Z" fill="#0CA49D"/>
<path d="M27.0312 6.72479C27.0224 6.74162 27.0125 6.75446 27.0018 6.76342C26.992 6.77129 26.9797 6.77522 26.965 6.77522C26.9483 6.77522 26.9287 6.76568 26.9061 6.74666C26.8835 6.72763 26.8551 6.70687 26.8207 6.68449C26.7874 6.66102 26.7467 6.63974 26.6986 6.62072C26.6515 6.60163 26.5941 6.59215 26.5264 6.59215C26.4626 6.59215 26.4062 6.60221 26.3572 6.6224C26.3091 6.64142 26.2684 6.66773 26.235 6.70132C26.2026 6.73486 26.1781 6.77464 26.1614 6.82055C26.1448 6.8653 26.1364 6.91399 26.1364 6.96661C26.1364 7.0338 26.1506 7.08977 26.1791 7.13458C26.2085 7.17824 26.2468 7.2157 26.2939 7.24704C26.342 7.27844 26.3959 7.30585 26.4557 7.32932C26.5166 7.35176 26.5784 7.37523 26.6412 7.39987C26.705 7.4245 26.7668 7.45248 26.8266 7.48382C26.8875 7.51406 26.9415 7.55269 26.9885 7.5997C27.0366 7.64671 27.0749 7.70442 27.1033 7.77271C27.1327 7.84099 27.1474 7.92495 27.1474 8.02458C27.1474 8.12981 27.1318 8.22886 27.1004 8.32178C27.069 8.4136 27.0229 8.49362 26.962 8.56197C26.9022 8.63026 26.8281 8.68398 26.7398 8.72318C26.6525 8.76232 26.5529 8.78193 26.4411 8.78193C26.3037 8.78193 26.1791 8.75394 26.0672 8.69797C25.9554 8.6409 25.8597 8.56417 25.7803 8.4679L25.8627 8.31339C25.8705 8.30108 25.8798 8.29102 25.8906 8.28315C25.9024 8.27425 25.9152 8.26974 25.9289 8.26974C25.9417 8.26974 25.9559 8.27593 25.9716 8.28825C25.9883 8.2994 26.0069 8.31397 26.0275 8.3319C26.0481 8.34983 26.0716 8.36937 26.0981 8.39065C26.1246 8.41192 26.1545 8.43153 26.1879 8.44945C26.2222 8.46731 26.261 8.48247 26.3042 8.49478C26.3474 8.50594 26.3959 8.51155 26.4499 8.51155C26.5176 8.51155 26.5779 8.50091 26.6309 8.47963C26.6839 8.45842 26.7285 8.42869 26.7648 8.39065C26.8021 8.3515 26.8306 8.30501 26.8502 8.2513C26.8698 8.19752 26.8796 8.13761 26.8796 8.07158C26.8796 7.99885 26.8649 7.93952 26.8354 7.89361C26.807 7.84654 26.7693 7.8074 26.7221 7.77606C26.6751 7.74472 26.6211 7.71841 26.5602 7.69713C26.4994 7.67476 26.4376 7.65232 26.3748 7.62994C26.312 7.60641 26.2502 7.57958 26.1894 7.54934C26.1285 7.5191 26.0746 7.47995 26.0275 7.43179C25.9804 7.38368 25.9422 7.32378 25.9127 7.25214C25.8843 7.17933 25.8701 7.08977 25.8701 6.98344C25.8701 6.89832 25.8843 6.81604 25.9127 6.7366C25.9422 6.65709 25.9843 6.58654 26.0393 6.52496C26.0952 6.46338 26.1634 6.41412 26.2438 6.37717C26.3253 6.34028 26.4185 6.32178 26.5234 6.32178C26.6412 6.32178 26.7481 6.34306 26.8443 6.38562C26.9415 6.42811 27.0268 6.48969 27.1004 6.57029L27.0312 6.72479Z" fill="#0CA49D"/>
<path d="M28.2993 7.79614V8.755H28.0138V7.79614L27.2412 6.34863H27.4914C27.5169 6.34863 27.537 6.35592 27.5517 6.37043C27.5664 6.38391 27.5792 6.40177 27.59 6.42421L28.0727 7.35953C28.0903 7.39874 28.1066 7.43569 28.1213 7.47038C28.136 7.50397 28.1487 7.53808 28.1595 7.57284C28.1703 7.53808 28.1826 7.50397 28.1963 7.47038C28.2101 7.43569 28.2253 7.39874 28.242 7.35953L28.7232 6.42421C28.732 6.40519 28.7443 6.38777 28.76 6.37211C28.7757 6.35644 28.7958 6.34863 28.8203 6.34863H29.072L28.2993 7.79614Z" fill="#0CA49D"/>
<path d="M30.2574 7.86166L29.9262 6.88262C29.9165 6.85353 29.9062 6.81994 29.8954 6.78189C29.8846 6.74269 29.8743 6.70129 29.8645 6.65764C29.8439 6.7483 29.8228 6.82387 29.8012 6.88429L29.47 7.86166H30.2574ZM30.8519 8.755H30.6312C30.6057 8.755 30.5851 8.74778 30.5694 8.73321C30.5537 8.71863 30.5419 8.70019 30.5341 8.67775L30.3369 8.09676H29.3906L29.1934 8.67775C29.1875 8.69794 29.1762 8.71586 29.1595 8.73153C29.1428 8.7472 29.1223 8.755 29.0977 8.755H28.877L29.7202 6.34863H30.0087L30.8519 8.755Z" fill="#0CA49D"/>
<path d="M31.7132 7.51403C31.7956 7.51403 31.8682 7.50288 31.931 7.48044C31.9947 7.45696 32.0477 7.42447 32.0899 7.38307C32.133 7.34051 32.1654 7.29015 32.187 7.23192C32.2086 7.17369 32.2194 7.10934 32.2194 7.03879C32.2194 6.89551 32.1782 6.78744 32.0958 6.7147C32.0134 6.6419 31.8898 6.60553 31.7249 6.60553H31.4129V7.51403H31.7132ZM32.6874 8.755H32.4342C32.3823 8.755 32.344 8.73205 32.3195 8.6862L31.772 7.82639C31.7553 7.7995 31.7372 7.78047 31.7176 7.76932C31.6989 7.757 31.6695 7.75081 31.6293 7.75081H31.4129V8.755H31.1289V6.34863H31.7249C31.8583 6.34863 31.9736 6.3643 32.0708 6.39564C32.1679 6.42588 32.2479 6.47005 32.3107 6.52828C32.3744 6.58651 32.4215 6.65706 32.4519 6.73992C32.4823 6.82162 32.4975 6.91344 32.4975 7.01532C32.4975 7.10037 32.4858 7.17988 32.4622 7.25378C32.4387 7.32761 32.4044 7.39422 32.3592 7.45361C32.3151 7.51177 32.2606 7.56162 32.1958 7.60302C32.1321 7.64448 32.0595 7.67582 31.978 7.6971C32.0144 7.72057 32.0457 7.75475 32.0722 7.7995L32.6874 8.755Z" fill="#0CA49D"/>
<path d="M33.2601 8.755H32.9746V6.34863H33.2601V8.755Z" fill="#0CA49D"/>
<path d="M34.9195 7.86166L34.5884 6.88262C34.5786 6.85353 34.5683 6.81994 34.5575 6.78189C34.5467 6.74269 34.5364 6.70129 34.5266 6.65764C34.506 6.7483 34.4849 6.82387 34.4633 6.88429L34.1321 7.86166H34.9195ZM35.5141 8.755H35.2933C35.2678 8.755 35.2472 8.74778 35.2315 8.73321C35.2158 8.71863 35.204 8.70019 35.1962 8.67775L34.999 8.09676H34.0527L33.8555 8.67775C33.8496 8.69794 33.8383 8.71586 33.8216 8.73153C33.8049 8.7472 33.7843 8.755 33.7598 8.755H33.5391L34.3823 6.34863H34.6708L35.5141 8.755Z" fill="#0CA49D"/>
<path d="M37.4996 6.34863V8.755H37.2141V7.66015H36.0765V8.755H35.791V6.34863H36.0765V7.42169H37.2141V6.34863H37.4996Z" fill="#0CA49D"/>
<path d="M17.4222 11.9272H17.1367V9.52075H17.4222V11.9272Z" fill="#0CA49D"/>
<path d="M19.6705 9.52075V11.9272H19.5278C19.5052 11.9272 19.4861 11.9227 19.4704 11.9138C19.4557 11.9048 19.441 11.8897 19.4262 11.8684L18.2062 10.0548C18.2082 10.0828 18.2097 10.1102 18.2106 10.1371C18.2116 10.164 18.2121 10.1891 18.2121 10.2127V11.9272H17.9619V9.52075H18.1091C18.1218 9.52075 18.1326 9.52191 18.1414 9.52417C18.1503 9.52526 18.1581 9.52804 18.165 9.53255C18.1719 9.5359 18.1787 9.54151 18.1856 9.54932C18.1925 9.55602 18.1998 9.56499 18.2077 9.57621L19.4277 11.3881C19.4258 11.359 19.4238 11.331 19.4218 11.3042C19.4209 11.2762 19.4203 11.2499 19.4203 11.2252V9.52075H19.6705Z" fill="#0CA49D"/>
<path d="M22.0368 10.7248C22.0368 10.9051 22.0118 11.069 21.9618 11.2168C21.9117 11.3646 21.8411 11.4912 21.7498 11.5964C21.6586 11.7016 21.5487 11.7833 21.4202 11.8416C21.2926 11.8986 21.1514 11.9272 20.9963 11.9272H20.209V9.52075H20.9963C21.1514 9.52075 21.2926 9.5499 21.4202 9.60812C21.5487 9.66519 21.6586 9.74689 21.7498 9.85329C21.8411 9.95852 21.9117 10.085 21.9618 10.2328C22.0118 10.3806 22.0368 10.5446 22.0368 10.7248ZM21.7439 10.7248C21.7439 10.577 21.7263 10.4449 21.691 10.3285C21.6557 10.2121 21.6056 10.1135 21.5408 10.0329C21.4761 9.95233 21.3976 9.89075 21.3054 9.84826C21.2132 9.8057 21.1102 9.78442 20.9963 9.78442H20.4945V11.6635H20.9963C21.1102 11.6635 21.2132 11.6423 21.3054 11.5997C21.3976 11.5572 21.4761 11.4962 21.5408 11.4167C21.6056 11.3361 21.6557 11.2375 21.691 11.1212C21.7263 11.0047 21.7439 10.8726 21.7439 10.7248Z" fill="#0CA49D"/>
<path d="M24.3969 10.7248C24.3969 10.905 24.3719 11.0707 24.3218 11.2218C24.2718 11.3719 24.2012 11.5012 24.1099 11.6098C24.0187 11.7184 23.9088 11.8029 23.7803 11.8633C23.6527 11.9227 23.5115 11.9524 23.3564 11.9524C23.2014 11.9524 23.0601 11.9227 22.9326 11.8633C22.805 11.8029 22.6956 11.7184 22.6044 11.6098C22.5131 11.5012 22.4425 11.3719 22.3925 11.2218C22.3424 11.0707 22.3174 10.905 22.3174 10.7248C22.3174 10.5446 22.3424 10.3794 22.3925 10.2294C22.4425 10.0782 22.5131 9.94844 22.6044 9.83978C22.6956 9.7301 22.805 9.64504 22.9326 9.58456C23.0601 9.52414 23.2014 9.4939 23.3564 9.4939C23.5115 9.4939 23.6527 9.52414 23.7803 9.58456C23.9088 9.64504 24.0187 9.7301 24.1099 9.83978C24.2012 9.94844 24.2718 10.0782 24.3218 10.2294C24.3719 10.3794 24.3969 10.5446 24.3969 10.7248ZM24.104 10.7248C24.104 10.577 24.0864 10.4444 24.0511 10.3268C24.0158 10.2093 23.9657 10.1102 23.9009 10.0296C23.8362 9.94786 23.7577 9.88518 23.6654 9.84152C23.5732 9.7978 23.4702 9.77601 23.3564 9.77601C23.2436 9.77601 23.1411 9.7978 23.0489 9.84152C22.9566 9.88518 22.8776 9.94786 22.8119 10.0296C22.7471 10.1102 22.6971 10.2093 22.6618 10.3268C22.6264 10.4444 22.6088 10.577 22.6088 10.7248C22.6088 10.8725 22.6264 11.0052 22.6618 11.1228C22.6971 11.2392 22.7471 11.3383 22.8119 11.42C22.8776 11.5006 22.9566 11.5628 23.0489 11.6064C23.1411 11.649 23.2436 11.6703 23.3564 11.6703C23.4702 11.6703 23.5732 11.649 23.6654 11.6064C23.7577 11.5628 23.8362 11.5006 23.9009 11.42C23.9657 11.3383 24.0158 11.2392 24.0511 11.1228C24.0864 11.0052 24.104 10.8725 24.104 10.7248Z" fill="#0CA49D"/>
<path d="M26.5143 9.52075V11.9272H26.3715C26.349 11.9272 26.3298 11.9227 26.3142 11.9138C26.2994 11.9048 26.2847 11.8897 26.27 11.8684L25.05 10.0548C25.0519 10.0828 25.0534 10.1102 25.0544 10.1371C25.0554 10.164 25.0558 10.1891 25.0558 10.2127V11.9272H24.8057V9.52075H24.9528C24.9656 9.52075 24.9764 9.52191 24.9852 9.52417C24.994 9.52526 25.0019 9.52804 25.0088 9.53255C25.0156 9.5359 25.0225 9.54151 25.0294 9.54932C25.0362 9.55602 25.0436 9.56499 25.0514 9.57621L26.2714 11.3881C26.2695 11.359 26.2675 11.331 26.2656 11.3042C26.2646 11.2762 26.2641 11.2499 26.2641 11.2252V9.52075H26.5143Z" fill="#0CA49D"/>
</svg>
