<svg width="25" height="24" viewBox="0 0 25 24" fill="none" xmlns="http://www.w3.org/2000/svg">
<path d="M18.918 8.00024H10.918C9.8134 8.00024 8.91797 8.89567 8.91797 10.0002V18.0002C8.91797 19.1048 9.8134 20.0002 10.918 20.0002H18.918C20.0225 20.0002 20.918 19.1048 20.918 18.0002V10.0002C20.918 8.89567 20.0225 8.00024 18.918 8.00024Z" stroke="black" stroke-linecap="round" stroke-linejoin="round"/>
<path d="M16.9219 7.99976V5.99976C16.9219 5.46932 16.7112 4.96061 16.3361 4.58554C15.961 4.21047 15.4523 3.99976 14.9219 3.99976H6.92188C6.39144 3.99976 5.88273 4.21047 5.50766 4.58554C5.13259 4.96061 4.92188 5.46932 4.92188 5.99976V13.9998C4.92188 14.5302 5.13259 15.0389 5.50766 15.414C5.88273 15.789 6.39144 15.9998 6.92188 15.9998H8.92188" stroke="black" stroke-linecap="round" stroke-linejoin="round"/>
</svg>
