<svg width="911" height="100" viewBox="0 0 911 100" fill="none" xmlns="http://www.w3.org/2000/svg">
<g filter="url(#filter0_b_1_1711)">
<rect width="203.571" height="100" rx="10" fill="white" fill-opacity="0.45"/>
</g>
<path fill-rule="evenodd" clip-rule="evenodd" d="M123.421 58.2126C122.217 59.3283 120.776 59.8898 119.106 59.8898C117.756 59.8898 116.609 59.6376 115.437 59.0169V56.459C116.38 57.0418 117.562 57.5973 118.731 57.5973C121.166 57.5973 122.616 56.0672 122.616 53.8984C122.616 51.727 121.116 50.151 118.68 50.151C117.591 50.151 116.71 50.5082 116.021 51.224C115.282 52.0004 114.9 53.1087 114.9 54.5743V64.6763H114.716C113.374 64.6763 112.285 63.6824 112.285 62.4577V54.1958C112.285 50.6898 114.634 47.8598 118.669 47.8598C120.66 47.8598 122.278 48.4812 123.505 49.7305C124.658 50.8974 125.231 52.3776 125.231 54.1572C125.231 55.7418 124.628 57.0956 123.421 58.2126ZM67.9937 59.6536C65.4383 59.6536 64.1689 58.0663 64.1689 55.8489V47.4374C64.1689 46.212 65.2569 45.2187 66.5998 45.2187H66.7827V48.0953H71.1992V50.3871H66.7827V56.1144C66.7827 57.0883 67.2592 57.3624 68.2779 57.3624H71.1992V59.6536H67.9937ZM83.1749 58.1927C81.8822 59.3236 80.3309 59.8898 78.5274 59.8898C76.7415 59.8898 75.1974 59.3229 73.9069 58.1927C72.6113 57.0584 71.965 55.6148 71.965 53.8744C71.965 50.4803 74.8046 47.8598 78.5274 47.8598C80.3149 47.8598 81.8618 48.4306 83.1618 49.5682C84.4654 50.7098 85.1168 52.1494 85.1168 53.8744C85.1168 55.6148 84.4698 57.0584 83.1749 58.1927ZM95.3947 50.8761C95.0115 51.4635 94.7142 51.8846 94.505 52.1388C94.274 52.4149 94.0467 52.6364 93.8215 52.7887C95.6381 53.3249 96.3143 54.4738 96.3143 56.1856L96.3151 59.6536H96.1307C94.7885 59.6536 93.6999 58.6603 93.6999 57.4349V56.4204C93.6999 55.3127 93.1563 54.5603 91.8694 54.5603H89.4954V59.6536H89.3125C87.9703 59.6536 86.8817 58.6603 86.8817 57.4349V45.1269C86.8817 43.9015 87.9703 42.9076 89.3125 42.9076H89.4954V52.2446H90.2685C91.1167 52.2446 91.6756 51.9804 91.9955 51.4788L94.191 48.0953L97.1698 48.0933L95.3947 50.8761ZM108.888 58.1927C107.597 59.3236 106.044 59.8898 104.241 59.8898C102.456 59.8898 100.912 59.3229 99.6203 58.1927C98.3247 57.0584 97.6791 55.6148 97.6791 53.8744C97.6791 50.4803 100.518 47.8598 104.241 47.8598C106.029 47.8598 107.576 48.4306 108.875 49.5682C110.179 50.7098 110.83 52.1494 110.83 53.8744C110.83 55.6148 110.184 57.0584 108.888 58.1927ZM107.002 51.1848C106.281 50.4962 105.365 50.151 104.241 50.151C101.835 50.151 100.396 51.7523 100.396 53.8744C100.396 55.9674 101.87 57.5973 104.241 57.5973C106.614 57.5973 108.086 55.9674 108.086 53.8744C108.086 52.7635 107.722 51.872 107.002 51.1848ZM81.2876 51.1848C80.567 50.4962 79.6518 50.151 78.5274 50.151C76.1221 50.151 74.683 51.7523 74.683 53.8744C74.683 55.9674 76.1571 57.5973 78.5274 57.5973C80.8993 57.5973 82.3734 55.9674 82.3734 53.8744C82.3734 52.7635 82.0083 51.872 81.2876 51.1848ZM151.723 58.1275C150.523 59.303 148.98 59.8898 147.106 59.8898C145.132 59.8898 143.521 59.2671 142.296 58.0184C141.144 56.8369 140.57 55.356 140.57 53.5917C140.57 50.4683 143.212 47.8598 146.684 47.8598C148.025 47.8598 149.188 48.1166 150.364 48.706V51.2899C149.421 50.7071 148.237 50.151 147.071 50.151C144.636 50.151 143.185 51.6811 143.185 53.8505C143.185 55.992 144.719 57.5973 147.12 57.5973C148.207 57.5973 149.103 57.2247 149.819 56.4763C150.531 55.7312 150.901 54.6368 150.901 53.1673V45.1269C150.901 43.9015 151.989 42.9076 153.332 42.9076H153.515V53.5438C153.515 55.4179 152.922 56.9506 151.723 58.1275ZM159.105 46.7235C158.83 47.0043 158.437 47.1333 157.956 47.1333C157.059 47.1333 156.418 46.5286 156.418 45.7163C156.418 44.8841 157.048 44.3226 157.956 44.3226C158.831 44.3226 159.496 44.9147 159.496 45.7163C159.496 46.1128 159.369 46.4528 159.105 46.7235ZM172.386 53.1673C172.386 52.2266 171.996 51.4822 171.212 50.9174C170.506 50.4098 169.624 50.151 168.553 50.151C166.187 50.151 164.669 51.8394 164.669 53.921C164.669 55.9254 166.278 57.5973 168.529 57.5973C170.093 57.5973 170.93 56.7624 171.823 55.7232V58.7216C171.368 59.0322 170.845 59.3708 170.31 59.5698C169.747 59.7853 169.076 59.8898 168.298 59.8898C164.536 59.8898 162.055 57.0444 162.055 53.7567C162.055 52.0683 162.629 50.6732 163.785 49.5842C165.013 48.4313 166.621 47.8598 168.591 47.8598C172.327 47.8598 175 49.8177 175 53.3555V59.6536H174.816C173.474 59.6536 172.386 58.6603 172.386 57.4349V53.1673ZM136.603 52.4914C136.273 51.5587 135.859 51.0996 134.906 50.6147C132.642 49.4584 130.412 50.4417 129.375 52.4821L136.603 52.4914ZM134.609 59.8545C132.939 60.1778 131.301 59.9283 129.703 59.1141C128.144 58.3184 127.099 57.1356 126.576 55.5742C125.518 52.4149 127.686 48.8936 131.171 48.0408C132.9 47.6183 134.557 47.8099 136.13 48.6136C138.746 49.9474 139.698 52.011 139.532 54.6708L129.001 54.6508C129.156 55.7359 129.893 56.5847 130.928 57.1129C131.977 57.6485 132.942 57.7762 133.839 57.5227C134.832 57.2373 135.639 56.4969 136.294 55.807L138.441 57.2347C137.565 58.665 136.373 59.5112 134.609 59.8545ZM156.65 48.0953H159.264V59.6536H159.08C157.738 59.6536 156.65 58.6603 156.65 57.4349V48.0953Z" fill="#3CAF41"/>
<path fill-rule="evenodd" clip-rule="evenodd" d="M42.7439 40.6728C44.2468 39.9874 46.0697 39.6134 47.7377 39.4816L49.6124 39.3322C51.666 39.171 53.7206 39.27 55.7767 39.27H56.904V40.2992C56.904 44.869 56.904 49.44 56.904 54.0106V54.5362C56.904 59.2544 52.6782 63.1124 47.5088 63.1124H28.5713V39.27H29.6981C31.7561 39.27 33.8035 39.1465 35.861 39.2924L37.7352 39.4216C39.5159 39.5437 41.146 39.9384 42.7439 40.6728Z" fill="#4D4C4B"/>
<path fill-rule="evenodd" clip-rule="evenodd" d="M29.6981 40.2992V62.0837H37.9635H47.5088C52.0565 62.0837 55.7767 58.6864 55.7767 54.5362V54.0106C55.7767 49.4667 55.7767 45.0341 55.7767 40.2992C53.8007 40.2992 51.714 40.255 49.7102 40.3584L47.835 40.506C46.0001 40.7096 44.1437 41.1007 42.7372 41.8418C41.2189 41.0407 39.5629 40.6426 37.6503 40.4468L35.7756 40.3168C33.7311 40.23 31.6352 40.2992 29.6981 40.2992Z" fill="#5FB74E"/>
<path fill-rule="evenodd" clip-rule="evenodd" d="M32.0362 62.0837H37.9635H47.5088C49.5236 62.0837 51.3743 61.4166 52.8116 60.3143C51.133 56.7519 47.2531 54.259 42.7367 54.259C37.5035 54.259 33.1276 57.6059 32.0362 62.0837Z" fill="#89C45F"/>
<path fill-rule="evenodd" clip-rule="evenodd" d="M42.7372 62.0837L47.6053 62.018C49.5932 62.018 51.4026 61.3781 52.812 60.3147C54.6268 58.9456 55.7767 56.8723 55.7767 54.5362V54.0106C55.7767 49.4667 55.7767 45.0341 55.7767 40.2992C53.8007 40.2992 51.714 40.255 49.7102 40.3584L47.835 40.506C46.0001 40.7096 44.1437 41.1007 42.7372 41.8418V62.0837Z" fill="#4A9E4B"/>
<path fill-rule="evenodd" clip-rule="evenodd" d="M42.7372 62.0837H47.5391C49.5538 62.0837 51.3748 61.4171 52.812 60.3147C51.1518 56.7926 47.1893 54.315 42.7372 54.2607V62.0837Z" fill="#5FB74E"/>
<path fill-rule="evenodd" clip-rule="evenodd" d="M49.7102 39.6454C49.3519 36.432 46.3777 33.9286 42.7669 33.9286C39.1575 33.9286 36.1848 36.4105 35.7756 39.6051L37.6503 39.7356C37.9818 37.4284 40.1357 35.6445 42.7597 35.6445C45.3823 35.6445 47.5554 37.459 47.835 39.7925L49.7102 39.6454Z" fill="#4D4C4B"/>
<path fill-rule="evenodd" clip-rule="evenodd" d="M45.7867 55.2632C44.9697 56.052 44.1537 56.8412 43.3373 57.6309L42.7367 58.212L42.137 57.6309C41.3201 56.8425 40.5041 56.052 39.6876 55.2632L39.265 54.8537L39.5739 54.3667C40.2287 53.3357 41.4539 52.7808 42.7367 52.7808C44.0209 52.7808 45.2451 53.3357 45.9004 54.3667L46.2098 54.8537L45.7867 55.2632Z" fill="#4D4C4B"/>
<path fill-rule="evenodd" clip-rule="evenodd" d="M45.1851 54.746C44.3706 55.5352 43.5527 56.3235 42.7367 57.1136C41.9207 56.3235 41.1042 55.5352 40.2877 54.746C40.8034 53.9344 41.7715 53.5333 42.7367 53.535C43.7023 53.5333 44.6704 53.9344 45.1851 54.746Z" fill="#FDF8B4"/>
<path fill-rule="evenodd" clip-rule="evenodd" d="M45.1851 54.746C44.3706 55.5352 43.5527 56.3235 42.7367 57.1136V53.535C43.7023 53.5333 44.6704 53.9344 45.1851 54.746Z" fill="#FCD066"/>
<path fill-rule="evenodd" clip-rule="evenodd" d="M36.618 43.2682C40.2758 43.2682 43.2423 45.9783 43.2423 49.3165C43.2423 52.656 40.2758 55.3648 36.618 55.3648C32.9597 55.3648 29.9941 52.656 29.9941 49.3165C29.9941 45.9783 32.9597 43.2682 36.618 43.2682Z" fill="#4D4C4B"/>
<path fill-rule="evenodd" clip-rule="evenodd" d="M36.618 44.2974C39.654 44.2974 42.1159 46.5451 42.1159 49.3165C42.1159 52.0875 39.654 54.3356 36.618 54.3356C33.5809 54.3356 31.1205 52.0875 31.1205 49.3165C31.1205 46.5451 33.5809 44.2974 36.618 44.2974Z" fill="#EEEFEE"/>
<path fill-rule="evenodd" clip-rule="evenodd" d="M36.618 44.2974C39.1235 44.2974 41.2381 45.8286 41.9005 47.9216C41.2381 50.0138 39.1235 51.5453 36.618 51.5453C34.1115 51.5453 31.9988 50.0138 31.3363 47.9216C31.9988 45.8286 34.1115 44.2974 36.618 44.2974Z" fill="#FEFEFE"/>
<path fill-rule="evenodd" clip-rule="evenodd" d="M48.8563 43.2682C52.5151 43.2682 55.4802 45.9783 55.4802 49.3165C55.4802 52.656 52.5151 55.3648 48.8563 55.3648C45.1981 55.3648 42.2315 52.6573 42.2315 49.3165C42.2315 45.9783 45.1981 43.2682 48.8563 43.2682Z" fill="#4D4C4B"/>
<path fill-rule="evenodd" clip-rule="evenodd" d="M48.8563 44.2974C51.892 44.2974 54.3543 46.5451 54.3543 49.3165C54.3543 52.0875 51.892 54.3356 48.8563 54.3356C45.8202 54.3356 43.3589 52.0875 43.3589 49.3165C43.3589 46.5451 45.8202 44.2974 48.8563 44.2974Z" fill="#EEEFEE"/>
<path fill-rule="evenodd" clip-rule="evenodd" d="M48.8563 44.2974C51.3614 44.2974 53.476 45.8286 54.1375 47.9216C53.4764 50.0138 51.3614 51.5453 48.8563 51.5453C46.3499 51.5453 44.2362 50.0138 43.5738 47.9216C44.2362 45.8286 46.3499 44.2974 48.8563 44.2974Z" fill="#FEFEFE"/>
<path fill-rule="evenodd" clip-rule="evenodd" d="M37.3087 46.1951C39.2693 46.1951 40.86 47.6466 40.86 49.4348C40.86 51.2261 39.2693 52.677 37.3087 52.677C35.3467 52.677 33.7574 51.2261 33.7574 49.4348C33.7574 48.8383 33.9354 48.2794 34.2443 47.7985C34.4976 48.371 35.1107 48.7726 35.8298 48.7726C36.7739 48.7726 37.5404 48.0753 37.5404 47.213C37.5404 46.8245 37.385 46.4706 37.1298 46.1986C37.1888 46.1951 37.2493 46.1951 37.3087 46.1951Z" fill="#4D4C4B"/>
<path fill-rule="evenodd" clip-rule="evenodd" d="M48.1641 46.1951C50.1266 46.1951 51.7164 47.6466 51.7164 49.4348C51.7164 51.2261 50.1266 52.677 48.1641 52.677C46.204 52.677 44.6143 51.2261 44.6143 49.4348C44.6143 48.8383 44.7913 48.2794 45.0992 47.7985C45.354 48.371 45.9685 48.7726 46.6866 48.7726C47.6307 48.7726 48.3958 48.0753 48.3958 47.213C48.3958 46.8245 48.2423 46.4706 47.9861 46.1986C48.0461 46.1951 48.1046 46.1951 48.1641 46.1951Z" fill="#4D4C4B"/>
<g filter="url(#filter1_b_1_1711)">
<rect x="235.571" width="203.571" height="100" rx="10" fill="white" fill-opacity="0.45"/>
</g>
<g clip-path="url(#clip0_1_1711)">
<path fill-rule="evenodd" clip-rule="evenodd" d="M306.47 57.14C306.304 58.5148 305.471 59.616 304.18 60.1673C303.461 60.4745 302.497 60.6403 301.733 60.5882C300.541 60.5427 299.422 60.2529 298.39 59.7232C298.022 59.5339 297.472 59.1559 297.05 58.8018C296.943 58.7123 296.931 58.655 297.001 58.5547C297.04 58.4971 297.11 58.3933 297.266 58.1653C297.491 57.8346 297.519 57.7931 297.545 57.7544C297.617 57.6435 297.734 57.6339 297.85 57.7249C297.862 57.7344 297.862 57.7344 297.871 57.7416C297.89 57.7563 297.89 57.7563 297.935 57.7911C297.98 57.8264 298.007 57.8473 298.018 57.8554C299.131 58.7269 300.427 59.2296 301.735 59.2798C303.556 59.255 304.865 58.4365 305.099 57.1798C305.357 55.7967 304.271 54.6019 302.147 53.9359C301.483 53.7277 299.803 53.0555 299.494 52.8739C298.04 52.0208 297.36 50.9033 297.456 49.5231C297.604 47.6098 299.381 46.1829 301.625 46.1733C302.628 46.1713 303.63 46.3798 304.592 46.7853C304.933 46.9289 305.541 47.2598 305.751 47.4166C305.872 47.5055 305.896 47.609 305.827 47.7207C305.788 47.7854 305.724 47.8881 305.589 48.1021L305.587 48.1045C305.41 48.3864 305.404 48.3952 305.364 48.4611C305.293 48.5683 305.21 48.5783 305.083 48.4978C304.054 47.8061 302.913 47.4582 301.657 47.4331C300.095 47.464 298.923 48.394 298.846 49.661C298.826 50.8053 299.684 51.6407 301.538 52.2776C305.301 53.4869 306.741 54.9046 306.47 57.14M301.823 37.3858C304.273 37.3858 306.27 39.7108 306.363 42.6212H297.283C297.376 39.7108 299.373 37.3858 301.823 37.3858ZM314.502 43.1684C314.502 42.8662 314.259 42.6212 313.959 42.6212H308.073C307.928 38.7784 305.185 35.7142 301.823 35.7142C298.46 35.7142 295.717 38.7784 295.573 42.6212L289.679 42.6213C289.383 42.6267 289.145 42.8696 289.145 43.1684C289.145 43.1827 289.146 43.1969 289.147 43.2108H289.143L289.983 61.7327C289.983 61.7843 289.985 61.8362 289.989 61.8885C289.99 61.9004 289.99 61.9121 289.991 61.9238L289.993 61.9629L289.995 61.9649C290.123 63.2538 291.058 64.2918 292.33 64.3397L292.333 64.3425H311.03C311.039 64.3426 311.048 64.3427 311.057 64.3427C311.066 64.3427 311.075 64.3426 311.083 64.3425H311.123L311.124 64.3418C312.418 64.3064 313.466 63.2539 313.577 61.9491L313.578 61.9485L313.578 61.931C313.58 61.9172 313.581 61.9036 313.581 61.8898C313.583 61.857 313.585 61.8242 313.585 61.7917L314.502 43.1967H314.501C314.502 43.1873 314.502 43.1779 314.502 43.1684M376.834 55.2399C377.194 54.0649 378.283 53.2815 379.554 53.2815C380.767 53.2815 381.923 54.1055 382.322 55.2377L382.349 55.3155H376.81L376.834 55.2399ZM383.582 56.9423C383.589 56.9426 383.589 56.9426 383.6 56.9427C383.611 56.9426 383.611 56.9426 383.622 56.9423C383.887 56.9302 384.097 56.7041 384.097 56.429C384.097 56.4156 384.097 56.4041 384.096 56.3857C384.096 56.3823 384.096 56.3756 384.096 56.3539C384.096 53.7589 382.062 51.6558 379.553 51.6558C377.043 51.6558 375.009 53.7589 375.009 56.3539C375.009 56.5474 375.02 56.7403 375.043 56.9321L375.044 56.9423L375.052 56.9929C375.176 57.9267 375.575 58.7837 376.204 59.4772C376.204 59.4769 376.204 59.4775 376.208 59.4811C376.905 60.2489 377.853 60.7722 378.903 60.9679L378.917 60.9705V60.9691L378.985 60.9805C379.02 60.9865 379.057 60.9923 379.107 61C380.49 61.1663 381.716 60.967 382.755 60.4439C383.011 60.3151 383.241 60.1729 383.44 60.0227C383.504 59.9743 383.562 59.9275 383.611 59.8837C383.637 59.8611 383.658 59.8421 383.668 59.8311C383.903 59.5897 383.917 59.5041 383.776 59.2837C383.62 59.036 383.483 58.8249 383.365 58.6502C383.324 58.589 383.288 58.5369 383.258 58.4936C383.242 58.4699 383.242 58.4699 383.231 58.4548C383.227 58.449 383.227 58.449 383.224 58.4452L383.223 58.4433C383.095 58.284 383.007 58.2694 382.865 58.3948C382.85 58.4083 382.799 58.4474 382.79 58.4571C381.791 59.3443 380.426 59.6298 379.064 59.3447C378.81 59.2766 378.573 59.19 378.354 59.0855C377.5 58.6575 376.896 57.8948 376.721 57.012L376.707 56.9423L383.582 56.9423ZM366.022 55.2399C366.382 54.0649 367.471 53.2815 368.743 53.2815C369.956 53.2815 371.111 54.1055 371.51 55.2377L371.537 55.3155H365.999L366.022 55.2399ZM372.77 56.9423C372.778 56.9426 372.778 56.9426 372.789 56.9427C372.799 56.9426 372.799 56.9426 372.811 56.9423C373.076 56.9302 373.286 56.7041 373.286 56.429C373.286 56.4156 373.285 56.4041 373.284 56.3857C373.284 56.3823 373.284 56.3756 373.284 56.3539C373.284 53.7589 371.25 51.6558 368.741 51.6558C366.232 51.6558 364.197 53.7589 364.197 56.3539C364.197 56.5474 364.209 56.7403 364.231 56.9321L364.233 56.9423L364.24 56.9929C364.365 57.9267 364.763 58.7837 365.393 59.4772C365.392 59.4769 365.393 59.4775 365.396 59.4811C366.094 60.2489 367.041 60.7722 368.092 60.9679L368.105 60.9705V60.9691L368.173 60.9805C368.209 60.9865 368.246 60.9923 368.295 61C369.678 61.1663 370.905 60.967 371.943 60.4439C372.199 60.3151 372.429 60.1729 372.628 60.0227C372.692 59.9743 372.75 59.9275 372.8 59.8837C372.825 59.8611 372.846 59.8421 372.857 59.8311C373.091 59.5897 373.106 59.5041 372.964 59.2837C372.809 59.036 372.671 58.8249 372.554 58.6502C372.513 58.589 372.477 58.5369 372.447 58.4936C372.43 58.4699 372.43 58.4699 372.419 58.4548C372.415 58.449 372.415 58.449 372.412 58.4452L372.411 58.4433C372.283 58.284 372.196 58.2694 372.053 58.3948C372.038 58.4083 371.988 58.4474 371.979 58.4571C370.979 59.3443 369.615 59.6298 368.252 59.3447C367.999 59.2766 367.761 59.19 367.543 59.0855C366.689 58.6575 366.084 57.8948 365.91 57.012L365.896 56.9423L372.77 56.9423ZM357.771 59.5298C356.081 59.5298 354.699 58.1901 354.656 56.5111V56.353C354.698 54.6767 356.081 53.3367 357.771 53.3367C359.491 53.3367 360.886 54.7231 360.886 56.4333C360.886 58.1435 359.491 59.5298 357.771 59.5298ZM357.772 51.694C356.663 51.694 355.604 52.0715 354.753 52.7639L354.656 52.8425V51.976C354.656 51.7449 354.607 51.694 354.373 51.694H353.285C353.048 51.694 353.001 51.7411 353.001 51.976V65.7894C353.001 66.0163 353.054 66.0714 353.285 66.0714H354.373C354.604 66.0714 354.656 66.0175 354.656 65.7894V60.0288L354.753 60.1074C355.604 60.7999 356.663 61.1774 357.772 61.1774C360.406 61.1774 362.542 59.0545 362.542 56.4357C362.542 53.817 360.406 51.694 357.772 51.694ZM346.569 59.424C344.845 59.424 343.448 58.0498 343.448 56.3542C343.448 54.6585 344.845 53.2843 346.569 53.2843C348.293 53.2843 349.69 54.6585 349.69 56.3542C349.69 58.0497 348.293 59.424 346.569 59.424ZM346.57 51.6558C343.931 51.6558 341.791 53.7604 341.791 56.3565C341.791 58.9525 343.931 61.0573 346.57 61.0573C349.21 61.0573 351.349 58.9525 351.349 56.3565C351.349 53.7604 349.21 51.6558 346.57 51.6558ZM335.916 51.7602C334.953 51.7602 334.02 52.07 333.247 52.6426L333.153 52.7122V46.297C333.153 46.0843 333.083 46.0149 332.87 46.0149H331.732C331.502 46.0149 331.449 46.0699 331.449 46.297V60.9317C331.449 61.1533 331.506 61.2139 331.732 61.2139H332.87C333.082 61.2139 333.153 61.1411 333.153 60.9317V56.1515C333.165 54.6468 334.399 53.4322 335.916 53.4322C337.438 53.4322 338.674 54.6527 338.68 56.1624V60.9317C338.68 61.1738 338.72 61.2138 338.962 61.2138H340.098C340.339 61.2138 340.381 61.1726 340.381 60.9317V56.1484C340.372 53.7355 338.36 51.7602 335.916 51.7602M320.051 58.5593L320.048 58.5634C319.886 58.8093 319.818 58.9128 319.78 58.9722C319.652 59.1627 319.668 59.2476 319.863 59.4128C320.32 59.7806 320.906 60.1667 321.301 60.3602C322.402 60.8984 323.591 61.1828 324.851 61.2085C325.664 61.2496 326.687 61.0561 327.448 60.7166C328.825 60.102 329.703 58.904 329.857 57.4285C330.106 55.0376 328.55 53.5429 324.543 52.3384L324.542 52.3381C322.675 51.736 321.798 50.9356 321.798 49.818C321.853 48.5828 322.998 47.66 324.543 47.6025C325.788 47.6056 326.888 47.9361 327.97 48.6319C328.198 48.7702 328.303 48.7447 328.456 48.5458C328.474 48.5164 328.523 48.4453 328.728 48.151L328.728 48.15C328.92 47.8751 328.983 47.7833 328.998 47.7562C329.127 47.5132 329.109 47.4195 328.876 47.2542C328.646 47.0897 327.999 46.7532 327.63 46.6055C326.601 46.1951 325.537 45.9958 324.479 46.0164C322.07 46.0687 320.192 47.6353 320.068 49.6904C319.989 51.1749 320.743 52.3685 322.317 53.251C322.758 53.484 324.372 54.0939 325.125 54.3144C327.266 54.9415 328.382 56.0951 328.152 57.4561C327.942 58.6927 326.647 59.5151 324.828 59.5714C323.51 59.544 322.182 59.0608 321.028 58.194C321.022 58.1898 320.993 58.168 320.939 58.1278C320.863 58.0713 320.863 58.0713 320.852 58.0629C320.617 57.9005 320.479 57.914 320.335 58.1279C320.318 58.1544 320.139 58.426 320.051 58.5593" fill="#EE4D2D"/>
</g>
<g filter="url(#filter2_b_1_1711)">
<rect x="471.143" width="203.571" height="100" rx="10" fill="white" fill-opacity="0.45"/>
</g>
<g clip-path="url(#clip1_1_1711)">
<path fill-rule="evenodd" clip-rule="evenodd" d="M533.227 46.9922L550.277 46.0488C550.845 46.0173 551.423 46.5251 551.311 47.0827C550.089 53.1394 550.305 59.1185 551.634 65.0374C551.759 65.5922 551.169 66.0714 550.6 66.0714H532.71C532.141 66.0714 531.738 65.403 531.896 64.8564C533.254 60.1227 533.609 54.8026 532.348 48.0004C532.244 47.4414 532.659 47.0237 533.227 46.9922Z" fill="#268ACB"/>
<path fill-rule="evenodd" clip-rule="evenodd" d="M537.376 49.4742C537.79 49.4742 538.126 49.8098 538.126 50.2238C538.126 50.6381 537.79 50.9736 537.376 50.9736C536.962 50.9736 536.626 50.6381 536.626 50.2238C536.626 49.8098 536.962 49.4742 537.376 49.4742ZM545.102 52.7892C545.099 52.3913 545.419 52.0658 545.817 52.0627C546.216 52.0596 546.541 52.3797 546.544 52.778L546.545 52.8036L546.544 52.8095H546.545V52.835H546.547C546.547 54.2128 545.989 55.4601 545.086 56.3631C544.183 57.2661 542.936 57.8245 541.558 57.8245C540.18 57.8245 538.933 57.2661 538.03 56.3631C537.127 55.4601 536.568 54.2128 536.568 52.835H536.571V52.81C536.571 52.4118 536.894 52.0889 537.292 52.0889C537.69 52.0889 538.013 52.4118 538.013 52.81V52.835H538.016C538.016 53.8131 538.412 54.6987 539.053 55.3395C539.694 55.9803 540.58 56.3769 541.558 56.3769C542.536 56.3769 543.422 55.9803 544.062 55.3395C544.703 54.6987 545.1 53.8131 545.1 52.835H545.102V52.8159L545.102 52.8151V52.7892ZM545.739 49.4742C546.154 49.4742 546.489 49.8098 546.489 50.2238C546.489 50.6381 546.154 50.9736 545.739 50.9736C545.325 50.9736 544.99 50.6381 544.99 50.2238C544.99 49.8098 545.325 49.4742 545.739 49.4742Z" fill="white"/>
<path fill-rule="evenodd" clip-rule="evenodd" d="M540.236 45.8484L539.46 39.3336L539.822 38.9587C539.838 38.993 539.855 39.0233 539.874 39.0492C540.132 38.9207 540.801 38.5433 541.265 38.2785C541.418 38.4416 541.636 38.5436 541.878 38.5436C542.133 38.5436 542.362 38.4292 542.517 38.249L544.134 38.5992L544.579 38.8811C544.579 38.8811 545.214 44.3031 545.38 45.7809L540.275 46.0634L540.236 45.8484ZM540.842 37.0428L540.287 36.1021C540.287 36.1021 540.527 35.9987 540.662 36.0568C540.798 36.115 540.959 36.199 541.043 36.1603C541.127 36.1215 541.431 35.8047 541.561 35.7595C541.69 35.7142 541.729 35.7142 541.729 35.7142C541.729 35.7142 542.129 35.8371 542.226 35.934C542.323 36.031 542.375 36.0762 542.472 36.0374C542.569 35.9987 542.847 35.7724 542.957 35.7595C543.066 35.7466 543.138 35.753 543.138 35.753L542.838 36.9014C542.709 36.9742 542.584 37.0453 542.472 37.1094C542.32 36.9573 542.11 36.8632 541.878 36.8632C541.634 36.8632 541.414 36.9672 541.26 37.1333L540.842 37.0428Z" fill="#8FC43F"/>
<path fill-rule="evenodd" clip-rule="evenodd" d="M539.603 36.7741C539.529 36.9374 539.572 38.6212 539.874 39.0492C540.133 38.9208 540.801 38.5433 541.266 38.2786C541.419 38.4416 541.637 38.5436 541.878 38.5436C542.134 38.5436 542.363 38.4292 542.517 38.2491L544.154 38.6032C544.228 38.4402 544.185 36.7564 543.882 36.3284C543.621 36.4585 542.938 36.8444 542.472 37.1094C542.32 36.9574 542.11 36.8632 541.878 36.8632C541.634 36.8632 541.415 36.9672 541.261 37.1333L539.603 36.7741Z" fill="#1EAC4B"/>
<path fill-rule="evenodd" clip-rule="evenodd" d="M543.663 40.7311L545.937 41.2409L546.014 41.258L545.937 41.2409L544.913 45.8068L542.003 45.9679L543.096 41.0905C543.153 40.8359 543.408 40.674 543.663 40.7311ZM548.827 41.8887L550.925 42.3592C551.18 42.4162 551.342 42.6714 551.285 42.9261L550.711 45.4859L547.801 45.6469L548.64 41.9028C548.703 41.8997 548.766 41.8949 548.827 41.8887Z" fill="#DF3286"/>
<path fill-rule="evenodd" clip-rule="evenodd" d="M545.936 41.2408L546.013 41.258C545.626 40.9702 544.631 40.3125 544.872 39.7636C545.172 39.0815 545.934 39.1445 546.376 39.566C546.817 39.9879 547.063 40.7099 547.09 41.1439C547.09 41.1439 547.374 41.055 547.587 41.1599C547.8 41.2647 547.839 41.2838 547.839 41.2838C547.839 41.2838 548.906 39.9216 549.626 40.1922C550.346 40.4626 550.548 41.0306 550.342 41.2776C550.15 41.5084 549.522 41.8594 548.639 41.9027L547.8 45.6468L544.912 45.8068L545.936 41.2408ZM546.537 40.9615C546.537 40.9615 546.299 40.0393 545.975 39.8797C545.651 39.72 545.451 39.7841 545.358 39.9727C545.265 40.1616 545.888 40.5941 546.537 40.9615ZM549.68 40.7538C549.68 40.7538 549.913 40.9404 549.825 41.0831C549.736 41.2262 548.934 41.3903 548.763 41.3962C548.592 41.4021 548.387 41.3915 548.387 41.3915C548.387 41.3915 548.881 40.9373 549.148 40.7861C549.414 40.6349 549.583 40.6821 549.68 40.7538Z" fill="#EF9720"/>
<path fill-rule="evenodd" clip-rule="evenodd" d="M532.683 43.4763L535.398 42.8212L535.489 42.7993L535.398 42.8212L536.234 46.2868L532.822 46.4757L532.264 44.1626C532.191 43.8586 532.379 43.55 532.683 43.4763ZM538.848 41.9884L541.354 41.3836C541.658 41.3103 541.967 41.4991 542.04 41.8029L543.031 45.9108L539.62 46.0996L538.655 42.1023C538.721 42.0652 538.786 42.0272 538.848 41.9884Z" fill="#EF9720"/>
<path fill-rule="evenodd" clip-rule="evenodd" d="M535.398 42.8212L535.49 42.7993C534.921 42.6942 533.503 42.5137 533.472 41.7959C533.433 40.9042 534.286 40.568 534.984 40.7878C535.682 41.0076 536.329 41.6537 536.587 42.1062C536.587 42.1062 536.846 41.8606 537.13 41.8606C537.415 41.8606 537.466 41.8606 537.466 41.8606C537.466 41.8606 537.893 39.8311 538.811 39.7409C539.728 39.6504 540.245 40.1543 540.155 40.5292C540.07 40.8792 539.581 41.5888 538.655 42.1023L539.62 46.0997L536.234 46.2869L535.398 42.8212ZM535.896 42.2032C535.896 42.2032 535.152 41.3373 534.719 41.3373C534.286 41.3373 534.105 41.5118 534.105 41.7636C534.105 42.0157 535.004 42.1515 535.896 42.2032ZM539.166 40.3159C539.166 40.3159 539.515 40.3935 539.496 40.5939C539.476 40.7943 538.701 41.3954 538.52 41.4924C538.339 41.5894 538.113 41.6863 538.113 41.6863C538.113 41.6863 538.403 40.9365 538.61 40.6327C538.817 40.3289 539.024 40.2901 539.166 40.3159Z" fill="#E41F29"/>
<path fill-rule="evenodd" clip-rule="evenodd" d="M561.639 45.9341C565.038 45.9341 567.792 48.689 567.792 52.0872C567.792 55.4853 565.038 58.2399 561.639 58.2399C558.241 58.2399 555.486 55.4853 555.486 52.0872V42.5475C556.294 41.6678 557.257 41.1262 558.375 41.0739C558.375 44.564 558.375 48.0541 558.375 51.5442C558.375 54.106 559.376 56.2684 561.351 56.2684C563.66 56.2684 565.019 54.3963 565.019 52.0872C565.019 49.7778 563.147 47.906 560.838 47.906C560.422 47.906 560.021 47.9667 559.642 48.0797C559.642 48.0797 560.168 46.7129 561.17 45.9518C561.325 45.9403 561.481 45.9341 561.639 45.9341ZM604.491 39.4393C605.111 39.4393 605.676 39.6768 606.099 40.0658L605.5 40.6644C605.231 40.4281 604.878 40.2847 604.491 40.2847C603.647 40.2847 602.962 40.9694 602.962 41.8142C602.962 42.659 603.647 43.3437 604.491 43.3437C604.878 43.3437 605.231 43.2003 605.5 42.9643L606.099 43.5626C605.676 43.9516 605.111 44.1891 604.491 44.1891C603.18 44.1891 602.117 43.1259 602.117 41.8142C602.117 40.5025 603.18 39.4393 604.491 39.4393ZM612.282 40.007C612.555 39.7091 612.875 39.5121 613.241 39.4551V40.2333C613.425 40.011 613.956 39.4581 614.669 39.4581C615.482 39.4581 615.968 39.8502 616.145 40.321C616.186 40.2636 616.782 39.4581 617.642 39.4581C618.879 39.4581 619.289 40.2732 619.289 41.3572V41.3583V43.4665C618.978 43.8054 618.607 44.014 618.176 44.0342V41.3131C618.176 41.3131 618.133 40.3955 617.37 40.3955C616.209 40.3955 616.374 41.3103 616.316 41.527V43.4665C616.005 43.8054 615.634 44.014 615.203 44.0342V41.3131C615.203 41.3131 615.16 40.3955 614.397 40.3955C613.635 40.3955 613.395 40.9188 613.395 41.3842V43.4665C613.084 43.8054 612.712 44.014 612.282 44.0342V40.007ZM609.197 39.4393C610.508 39.4393 611.572 40.5025 611.572 41.8142C611.572 43.1259 610.508 44.1891 609.197 44.1891C607.885 44.1891 606.822 43.1259 606.822 41.8142C606.822 40.5025 607.885 39.4393 609.197 39.4393ZM609.197 40.2847C610.041 40.2847 610.726 40.9694 610.726 41.8142C610.726 42.659 610.041 43.3437 609.197 43.3437C608.352 43.3437 607.667 42.659 607.667 41.8142C607.667 40.9694 608.352 40.2847 609.197 40.2847ZM585.32 45.9341C588.718 45.9341 591.473 48.689 591.473 52.0872C591.473 55.4853 588.718 58.2399 585.32 58.2399C581.922 58.2399 579.167 55.4853 579.167 52.0872V42.5475C579.975 41.6678 580.938 41.1262 582.056 41.0739C582.056 44.564 582.056 48.0541 582.056 51.5442C582.056 54.106 583.057 56.2684 585.032 56.2684C587.341 56.2684 588.7 54.3963 588.7 52.0872C588.7 49.7778 586.828 47.906 584.519 47.906C584.103 47.906 583.702 47.9667 583.323 48.0797C583.323 48.0797 583.849 46.7129 584.851 45.9518C585.006 45.9403 585.162 45.9341 585.32 45.9341ZM598.195 47.3818C599.002 46.5021 599.965 45.9608 601.083 45.9083C601.083 52.3199 601.083 50.355 601.083 56.7664C600.276 57.6461 599.313 58.1877 598.195 58.2399C598.195 51.8286 598.195 53.7934 598.195 47.3818ZM599.639 41.1644C600.439 41.1644 601.087 41.8125 601.087 42.6121C601.087 43.4117 600.439 44.0598 599.639 44.0598C598.84 44.0598 598.191 43.4117 598.191 42.6121C598.191 41.8125 598.84 41.1644 599.639 41.1644ZM593.386 39.0057C594.194 38.126 595.157 37.5844 596.275 37.5321C596.275 43.9434 596.275 50.355 596.275 56.7664C595.467 57.6461 594.504 58.1877 593.386 58.2399C593.386 51.8286 593.386 45.4173 593.386 39.0057ZM574.514 47.3818C575.321 46.5021 576.285 45.9608 577.402 45.9083C577.402 52.3199 577.402 50.355 577.402 56.7664C576.595 57.6461 575.631 58.1877 574.514 58.2399C574.514 51.8286 574.514 53.7934 574.514 47.3818ZM575.958 41.1644C576.758 41.1644 577.406 41.8125 577.406 42.6121C577.406 43.4117 576.758 44.0598 575.958 44.0598C575.158 44.0598 574.51 43.4117 574.51 42.6121C574.51 41.8125 575.158 41.1644 575.958 41.1644ZM569.705 39.0057C570.513 38.126 571.476 37.5844 572.594 37.5321C572.594 43.9434 572.594 50.355 572.594 56.7664C571.786 57.6461 570.823 58.1877 569.705 58.2399C569.705 51.8286 569.705 45.4173 569.705 39.0057Z" fill="#268ACB"/>
<path fill-rule="evenodd" clip-rule="evenodd" d="M555.486 65.9216H556.979C557.998 65.9216 558.423 65.4689 558.423 64.8115C558.423 64.375 558.159 64.0408 557.701 63.9385C558.051 63.8306 558.235 63.5237 558.235 63.1788C558.235 62.5645 557.798 62.1494 556.893 62.1494H555.486V65.9216ZM557.561 64.7845C557.561 65.1077 557.351 65.2696 556.909 65.2696H556.332V64.2997H556.909C557.351 64.2997 557.561 64.4666 557.561 64.7845ZM557.421 63.2272C557.421 63.5127 557.222 63.669 556.839 63.669H556.332V62.8014H556.839C557.222 62.8014 557.421 62.931 557.421 63.2272ZM559.072 62.1494V65.9216H559.935V62.1494H559.072ZM560.605 64.0355C560.605 65.221 561.392 65.9863 562.497 65.9863C563.17 65.9863 563.709 65.7274 564.049 65.2966V63.8416H562.47V64.4613H563.23V64.9784C563.089 65.167 562.814 65.2696 562.507 65.2696C561.936 65.2696 561.473 64.8438 561.473 64.0355C561.473 63.2272 561.925 62.8014 562.448 62.8014C562.852 62.8014 563.133 62.9793 563.321 63.3025L564.038 62.9523C563.709 62.3919 563.149 62.0847 562.416 62.0847C561.354 62.0847 560.605 62.8554 560.605 64.0355ZM593.428 65.9216H594.921C595.939 65.9216 596.365 65.4689 596.365 64.8115C596.365 64.375 596.101 64.0408 595.643 63.9385C595.993 63.8306 596.177 63.5237 596.177 63.1788C596.177 62.5645 595.74 62.1494 594.835 62.1494H593.428V65.9216ZM595.503 64.7845C595.503 65.1077 595.293 65.2696 594.851 65.2696H594.274V64.2997H594.851C595.293 64.2997 595.503 64.4666 595.503 64.7845ZM595.363 63.2272C595.363 63.5127 595.163 63.669 594.781 63.669H594.274V62.8014H594.781C595.163 62.8014 595.363 62.931 595.363 63.2272ZM597.014 62.1494V65.9216H597.876V62.1494H597.014ZM598.547 64.0355C598.547 65.221 599.334 65.9863 600.438 65.9863C601.112 65.9863 601.651 65.7274 601.99 65.2966V63.8416H600.411V64.4613H601.171V64.9784C601.031 65.167 600.757 65.2696 600.449 65.2696C599.878 65.2696 599.415 64.8438 599.415 64.0355C599.415 63.2272 599.867 62.8014 600.39 62.8014C600.794 62.8014 601.074 62.9793 601.263 63.3025L601.98 62.9523C601.651 62.3919 601.09 62.0847 600.358 62.0847C599.296 62.0847 598.547 62.8554 598.547 64.0355ZM566.233 64.0355C566.233 65.1833 566.918 65.9863 567.99 65.9863C568.675 65.9863 569.186 65.6628 569.461 65.221L569.073 64.9784C568.788 65.3772 568.453 65.5551 568.006 65.5551C567.274 65.5551 566.719 65.0217 566.719 64.0355C566.719 63.0493 567.274 62.5158 568.006 62.5158C568.453 62.5158 568.788 62.6938 569.073 63.0926L569.461 62.85C569.186 62.4082 568.675 62.0847 567.99 62.0847C566.918 62.0847 566.233 62.8877 566.233 64.0355ZM570.137 65.9216H570.612V64.1271H572.584V65.9216H573.058V62.1494H572.584V63.7069H570.612V62.1494H570.137V65.9216ZM577.129 64.0355C577.129 62.9416 576.515 62.0847 575.448 62.0847C574.375 62.0847 573.761 62.9416 573.761 64.0355C573.761 65.1293 574.375 65.9863 575.448 65.9863C576.515 65.9863 577.129 65.1293 577.129 64.0355ZM574.246 64.0355C574.246 63.1032 574.715 62.5158 575.448 62.5158C576.175 62.5158 576.644 63.1032 576.644 64.0355C576.644 64.9677 576.175 65.5551 575.448 65.5551C574.715 65.5551 574.246 64.9677 574.246 64.0355ZM577.859 62.1494V65.9216H578.333V62.1494H577.859ZM579.063 64.0355C579.063 65.1833 579.747 65.9863 580.82 65.9863C581.504 65.9863 582.016 65.6628 582.291 65.221L581.903 64.9784C581.617 65.3772 581.283 65.5551 580.836 65.5551C580.103 65.5551 579.548 65.0217 579.548 64.0355C579.548 63.0493 580.103 62.5158 580.836 62.5158C581.283 62.5158 581.617 62.6938 581.903 63.0926L582.291 62.85C582.016 62.4082 581.504 62.0847 580.82 62.0847C579.747 62.0847 579.063 62.8877 579.063 64.0355ZM582.967 65.9216H585.365V65.5012H583.441V64.1864H585.128V63.766H583.441V62.5698H585.316V62.1494H582.967V65.9216ZM587.323 65.5551C586.881 65.5551 586.499 65.3935 586.159 65.0324L585.799 65.3342C586.203 65.7654 586.709 65.9863 587.318 65.9863C588.126 65.9863 588.606 65.5498 588.606 64.9301C588.606 64.2617 588.191 63.9762 587.259 63.7283C586.693 63.5774 586.456 63.3295 586.456 63.0549C586.456 62.7368 586.687 62.5158 587.167 62.5158C587.528 62.5158 587.835 62.6721 588.115 62.9523L588.46 62.6668C588.126 62.2949 587.663 62.0847 587.156 62.0847C586.413 62.0847 585.971 62.4889 585.971 63.0549C585.971 63.5074 586.224 63.9169 587.129 64.1488C587.841 64.332 588.121 64.515 588.121 64.9571C588.121 65.2966 587.814 65.5551 587.323 65.5551ZM604.364 65.9216H605.593C606.729 65.9216 607.382 65.2156 607.382 64.0355C607.382 62.8607 606.729 62.1494 605.593 62.1494H604.364V65.9216ZM604.838 65.5012V62.5698H605.555C606.406 62.5698 606.897 63.1032 606.897 64.0355C606.897 64.9731 606.406 65.5012 605.555 65.5012H604.838ZM608.085 65.9216H610.483V65.5012H608.559V64.1864H610.245V63.766H608.559V62.5698H610.434V62.1494H608.085V65.9216ZM612.29 62.1494L610.835 65.9216H611.358L611.714 64.9461H613.384L613.74 65.9216H614.262L612.807 62.1494H612.29ZM612.549 62.6451L613.233 64.5259H611.865L612.549 62.6451ZM614.831 65.9216H617.175V65.5012H615.305V62.1494H614.831V65.9216ZM619.026 65.5551C618.584 65.5551 618.201 65.3935 617.862 65.0324L617.501 65.3342C617.905 65.7654 618.411 65.9863 619.02 65.9863C619.829 65.9863 620.308 65.5498 620.308 64.9301C620.308 64.2617 619.893 63.9765 618.961 63.7283C618.395 63.5777 618.158 63.3295 618.158 63.0549C618.158 62.7368 618.39 62.5158 618.869 62.5158C619.23 62.5158 619.538 62.6721 619.818 62.9523L620.163 62.6668C619.829 62.2949 619.365 62.0847 618.859 62.0847C618.115 62.0847 617.673 62.4889 617.673 63.0549C617.673 63.5074 617.927 63.9163 618.832 64.1488C619.543 64.3312 619.823 64.515 619.823 64.9571C619.823 65.2966 619.516 65.5551 619.026 65.5551Z" fill="#268ACB"/>
</g>
<g filter="url(#filter3_b_1_1711)">
<rect x="706.714" width="203.571" height="100" rx="10" fill="white" fill-opacity="0.45"/>
</g>
<g clip-path="url(#clip2_1_1711)">
<path d="M795.974 39.9619H798.941V52.5868H804.057V55.0789H795.986L795.974 39.9619Z" fill="#000083"/>
<path d="M810.929 43.7493C812.502 43.7318 813.992 44.3657 814.959 45.4619V43.9744H817.727V55.1009H814.959V53.6134C813.992 54.7096 812.502 55.3434 810.929 55.326C807.477 55.326 804.857 52.7187 804.857 49.5348C804.857 46.3513 807.477 43.7493 810.929 43.7493ZM811.432 45.978C809.191 45.978 807.707 47.5369 807.707 49.5348C807.707 51.533 809.215 53.0973 811.432 53.0973C813.649 53.0973 815.157 51.5384 815.157 49.5348C815.157 47.5312 813.673 45.978 811.432 45.978Z" fill="#000083"/>
<path d="M819.883 53.1686L826.482 46.1975H819.982V43.9744H830.058V45.9341L823.484 52.8777H830.207V55.1008H819.883V53.1686Z" fill="#000083"/>
<path d="M837.248 43.7493C838.819 43.7318 840.31 44.3657 841.277 45.4619V43.9744H844.046V55.1009H841.277V53.6134C840.31 54.7096 838.819 55.3434 837.248 55.326C833.796 55.326 831.182 52.7187 831.182 49.5348C831.182 46.3513 833.796 43.7493 837.248 43.7493ZM837.75 45.978C835.509 45.978 834.025 47.5369 834.025 49.5348C834.025 51.533 835.534 53.0973 837.75 53.0973C839.967 53.0973 841.475 51.5384 841.475 49.5348C841.475 47.5312 839.992 45.978 837.75 45.978Z" fill="#000083"/>
<path d="M851.955 43.7492C853.526 43.7309 855.015 44.365 855.979 45.4618V39.0671H858.747V55.1008H855.979V53.6133C855.015 54.7101 853.526 55.3439 851.955 55.3259C848.504 55.3259 845.884 52.7186 845.884 49.5347C845.884 46.3512 848.504 43.7492 851.955 43.7492ZM852.458 45.9779C850.217 45.9779 848.733 47.5368 848.733 49.5347C848.733 51.533 850.248 53.0972 852.458 53.0972C854.669 53.0972 856.183 51.5383 856.183 49.5347C856.183 47.5312 854.7 45.9779 852.458 45.9779Z" fill="#000083"/>
<path d="M866.657 43.7492C868.228 43.7309 869.718 44.365 870.681 45.4618V43.9743H873.443V55.1008H870.668V53.6133C869.705 54.7101 868.215 55.3439 866.645 55.3259C863.193 55.3259 860.573 52.7186 860.573 49.5347C860.573 46.3512 863.206 43.7492 866.657 43.7492ZM867.161 45.9779C864.919 45.9779 863.435 47.5368 863.435 49.5347C863.435 51.533 864.95 53.0972 867.161 53.0972C869.37 53.0972 870.886 51.5383 870.886 49.5347C870.886 47.5312 869.402 45.9779 867.161 45.9779Z" fill="#000083"/>
<path d="M763.58 66.0693C763.28 66.0712 762.984 66.0032 762.723 65.8722C760.486 64.7282 743.92 55.5449 743.295 55.2647C742.819 55.0682 742.494 54.6657 742.438 54.2038V41.3231C742.426 40.8422 742.694 40.3897 743.149 40.126L743.269 40.0653C744.872 39.1863 750.237 36.292 751.085 35.8752C751.28 35.7731 751.501 35.7183 751.728 35.7161C751.94 35.7183 752.148 35.765 752.336 35.8524C752.336 35.8524 759.843 40.1788 760.992 40.5653C761.797 40.8925 762.676 41.0558 763.563 41.0426C764.567 41.0612 765.56 40.847 766.442 40.4214C767.565 39.8986 774.738 35.8752 774.815 35.8752C774.996 35.7787 775.203 35.7287 775.415 35.7312C775.642 35.7324 775.863 35.7872 776.058 35.8903C777.034 36.3679 783.685 39.9666 783.968 40.126C784.435 40.3753 784.719 40.8251 784.713 41.308V54.1887C784.661 54.6516 784.334 55.0553 783.856 55.2495C783.231 55.5525 766.716 64.7358 764.437 65.8571C764.177 65.9934 763.882 66.0665 763.58 66.0693Z" fill="url(#paint0_linear_1_1711)"/>
<path d="M763.494 66.0693H763.58C763.88 66.0712 764.175 66.0032 764.437 65.8722C766.673 64.7282 783.231 55.5449 783.856 55.2646C784.334 55.0707 784.661 54.6668 784.713 54.2038V41.3231C784.716 41.105 784.66 40.8894 784.55 40.6943L763.494 50.9154V66.0693Z" fill="url(#paint1_linear_1_1711)"/>
<path d="M763.421 65.8878H763.336C763.039 65.8897 762.747 65.8223 762.488 65.693C760.275 64.5608 743.895 55.4755 743.276 55.1981C742.803 55.0061 742.48 54.6067 742.428 54.1485V41.405C742.425 41.1894 742.481 40.9761 742.589 40.783L763.421 50.8953V65.8878Z" fill="url(#paint2_linear_1_1711)"/>
</g>
<defs>
<filter id="filter0_b_1_1711" x="-4" y="-4" width="211.571" height="108" filterUnits="userSpaceOnUse" color-interpolation-filters="sRGB">
<feFlood flood-opacity="0" result="BackgroundImageFix"/>
<feGaussianBlur in="BackgroundImageFix" stdDeviation="2"/>
<feComposite in2="SourceAlpha" operator="in" result="effect1_backgroundBlur_1_1711"/>
<feBlend mode="normal" in="SourceGraphic" in2="effect1_backgroundBlur_1_1711" result="shape"/>
</filter>
<filter id="filter1_b_1_1711" x="231.571" y="-4" width="211.571" height="108" filterUnits="userSpaceOnUse" color-interpolation-filters="sRGB">
<feFlood flood-opacity="0" result="BackgroundImageFix"/>
<feGaussianBlur in="BackgroundImageFix" stdDeviation="2"/>
<feComposite in2="SourceAlpha" operator="in" result="effect1_backgroundBlur_1_1711"/>
<feBlend mode="normal" in="SourceGraphic" in2="effect1_backgroundBlur_1_1711" result="shape"/>
</filter>
<filter id="filter2_b_1_1711" x="467.143" y="-4" width="211.571" height="108" filterUnits="userSpaceOnUse" color-interpolation-filters="sRGB">
<feFlood flood-opacity="0" result="BackgroundImageFix"/>
<feGaussianBlur in="BackgroundImageFix" stdDeviation="2"/>
<feComposite in2="SourceAlpha" operator="in" result="effect1_backgroundBlur_1_1711"/>
<feBlend mode="normal" in="SourceGraphic" in2="effect1_backgroundBlur_1_1711" result="shape"/>
</filter>
<filter id="filter3_b_1_1711" x="702.714" y="-4" width="211.571" height="108" filterUnits="userSpaceOnUse" color-interpolation-filters="sRGB">
<feFlood flood-opacity="0" result="BackgroundImageFix"/>
<feGaussianBlur in="BackgroundImageFix" stdDeviation="2"/>
<feComposite in2="SourceAlpha" operator="in" result="effect1_backgroundBlur_1_1711"/>
<feBlend mode="normal" in="SourceGraphic" in2="effect1_backgroundBlur_1_1711" result="shape"/>
</filter>
<linearGradient id="paint0_linear_1_1711" x1="742.44" y1="51.0374" x2="784.477" y2="50.6692" gradientUnits="userSpaceOnUse">
<stop stop-color="#FFB800"/>
<stop offset="0.329412" stop-color="#F28000"/>
<stop offset="0.560784" stop-color="#F73B72"/>
<stop offset="0.780392" stop-color="#FB1CBD"/>
<stop offset="0.929412" stop-color="#FD08ED"/>
<stop offset="1" stop-color="#FF00FF"/>
</linearGradient>
<linearGradient id="paint1_linear_1_1711" x1="754.267" y1="63.0928" x2="794.523" y2="37.8825" gradientUnits="userSpaceOnUse">
<stop stop-color="#ED0A3F"/>
<stop offset="1" stop-color="#ED0A3F"/>
</linearGradient>
<linearGradient id="paint2_linear_1_1711" x1="759.727" y1="46.1112" x2="737.215" y2="55.4835" gradientUnits="userSpaceOnUse">
<stop stop-color="#ED5B00"/>
<stop offset="0.0862745" stop-color="#F37D00"/>
<stop offset="0.14902" stop-color="#EF6200"/>
<stop offset="0.501961" stop-color="#FB8A00"/>
<stop offset="1" stop-color="#F9A000"/>
</linearGradient>
<clipPath id="clip0_1_1711">
<rect width="94.9548" height="30.3571" fill="white" transform="translate(289.143 35.7142)"/>
</clipPath>
<clipPath id="clip1_1_1711">
<rect width="88.4573" height="30.3571" fill="white" transform="translate(531.856 35.7142)"/>
</clipPath>
<clipPath id="clip2_1_1711">
<rect width="131.015" height="30.3571" fill="white" transform="translate(742.428 35.7142)"/>
</clipPath>
</defs>
</svg>
