<svg width="143" height="55" viewBox="0 0 143 55" fill="none" xmlns="http://www.w3.org/2000/svg">
<path d="M64.7085 12.1255C65.445 12.1255 66.1771 12.1227 66.9045 12.1168C67.6323 12.1108 68.2997 12.1036 68.9066 12.0947C69.5133 12.0858 70.0319 12.0726 70.4619 12.0549C70.892 12.0373 71.1838 12.0137 71.3371 11.9841L70.9039 13.1597C70.7094 13.1066 70.4826 13.0594 70.2232 13.0182C69.9996 12.9829 69.7268 12.949 69.4059 12.9166C69.0847 12.8842 68.715 12.868 68.2965 12.868C68.1553 12.868 67.9858 12.8724 67.7885 12.8813C67.5912 12.8902 67.4009 12.9004 67.2184 12.9123C67.0063 12.924 66.7914 12.9357 66.5731 12.9476V17.7731C67.1801 17.7673 67.7281 17.7495 68.2172 17.7201C68.7062 17.6906 69.1215 17.6612 69.4634 17.6317C69.864 17.5964 70.2176 17.5551 70.524 17.508L70.2499 18.7895C69.8433 18.7365 69.428 18.6864 69.0036 18.6392C68.6384 18.5979 68.2407 18.5611 67.8106 18.5288C67.3805 18.4963 66.968 18.4801 66.5731 18.4801V24.0216C67.2685 24.0216 67.9079 23.9921 68.491 23.9332C69.0745 23.8743 69.5842 23.8065 70.02 23.73C70.5269 23.6475 70.9893 23.5503 71.4077 23.4383L71.1514 24.8701C71.0806 24.8641 70.9745 24.8584 70.8333 24.8524C70.6919 24.8465 70.5342 24.8407 70.3605 24.8348C70.1867 24.8288 70.0038 24.8244 69.8124 24.8214C69.6208 24.8186 69.4396 24.8156 69.2687 24.8127C69.098 24.8097 68.9463 24.8067 68.8136 24.8038C68.6813 24.8008 68.5854 24.7995 68.5265 24.7995H64.7085V24.764C64.7437 24.6403 64.7777 24.4872 64.81 24.3044C64.8426 24.1218 64.8704 23.8949 64.8939 23.6239C64.9174 23.3529 64.9353 23.0303 64.9472 22.6562C64.9588 22.282 64.9648 21.8445 64.9648 21.3437V15.59C64.9648 15.0894 64.9588 14.6519 64.9472 14.2777C64.9353 13.9036 64.9174 13.5794 64.8939 13.3055C64.8704 13.0315 64.8426 12.8032 64.81 12.6206C64.7777 12.4378 64.7437 12.2847 64.7085 12.161V12.1255Z" fill="#FFF3E5"/>
<path d="M78.8667 14.1469H78.6722C78.6251 14.0115 78.55 13.8582 78.4468 13.6873C78.3439 13.5166 78.2081 13.3559 78.0402 13.2057C77.8724 13.0555 77.6691 12.9302 77.4304 12.8301C77.1917 12.73 76.9105 12.6798 76.5864 12.6798C76.2978 12.6798 76.0415 12.724 75.8176 12.8125C75.5936 12.9007 75.4065 13.0244 75.2562 13.1836C75.106 13.3427 74.9926 13.5312 74.916 13.7491C74.8395 13.9672 74.8012 14.2088 74.8012 14.474C74.8012 14.8982 74.9205 15.3033 75.159 15.6892C75.3977 16.0751 75.6968 16.4566 76.056 16.8338C76.4155 17.2109 76.8044 17.5878 77.2229 17.9649C77.6411 18.3421 78.03 18.7339 78.3895 19.1405C78.7487 19.547 79.0478 19.9728 79.2865 20.4176C79.5252 20.8625 79.6443 21.3412 79.6443 21.8538C79.6443 22.2367 79.578 22.6212 79.4456 23.0071C79.3129 23.3931 79.1082 23.7392 78.8312 24.0456C78.5545 24.3519 78.1979 24.6009 77.7618 24.7924C77.3258 24.9839 76.8073 25.0796 76.2065 25.0796C75.8706 25.0796 75.5511 25.0487 75.2474 24.9869C74.9441 24.925 74.664 24.8483 74.408 24.7571C74.1517 24.6657 73.9218 24.567 73.7185 24.461C73.5152 24.3549 73.3488 24.2577 73.2192 24.1693L73.4225 22.2161H73.6434C73.708 22.493 73.8143 22.7567 73.9614 23.0071C74.1089 23.2575 74.29 23.4786 74.5052 23.6699C74.7201 23.8615 74.9662 24.0147 75.2429 24.1295C75.5199 24.2445 75.8232 24.3019 76.1532 24.3019C76.4537 24.3019 76.7234 24.2562 76.9621 24.1648C77.2008 24.0736 77.4055 23.9469 77.5764 23.7849C77.7471 23.6229 77.8781 23.4299 77.9696 23.2061C78.0609 22.982 78.1066 22.7375 78.1066 22.4724C78.1066 22.1012 78.0388 21.7579 77.9033 21.4428C77.7678 21.1276 77.5895 20.8285 77.3686 20.5458C77.1478 20.263 76.8974 19.989 76.6173 19.7239C76.3375 19.4586 76.0503 19.192 75.7558 18.9239C75.4612 18.6558 75.174 18.3803 74.8939 18.0976C74.6141 17.8148 74.3637 17.5128 74.1426 17.1917C73.9218 16.8705 73.7437 16.5259 73.6079 16.1575C73.4724 15.7893 73.4046 15.3843 73.4046 14.9424C73.4046 14.4768 73.4945 14.0571 73.6743 13.683C73.854 13.3089 74.0927 12.9891 74.3901 12.724C74.6878 12.4589 75.0252 12.2555 75.4022 12.1141C75.7793 11.9728 76.1683 11.9022 76.5686 11.9022C76.8634 11.9022 77.1344 11.9256 77.3819 11.9728C77.6292 12.02 77.8517 12.0759 78.049 12.1407C78.2466 12.2055 78.4187 12.2704 78.5661 12.3352C78.7136 12.4 78.8343 12.453 78.9285 12.4942L78.8667 14.1469Z" fill="#FFF3E5"/>
<path d="M85.1511 12.9083C84.4556 12.9083 83.8282 12.9391 83.2686 13.001C82.709 13.063 82.2256 13.1292 81.819 13.1999C81.3478 13.2884 80.9263 13.3855 80.5552 13.4916L80.8115 12.0598C80.8823 12.0658 80.9884 12.0715 81.1298 12.0775C81.2713 12.0834 81.4286 12.0892 81.6027 12.0951C81.7762 12.1011 81.9591 12.1055 82.1505 12.1085C82.3421 12.1113 82.5233 12.1143 82.6939 12.1172C82.8649 12.1202 83.0168 12.1232 83.1492 12.1261C83.2819 12.1291 83.3775 12.1304 83.4364 12.1304H88.4831C88.5418 12.1304 88.6376 12.1291 88.7703 12.1261C88.9027 12.1232 89.0547 12.1202 89.2253 12.1172C89.3963 12.1143 89.5774 12.1113 89.7688 12.1085C89.9605 12.1055 90.143 12.1011 90.3168 12.0951C90.4906 12.0892 90.6482 12.0834 90.7897 12.0775C90.9312 12.0715 91.0372 12.0658 91.1081 12.0598L91.3641 13.4916C90.9873 13.3855 90.5629 13.2884 90.0917 13.1999C89.6849 13.1292 89.2018 13.063 88.6422 13.001C88.0825 12.9391 87.4548 12.9083 86.7597 12.9083V21.3486C86.7597 21.8494 86.7671 22.287 86.7818 22.6611C86.7965 23.0352 86.8141 23.3578 86.8348 23.6288C86.8555 23.8999 86.8819 24.1267 86.9142 24.3093C86.9465 24.4921 86.9805 24.6452 87.016 24.7689V24.8044H84.9036V24.7689C84.939 24.6452 84.9713 24.4921 85.0008 24.3093C85.0303 24.1267 85.0567 23.8999 85.0802 23.6288C85.104 23.3578 85.1216 23.0352 85.1335 22.6611C85.1451 22.287 85.1511 21.8494 85.1511 21.3486V12.9083Z" fill="#FFF3E5"/>
<path d="M92.6284 12.1336C93.365 12.1336 94.0973 12.1308 94.8247 12.1249C95.5525 12.1189 96.2196 12.1117 96.8266 12.1028C97.4335 12.0939 97.9521 12.0807 98.3821 12.063C98.8122 12.0454 99.104 12.0218 99.257 11.9922L98.8241 13.1678C98.6297 13.1147 98.4029 13.0675 98.1434 13.0263C97.9195 12.991 97.647 12.9572 97.3258 12.9247C97.0049 12.8923 96.6352 12.8762 96.2167 12.8762C96.0753 12.8762 95.906 12.8804 95.7087 12.8894C95.5111 12.8983 95.3212 12.9085 95.1386 12.9204C94.9265 12.9321 94.7113 12.9438 94.4933 12.9557V17.7812C95.1003 17.7754 95.6483 17.7576 96.1371 17.7282C96.6264 17.6987 97.0417 17.6694 97.3834 17.6398C97.784 17.6045 98.1375 17.5633 98.444 17.5161L98.1698 18.7976C97.7635 18.7446 97.3479 18.6945 96.9238 18.6473C96.5586 18.6061 96.1609 18.5693 95.7308 18.5369C95.3007 18.5044 94.888 18.4883 94.4933 18.4883V24.0298C95.1885 24.0298 95.8278 24.0002 96.4112 23.9413C96.9944 23.8824 97.5041 23.8146 97.9402 23.7381C98.4468 23.6556 98.9095 23.5584 99.3276 23.4464L99.0714 24.8782C99.0008 24.8723 98.8947 24.8665 98.7533 24.8605C98.6118 24.8546 98.4544 24.8488 98.2804 24.8429C98.1066 24.837 97.924 24.8325 97.7324 24.8295C97.541 24.8267 97.3598 24.8237 97.1892 24.8208C97.0182 24.8178 96.8662 24.8148 96.7339 24.8119C96.6012 24.8089 96.5056 24.8076 96.4464 24.8076H92.6284V24.7721C92.6639 24.6484 92.6976 24.4953 92.7302 24.3125C92.7625 24.1299 92.7906 23.9031 92.8141 23.632C92.8376 23.361 92.8552 23.0385 92.8671 22.6643C92.8787 22.2901 92.8847 21.8526 92.8847 21.3518V15.5982C92.8847 15.0975 92.8787 14.66 92.8671 14.2858C92.8552 13.9117 92.8376 13.5875 92.8141 13.3137C92.7906 13.0397 92.7625 12.8113 92.7302 12.6287C92.6976 12.4459 92.6639 12.2928 92.6284 12.1691V12.1336Z" fill="#FFF3E5"/>
<path d="M104.832 12.9083C104.137 12.9083 103.51 12.9391 102.95 13.001C102.39 13.063 101.907 13.1292 101.5 13.1999C101.029 13.2884 100.608 13.3855 100.237 13.4916L100.493 12.0598C100.564 12.0658 100.67 12.0715 100.811 12.0775C100.952 12.0834 101.11 12.0892 101.284 12.0951C101.458 12.1011 101.64 12.1055 101.832 12.1085C102.023 12.1113 102.205 12.1143 102.376 12.1172C102.546 12.1202 102.698 12.1232 102.831 12.1261C102.963 12.1291 103.059 12.1304 103.118 12.1304H108.164C108.223 12.1304 108.319 12.1291 108.452 12.1261C108.584 12.1232 108.736 12.1202 108.907 12.1172C109.078 12.1143 109.259 12.1113 109.45 12.1085C109.642 12.1055 109.824 12.1011 109.998 12.0951C110.172 12.0892 110.33 12.0834 110.471 12.0775C110.613 12.0715 110.719 12.0658 110.789 12.0598L111.046 13.4916C110.668 13.3855 110.244 13.2884 109.773 13.1999C109.367 13.1292 108.883 13.063 108.324 13.001C107.764 12.9391 107.136 12.9083 106.441 12.9083V21.3486C106.441 21.8494 106.448 22.287 106.463 22.6611C106.478 23.0352 106.495 23.3578 106.516 23.6288C106.537 23.8999 106.563 24.1267 106.596 24.3093C106.628 24.4921 106.662 24.6452 106.697 24.7689V24.8044H104.585V24.7689C104.62 24.6452 104.653 24.4921 104.682 24.3093C104.712 24.1267 104.738 23.8999 104.762 23.6288C104.785 23.3578 104.803 23.0352 104.815 22.6611C104.826 22.287 104.832 21.8494 104.832 21.3486V12.9083Z" fill="#FFF3E5"/>
<path d="M112.391 24.7703C112.426 24.6466 112.458 24.4935 112.488 24.3107C112.517 24.1281 112.544 23.9012 112.567 23.6302C112.591 23.3592 112.609 23.0366 112.621 22.6625C112.632 22.2883 112.638 21.8508 112.638 21.35V15.5964C112.638 15.0957 112.632 14.6582 112.621 14.284C112.609 13.9099 112.591 13.5857 112.567 13.3118C112.544 13.0378 112.517 12.8095 112.488 12.6269C112.458 12.4441 112.426 12.291 112.391 12.1673V12.1318H114.503V12.1673C114.468 12.291 114.434 12.4441 114.401 12.6269C114.369 12.8095 114.342 13.0378 114.322 13.3118C114.301 13.5857 114.284 13.9099 114.269 14.284C114.254 14.6582 114.246 15.0957 114.246 15.5964V21.35C114.246 21.8508 114.254 22.2883 114.269 22.6625C114.284 23.0366 114.301 23.3592 114.322 23.6302C114.342 23.9012 114.369 24.1281 114.401 24.3107C114.434 24.4935 114.468 24.6466 114.503 24.7703V24.8058H112.391V24.7703Z" fill="#FFF3E5"/>
<path d="M127.361 14.0767L127.282 14.112C126.822 13.6877 126.27 13.349 125.625 13.0956C124.979 12.8422 124.271 12.7155 123.499 12.7155C122.756 12.7155 122.076 12.832 121.457 13.0648C120.839 13.2974 120.307 13.6348 119.862 14.0767C119.417 14.5185 119.071 15.0606 118.824 15.7028C118.576 16.345 118.453 17.0757 118.453 17.8948C118.453 18.7962 118.57 19.6373 118.806 20.418C119.042 21.1986 119.392 21.8748 119.858 22.4463C120.323 23.0179 120.905 23.4671 121.603 23.7941C122.301 24.1212 123.116 24.2847 124.047 24.2847C124.383 24.2847 124.719 24.2492 125.055 24.1786C125.39 24.1078 125.713 24.0032 126.022 23.8648C126.332 23.7264 126.623 23.5585 126.897 23.361C127.171 23.1637 127.42 22.9384 127.644 22.685L127.741 22.7468L127.034 24.5498C126.592 24.7207 126.105 24.8517 125.571 24.9431C125.038 25.0345 124.501 25.08 123.959 25.08C122.869 25.08 121.871 24.9225 120.967 24.6072C120.063 24.2919 119.285 23.8457 118.634 23.2683C117.983 22.6909 117.476 21.997 117.114 21.1869C116.751 20.3767 116.57 19.4767 116.57 18.4868C116.57 17.9271 116.642 17.3763 116.786 16.8342C116.931 16.2921 117.142 15.7765 117.418 15.2874C117.695 14.7985 118.037 14.3492 118.444 13.9396C118.85 13.5302 119.314 13.1751 119.836 12.8747C120.357 12.5742 120.932 12.3399 121.559 12.1721C122.187 12.0042 122.866 11.9202 123.596 11.9202C124.733 11.9202 125.788 12.0939 126.76 12.4417L127.361 14.0767Z" fill="#FFF3E5"/>
<path d="M135.138 11.9202C136.122 11.9202 137.031 12.0807 137.865 12.4018C138.698 12.723 139.419 13.1737 140.026 13.754C140.632 14.3344 141.107 15.0312 141.448 15.8443C141.79 16.6573 141.961 17.5559 141.961 18.54C141.961 19.0997 141.896 19.6505 141.767 20.1926C141.637 20.7347 141.447 21.2473 141.196 21.7305C140.946 22.2136 140.638 22.6599 140.273 23.0694C139.908 23.479 139.491 23.8323 139.022 24.1299C138.554 24.4275 138.037 24.6603 137.471 24.8281C136.906 24.996 136.296 25.08 135.642 25.08C134.658 25.08 133.749 24.9225 132.915 24.6072C132.082 24.2919 131.361 23.8457 130.754 23.2683C130.147 22.6909 129.673 21.997 129.331 21.1869C128.99 20.3767 128.819 19.4767 128.819 18.4868C128.819 17.9271 128.884 17.3763 129.013 16.8342C129.143 16.2921 129.333 15.7765 129.583 15.2874C129.834 14.7985 130.14 14.3492 130.503 13.9396C130.865 13.5302 131.28 13.1751 131.749 12.8747C132.217 12.5742 132.735 12.3399 133.304 12.1721C133.873 12.0042 134.484 11.9202 135.138 11.9202ZM135.642 24.2847C136.296 24.2847 136.894 24.1667 137.436 23.9311C137.978 23.6954 138.445 23.3538 138.837 22.9059C139.229 22.4581 139.533 21.9116 139.752 21.2664C139.969 20.6212 140.079 19.8892 140.079 19.0702C140.079 18.1628 139.974 17.3217 139.765 16.5469C139.555 15.7721 139.245 15.1003 138.832 14.5318C138.42 13.9632 137.906 13.5185 137.29 13.1972C136.674 12.8762 135.957 12.7155 135.138 12.7155C134.484 12.7155 133.886 12.832 133.344 13.0648C132.802 13.2974 132.335 13.6348 131.943 14.0767C131.551 14.5185 131.246 15.0606 131.028 15.7028C130.81 16.345 130.701 17.0757 130.701 17.8948C130.701 18.7962 130.805 19.6373 131.011 20.418C131.217 21.1986 131.526 21.8748 131.939 22.4463C132.351 23.0179 132.867 23.4671 133.485 23.7941C134.104 24.1212 134.823 24.2847 135.642 24.2847Z" fill="#FFF3E5"/>
<path d="M73.4759 36.8412C73.24 36.8356 72.9455 36.831 72.5919 36.8279C72.2384 36.8251 71.854 36.8205 71.4386 36.8149C71.0233 36.8089 70.5901 36.8044 70.1393 36.8016C69.6885 36.7984 69.2483 36.7956 68.8182 36.7928C68.3881 36.7896 67.9787 36.7913 67.5895 36.797C67.2008 36.803 66.862 36.8118 66.5731 36.8237V39.4486C66.5731 39.9493 66.5808 40.3868 66.5952 40.761C66.6102 41.1352 66.6278 41.4578 66.6485 41.7289C66.6689 41.9999 66.6956 42.2267 66.7279 42.4093C66.7602 42.5919 66.7942 42.7452 66.8297 42.8688V42.9043H64.7085V42.8688C64.7437 42.7452 64.7777 42.5919 64.81 42.4093C64.8426 42.2267 64.8704 41.9999 64.8939 41.7289C64.9174 41.4578 64.9353 41.1352 64.9472 40.761C64.9588 40.3868 64.9648 39.9493 64.9648 39.4486V33.6949C64.9648 33.1942 64.9588 32.7565 64.9472 32.3826C64.9353 32.0083 64.9174 31.6843 64.8939 31.4104C64.8704 31.1363 64.8426 30.908 64.81 30.7255C64.7777 30.5426 64.7437 30.3895 64.7085 30.2656V30.2305H66.8297V30.2656C66.7942 30.3895 66.7602 30.5426 66.7279 30.7255C66.6956 30.908 66.6689 31.1363 66.6485 31.4104C66.6278 31.6843 66.6102 32.0083 66.5952 32.3826C66.5808 32.7565 66.5731 33.1942 66.5731 33.6949V35.9576C66.8799 35.9692 67.2274 35.9766 67.6161 35.9797C68.0051 35.9825 68.4116 35.9825 68.8358 35.9797C69.2602 35.9766 69.6917 35.9723 70.1305 35.9663C70.5697 35.9604 70.9938 35.953 71.4032 35.9442C71.8129 35.9354 72.1956 35.925 72.5522 35.9133C72.9086 35.9017 73.2165 35.8898 73.4759 35.8779V33.6949C73.4759 33.1942 73.4685 32.7565 73.4538 32.3826C73.439 32.0083 73.4212 31.6843 73.4008 31.4104C73.3801 31.1363 73.3534 30.908 73.3211 30.7255C73.2888 30.5426 73.2548 30.3895 73.2196 30.2656V30.2305H75.3408V30.2656C75.3054 30.3895 75.2713 30.5426 75.239 30.7255C75.2067 30.908 75.1786 31.1363 75.1551 31.4104C75.1316 31.6843 75.114 32.0083 75.1021 32.3826C75.0902 32.7565 75.0842 33.1942 75.0842 33.6949V39.4486C75.0842 39.9493 75.0902 40.3868 75.1021 40.761C75.114 41.1352 75.1316 41.4578 75.1551 41.7289C75.1786 41.9999 75.2067 42.2267 75.239 42.4093C75.2713 42.5919 75.3054 42.7452 75.3408 42.8688V42.9043H73.2196V42.8688C73.2548 42.7452 73.2888 42.5919 73.3211 42.4093C73.3534 42.2267 73.3801 41.9999 73.4008 41.7289C73.4212 41.4578 73.439 41.1352 73.4538 40.761C73.4685 40.3868 73.4759 39.9493 73.4759 39.4486V36.8412Z" fill="#FFF3E5"/>
<path d="M83.6477 30.0187C84.6317 30.0187 85.5406 30.1791 86.3744 30.5004C87.2082 30.8216 87.9283 31.2723 88.5353 31.8527C89.142 32.433 89.6166 33.1299 89.9582 33.943C90.2998 34.756 90.4708 35.6545 90.4708 36.6385C90.4708 37.1982 90.4059 37.7493 90.2763 38.2911C90.1467 38.8331 89.9568 39.346 89.7062 39.8291C89.4558 40.3122 89.1479 40.7587 88.7828 41.1681C88.4174 41.5775 88.0003 41.931 87.532 42.2287C87.0636 42.5261 86.5468 42.7588 85.9809 42.9267C85.4153 43.0948 84.8055 43.1787 84.1515 43.1787C83.1674 43.1787 82.2588 43.0211 81.425 42.7058C80.5912 42.3906 79.8708 41.9443 79.2641 41.3668C78.6571 40.7893 78.1828 40.0956 77.8412 39.2856C77.4996 38.4754 77.3286 37.5752 77.3286 36.5855C77.3286 36.0259 77.3933 35.4747 77.5228 34.9327C77.6527 34.3906 77.8426 33.8752 78.0929 33.3862C78.3436 32.8971 78.6497 32.4477 79.0123 32.0384C79.3744 31.629 79.79 31.2738 80.2584 30.9732C80.7267 30.6727 81.2452 30.4385 81.8139 30.2707C82.3824 30.1026 82.9939 30.0187 83.6477 30.0187ZM84.1515 42.3832C84.8055 42.3832 85.4037 42.2655 85.9455 42.0297C86.4875 41.7941 86.9547 41.4522 87.3466 41.0045C87.7384 40.5566 88.0431 40.0102 88.2611 39.365C88.4792 38.72 88.5883 37.9877 88.5883 37.169C88.5883 36.2615 88.4837 35.4203 88.2745 34.6455C88.0652 33.8707 87.7545 33.199 87.342 32.6303C86.9295 32.0619 86.4155 31.6171 85.8 31.2959C85.184 30.9747 84.4667 30.8142 83.6477 30.8142C82.9939 30.8142 82.3957 30.9304 81.8536 31.1632C81.3116 31.3959 80.8446 31.7333 80.4528 32.1753C80.061 32.6173 79.756 33.1593 79.538 33.8015C79.32 34.4436 79.2111 35.1745 79.2111 35.9933C79.2111 36.8948 79.314 37.736 79.5204 38.5167C79.7265 39.2972 80.0358 39.9734 80.4483 40.5449C80.8608 41.1165 81.3765 41.5658 81.9951 41.8927C82.6137 42.2196 83.3324 42.3832 84.1515 42.3832Z" fill="#FFF3E5"/>
<path d="M91.8311 42.8688C91.896 42.7744 91.9694 42.6347 92.0519 42.449C92.1344 42.2636 92.1993 42.0291 92.2464 41.7465C92.3113 41.334 92.3833 40.8699 92.463 40.3544C92.5424 39.839 92.6249 39.2984 92.7105 38.7325C92.7958 38.1669 92.8812 37.588 92.9668 36.996C93.0521 36.4038 93.1346 35.8206 93.2143 35.246C93.2937 34.6716 93.3705 34.1179 93.4439 33.5843C93.5176 33.0513 93.584 32.5637 93.6426 32.1217C93.7019 31.6797 93.7504 31.2956 93.7887 30.9684C93.8269 30.6413 93.855 30.3955 93.8726 30.2305H94.995L100.554 40.6241L106.069 30.2305H106.909L108.358 40.7301C108.399 41.0601 108.444 41.3427 108.491 41.5786C108.538 41.8142 108.585 42.0161 108.632 42.1839C108.679 42.352 108.725 42.4904 108.769 42.5992C108.813 42.7084 108.856 42.7983 108.897 42.8688V42.9043H106.67V42.8688C106.699 42.8042 106.728 42.6979 106.754 42.5508C106.781 42.4033 106.794 42.2267 106.794 42.0206C106.794 41.9438 106.791 41.8658 106.785 41.7861C106.779 41.7068 106.77 41.6197 106.758 41.5256L105.636 33.0587L100.422 42.8688L99.8117 42.7983L94.5621 32.9703C94.3557 34.3668 94.1762 35.657 94.0228 36.8412C93.9579 37.3482 93.8933 37.8534 93.8284 38.3569C93.7637 38.8609 93.7062 39.3307 93.6563 39.7667C93.6061 40.2028 93.5661 40.5872 93.5369 40.92C93.5074 41.2531 93.4927 41.4989 93.4927 41.658C93.4927 41.8584 93.4983 42.0351 93.5103 42.1884C93.5219 42.3415 93.5338 42.4711 93.5457 42.5771C93.5633 42.701 93.5808 42.8099 93.5987 42.9043H91.8311V42.8688Z" fill="#FFF3E5"/>
<path d="M110.887 30.2322C111.624 30.2322 112.355 30.2293 113.083 30.2234C113.811 30.2174 114.478 30.2101 115.085 30.2013C115.692 30.1925 116.21 30.1792 116.64 30.1613C117.071 30.1437 117.362 30.1202 117.516 30.0907L117.082 31.2661C116.888 31.2134 116.661 31.166 116.402 31.1249C116.178 31.0895 115.905 31.0555 115.584 31.0231C115.263 30.9908 114.893 30.9747 114.475 30.9747C114.334 30.9747 114.164 30.9789 113.967 30.988C113.769 30.9968 113.579 31.007 113.397 31.0189C113.185 31.0305 112.97 31.0424 112.752 31.054V35.8799C113.359 35.8739 113.907 35.8561 114.396 35.8266C114.885 35.7974 115.3 35.7679 115.642 35.7384C116.043 35.703 116.396 35.6616 116.702 35.6148L116.428 36.8962C116.022 36.8429 115.607 36.793 115.182 36.746C114.817 36.7046 114.419 36.6677 113.989 36.6354C113.559 36.6031 113.147 36.5869 112.752 36.5869V42.1283C113.447 42.1283 114.086 42.0988 114.67 42.0399C115.253 41.9809 115.762 41.9131 116.198 41.8366C116.705 41.7541 117.168 41.6569 117.586 41.5449L117.33 42.9769C117.259 42.9709 117.153 42.965 117.012 42.959C116.87 42.953 116.712 42.9471 116.539 42.9414C116.365 42.9355 116.182 42.9309 115.991 42.9281C115.799 42.9253 115.618 42.9221 115.447 42.9193C115.277 42.9165 115.125 42.9134 114.992 42.9105C114.86 42.9074 114.764 42.906 114.705 42.906H110.887V42.8705C110.922 42.7469 110.956 42.5936 110.988 42.411C111.021 42.2284 111.049 42.0016 111.072 41.7306C111.096 41.4595 111.114 41.1369 111.125 40.7627C111.137 40.3885 111.143 39.9513 111.143 39.4503V33.6966C111.143 33.1959 111.137 32.7585 111.125 32.3843C111.114 32.01 111.096 31.686 111.072 31.4121C111.049 31.138 111.021 30.9097 110.988 30.7272C110.956 30.5446 110.922 30.3912 110.887 30.2676V30.2322Z" fill="#FFF3E5"/>
<path d="M27.5348 54.869C42.6269 54.869 54.8612 42.6346 54.8612 27.5426C54.8612 12.4507 42.6269 0.216309 27.5348 0.216309C12.4429 0.216309 0.208496 12.4507 0.208496 27.5426C0.208496 42.6346 12.4429 54.869 27.5348 54.869Z" fill="#FFF3E5"/>
<path d="M19.833 15.8928C19.8169 16.0218 19.8013 16.1579 19.7864 16.3016C19.7715 16.4454 19.7605 16.5782 19.7536 16.7C19.6088 16.6957 19.4271 16.6913 19.2086 16.688C18.9902 16.6842 18.8143 16.6825 18.6809 16.6825C18.5475 16.6825 18.3578 16.6853 18.1117 16.6897C17.8657 16.694 17.6817 16.6978 17.5598 16.7C17.553 16.7 17.5466 16.6907 17.5409 16.6722C17.5351 16.6541 17.5322 16.6377 17.5322 16.6241C17.5322 16.6126 17.5351 16.5978 17.5409 16.5793C17.5466 16.5607 17.553 16.5503 17.5598 16.5481C17.6955 16.5323 17.7846 16.5033 17.8271 16.4617C17.8697 16.4208 17.891 16.353 17.891 16.2584V14.744C17.891 14.65 17.8697 14.5822 17.8271 14.5407C17.7846 14.4992 17.6955 14.4707 17.5598 14.4544C17.553 14.4521 17.5466 14.4418 17.5409 14.4232C17.5351 14.4052 17.5322 14.3899 17.5322 14.3784C17.5322 14.3647 17.5351 14.3489 17.5409 14.3303C17.5466 14.3117 17.553 14.3024 17.5598 14.3024C17.6817 14.3052 17.8565 14.3084 18.0841 14.3128C18.3118 14.3177 18.4992 14.3199 18.6464 14.3199C18.7705 14.3199 18.9465 14.3183 19.1741 14.315C19.4018 14.3112 19.5857 14.3073 19.726 14.3024C19.7215 14.397 19.7232 14.5189 19.7312 14.668C19.7393 14.8178 19.7456 14.9522 19.7502 15.0719C19.7502 15.0812 19.7416 15.0911 19.7243 15.1014C19.7071 15.1113 19.6835 15.1167 19.6536 15.1167C19.6375 15.1167 19.6237 15.1146 19.6122 15.1096C19.6007 15.1053 19.595 15.1004 19.595 15.096C19.5766 14.9511 19.5162 14.814 19.4139 14.6839C19.3116 14.5538 19.1672 14.4888 18.981 14.4888H18.774C18.728 14.4888 18.6832 14.5003 18.6395 14.5232C18.5958 14.5462 18.574 14.603 18.574 14.6926V15.4064H18.6912C18.8062 15.4064 18.8988 15.372 18.9689 15.3031C19.039 15.2337 19.0798 15.143 19.0914 15.0304C19.0914 15.0238 19.1011 15.0173 19.1206 15.0113C19.1402 15.0058 19.1557 15.0031 19.1672 15.0031C19.1833 15.0031 19.2 15.0058 19.2172 15.0113C19.2345 15.0173 19.2431 15.0238 19.2431 15.0304C19.2431 15.1156 19.2402 15.1949 19.2345 15.2687C19.2288 15.3419 19.2259 15.4179 19.2259 15.496C19.2259 15.5764 19.2288 15.6518 19.2345 15.7223C19.2402 15.7922 19.2431 15.8688 19.2431 15.9513C19.2431 15.9584 19.2345 15.9644 19.2172 15.9704C19.2 15.9759 19.1833 15.9792 19.1672 15.9792C19.1557 15.9792 19.1408 15.9759 19.1224 15.9704C19.104 15.9644 19.0937 15.9584 19.0914 15.9513C19.0775 15.8321 19.039 15.7392 18.9758 15.6737C18.9125 15.6081 18.8177 15.5753 18.6912 15.5753H18.574V16.3104C18.574 16.3929 18.5958 16.4475 18.6395 16.4743C18.6832 16.5006 18.728 16.5137 18.774 16.5137H18.9534C19.1281 16.5137 19.2834 16.4503 19.4191 16.324C19.5547 16.1978 19.6398 16.042 19.6743 15.8584C19.6743 15.854 19.6795 15.8502 19.6898 15.848C19.7002 15.8458 19.7122 15.8447 19.726 15.8447C19.7513 15.8447 19.7761 15.8491 19.8002 15.8584C19.8244 15.8677 19.8353 15.8791 19.833 15.8928Z" fill="#004441" stroke="#004441" stroke-width="3.88889e-05" stroke-miterlimit="2" stroke-linejoin="round"/>
<path d="M19.0802 18.7077C19.2159 18.7881 19.3435 18.8842 19.4631 18.9958C19.5827 19.1072 19.6425 19.2482 19.6425 19.4182C19.6425 19.662 19.5545 19.8532 19.3786 19.9926C19.2026 20.132 18.9813 20.2014 18.7146 20.2014C18.5513 20.2014 18.4116 20.179 18.2955 20.1341C18.1793 20.0893 18.0465 20.0527 17.8971 20.0254C17.8948 19.9423 17.8936 19.8325 17.8936 19.6942C17.8936 19.5565 17.8902 19.4346 17.8833 19.3286C17.8833 19.3215 17.893 19.3155 17.9126 19.3095C17.9321 19.304 17.9488 19.3012 17.9626 19.3012C17.9787 19.3012 17.9942 19.3034 18.0091 19.3078C18.0241 19.3127 18.0328 19.3193 18.0351 19.3286C18.0787 19.5335 18.1702 19.7024 18.3093 19.8358C18.4484 19.9691 18.5835 20.0358 18.7146 20.0358C18.848 20.0358 18.9439 20.0063 19.0026 19.9478C19.0612 19.8893 19.0906 19.809 19.0906 19.7079C19.0906 19.5838 19.0308 19.4794 18.9112 19.3942C18.7916 19.3089 18.6629 19.2264 18.5249 19.146C18.3846 19.0652 18.2547 18.97 18.1351 18.8596C18.0155 18.7492 17.9557 18.6137 17.9557 18.4525C17.9557 18.2388 18.0368 18.0584 18.1989 17.9125C18.361 17.7666 18.5835 17.6934 18.8663 17.6934C18.9928 17.6934 19.102 17.7092 19.194 17.7404C19.286 17.771 19.3849 17.7972 19.4907 17.818C19.493 17.9005 19.497 18.0038 19.5028 18.1284C19.5085 18.2525 19.516 18.3547 19.5252 18.435C19.5252 18.4421 19.5154 18.4486 19.4959 18.4541C19.4763 18.4601 19.4608 18.4629 19.4493 18.4629C19.4332 18.4629 19.4171 18.4607 19.401 18.4558C19.3849 18.4514 19.3745 18.4443 19.3699 18.435C19.3263 18.2557 19.2618 18.1147 19.1768 18.0125C19.0917 17.9103 18.987 17.859 18.8629 17.859C18.7549 17.859 18.6697 17.8879 18.6077 17.9453C18.5456 18.0027 18.5145 18.0754 18.5145 18.1628C18.5145 18.2776 18.5726 18.376 18.6887 18.4574C18.8048 18.5394 18.9354 18.6225 19.0802 18.7077Z" fill="#004441" stroke="#004441" stroke-width="3.88889e-05" stroke-miterlimit="2" stroke-linejoin="round"/>
<path d="M19.9898 22.0082C19.9898 22.0197 19.9811 22.0301 19.9638 22.0394C19.9466 22.0487 19.9265 22.053 19.9035 22.053C19.8943 22.053 19.8817 22.0514 19.8655 22.0481C19.8494 22.0443 19.8403 22.0405 19.838 22.0355C19.8057 21.9093 19.7293 21.7694 19.6086 21.6169C19.4878 21.4639 19.3746 21.3874 19.2688 21.3874H19.2171C19.1642 21.3874 19.1263 21.3983 19.1032 21.4202C19.0802 21.442 19.0688 21.4759 19.0688 21.5218V23.157C19.0688 23.2488 19.0906 23.3166 19.1343 23.3603C19.178 23.4041 19.2665 23.433 19.3999 23.4467C19.4068 23.4467 19.4131 23.4565 19.4189 23.4756C19.4246 23.4953 19.4275 23.5112 19.4275 23.5226C19.4275 23.5363 19.4246 23.5522 19.4189 23.5708C19.4131 23.5893 19.4068 23.5986 19.3999 23.5986C19.2895 23.5986 19.1762 23.5953 19.0601 23.5899C18.944 23.5839 18.8342 23.5811 18.7307 23.5811C18.6249 23.5811 18.5145 23.5839 18.3996 23.5899C18.2846 23.5953 18.1708 23.5986 18.0581 23.5986C18.0512 23.5986 18.0448 23.5893 18.0391 23.5708C18.0333 23.5522 18.0305 23.5363 18.0305 23.5226C18.0305 23.5112 18.0333 23.4959 18.0391 23.4778C18.0448 23.4592 18.0512 23.4489 18.0581 23.4467C18.1937 23.4303 18.2829 23.4019 18.3254 23.3603C18.3679 23.3188 18.3892 23.251 18.3892 23.157V21.5218C18.3892 21.4715 18.3789 21.436 18.3582 21.4169C18.3375 21.3972 18.2984 21.3874 18.2409 21.3874H18.2133C18.119 21.3874 18.0029 21.4579 17.8649 21.5994C17.7269 21.741 17.6292 21.8864 17.5717 22.0355C17.5694 22.0427 17.5608 22.0476 17.5459 22.0497C17.5309 22.0519 17.5188 22.053 17.5096 22.053C17.4889 22.053 17.4688 22.0487 17.4493 22.0394C17.4297 22.0301 17.4199 22.0197 17.4199 22.0082C17.4429 21.8935 17.4676 21.7524 17.4941 21.5858C17.5205 21.4191 17.5395 21.2803 17.551 21.1699C17.6315 21.1835 17.7568 21.195 17.927 21.2043C18.0972 21.2136 18.3651 21.2185 18.7307 21.2185C19.0434 21.2185 19.3039 21.2136 19.512 21.2043C19.7201 21.195 19.8575 21.1835 19.9242 21.1699C19.9311 21.2803 19.9403 21.4114 19.9518 21.5633C19.9633 21.7153 19.9759 21.8634 19.9898 22.0082Z" fill="#004441" stroke="#004441" stroke-width="3.88889e-05" stroke-miterlimit="2" stroke-linejoin="round"/>
<path d="M19.833 26.2407C19.8169 26.3697 19.8013 26.5058 19.7864 26.6495C19.7715 26.7933 19.7605 26.9261 19.7536 27.048C19.6088 27.043 19.4271 27.0392 19.2086 27.0359C18.9902 27.0327 18.8143 27.0305 18.6809 27.0305C18.5475 27.0305 18.3578 27.0332 18.1117 27.0376C17.8657 27.0419 17.6817 27.0458 17.5598 27.048C17.553 27.048 17.5466 27.0387 17.5409 27.0201C17.5351 27.002 17.5322 26.9857 17.5322 26.972C17.5322 26.9605 17.5351 26.9458 17.5409 26.9272C17.5466 26.9086 17.553 26.8982 17.5598 26.896C17.6955 26.8802 17.7846 26.8512 17.8271 26.8097C17.8697 26.7687 17.891 26.7009 17.891 26.6064V25.0919C17.891 24.9979 17.8697 24.9302 17.8271 24.8886C17.7846 24.8471 17.6955 24.8187 17.5598 24.8023C17.553 24.8001 17.5466 24.7897 17.5409 24.7711C17.5351 24.7531 17.5322 24.7378 17.5322 24.7263C17.5322 24.7127 17.5351 24.6968 17.5409 24.6782C17.5466 24.6596 17.553 24.6509 17.5598 24.6509C17.6817 24.6531 17.8565 24.6564 18.0841 24.6607C18.3118 24.6656 18.4992 24.6678 18.6464 24.6678C18.7705 24.6678 18.9465 24.6662 19.1741 24.6624C19.4018 24.6591 19.5857 24.6552 19.726 24.6509C19.7215 24.7449 19.7232 24.8668 19.7312 25.0165C19.7393 25.1657 19.7456 25.3002 19.7502 25.4199C19.7502 25.4292 19.7416 25.439 19.7243 25.4494C19.7071 25.4592 19.6835 25.4647 19.6536 25.4647C19.6375 25.4647 19.6237 25.4625 19.6122 25.4576C19.6007 25.4532 19.595 25.4488 19.595 25.4439C19.5766 25.2991 19.5162 25.1619 19.4139 25.0318C19.3116 24.9018 19.1672 24.8367 18.981 24.8367H18.774C18.728 24.8367 18.6832 24.8482 18.6395 24.8711C18.5958 24.8946 18.574 24.9509 18.574 25.0406V25.7543H18.6912C18.8062 25.7543 18.8988 25.7199 18.9689 25.651C19.039 25.5822 19.0798 25.4909 19.0914 25.3783C19.0914 25.3717 19.1011 25.3652 19.1206 25.3592C19.1402 25.3537 19.1557 25.351 19.1672 25.351C19.1833 25.351 19.2 25.3537 19.2172 25.3592C19.2345 25.3652 19.2431 25.3717 19.2431 25.3783C19.2431 25.4636 19.2402 25.5428 19.2345 25.6166C19.2288 25.6898 19.2259 25.7658 19.2259 25.844C19.2259 25.9248 19.2288 25.9997 19.2345 26.0702C19.2402 26.1402 19.2431 26.2167 19.2431 26.2992C19.2431 26.3063 19.2345 26.3123 19.2172 26.3183C19.2 26.3244 19.1833 26.3271 19.1672 26.3271C19.1557 26.3271 19.1408 26.3244 19.1224 26.3183C19.104 26.3123 19.0937 26.3063 19.0914 26.2992C19.0775 26.1801 19.039 26.0872 18.9758 26.0216C18.9125 25.956 18.8177 25.9232 18.6912 25.9232H18.574V26.6583C18.574 26.7408 18.5958 26.7955 18.6395 26.8222C18.6832 26.8485 18.728 26.8616 18.774 26.8616H18.9534C19.1281 26.8616 19.2834 26.7982 19.4191 26.6719C19.5547 26.5457 19.6398 26.3905 19.6743 26.2063C19.6743 26.2019 19.6795 26.1981 19.6898 26.1959C19.7002 26.1937 19.7122 26.1926 19.726 26.1926C19.7513 26.1926 19.7761 26.197 19.8002 26.2063C19.8244 26.2156 19.8353 26.2271 19.833 26.2407Z" fill="#004441" stroke="#004441" stroke-width="3.88889e-05" stroke-miterlimit="2" stroke-linejoin="round"/>
<path d="M19.9898 28.9073C19.9898 28.9187 19.9811 28.9291 19.9638 28.9385C19.9466 28.9476 19.9265 28.9521 19.9035 28.9521C19.8943 28.9521 19.8817 28.9504 19.8655 28.947C19.8494 28.9433 19.8403 28.9393 19.838 28.9351C19.8057 28.8084 19.7293 28.6689 19.6086 28.5158C19.4878 28.363 19.3746 28.2864 19.2688 28.2864H19.2171C19.1642 28.2864 19.1263 28.2973 19.1032 28.3192C19.0802 28.341 19.0688 28.3749 19.0688 28.4208V30.0561C19.0688 30.1479 19.0906 30.2157 19.1343 30.2594C19.178 30.303 19.2665 30.3319 19.3999 30.3458C19.4068 30.3458 19.4131 30.3555 19.4189 30.3753C19.4246 30.3943 19.4275 30.4102 19.4275 30.4218C19.4275 30.4354 19.4246 30.4518 19.4189 30.4697C19.4131 30.4884 19.4068 30.4975 19.3999 30.4975C19.2895 30.4975 19.1762 30.4944 19.0601 30.489C18.944 30.4828 18.8342 30.4802 18.7307 30.4802C18.6249 30.4802 18.5145 30.4828 18.3996 30.489C18.2846 30.4944 18.1708 30.4975 18.0581 30.4975C18.0512 30.4975 18.0448 30.4884 18.0391 30.4697C18.0333 30.4518 18.0305 30.4354 18.0305 30.4218C18.0305 30.4102 18.0333 30.3949 18.0391 30.3767C18.0448 30.3583 18.0512 30.3478 18.0581 30.3458C18.1937 30.3294 18.2829 30.3007 18.3254 30.2594C18.3679 30.2177 18.3892 30.1499 18.3892 30.0561V28.4208C18.3892 28.3706 18.3789 28.335 18.3582 28.3159C18.3375 28.2962 18.2984 28.2864 18.2409 28.2864H18.2133C18.119 28.2864 18.0029 28.3567 17.8649 28.4985C17.7269 28.64 17.6292 28.7854 17.5717 28.9351C17.5694 28.9416 17.5608 28.9464 17.5459 28.9487C17.5309 28.951 17.5188 28.9521 17.5096 28.9521C17.4889 28.9521 17.4688 28.9476 17.4493 28.9385C17.4297 28.9291 17.4199 28.9187 17.4199 28.9073C17.4429 28.7925 17.4676 28.6513 17.4941 28.4849C17.5205 28.3181 17.5395 28.1792 17.551 28.0688C17.6315 28.0831 17.7568 28.0945 17.927 28.1033C18.0972 28.1126 18.3651 28.1175 18.7307 28.1175C19.0434 28.1175 19.3039 28.1126 19.512 28.1033C19.7201 28.0945 19.8575 28.0831 19.9242 28.0688C19.9311 28.1792 19.9403 28.3104 19.9518 28.4622C19.9633 28.6142 19.9759 28.7624 19.9898 28.9073Z" fill="#004441" stroke="#004441" stroke-width="3.88889e-05" stroke-miterlimit="2" stroke-linejoin="round"/>
<path d="M19.4 33.8669C19.4 33.8834 19.397 33.8998 19.3913 33.9174C19.3856 33.9341 19.3792 33.9429 19.3723 33.9429C19.2597 33.9429 19.1464 33.9401 19.0326 33.9341C18.9187 33.9287 18.8089 33.9253 18.7031 33.9253C18.5974 33.9253 18.487 33.9287 18.372 33.9341C18.257 33.9401 18.1432 33.9429 18.0305 33.9429C18.0236 33.9429 18.0173 33.9335 18.0115 33.9151C18.0058 33.897 18.0029 33.8805 18.0029 33.8669C18.0029 33.8556 18.0058 33.8408 18.0115 33.8221C18.0173 33.8037 18.0236 33.7932 18.0305 33.7909C18.1662 33.7751 18.2553 33.7461 18.2978 33.7047C18.3404 33.6636 18.3616 33.5953 18.3616 33.5012V31.987C18.3616 31.8929 18.3404 31.8251 18.2978 31.7837C18.2553 31.742 18.1662 31.7137 18.0305 31.6972C18.0236 31.695 18.0173 31.6848 18.0115 31.6661C18.0058 31.6479 18.0029 31.6329 18.0029 31.6213C18.0029 31.6077 18.0058 31.5918 18.0115 31.5731C18.0173 31.5546 18.0236 31.5453 18.0305 31.5453C18.1432 31.5453 18.257 31.5487 18.372 31.5541C18.487 31.56 18.5974 31.5629 18.7031 31.5629C18.8089 31.5629 18.9187 31.56 19.0326 31.5541C19.1464 31.5487 19.2597 31.5453 19.3723 31.5453C19.3792 31.5453 19.3856 31.5541 19.3913 31.5717C19.397 31.5884 19.4 31.6054 19.4 31.6213C19.4 31.6329 19.397 31.6485 19.3913 31.6678C19.3856 31.6873 19.3792 31.6972 19.3723 31.6972C19.2412 31.7109 19.1538 31.7398 19.1102 31.7837C19.0664 31.8274 19.0446 31.8951 19.0446 31.987V33.5012C19.0446 33.593 19.0664 33.6614 19.1102 33.7047C19.1538 33.7484 19.2412 33.7773 19.3723 33.7909C19.3792 33.7909 19.3856 33.8009 19.3913 33.8204C19.397 33.8403 19.4 33.8556 19.4 33.8669Z" fill="#004441" stroke="#004441" stroke-width="3.88889e-05" stroke-miterlimit="2" stroke-linejoin="round"/>
<path d="M19.8778 36.5481C19.864 36.6536 19.8473 36.7854 19.8278 36.9433C19.8082 37.1007 19.7939 37.2197 19.7847 37.3002C19.6812 37.3002 19.553 37.3246 19.4001 37.3745C19.2471 37.4236 19.0833 37.4482 18.9085 37.4482C18.674 37.4482 18.4664 37.4134 18.2859 37.3433C18.1054 37.2727 17.9553 37.1806 17.8358 37.0658C17.7162 36.9504 17.627 36.8186 17.5685 36.6706C17.5098 36.5223 17.4805 36.3678 17.4805 36.2065C17.4805 35.8731 17.6121 35.5785 17.8754 35.3234C18.1388 35.0682 18.4923 34.9409 18.9362 34.9409C19.1316 34.9409 19.2925 34.9576 19.419 34.9922C19.5455 35.0271 19.6617 35.0441 19.7674 35.0441C19.772 35.1544 19.779 35.2786 19.7881 35.4169C19.7973 35.5544 19.8065 35.6814 19.8157 35.7963C19.8157 35.8033 19.8054 35.8093 19.7847 35.8152C19.764 35.8206 19.7456 35.824 19.7295 35.824C19.718 35.824 19.7048 35.8212 19.6898 35.8169C19.6749 35.8118 19.6651 35.8053 19.6605 35.7963C19.6306 35.6284 19.5449 35.4714 19.4035 35.3256C19.2621 35.1791 19.1017 35.1065 18.9223 35.1065C18.651 35.1065 18.4613 35.2102 18.3532 35.4183C18.2451 35.6267 18.1911 35.8895 18.1911 36.2065C18.1911 36.5169 18.2445 36.7738 18.3515 36.9776C18.4584 37.1809 18.6441 37.2827 18.9085 37.2827C19.1201 37.2827 19.2925 37.2095 19.4259 37.0618C19.5593 36.915 19.6594 36.7437 19.7261 36.5481C19.7283 36.5388 19.7381 36.5317 19.7553 36.5274C19.7726 36.5229 19.787 36.5203 19.7985 36.5203C19.81 36.5203 19.826 36.5234 19.8468 36.5291C19.8675 36.5351 19.8778 36.541 19.8778 36.5481Z" fill="#004441" stroke="#004441" stroke-width="3.88889e-05" stroke-miterlimit="2" stroke-linejoin="round"/>
<path d="M20.0554 39.6561C20.0554 40.0009 19.9376 40.2943 19.7019 40.5353C19.4662 40.7768 19.1333 40.8976 18.7033 40.8976C18.2733 40.8976 17.9398 40.7762 17.703 40.5336C17.4661 40.2912 17.3477 39.9986 17.3477 39.6561C17.3477 39.3134 17.4661 39.0165 17.703 38.7662C17.9398 38.5153 18.2733 38.3903 18.7033 38.3903C19.1241 38.3903 19.4547 38.5139 19.695 38.7608C19.9353 39.0077 20.0554 39.3063 20.0554 39.6561ZM19.3449 39.6561C19.3449 39.3386 19.2989 39.0761 19.2069 38.868C19.1149 38.6596 18.947 38.5558 18.7033 38.5558C18.4572 38.5558 18.2888 38.6607 18.1979 38.8711C18.1071 39.0814 18.0617 39.3434 18.0617 39.6561C18.0617 39.9756 18.1071 40.2347 18.1979 40.4338C18.2888 40.6325 18.4572 40.732 18.7033 40.732C18.947 40.732 19.1149 40.6322 19.2069 40.4321C19.2989 40.2319 19.3449 39.9736 19.3449 39.6561Z" fill="#004441" stroke="#004441" stroke-width="3.88889e-05" stroke-miterlimit="2" stroke-linejoin="round"/>
<path d="M14.1659 41.9437C15.4101 41.7938 30.8956 41.4714 30.8956 41.4714C32.6794 41.4714 34.4482 40.8905 36.2023 39.7287C37.956 38.5672 39.2454 37.1168 40.0698 35.3778C40.1297 35.2428 40.2572 35.1753 40.452 35.1753C40.6618 35.1753 40.8492 35.2317 41.0142 35.3437C41.1792 35.4563 41.2617 35.5952 41.2617 35.7602C40.0472 38.3534 39.058 40.827 38.2934 43.1804C32.642 43.0006 28.6168 42.9105 26.2184 42.9105C23.8499 42.9105 19.8324 43.0006 14.1659 43.1804C13.9261 43.1804 13.8062 42.9706 13.8062 42.5507C13.8062 42.1759 13.9261 41.9738 14.1659 41.9437ZM22.9652 26.5704C22.9652 26.5032 22.9921 26.4381 23.0398 26.3906C23.0876 26.3425 23.1524 26.3157 23.2199 26.3157H29.0517C30.5506 26.3157 31.5664 25.9714 32.0985 25.2817C32.6307 24.592 33.0018 23.3705 33.2116 21.6161C33.2116 21.3767 33.4214 21.2565 33.8412 21.2565C34.2608 21.2565 34.4706 21.3767 34.4706 21.6161C34.4706 22.366 34.4258 23.3104 34.336 24.4493C34.2458 25.544 34.201 26.4359 34.201 27.1257C34.201 27.8301 34.2458 28.7293 34.336 29.8239C34.4258 30.9928 34.4706 31.9527 34.4706 32.7017C34.4706 32.9419 34.2608 33.0615 33.8412 33.0615C33.4214 33.0615 33.2116 32.9419 33.2116 32.7017C32.9867 30.8731 32.5932 29.5917 32.0311 28.8571C31.4689 28.122 30.4757 27.7553 29.0517 27.7553H23.2199C23.1524 27.7553 23.0876 27.7279 23.0398 27.6804C22.9921 27.6328 22.9652 27.5678 22.9652 27.5006V26.5704ZM25.9936 13.6112C25.3453 13.6112 15.4401 13.3117 14.1659 13.1619C13.9261 13.1619 13.8062 12.9515 13.8062 12.5317C13.8062 12.112 13.9261 11.9022 14.1659 11.9022C17.9436 12.0825 21.8112 12.1721 25.7687 12.1721C29.7562 12.1721 33.6312 12.0825 37.3938 11.9022C37.7386 14.226 38.241 16.5198 38.9004 18.7829C38.9004 19.083 38.6381 19.2327 38.1134 19.2327C37.8588 19.2327 37.7012 19.1278 37.6413 18.9179C36.532 15.3803 34.1633 13.6112 30.5356 13.6112H25.9936Z" fill="#004441" stroke="#004441" stroke-width="9.25926e-05" stroke-miterlimit="2" stroke-linejoin="round"/>
</svg>
