<svg width="24" height="24" viewBox="0 0 24 24" fill="none" xmlns="http://www.w3.org/2000/svg">
<path d="M16 4H8C5.79086 4 4 5.79086 4 8V16C4 18.2091 5.79086 20 8 20H16C18.2091 20 20 18.2091 20 16V8C20 5.79086 18.2091 4 16 4Z" stroke="#D9B9A9" stroke-linecap="round" stroke-linejoin="round"/>
<path d="M12 14.9999C13.6569 14.9999 15 13.6567 15 11.9999C15 10.343 13.6569 8.99988 12 8.99988C10.3431 8.99988 9 10.343 9 11.9999C9 13.6567 10.3431 14.9999 12 14.9999Z" stroke="#D9B9A9" stroke-linecap="round" stroke-linejoin="round"/>
<path d="M16.5 7.5V7.501" stroke="#D9B9A9" stroke-linecap="round" stroke-linejoin="round"/>
</svg>
