<svg width="69" height="18" viewBox="0 0 69 18" fill="none" xmlns="http://www.w3.org/2000/svg">
<g clip-path="url(#clip0_2_8981)">
<path d="M28.6473 3.01782H29.2069V10.0047V10.5047H29.7069H31.896V10.9825H28.653L28.6473 3.01782Z" stroke="#D9B9A9"/>
<path d="M36.0086 5.26388V5.26392L36.0149 5.26384C36.6504 5.2559 37.2542 5.52924 37.6663 6.00632C37.2857 5.74094 36.8148 5.58538 36.2732 5.58538C34.7719 5.58538 33.8148 6.78313 33.8148 8.19471C33.8148 9.60765 34.7859 10.8073 36.2732 10.8073C36.8178 10.8073 37.2934 10.6468 37.6773 10.3736C37.265 10.8586 36.656 11.137 36.0149 11.129L36.0149 11.129H36.0086C34.51 11.129 33.3169 9.84804 33.3169 8.19471C33.3169 6.54214 34.5094 5.26388 36.0086 5.26388ZM38.7312 8.19471C38.7312 7.80558 38.6588 7.43317 38.5227 7.0977L38.6269 7.23097V5.77946V5.3973H39.0822V10.9955H38.6269V10.6133V9.16179L38.516 9.30367C38.6562 8.96501 38.7312 8.58838 38.7312 8.19471Z" stroke="#D9B9A9"/>
<path d="M44.184 5.71567H41.2669V5.39734H45.5637V5.8774L42.2247 9.85573L41.5353 10.6772H42.6077H45.6421V10.9955H41.2148V10.5317L44.567 6.53708L45.2563 5.71567H44.184Z" stroke="#D9B9A9"/>
<path d="M49.8429 5.26388V5.26392L49.8491 5.26384C50.4844 5.2559 51.0883 5.52921 51.5001 6.0061C51.1196 5.74086 50.6488 5.58538 50.1072 5.58538C48.6058 5.58538 47.6491 6.78324 47.6491 8.19471C47.6491 9.6076 48.6202 10.8073 50.1072 10.8073C50.6518 10.8073 51.1273 10.6468 51.5113 10.3737C51.0992 10.8586 50.4901 11.137 49.8491 11.129L49.8491 11.129H49.8429C48.3449 11.129 47.1543 9.84871 47.1543 8.19471C47.1543 6.54146 48.3443 5.26388 49.8429 5.26388ZM52.5653 8.19471C52.5653 7.80609 52.4931 7.43415 52.3573 7.09903L52.4608 7.23154V5.77946V5.3973H52.9164V10.9955H52.4608V10.6133V9.16122L52.3505 9.30243C52.4904 8.9641 52.5653 8.58791 52.5653 8.19471Z" stroke="#D9B9A9"/>
<path d="M57.5746 5.26385V5.26389L57.5812 5.26381C58.2134 5.25551 58.8143 5.52703 59.2247 6.00107C58.8454 5.73887 58.3771 5.58535 57.8389 5.58535C56.3375 5.58535 55.3808 6.78319 55.3808 8.19468C55.3808 9.60817 56.3557 10.8073 57.8389 10.8073C58.3805 10.8073 58.8544 10.6478 59.2378 10.3763C58.8272 10.8599 58.2202 11.1373 57.5811 11.129L57.5811 11.1289H57.5746C56.076 11.1289 54.8828 9.84799 54.8828 8.19468C54.8828 6.54212 56.0754 5.26385 57.5746 5.26385ZM60.297 8.19468C60.297 7.81202 60.2271 7.44552 60.0953 7.11443L60.1894 7.23535V5.77943V2.48718H60.6449V10.9954H60.1894V10.6133V9.1572L60.0878 9.28776C60.2241 8.95327 60.297 8.58227 60.297 8.19468Z" stroke="#D9B9A9"/>
<path d="M65.3022 5.2639V5.26394L65.3087 5.26386C65.941 5.25556 66.5421 5.52714 66.9523 6.00111C66.573 5.73892 66.1048 5.5854 65.5667 5.5854C64.0654 5.5854 63.1084 6.78318 63.1084 8.19473C63.1084 9.60825 64.0834 10.8073 65.5667 10.8073C66.1006 10.8073 66.5687 10.6523 66.9492 10.3878C66.5387 10.8643 65.9362 11.1373 65.3023 11.129L65.3023 11.129H65.2957C63.7972 11.129 62.604 9.84805 62.604 8.19473C62.604 6.54354 63.8017 5.2639 65.3022 5.2639ZM68.0248 8.19473C68.0248 7.81239 67.9549 7.44619 67.8233 7.11532L67.9171 7.23578V5.77948V5.39732H68.3693V10.9955H67.9106V10.6133V9.15744L67.8223 9.27083C67.9543 8.94078 68.0248 8.57578 68.0248 8.19473Z" stroke="#D9B9A9"/>
<path d="M11.1208 17.4999L11.1156 17.5C11.0454 17.5004 10.9767 17.4827 10.9163 17.4489C10.3335 17.1123 7.87649 15.5899 5.50828 14.1209C5.3329 14.0121 5.15809 13.9037 4.98466 13.7961C3.98893 13.1784 3.0387 12.5889 2.28803 12.125C1.84738 11.8526 1.47478 11.6231 1.20179 11.4562C0.943204 11.2982 0.746104 11.1791 0.681625 11.1465L0.674462 11.1428L0.667186 11.1395C0.581471 11.0995 0.521848 11.0211 0.505587 10.9303V3.32512H0.505718L0.505457 3.3137C0.502987 3.20568 0.554503 3.10322 0.643248 3.04035L0.689703 3.01393L0.697766 3.00935L0.705653 3.00447C1.55237 2.48051 4.3603 0.771745 4.79322 0.531903L4.79946 0.528444L4.8056 0.524808C4.83087 0.509851 4.85947 0.501412 4.88875 0.500229C4.91384 0.501193 4.93845 0.506765 4.96139 0.516619L4.98103 0.529365L5.10776 0.611481C5.21717 0.682289 5.37405 0.783647 5.56418 0.905974C5.94432 1.15057 6.45779 1.47928 6.99046 1.81535C7.52263 2.1511 8.0762 2.49561 8.53586 2.77124C8.96166 3.02658 9.3558 3.25324 9.56357 3.33638C10.0485 3.55627 10.5763 3.66642 11.1089 3.65895C11.7197 3.67014 12.323 3.52272 12.8596 3.23132C13.18 3.06223 14.2889 2.3761 15.2944 1.75081C15.5019 1.62182 15.7061 1.49466 15.9001 1.37384C16.1848 1.19656 16.4477 1.0329 16.6666 0.897069C16.8507 0.78288 17.0021 0.689407 17.1084 0.624718C17.1265 0.613664 17.1431 0.603604 17.1581 0.594539H17.164L17.2831 0.522714C17.298 0.51373 17.3156 0.508847 17.3339 0.509097L17.3378 0.509116C17.3673 0.50926 17.3959 0.517311 17.4209 0.5323L17.4288 0.536999L17.4368 0.541408C17.936 0.816645 21.4211 2.94398 21.568 3.03729L21.5679 3.03741L21.5783 3.04365C21.6726 3.10035 21.7292 3.2022 21.7281 3.31102L21.7281 3.31102V3.31612V10.9232C21.7129 11.0128 21.6541 11.0903 21.5695 11.1291L21.5534 11.1364L21.5378 11.1449C21.407 11.2164 20.1781 11.981 18.62 12.9505C18.0256 13.3203 17.3833 13.7199 16.7357 14.1223C14.3659 15.5947 11.912 17.1123 11.3269 17.437L11.3268 17.4368L11.3147 17.444C11.2561 17.4787 11.1894 17.498 11.1208 17.4999Z" stroke="#D9B9A9"/>
<path d="M11.5737 9.30973L21.7277 3.74917V10.9322C21.7126 11.0217 21.6538 11.0993 21.5692 11.138L21.5604 11.142L21.5518 11.1464C21.4872 11.179 21.2901 11.2982 21.0317 11.4562C20.7588 11.6231 20.3864 11.8526 19.9459 12.125C19.1969 12.5882 18.2491 13.1764 17.2557 13.793C17.0806 13.9016 16.9042 14.0111 16.7272 14.1209C14.616 15.4312 12.4342 16.7837 11.5737 17.2997V9.30973Z" stroke="#D9B9A9"/>
<path d="M11.0352 9.0016V17.3923L10.9907 17.3922L10.9872 17.3923C10.919 17.3927 10.8519 17.3755 10.7926 17.3423C10.7287 17.3054 10.642 17.2541 10.5352 17.19M11.0352 9.0016L0.52411 3.2454C0.507704 3.28431 0.499529 3.32598 0.500021 3.36789L0.50009 3.37376H0.500055V3.80229M11.0352 9.0016H10.5352V9.29785M11.0352 9.0016L10.7951 9.44014L10.5352 9.29785M0.500055 3.80229L5.55097e-05 3.52848V10.9308M0.500055 3.80229V10.8994M0.500055 3.80229L10.5352 9.29785M5.55097e-05 10.9308C0.0272925 11.2025 0.196981 11.4393 0.445707 11.5532C0.596035 11.6292 2.51531 12.8204 4.65147 14.1462C7.12569 15.6818 9.89087 17.398 10.5352 17.7711V17.19M5.55097e-05 10.9308H0.500055V10.8994M5.55097e-05 10.9308L0.497561 10.881C0.498181 10.8871 0.499015 10.8933 0.500055 10.8994M10.5352 17.19C9.67853 16.6761 7.52706 15.3423 5.44477 14.0501C5.26727 13.9399 5.09036 13.8301 4.9149 13.7212C3.93465 13.1128 2.99964 12.5325 2.26036 12.0753C1.82462 11.8059 1.45615 11.5788 1.18617 11.4137C0.930599 11.2575 0.735383 11.1394 0.671318 11.107L0.662633 11.1026L0.653783 11.0985C0.571808 11.061 0.514884 10.986 0.500055 10.8994M10.5352 17.19V9.29785M10.9783 17.8923H10.9907C10.9866 17.8923 10.9824 17.8923 10.9783 17.8923Z" stroke="#D9B9A9"/>
</g>
<defs>
<clipPath id="clip0_2_8981">
<rect width="68.8696" height="18" fill="white"/>
</clipPath>
</defs>
</svg>
