<svg width="102" height="40" viewBox="0 0 102 40" fill="none" xmlns="http://www.w3.org/2000/svg">
<path d="M45.9365 8.79887C46.4605 8.79887 46.9813 8.79683 47.4991 8.79252C48.0167 8.78819 48.4915 8.78291 48.9233 8.77644C49.3552 8.76996 49.7241 8.76035 50.0301 8.74753C50.336 8.73468 50.5434 8.71753 50.6525 8.69604L50.3443 9.55101C50.2059 9.51238 50.0446 9.47807 49.8602 9.44807C49.7009 9.4224 49.507 9.3978 49.2785 9.37417C49.05 9.35064 48.787 9.33889 48.4895 9.33889C48.3888 9.33889 48.2682 9.342 48.1278 9.3485C47.9874 9.35497 47.8523 9.36242 47.7222 9.37106C47.5713 9.37957 47.4184 9.38809 47.2633 9.39673V12.9062C47.695 12.902 48.0849 12.889 48.4328 12.8677C48.7807 12.8462 49.0762 12.8248 49.3195 12.8034C49.6045 12.7777 49.856 12.7477 50.074 12.7134L49.879 13.6454C49.5897 13.6069 49.2943 13.5704 48.9925 13.5361C48.7325 13.5061 48.4495 13.4793 48.1435 13.4558C47.8376 13.4322 47.5441 13.4204 47.2633 13.4204V17.4506C47.7579 17.4506 48.2127 17.4291 48.6278 17.3863C49.0427 17.3434 49.4054 17.2941 49.7156 17.2385C50.0761 17.1785 50.405 17.1078 50.7027 17.0264L50.5204 18.0676C50.4702 18.0633 50.3945 18.0591 50.2941 18.0548C50.1934 18.0505 50.0813 18.0463 49.9577 18.042C49.834 18.0377 49.7041 18.0344 49.5678 18.0323C49.4314 18.0302 49.3027 18.028 49.1811 18.0259C49.0595 18.0237 48.9516 18.0216 48.8572 18.0194C48.763 18.0172 48.6948 18.0163 48.6528 18.0163H45.9365V17.9905C45.9615 17.9005 45.9857 17.7892 46.0087 17.6562C46.0319 17.5234 46.0517 17.3585 46.0686 17.1613C46.0854 16.9642 46.0979 16.7297 46.1064 16.4575C46.1146 16.1854 46.1189 15.8672 46.1189 15.503V11.3185C46.1189 10.9544 46.1146 10.6362 46.1064 10.3641C46.0979 10.092 46.0854 9.85623 46.0686 9.65708C46.0517 9.4578 46.0319 9.29174 46.0087 9.15893C45.9857 9.02598 45.9615 8.91464 45.9365 8.82466V8.79887Z" fill="#004441"/>
<path d="M56.0101 10.269H55.8717C55.8382 10.1705 55.7848 10.0591 55.7114 9.93474C55.6381 9.81058 55.5415 9.69371 55.4221 9.58454C55.3027 9.47524 55.1581 9.38416 54.9883 9.31134C54.8184 9.23852 54.6183 9.20204 54.3878 9.20204C54.1825 9.20204 54.0001 9.23421 53.8408 9.29852C53.6814 9.3627 53.5483 9.45268 53.4414 9.56845C53.3345 9.68412 53.2538 9.82126 53.1994 9.97973C53.1449 10.1384 53.1177 10.314 53.1177 10.5069C53.1177 10.8154 53.2026 11.1101 53.3722 11.3907C53.5421 11.6713 53.7549 11.9488 54.0104 12.2231C54.2662 12.4974 54.5429 12.7715 54.8406 13.0458C55.1381 13.32 55.4149 13.605 55.6706 13.9007C55.9262 14.1964 56.139 14.506 56.3088 14.8295C56.4786 15.1531 56.5634 15.5013 56.5634 15.874C56.5634 16.1525 56.5162 16.4322 56.422 16.7128C56.3276 16.9935 56.1819 17.2453 55.9849 17.468C55.788 17.6908 55.5343 17.8719 55.2241 18.0112C54.9138 18.1505 54.5449 18.2201 54.1175 18.2201C53.8785 18.2201 53.6512 18.1976 53.4352 18.1526C53.2193 18.1076 53.0201 18.0519 52.8379 17.9855C52.6556 17.9191 52.492 17.8473 52.3474 17.7701C52.2028 17.693 52.0844 17.6223 51.9922 17.558L52.1368 16.1375H52.2939C52.3399 16.3389 52.4156 16.5307 52.5202 16.7128C52.6251 16.8949 52.754 17.0557 52.9069 17.1949C53.06 17.3341 53.2351 17.4456 53.4319 17.5291C53.629 17.6127 53.8448 17.6545 54.0796 17.6545C54.2934 17.6545 54.4852 17.6213 54.6551 17.5548C54.8249 17.4885 54.9705 17.3963 55.0921 17.2785C55.2136 17.1607 55.3068 17.0203 55.3719 16.8575C55.4369 16.6946 55.4693 16.5167 55.4693 16.3239C55.4693 16.054 55.4211 15.8043 55.3247 15.5752C55.2283 15.3459 55.1014 15.1284 54.9443 14.9227C54.7872 14.7171 54.6091 14.5178 54.4098 14.325C54.2107 14.1321 54.0064 13.9382 53.7968 13.7432C53.5873 13.5482 53.3827 13.3479 53.1836 13.1422C52.9846 12.9366 52.8065 12.7169 52.6491 12.4834C52.492 12.2498 52.3651 11.9992 52.2687 11.7313C52.1723 11.4635 52.1241 11.169 52.1241 10.8475C52.1241 10.509 52.188 10.2037 52.3159 9.93163C52.4438 9.65953 52.6136 9.42701 52.8252 9.23421C53.037 9.0414 53.277 8.89346 53.5453 8.79064C53.8136 8.68781 54.0903 8.63647 54.3751 8.63647C54.5849 8.63647 54.7777 8.65351 54.9538 8.68781C55.1297 8.72212 55.288 8.7628 55.4284 8.80996C55.569 8.85711 55.6914 8.90425 55.7963 8.9514C55.9012 8.99856 55.9871 9.03707 56.0541 9.06707L56.0101 10.269Z" fill="#004441"/>
<path d="M60.4807 9.36827C59.986 9.36827 59.5396 9.3907 59.1414 9.43569C58.7433 9.48081 58.3994 9.52891 58.1101 9.5804C57.7749 9.64468 57.475 9.71536 57.2109 9.7925L57.3933 8.75122C57.4437 8.75553 57.5191 8.75974 57.6198 8.76407C57.7204 8.76837 57.8324 8.77258 57.9562 8.77689C58.0797 8.78122 58.2098 8.78446 58.3459 8.78662C58.4823 8.78864 58.6112 8.79081 58.7326 8.79297C58.8542 8.79514 58.9623 8.79728 59.0565 8.79945C59.1509 8.80161 59.2189 8.80256 59.2608 8.80256H62.8513C62.8931 8.80256 62.9613 8.80161 63.0557 8.79945C63.1499 8.79728 63.258 8.79514 63.3794 8.79297C63.501 8.79081 63.6299 8.78864 63.7661 8.78662C63.9024 8.78446 64.0323 8.78122 64.1559 8.77689C64.2796 8.77258 64.3917 8.76837 64.4924 8.76407C64.593 8.75974 64.6685 8.75553 64.7189 8.75122L64.901 9.7925C64.633 9.71536 64.331 9.64468 63.9958 9.5804C63.7063 9.52891 63.3626 9.48081 62.9645 9.43569C62.5663 9.3907 62.1198 9.36827 61.6252 9.36827V15.5067C61.6252 15.871 61.6304 16.1891 61.6407 16.4612C61.6514 16.7333 61.6639 16.9679 61.6786 17.165C61.6934 17.3621 61.7121 17.5271 61.7351 17.6599C61.7581 17.7929 61.7823 17.9042 61.8075 17.9942V18.02H60.3046V17.9942C60.3299 17.9042 60.3528 17.7929 60.3738 17.6599C60.3948 17.5271 60.4136 17.3621 60.4303 17.165C60.4472 16.9679 60.4598 16.7333 60.4682 16.4612C60.4765 16.1891 60.4807 15.871 60.4807 15.5067V9.36827Z" fill="#004441"/>
<path d="M65.8008 8.80473C66.3248 8.80473 66.8456 8.80269 67.3634 8.79838C67.8809 8.79405 68.3557 8.78877 68.7876 8.7823C69.2192 8.77582 69.5881 8.76621 69.8941 8.75337C70.2001 8.74054 70.4077 8.72339 70.5168 8.7019L70.2086 9.55687C70.0702 9.51823 69.9088 9.48393 69.7245 9.45393C69.5651 9.42826 69.3713 9.40366 69.1428 9.38003C68.9143 9.3565 68.6512 9.34475 68.3535 9.34475C68.2531 9.34475 68.1325 9.34786 67.9921 9.35434C67.8517 9.36083 67.7165 9.36825 67.5864 9.37689C67.4356 9.38543 67.2827 9.39395 67.1276 9.40258V12.912C67.5592 12.9078 67.9491 12.8949 68.297 12.8735C68.645 12.8521 68.9405 12.8307 69.1835 12.8092C69.4687 12.7836 69.7203 12.7536 69.9381 12.7192L69.7432 13.6512C69.454 13.6127 69.1585 13.5763 68.8566 13.5419C68.5968 13.5119 68.3138 13.4852 68.0078 13.4617C67.7018 13.438 67.4083 13.4263 67.1276 13.4263V17.4564C67.6221 17.4564 68.077 17.435 68.4919 17.3921C68.907 17.3493 69.2695 17.3 69.5797 17.2443C69.9403 17.1843 70.2695 17.1137 70.567 17.0322L70.3847 18.0735C70.3342 18.0692 70.2588 18.065 70.1583 18.0606C70.0577 18.0563 69.9456 18.0521 69.8219 18.0478C69.6981 18.0435 69.5682 18.0403 69.432 18.0381C69.2959 18.0361 69.1668 18.0339 69.0454 18.0317C68.9237 18.0296 68.8158 18.0274 68.7216 18.0253C68.6272 18.0231 68.5591 18.0222 68.5171 18.0222H65.8008V17.9964C65.826 17.9064 65.85 17.795 65.8732 17.6621C65.8962 17.5293 65.9162 17.3643 65.9327 17.1672C65.9494 16.9701 65.9621 16.7355 65.9706 16.4634C65.9789 16.1913 65.9831 15.8731 65.9831 15.5089V11.3244C65.9831 10.9603 65.9789 10.6421 65.9706 10.37C65.9621 10.0978 65.9494 9.86209 65.9327 9.66294C65.9162 9.46364 65.8962 9.29759 65.8732 9.16479C65.85 9.03184 65.826 8.9205 65.8008 8.83052V8.80473Z" fill="#004441"/>
<path d="M74.4835 9.36827C73.9889 9.36827 73.5423 9.3907 73.1442 9.43569C72.746 9.48081 72.4021 9.52891 72.1131 9.5804C71.7776 9.64468 71.4779 9.71536 71.2139 9.7925L71.396 8.75122C71.4464 8.75553 71.5219 8.75974 71.6225 8.76407C71.7232 8.76837 71.8353 8.77258 71.959 8.77689C72.0826 8.78122 72.2125 8.78446 72.3488 8.78662C72.485 8.78864 72.6139 8.79081 72.7355 8.79297C72.8569 8.79514 72.965 8.79728 73.0592 8.79945C73.1536 8.80161 73.2218 8.80256 73.2636 8.80256H76.8541C76.896 8.80256 76.964 8.80161 77.0584 8.79945C77.1526 8.79728 77.2607 8.79514 77.3823 8.79297C77.5037 8.79081 77.6326 8.78864 77.7688 8.78662C77.9051 8.78446 78.035 8.78122 78.1587 8.77689C78.2825 8.77258 78.3945 8.76837 78.4951 8.76407C78.5958 8.75974 78.6712 8.75553 78.7216 8.75122L78.904 9.7925C78.6357 9.71536 78.3337 9.64468 77.9985 9.5804C77.7093 9.52891 77.3654 9.48081 76.9672 9.43569C76.5691 9.3907 76.1225 9.36827 75.6279 9.36827V15.5067C75.6279 15.871 75.6332 16.1891 75.6436 16.4612C75.6541 16.7333 75.6666 16.9679 75.6814 17.165C75.6961 17.3621 75.7148 17.5271 75.7378 17.6599C75.761 17.7929 75.785 17.9042 75.8103 17.9942V18.02H74.3074V17.9942C74.3326 17.9042 74.3556 17.7929 74.3766 17.6599C74.3975 17.5271 74.4165 17.3621 74.433 17.165C74.45 16.9679 74.4627 16.7333 74.471 16.4612C74.4792 16.1891 74.4835 15.871 74.4835 15.5067V9.36827Z" fill="#004441"/>
<path d="M79.8604 17.9951C79.8854 17.9051 79.9086 17.7938 79.9293 17.6608C79.9503 17.528 79.9693 17.3631 79.986 17.1659C80.0028 16.9688 80.0153 16.7343 80.0237 16.4621C80.032 16.19 80.0362 15.8718 80.0362 15.5076V11.3231C80.0362 10.959 80.032 10.6408 80.0237 10.3687C80.0153 10.0966 80.0028 9.86085 79.986 9.66167C79.9693 9.46239 79.9503 9.29635 79.9293 9.16353C79.9086 9.0306 79.8854 8.91926 79.8604 8.82928V8.80347H81.363V8.82928C81.338 8.91926 81.3138 9.0306 81.2908 9.16353C81.2676 9.29635 81.2489 9.46239 81.2341 9.66167C81.2194 9.86085 81.2069 10.0966 81.1964 10.3687C81.1859 10.6408 81.1807 10.959 81.1807 11.3231V15.5076C81.1807 15.8718 81.1859 16.19 81.1964 16.4621C81.2069 16.7343 81.2194 16.9688 81.2341 17.1659C81.2489 17.3631 81.2676 17.528 81.2908 17.6608C81.3138 17.7938 81.338 17.9051 81.363 17.9951V18.0209H79.8604V17.9951Z" fill="#004441"/>
<path d="M90.5114 10.218L90.4549 10.2437C90.1279 9.9351 89.735 9.68877 89.2759 9.50448C88.8169 9.32022 88.3128 9.22807 87.7636 9.22807C87.2355 9.22807 86.7512 9.31277 86.3111 9.48205C85.871 9.65123 85.4926 9.89659 85.1761 10.218C84.8597 10.5393 84.6134 10.9336 84.4373 11.4006C84.2614 11.8677 84.1733 12.3991 84.1733 12.9948C84.1733 13.6503 84.2572 14.2621 84.4248 14.8298C84.5924 15.3976 84.8419 15.8893 85.1731 16.305C85.5041 16.7207 85.9182 17.0474 86.415 17.2852C86.9116 17.5231 87.4913 17.642 88.1535 17.642C88.3925 17.642 88.6315 17.6162 88.8703 17.5649C89.1093 17.5134 89.3389 17.4373 89.5589 17.3366C89.779 17.236 89.9865 17.1138 90.1814 16.9702C90.3762 16.8268 90.5533 16.6629 90.7127 16.4786L90.7818 16.5236L90.2788 17.8348C89.9643 17.9591 89.6176 18.0544 89.2382 18.1208C88.8588 18.1873 88.4762 18.2204 88.0905 18.2204C87.3152 18.2204 86.6056 18.1058 85.9622 17.8765C85.3188 17.6473 84.7653 17.3227 84.3022 16.9028C83.8389 16.4829 83.4784 15.9783 83.2207 15.389C82.9629 14.7998 82.834 14.1452 82.834 13.4254C82.834 13.0183 82.8852 12.6177 82.9881 12.2234C83.0908 11.8292 83.2406 11.4543 83.4375 11.0985C83.6345 10.7429 83.8778 10.4162 84.167 10.1183C84.4561 9.82052 84.7863 9.56232 85.1574 9.34384C85.5283 9.12525 85.937 8.95487 86.3835 8.83285C86.8299 8.71071 87.313 8.64966 87.833 8.64966C88.642 8.64966 89.3923 8.77599 90.084 9.0289L90.5114 10.218Z" fill="#004441"/>
<path d="M96.0448 8.64966C96.7449 8.64966 97.3913 8.76638 97.9845 8.99986C98.5777 9.23345 99.0901 9.56125 99.5219 9.98333C99.9535 10.4054 100.291 10.9122 100.534 11.5036C100.777 12.0948 100.899 12.7483 100.899 13.464C100.899 13.8711 100.853 14.2717 100.761 14.6659C100.668 15.0602 100.533 15.433 100.355 15.7844C100.177 16.1358 99.9578 16.4603 99.698 16.7581C99.438 17.056 99.1415 17.313 98.8083 17.5295C98.4751 17.7459 98.1072 17.9152 97.7048 18.0372C97.3024 18.1593 96.8683 18.2204 96.4032 18.2204C95.7031 18.2204 95.0564 18.1058 94.4632 17.8765C93.8702 17.6473 93.3577 17.3227 92.9258 16.9028C92.4942 16.4829 92.1568 15.9783 91.9135 15.389C91.6705 14.7998 91.5488 14.1452 91.5488 13.4254C91.5488 13.0183 91.595 12.6177 91.6872 12.2234C91.7794 11.8292 91.9145 11.4543 92.0928 11.0985C92.2709 10.7429 92.489 10.4162 92.7467 10.1183C93.0045 9.82052 93.3 9.56232 93.6334 9.34384C93.9666 9.12525 94.3353 8.95487 94.74 8.83285C95.1444 8.71071 95.5794 8.64966 96.0448 8.64966ZM96.4032 17.642C96.8683 17.642 97.2939 17.5562 97.6796 17.3849C98.0652 17.2134 98.3974 16.965 98.6762 16.6392C98.9549 16.3136 99.1717 15.9161 99.3271 15.4469C99.482 14.9776 99.5596 14.4453 99.5596 13.8496C99.5596 13.1897 99.4852 12.578 99.3363 12.0145C99.1875 11.451 98.9664 10.9625 98.6729 10.549C98.3797 10.1355 98.014 9.81199 97.5759 9.5784C97.1378 9.34492 96.6275 9.22807 96.0448 9.22807C95.5794 9.22807 95.154 9.31277 94.7682 9.48205C94.3825 9.65123 94.0503 9.89659 93.7716 10.218C93.4928 10.5393 93.276 10.9336 93.1207 11.4006C92.9658 11.8677 92.8881 12.3991 92.8881 12.9948C92.8881 13.6503 92.9615 14.2621 93.1082 14.8298C93.255 15.3976 93.4751 15.8893 93.7686 16.305C94.062 16.7207 94.4287 17.0474 94.8688 17.2852C95.309 17.5231 95.8205 17.642 96.4032 17.642Z" fill="#004441"/>
<path d="M52.1742 26.7741C52.0065 26.7698 51.7968 26.7667 51.5452 26.7645C51.2937 26.7624 51.0204 26.7591 50.7247 26.755C50.4292 26.7506 50.1212 26.7473 49.8003 26.7451C49.4798 26.743 49.1664 26.7409 48.8604 26.7389C48.5544 26.7366 48.2632 26.7376 47.9864 26.742C47.7097 26.7463 47.4687 26.7527 47.2633 26.7612V28.6704C47.2633 29.0346 47.2686 29.3527 47.2791 29.6247C47.2895 29.8968 47.302 30.1315 47.3168 30.3286C47.3315 30.5257 47.3503 30.6908 47.3732 30.8236C47.3962 30.9564 47.4204 31.0678 47.4457 31.1579V31.1834H45.9365V31.1579C45.9615 31.0678 45.9857 30.9564 46.0087 30.8236C46.0319 30.6908 46.0517 30.5257 46.0686 30.3286C46.0854 30.1315 46.0979 29.8968 46.1064 29.6247C46.1146 29.3527 46.1189 29.0346 46.1189 28.6704V24.4859C46.1189 24.1216 46.1146 23.8034 46.1064 23.5313C46.0979 23.2593 46.0854 23.0236 46.0686 22.8242C46.0517 22.6251 46.0319 22.4589 46.0087 22.3261C45.9857 22.1933 45.9615 22.0818 45.9365 21.9919V21.9663H47.4457V21.9919C47.4204 22.0818 47.3962 22.1933 47.3732 22.3261C47.3503 22.4589 47.3315 22.6251 47.3168 22.8242C47.302 23.0236 47.2895 23.2593 47.2791 23.5313C47.2686 23.8034 47.2633 24.1216 47.2633 24.4859V26.1315C47.4814 26.1399 47.7286 26.1453 48.0052 26.1473C48.2819 26.1496 48.5712 26.1496 48.8729 26.1473C49.1748 26.1453 49.4818 26.142 49.7943 26.1379C50.1065 26.1335 50.4083 26.1282 50.6995 26.1218C50.991 26.1154 51.2635 26.1078 51.517 26.0993C51.7708 26.0906 51.9896 26.082 52.1742 26.0735V24.4859C52.1742 24.1216 52.1689 23.8034 52.1584 23.5313C52.1479 23.2593 52.1354 23.0236 52.1207 22.8242C52.106 22.6251 52.087 22.4589 52.064 22.3261C52.041 22.1933 52.0168 22.0818 51.9918 21.9919V21.9663H53.5009V21.9919C53.4757 22.0818 53.4515 22.1933 53.4285 22.3261C53.4055 22.4589 53.3856 22.6251 53.3688 22.8242C53.3521 23.0236 53.3396 23.2593 53.3311 23.5313C53.3228 23.8034 53.3186 24.1216 53.3186 24.4859V28.6704C53.3186 29.0346 53.3228 29.3527 53.3311 29.6247C53.3396 29.8968 53.3521 30.1315 53.3688 30.3286C53.3856 30.5257 53.4055 30.6908 53.4285 30.8236C53.4515 30.9564 53.4757 31.0678 53.5009 31.1579V31.1834H51.9918V31.1579C52.0168 31.0678 52.041 30.9564 52.064 30.8236C52.087 30.6908 52.106 30.5257 52.1207 30.3286C52.1354 30.1315 52.1479 29.8968 52.1584 29.6247C52.1689 29.3527 52.1742 29.0346 52.1742 28.6704V26.7741Z" fill="#004441"/>
<path d="M59.411 21.8123C60.1111 21.8123 60.7575 21.929 61.3507 22.1626C61.9439 22.3962 62.4565 22.724 62.8881 23.1461C63.32 23.5681 63.6574 24.0747 63.9005 24.6661C64.1437 25.2576 64.2651 25.911 64.2651 26.6267C64.2651 27.0337 64.2189 27.4343 64.127 27.8285C64.0346 28.2228 63.8994 28.5958 63.7213 28.9469C63.543 29.2984 63.3242 29.623 63.0642 29.9209C62.8042 30.2186 62.5077 30.4758 62.1745 30.6923C61.8413 30.9085 61.4734 31.0778 61.071 31.1999C60.6686 31.3219 60.2345 31.3832 59.7694 31.3832C59.0693 31.3832 58.4226 31.2683 57.8294 31.0393C57.2364 30.81 56.7239 30.4852 56.2923 30.0655C55.8604 29.6455 55.523 29.1409 55.2797 28.5518C55.0367 27.9626 54.915 27.3079 54.915 26.5881C54.915 26.1809 54.9612 25.7803 55.0534 25.3861C55.1456 24.9918 55.2807 24.6168 55.459 24.2613C55.6371 23.9055 55.8552 23.5789 56.1129 23.2809C56.3707 22.9832 56.6662 22.725 56.9996 22.5065C57.3328 22.2879 57.7017 22.1176 58.1062 21.9953C58.5108 21.8733 58.9456 21.8123 59.411 21.8123ZM59.7694 30.8046C60.2345 30.8046 60.6601 30.7189 61.0458 30.5475C61.4314 30.3762 61.7636 30.1275 62.0424 29.8019C62.3211 29.4762 62.5382 29.0789 62.6933 28.6096C62.8484 28.1403 62.9258 27.6079 62.9258 27.0123C62.9258 26.3523 62.8514 25.7407 62.7025 25.1772C62.5539 24.6137 62.3326 24.1252 62.0393 23.7116C61.7459 23.2982 61.3802 22.9745 60.9421 22.7411C60.504 22.5075 59.9937 22.3908 59.411 22.3908C58.9456 22.3908 58.5203 22.4753 58.1346 22.6446C57.7487 22.8139 57.4165 23.0593 57.1378 23.3805C56.859 23.7019 56.6422 24.0962 56.4871 24.5634C56.332 25.0304 56.2543 25.5617 56.2543 26.1574C56.2543 26.8131 56.3278 27.4246 56.4744 27.9925C56.6212 28.5603 56.8413 29.0518 57.1346 29.4677C57.4282 29.8832 57.7949 30.21 58.2351 30.4479C58.6752 30.6857 59.1867 30.8046 59.7694 30.8046Z" fill="#004441"/>
<path d="M65.2334 31.1579C65.2796 31.0892 65.3318 30.9875 65.3905 30.8525C65.4492 30.7174 65.4954 30.5471 65.5289 30.3416C65.5751 30.0416 65.6263 29.704 65.683 29.3292C65.7395 28.9541 65.7982 28.5609 65.8591 28.1496C65.9198 27.7383 65.9805 27.3172 66.0414 26.8867C66.1021 26.456 66.1608 26.0319 66.2175 25.6139C66.274 25.1962 66.3286 24.7933 66.3809 24.4055C66.4333 24.0176 66.4805 23.6632 66.5223 23.3418C66.5644 23.0203 66.5989 22.7407 66.6261 22.5028C66.6534 22.2651 66.6733 22.0861 66.6859 21.9663H67.4844L71.4396 29.5251L75.3631 21.9663H75.9605L76.9918 29.6024C77.0211 29.8422 77.0525 30.048 77.0862 30.2193C77.1195 30.3908 77.1532 30.5376 77.1867 30.6597C77.2203 30.7818 77.2526 30.8824 77.2841 30.9618C77.3155 31.0412 77.346 31.1063 77.3752 31.1579V31.1834H75.7907V31.1579C75.8117 31.1106 75.8316 31.0335 75.8504 30.9263C75.8693 30.8193 75.8788 30.6908 75.8788 30.5407C75.8788 30.4851 75.8768 30.4282 75.8726 30.3704C75.8683 30.3125 75.8621 30.2494 75.8536 30.1809L75.0551 24.023L71.3454 31.1579L70.9113 31.1063L67.1764 23.9589C67.0296 24.9743 66.9019 25.9127 66.7928 26.7741C66.7466 27.1426 66.7006 27.5102 66.6544 27.8764C66.6084 28.2428 66.5675 28.5845 66.532 28.9016C66.4963 29.2187 66.4678 29.4985 66.447 29.7405C66.4261 29.9826 66.4156 30.1616 66.4156 30.2772C66.4156 30.4228 66.4196 30.5515 66.4281 30.663C66.4363 30.7743 66.4448 30.8686 66.4533 30.9457C66.4658 31.0358 66.4783 31.115 66.491 31.1834H65.2334V31.1579Z" fill="#004441"/>
<path d="M78.791 21.9674C79.315 21.9674 79.8358 21.9651 80.3536 21.9608C80.8712 21.9567 81.346 21.9513 81.7778 21.9447C82.2097 21.9385 82.5786 21.9288 82.8846 21.9158C83.1905 21.9031 83.3979 21.8859 83.507 21.8645L83.199 22.7193C83.0604 22.6808 82.8991 22.6466 82.7147 22.6165C82.5554 22.5909 82.3615 22.5662 82.133 22.5426C81.9045 22.5189 81.6415 22.5072 81.344 22.5072C81.2433 22.5072 81.1227 22.5105 80.9823 22.5169C80.8419 22.5233 80.7068 22.5309 80.5767 22.5393C80.426 22.548 80.2729 22.5565 80.1178 22.5651V26.0746C80.5495 26.0703 80.9393 26.0575 81.2873 26.036C81.6354 26.0146 81.9309 25.9932 82.174 25.9719C82.459 25.9459 82.7105 25.916 82.9285 25.8818L82.7335 26.8138C82.4444 26.7752 82.1487 26.7389 81.847 26.7045C81.587 26.6746 81.304 26.6478 80.998 26.6241C80.6921 26.6006 80.3986 26.5888 80.1178 26.5888V30.6191C80.6124 30.6191 81.0672 30.5975 81.4823 30.5548C81.8972 30.5119 82.2599 30.4626 82.5701 30.407C82.9305 30.347 83.2597 30.2763 83.5572 30.1948L83.3749 31.236C83.3247 31.2317 83.2492 31.2274 83.1486 31.2233C83.0479 31.2189 82.9358 31.2146 82.8121 31.2103C82.6885 31.2062 82.5586 31.2029 82.4223 31.2008C82.2861 31.1985 82.1572 31.1965 82.0356 31.1942C81.9142 31.1921 81.8061 31.1901 81.7117 31.1878C81.6175 31.1857 81.5493 31.1847 81.5073 31.1847H78.791V31.1589C78.8162 31.069 78.8402 30.9575 78.8632 30.8247C78.8864 30.6919 78.9062 30.527 78.9231 30.3299C78.9399 30.1328 78.9524 29.8979 78.9609 29.6259C78.9691 29.3538 78.9734 29.0356 78.9734 28.6715V24.487C78.9734 24.1226 78.9691 23.8045 78.9609 23.5325C78.9524 23.2604 78.9399 23.0247 78.9231 22.8253C78.9062 22.6262 78.8864 22.4602 78.8632 22.3272C78.8402 22.1944 78.8162 22.0831 78.791 21.993V21.9674Z" fill="#004441"/>
<path d="M19.4894 39.8818C30.2267 39.8818 38.9309 30.9838 38.9309 20.008C38.9309 9.03204 30.2267 0.134277 19.4894 0.134277C8.75212 0.134277 0.0478516 9.03204 0.0478516 20.008C0.0478516 30.9838 8.75212 39.8818 19.4894 39.8818Z" fill="#004441"/>
<path d="M14.0099 11.5355C13.9985 11.6294 13.9874 11.7283 13.9768 11.8329C13.9662 11.9374 13.9584 12.034 13.9535 12.1226C13.8504 12.1191 13.7212 12.1163 13.5658 12.1139C13.4103 12.1111 13.2852 12.1099 13.1902 12.1099C13.0954 12.1099 12.9604 12.1119 12.7853 12.1151C12.6103 12.1182 12.4794 12.121 12.3927 12.1226C12.3878 12.1226 12.3833 12.1159 12.3792 12.1023C12.3751 12.0892 12.373 12.0773 12.373 12.0674C12.373 12.059 12.3751 12.0483 12.3792 12.0348C12.3833 12.0213 12.3878 12.0137 12.3927 12.0121C12.4892 12.0006 12.5526 11.9795 12.5829 11.9493C12.6132 11.9195 12.6283 11.8702 12.6283 11.8015V10.7001C12.6283 10.6317 12.6132 10.5824 12.5829 10.5522C12.5526 10.522 12.4892 10.5013 12.3927 10.4894C12.3878 10.4878 12.3833 10.4803 12.3792 10.4667C12.3751 10.4536 12.373 10.4425 12.373 10.4341C12.373 10.4242 12.3751 10.4127 12.3792 10.3992C12.3833 10.3857 12.3878 10.3789 12.3927 10.3789C12.4794 10.3809 12.6037 10.3833 12.7657 10.3865C12.9277 10.39 13.061 10.3916 13.1657 10.3916C13.2541 10.3916 13.3792 10.3904 13.5412 10.3876C13.7031 10.3853 13.834 10.3825 13.9339 10.3789C13.9306 10.4477 13.9318 10.5363 13.9375 10.6448C13.9433 10.7537 13.9478 10.8515 13.951 10.9385C13.951 10.9453 13.9449 10.9525 13.9326 10.96C13.9204 10.9672 13.9036 10.9711 13.8823 10.9711C13.8709 10.9711 13.861 10.9695 13.8529 10.966C13.8447 10.9628 13.8406 10.9592 13.8406 10.956C13.8275 10.8507 13.7845 10.7505 13.7117 10.6563C13.639 10.5618 13.5363 10.5144 13.4038 10.5144H13.2565C13.2238 10.5144 13.1919 10.5228 13.1608 10.5395C13.1297 10.5562 13.1142 10.5975 13.1142 10.6627V11.1818H13.1976C13.2794 11.1818 13.3453 11.1568 13.3952 11.1067C13.4451 11.0566 13.4741 10.9902 13.4823 10.9083C13.4823 10.9036 13.4893 10.8988 13.5031 10.8944C13.5171 10.8905 13.5281 10.8885 13.5363 10.8885C13.5477 10.8885 13.5596 10.8905 13.5718 10.8944C13.5841 10.8988 13.5903 10.9036 13.5903 10.9083C13.5903 10.9704 13.5882 11.028 13.5841 11.0816C13.5801 11.1349 13.578 11.1901 13.578 11.247C13.578 11.3054 13.5801 11.3603 13.5841 11.4115C13.5882 11.4624 13.5903 11.5181 13.5903 11.5781C13.5903 11.5833 13.5841 11.5876 13.5718 11.592C13.5596 11.596 13.5477 11.5984 13.5363 11.5984C13.5281 11.5984 13.5174 11.596 13.5044 11.592C13.4913 11.5876 13.4839 11.5833 13.4823 11.5781C13.4725 11.4914 13.4451 11.4239 13.4001 11.3762C13.3551 11.3285 13.2876 11.3046 13.1976 11.3046H13.1142V11.8392C13.1142 11.8992 13.1297 11.939 13.1608 11.9585C13.1919 11.9775 13.2238 11.9871 13.2565 11.9871H13.3841C13.5085 11.9871 13.6189 11.941 13.7154 11.8492C13.8119 11.7573 13.8725 11.6441 13.897 11.5105C13.897 11.5069 13.9007 11.5046 13.9081 11.503C13.9155 11.5014 13.924 11.5006 13.9339 11.5006C13.9518 11.5006 13.9694 11.5038 13.9866 11.5105C14.0038 11.5173 14.0116 11.5256 14.0099 11.5355Z" fill="#FFF3E5" stroke="#FFF3E5" stroke-width="3.88889e-05" stroke-miterlimit="2" stroke-linejoin="round"/>
<path d="M13.4746 13.5859C13.5711 13.6443 13.6619 13.7142 13.747 13.7953C13.8321 13.8764 13.8746 13.9789 13.8746 14.1026C13.8746 14.2798 13.812 14.419 13.6869 14.5203C13.5617 14.6217 13.4042 14.6721 13.2145 14.6721C13.0983 14.6721 12.9989 14.6559 12.9163 14.6233C12.8337 14.5907 12.7392 14.564 12.6329 14.5442C12.6312 14.4841 12.6304 14.4039 12.6304 14.3033C12.6304 14.2031 12.6279 14.1145 12.623 14.0374C12.623 14.0322 12.63 14.0278 12.6439 14.0235C12.6578 14.0195 12.6697 14.0175 12.6795 14.0175C12.6909 14.0175 12.702 14.0191 12.7126 14.0223C12.7233 14.0259 12.7294 14.0306 12.731 14.0374C12.7621 14.1864 12.8271 14.3093 12.9261 14.4062C13.0251 14.5032 13.1212 14.5517 13.2145 14.5517C13.3094 14.5517 13.3777 14.5302 13.4194 14.4877C13.4611 14.4452 13.482 14.3868 13.482 14.3132C13.482 14.223 13.4394 14.1471 13.3544 14.0851C13.2693 14.0231 13.1777 13.9631 13.0795 13.9046C12.9797 13.8458 12.8873 13.7766 12.8022 13.6964C12.7171 13.6161 12.6746 13.5171 12.6746 13.4002C12.6746 13.2448 12.7322 13.1137 12.8476 13.0075C12.9629 12.9014 13.1212 12.8481 13.3224 12.8481C13.4124 12.8481 13.4901 12.8597 13.5556 12.8823C13.621 12.9046 13.6914 12.9237 13.7666 12.9388C13.7683 12.9988 13.7711 13.0739 13.7752 13.1645C13.7793 13.2547 13.7846 13.3291 13.7912 13.3875C13.7912 13.3927 13.7842 13.3971 13.7703 13.4014C13.7564 13.4058 13.7454 13.4078 13.7372 13.4078C13.7257 13.4078 13.7143 13.4062 13.7028 13.4026C13.6914 13.3994 13.684 13.3943 13.6807 13.3875C13.6497 13.2571 13.6038 13.1546 13.5433 13.0803C13.4828 13.0059 13.4083 12.9686 13.32 12.9686C13.2431 12.9686 13.1826 12.9897 13.1384 13.0314C13.0942 13.0731 13.0721 13.126 13.0721 13.1896C13.0721 13.273 13.1134 13.3446 13.1961 13.4038C13.2787 13.4634 13.3715 13.5239 13.4746 13.5859Z" fill="#FFF3E5" stroke="#FFF3E5" stroke-width="3.88889e-05" stroke-miterlimit="2" stroke-linejoin="round"/>
<path d="M14.1213 15.983C14.1213 15.9914 14.1151 15.9989 14.1029 16.0057C14.0906 16.0124 14.0763 16.0156 14.0599 16.0156C14.0534 16.0156 14.0444 16.0144 14.0329 16.012C14.0215 16.0092 14.0149 16.0065 14.0133 16.0033C13.9904 15.9111 13.936 15.8097 13.8501 15.6984C13.7642 15.5871 13.6836 15.5315 13.6084 15.5315H13.5716C13.5339 15.5315 13.5069 15.5394 13.4906 15.5553C13.4742 15.5712 13.466 15.5959 13.466 15.6293V16.8185C13.466 16.8853 13.4816 16.9346 13.5127 16.9664C13.5438 16.9982 13.6068 17.0192 13.7016 17.0292C13.7065 17.0292 13.711 17.0363 13.7151 17.0506C13.7192 17.0645 13.7213 17.0761 13.7213 17.0844C13.7213 17.0943 13.7192 17.1063 13.7151 17.1194C13.711 17.1329 13.7065 17.1397 13.7016 17.1397C13.6231 17.1397 13.5425 17.1373 13.4599 17.1333C13.3773 17.1289 13.2992 17.1269 13.2255 17.1269C13.1503 17.1269 13.0717 17.1289 12.9899 17.1333C12.9081 17.1373 12.8272 17.1397 12.747 17.1397C12.7421 17.1397 12.7376 17.1329 12.7335 17.1194C12.7294 17.1063 12.7273 17.0943 12.7273 17.0844C12.7273 17.0761 12.7294 17.0649 12.7335 17.0518C12.7376 17.0383 12.7421 17.0308 12.747 17.0292C12.8435 17.0176 12.9069 16.9966 12.9372 16.9664C12.9674 16.9362 12.9826 16.8869 12.9826 16.8185V15.6293C12.9826 15.5927 12.9752 15.5669 12.9605 15.5529C12.9458 15.5386 12.9179 15.5315 12.877 15.5315H12.8574C12.7903 15.5315 12.7077 15.5828 12.6096 15.6857C12.5114 15.7887 12.4418 15.8944 12.4009 16.0033C12.3993 16.0081 12.3932 16.0116 12.3826 16.0132C12.3719 16.0148 12.3633 16.0156 12.3568 16.0156C12.342 16.0156 12.3277 16.0124 12.3138 16.0057C12.2999 15.9989 12.293 15.9914 12.293 15.983C12.3093 15.8995 12.3269 15.797 12.3457 15.6758C12.3646 15.5545 12.378 15.4536 12.3862 15.3733C12.4435 15.3836 12.5327 15.392 12.6537 15.3983C12.7748 15.4051 12.9654 15.4087 13.2255 15.4087C13.448 15.4087 13.6333 15.4051 13.7814 15.3983C13.9294 15.392 14.0272 15.3836 14.0746 15.3733C14.0796 15.4536 14.0861 15.549 14.0943 15.6595C14.1025 15.77 14.1115 15.8777 14.1213 15.983Z" fill="#FFF3E5" stroke="#FFF3E5" stroke-width="3.88889e-05" stroke-miterlimit="2" stroke-linejoin="round"/>
<path d="M14.0099 19.0617C13.9985 19.1555 13.9874 19.2545 13.9768 19.359C13.9662 19.4635 13.9584 19.5601 13.9535 19.6488C13.8504 19.6452 13.7212 19.6424 13.5658 19.64C13.4103 19.6376 13.2852 19.636 13.1902 19.636C13.0954 19.636 12.9604 19.638 12.7853 19.6412C12.6103 19.6444 12.4794 19.6472 12.3927 19.6488C12.3878 19.6488 12.3833 19.642 12.3792 19.6285C12.3751 19.6154 12.373 19.6034 12.373 19.5935C12.373 19.5852 12.3751 19.5744 12.3792 19.5609C12.3833 19.5474 12.3878 19.5399 12.3927 19.5383C12.4892 19.5267 12.5526 19.5057 12.5829 19.4755C12.6132 19.4456 12.6283 19.3964 12.6283 19.3276V18.2262C12.6283 18.1578 12.6132 18.1085 12.5829 18.0783C12.5526 18.0481 12.4892 18.0275 12.3927 18.0155C12.3878 18.0139 12.3833 18.0064 12.3792 17.9929C12.3751 17.9797 12.373 17.9686 12.373 17.9603C12.373 17.9503 12.3751 17.9388 12.3792 17.9253C12.3833 17.9118 12.3878 17.905 12.3927 17.905C12.4794 17.907 12.6037 17.9094 12.7657 17.9126C12.9277 17.9162 13.061 17.9178 13.1657 17.9178C13.2541 17.9178 13.3792 17.9166 13.5412 17.9138C13.7031 17.9114 13.834 17.9086 13.9339 17.905C13.9306 17.9738 13.9318 18.0624 13.9375 18.1709C13.9433 18.2799 13.9478 18.3776 13.951 18.4647C13.951 18.4714 13.9449 18.4786 13.9326 18.4858C13.9204 18.4933 13.9036 18.4973 13.8823 18.4973C13.8709 18.4973 13.861 18.4957 13.8529 18.4921C13.8447 18.4889 13.8406 18.4857 13.8406 18.4822C13.8275 18.3768 13.7845 18.2771 13.7117 18.1825C13.639 18.0879 13.5363 18.0406 13.4038 18.0406H13.2565C13.2238 18.0406 13.1919 18.0489 13.1608 18.0656C13.1297 18.0823 13.1142 18.1233 13.1142 18.1888V18.7079H13.1976C13.2794 18.7079 13.3453 18.6829 13.3952 18.6328C13.4451 18.5827 13.4741 18.5163 13.4823 18.4345C13.4823 18.4297 13.4893 18.4249 13.5031 18.4206C13.5171 18.4166 13.5281 18.4146 13.5363 18.4146C13.5477 18.4146 13.5596 18.4166 13.5718 18.4206C13.5841 18.4249 13.5903 18.4297 13.5903 18.4345C13.5903 18.4965 13.5882 18.5541 13.5841 18.6078C13.5801 18.661 13.578 18.7163 13.578 18.7731C13.578 18.832 13.5801 18.8864 13.5841 18.9377C13.5882 18.9886 13.5903 19.0442 13.5903 19.1042C13.5903 19.1094 13.5841 19.1142 13.5718 19.1181C13.5596 19.1225 13.5477 19.1245 13.5363 19.1245C13.5281 19.1245 13.5174 19.1225 13.5044 19.1181C13.4913 19.1142 13.4839 19.1094 13.4823 19.1042C13.4725 19.0176 13.4451 18.95 13.4001 18.9023C13.3551 18.8546 13.2876 18.8308 13.1976 18.8308H13.1142V19.3654C13.1142 19.4254 13.1297 19.4651 13.1608 19.4846C13.1919 19.5037 13.2238 19.5132 13.2565 19.5132H13.3841C13.5085 19.5132 13.6189 19.4671 13.7154 19.3753C13.8119 19.2835 13.8725 19.1706 13.897 19.0366C13.897 19.0331 13.9007 19.0307 13.9081 19.0291C13.9155 19.0275 13.924 19.0267 13.9339 19.0267C13.9518 19.0267 13.9694 19.0299 13.9866 19.0366C14.0038 19.0434 14.0116 19.0517 14.0099 19.0617Z" fill="#FFF3E5" stroke="#FFF3E5" stroke-width="3.88889e-05" stroke-miterlimit="2" stroke-linejoin="round"/>
<path d="M14.1213 21.0005C14.1213 21.009 14.1151 21.0166 14.1029 21.0232C14.0906 21.03 14.0763 21.0331 14.0599 21.0331C14.0534 21.0331 14.0444 21.032 14.0329 21.0296C14.0215 21.0269 14.0149 21.024 14.0133 21.0209C13.9904 20.9287 13.936 20.8273 13.8501 20.716C13.7642 20.6047 13.6836 20.5491 13.6084 20.5491H13.5716C13.5339 20.5491 13.5069 20.557 13.4906 20.5729C13.4742 20.5888 13.466 20.6134 13.466 20.6469V21.8362C13.466 21.9028 13.4816 21.952 13.5127 21.984C13.5438 22.0158 13.6068 22.0368 13.7016 22.0467C13.7065 22.0467 13.711 22.0539 13.7151 22.0677C13.7192 22.0821 13.7213 22.0937 13.7213 22.1019C13.7213 22.1118 13.7192 22.1234 13.7151 22.137C13.711 22.1504 13.7065 22.1572 13.7016 22.1572C13.6231 22.1572 13.5425 22.1549 13.4599 22.1508C13.3773 22.1465 13.2992 22.1446 13.2255 22.1446C13.1503 22.1446 13.0717 22.1465 12.9899 22.1508C12.9081 22.1549 12.8272 22.1572 12.747 22.1572C12.7421 22.1572 12.7376 22.1504 12.7335 22.137C12.7294 22.1234 12.7273 22.1118 12.7273 22.1019C12.7273 22.0937 12.7294 22.0826 12.7335 22.0694C12.7376 22.056 12.7421 22.0483 12.747 22.0467C12.8435 22.0347 12.9069 22.0141 12.9372 21.984C12.9674 21.9537 12.9826 21.9044 12.9826 21.8362V20.6469C12.9826 20.6103 12.9752 20.5844 12.9605 20.5705C12.9458 20.5562 12.9179 20.5491 12.877 20.5491H12.8574C12.7903 20.5491 12.7077 20.6003 12.6096 20.7032C12.5114 20.8063 12.4418 20.912 12.4009 21.0209C12.3993 21.0257 12.3932 21.0292 12.3826 21.0308C12.3719 21.0325 12.3633 21.0331 12.3568 21.0331C12.342 21.0331 12.3277 21.03 12.3138 21.0232C12.2999 21.0166 12.293 21.009 12.293 21.0005C12.3093 20.9172 12.3269 20.8145 12.3457 20.6933C12.3646 20.5721 12.378 20.4712 12.3862 20.3909C12.4435 20.4012 12.5327 20.4095 12.6537 20.4159C12.7748 20.4227 12.9654 20.4263 13.2255 20.4263C13.448 20.4263 13.6333 20.4227 13.7814 20.4159C13.9294 20.4095 14.0272 20.4012 14.0746 20.3909C14.0796 20.4712 14.0861 20.5665 14.0943 20.677C14.1025 20.7875 14.1115 20.8953 14.1213 21.0005Z" fill="#FFF3E5" stroke="#FFF3E5" stroke-width="3.88889e-05" stroke-miterlimit="2" stroke-linejoin="round"/>
<path d="M13.7019 24.6108C13.7019 24.6228 13.6999 24.6345 13.6958 24.6473C13.6917 24.6597 13.6872 24.6661 13.6823 24.6661C13.6021 24.6661 13.5216 24.664 13.4405 24.6597C13.3596 24.6558 13.2814 24.6533 13.2062 24.6533C13.1309 24.6533 13.0524 24.6558 12.9706 24.6597C12.8888 24.664 12.8078 24.6661 12.7276 24.6661C12.7228 24.6661 12.7182 24.6593 12.7142 24.6457C12.7101 24.6327 12.708 24.6207 12.708 24.6108C12.708 24.6024 12.7101 24.5916 12.7142 24.5782C12.7182 24.5646 12.7228 24.557 12.7276 24.5556C12.8241 24.544 12.8876 24.523 12.9178 24.4927C12.9481 24.463 12.9632 24.4133 12.9632 24.3448V23.2434C12.9632 23.1751 12.9481 23.1259 12.9178 23.0956C12.8876 23.0655 12.8241 23.0446 12.7276 23.0329C12.7228 23.0312 12.7182 23.0236 12.7142 23.0102C12.7101 22.997 12.708 22.9859 12.708 22.9776C12.708 22.9675 12.7101 22.956 12.7142 22.9426C12.7182 22.929 12.7228 22.9224 12.7276 22.9224C12.8078 22.9224 12.8888 22.9246 12.9706 22.9285C13.0524 22.9331 13.1309 22.9349 13.2062 22.9349C13.2814 22.9349 13.3596 22.9331 13.4405 22.9285C13.5216 22.9246 13.6021 22.9224 13.6823 22.9224C13.6872 22.9224 13.6917 22.9285 13.6958 22.9413C13.6999 22.9537 13.7019 22.9661 13.7019 22.9776C13.7019 22.9859 13.6999 22.9974 13.6958 23.0112C13.6917 23.0257 13.6872 23.0329 13.6823 23.0329C13.589 23.0428 13.5268 23.0638 13.4958 23.0956C13.4647 23.1273 13.4492 23.1766 13.4492 23.2434V24.3448C13.4492 24.4116 13.4647 24.4609 13.4958 24.4927C13.5268 24.5244 13.589 24.5457 13.6823 24.5556C13.6872 24.5556 13.6917 24.5626 13.6958 24.577C13.6999 24.5912 13.7019 24.6024 13.7019 24.6108Z" fill="#FFF3E5" stroke="#FFF3E5" stroke-width="3.88889e-05" stroke-miterlimit="2" stroke-linejoin="round"/>
<path d="M14.0415 26.5609C14.0317 26.638 14.0198 26.7335 14.006 26.8483C13.9921 26.9628 13.9818 27.0494 13.9753 27.1077C13.9016 27.1077 13.8105 27.1257 13.7017 27.1619C13.5928 27.1976 13.4763 27.2156 13.352 27.2156C13.1851 27.2156 13.0374 27.1902 12.909 27.1393C12.7805 27.0879 12.6738 27.0207 12.5887 26.9372C12.5036 26.8535 12.4402 26.758 12.3985 26.65C12.3568 26.5422 12.3359 26.4298 12.3359 26.3125C12.3359 26.07 12.4296 25.8558 12.6169 25.6702C12.8043 25.4846 13.0558 25.3918 13.3716 25.3918C13.5106 25.3918 13.6251 25.4046 13.7152 25.4298C13.8051 25.4547 13.8878 25.4671 13.963 25.4671C13.9663 25.5473 13.9712 25.6376 13.9777 25.738C13.9843 25.8382 13.9908 25.9304 13.9974 26.0139C13.9974 26.0191 13.99 26.0236 13.9753 26.0279C13.9605 26.0318 13.9475 26.0343 13.936 26.0343C13.9278 26.0343 13.9184 26.0323 13.9078 26.0292C13.8972 26.0259 13.8902 26.0207 13.8869 26.0139C13.8657 25.8918 13.8047 25.7778 13.7041 25.6718C13.6035 25.5652 13.4894 25.5125 13.3618 25.5125C13.1687 25.5125 13.0337 25.5879 12.9568 25.7393C12.8799 25.8908 12.8415 26.0819 12.8415 26.3125C12.8415 26.5382 12.8795 26.725 12.9556 26.8733C13.0317 27.0211 13.1638 27.0951 13.352 27.0951C13.5025 27.0951 13.6251 27.0417 13.7201 26.9349C13.8149 26.8275 13.8861 26.7032 13.9336 26.5609C13.9352 26.5541 13.9422 26.5494 13.9544 26.5459C13.9667 26.5426 13.9769 26.5409 13.9851 26.5409C13.9933 26.5409 14.0047 26.543 14.0195 26.5469C14.0342 26.5514 14.0415 26.5558 14.0415 26.5609Z" fill="#FFF3E5" stroke="#FFF3E5" stroke-width="3.88889e-05" stroke-miterlimit="2" stroke-linejoin="round"/>
<path d="M14.1677 28.821C14.1677 29.072 14.0838 29.2854 13.9161 29.4606C13.7484 29.6363 13.5116 29.7241 13.2057 29.7241C12.8997 29.7241 12.6625 29.6359 12.494 29.4594C12.3255 29.2831 12.2412 29.0703 12.2412 28.821C12.2412 28.572 12.3255 28.3561 12.494 28.174C12.6625 27.9916 12.8997 27.9006 13.2057 27.9006C13.5051 27.9006 13.7403 27.9903 13.9112 28.1701C14.0822 28.3497 14.1677 28.5668 14.1677 28.821ZM13.6621 28.821C13.6621 28.5901 13.6294 28.3994 13.564 28.2481C13.4985 28.0965 13.3791 28.021 13.2057 28.021C13.0306 28.021 12.9108 28.0973 12.8462 28.2503C12.7815 28.4033 12.7492 28.5938 12.7492 28.821C12.7492 29.0536 12.7815 29.2421 12.8462 29.3868C12.9108 29.5314 13.0306 29.6037 13.2057 29.6037C13.3791 29.6037 13.4985 29.5309 13.564 29.3856C13.6294 29.24 13.6621 29.052 13.6621 28.821Z" fill="#FFF3E5" stroke="#FFF3E5" stroke-width="3.88889e-05" stroke-miterlimit="2" stroke-linejoin="round"/>
<path d="M9.97764 30.4819C10.8628 30.3731 21.8801 30.1384 21.8801 30.1384C23.1492 30.1384 24.4076 29.716 25.6555 28.871C26.9035 28.0263 27.8206 26.9714 28.4071 25.7067C28.4499 25.6085 28.5405 25.5597 28.679 25.5597C28.8285 25.5597 28.9618 25.6005 29.079 25.6819C29.1964 25.7638 29.2551 25.8648 29.2551 25.9848C28.3912 27.8708 27.6873 29.6694 27.1433 31.3813C23.1226 31.2506 20.259 31.185 18.5525 31.185C16.8674 31.185 14.0091 31.2506 9.97764 31.3813C9.80702 31.3813 9.72168 31.2287 9.72168 30.9236C9.72168 30.6508 9.80702 30.5038 9.97764 30.4819ZM16.238 19.3014C16.238 19.2525 16.2571 19.2052 16.291 19.1706C16.325 19.1356 16.3711 19.1161 16.4192 19.1161H20.5682C21.6348 19.1161 22.3573 18.8657 22.7359 18.3641C23.1145 17.8625 23.3785 16.9741 23.5278 15.6982C23.5278 15.5242 23.677 15.4367 23.9757 15.4367C24.2743 15.4367 24.4237 15.5242 24.4237 15.6982C24.4237 16.2436 24.3917 16.9304 24.3277 17.7588C24.2638 18.5549 24.2317 19.2036 24.2317 19.7052C24.2317 20.2175 24.2638 20.8714 24.3277 21.6675C24.3917 22.5176 24.4237 23.2158 24.4237 23.7607C24.4237 23.9351 24.2743 24.0221 23.9757 24.0221C23.677 24.0221 23.5278 23.9351 23.5278 23.7607C23.3678 22.4306 23.0879 21.4982 22.6879 20.964C22.2879 20.4298 21.5813 20.1631 20.5682 20.1631H16.4192C16.3711 20.1631 16.325 20.1432 16.291 20.1086C16.2571 20.074 16.238 20.0267 16.238 19.9779V19.3014ZM18.3925 9.87645C17.9313 9.87645 10.8842 9.65864 9.97764 9.54934C9.80702 9.54934 9.72168 9.3967 9.72168 9.09144C9.72168 8.78618 9.80702 8.63354 9.97764 8.63354C12.6653 8.76472 15.4169 8.8299 18.2325 8.8299C21.0694 8.8299 23.8265 8.76472 26.5035 8.63354C26.7487 10.3236 27.106 11.9918 27.5753 13.6378C27.5753 13.856 27.3885 13.9649 27.0154 13.9649C26.8341 13.9649 26.7221 13.8886 26.6794 13.7359C25.8901 11.1631 24.2051 9.87645 21.6241 9.87645H18.3925Z" fill="#FFF3E5"/>
</svg>
