<svg width="38" height="12" viewBox="0 0 38 12" fill="none" xmlns="http://www.w3.org/2000/svg">
<path d="M0.53878 8.2456C0.53878 7.65058 0.529322 7.15034 0.5 6.70381H1.51301L1.56125 7.47049H1.58963C1.81852 7.06609 2.23848 6.58691 3.0226 6.58691C3.63457 6.58691 4.11128 6.97026 4.3118 7.54421H4.33166C4.49435 7.25776 4.68446 7.04503 4.9039 6.89654C5.16212 6.69433 5.45912 6.58691 5.8403 6.58691C6.61401 6.58691 7.39718 7.17141 7.39718 8.8322V11.8831H6.25175V9.02282C6.25175 8.16241 5.98407 7.65058 5.42034 7.65058C5.0193 7.65058 4.72325 7.96968 4.59934 8.34249C4.57096 8.46887 4.54164 8.62894 4.54164 8.77744V11.8831H3.39526V8.8838C3.39526 8.1624 3.13799 7.65058 2.59318 7.65058C2.1543 7.65058 1.85825 8.03392 1.75231 8.39515C1.70502 8.52258 1.68516 8.67212 1.68516 8.82061V11.8842H0.539726V8.2456H0.53878Z" fill="#003D79"/>
<path d="M11.8605 10.6383C11.8605 11.1059 11.8795 11.5629 11.9267 11.882H10.8664L10.7908 11.3081H10.7615C10.4749 11.7125 9.98774 11.9989 9.38713 11.9989C8.45073 11.9989 7.92578 11.2449 7.92578 10.4571C7.92578 9.1481 8.96622 8.48989 10.6858 8.50042V8.41511C10.6858 8.07495 10.5609 7.51152 9.73993 7.51152C9.28119 7.51152 8.80353 7.6716 8.48856 7.89381L8.25967 7.04288C8.60301 6.80908 9.20552 6.58582 9.94045 6.58582C11.4311 6.58582 11.8605 7.63895 11.8605 8.76581V10.6383ZM10.7142 9.35241C9.88275 9.33029 9.09108 9.53249 9.09108 10.3192C9.09108 10.83 9.38807 11.0638 9.75979 11.0638C10.227 11.0638 10.5713 10.7225 10.6763 10.3508C10.7047 10.2549 10.7142 10.1496 10.7142 10.0643V9.35241Z" fill="#003D79"/>
<path d="M12.6726 8.24556C12.6726 7.65054 12.6622 7.1503 12.6348 6.70377H13.6648L13.7216 7.48098H13.7509C13.9514 7.07658 14.4574 6.58582 15.2311 6.58582C16.0436 6.58582 16.8835 7.17031 16.8835 8.80899V11.882H15.7088V8.95853C15.7088 8.21396 15.46 7.64948 14.8206 7.64948C14.3534 7.64948 14.028 8.02229 13.9041 8.41511C13.8663 8.53201 13.8568 8.69103 13.8568 8.83953V11.881H12.6726V8.24556Z" fill="#003D79"/>
<path d="M21.9753 4.62378V10.4255C21.9753 10.9573 21.9952 11.5324 22.0141 11.883H20.9642L20.9159 11.0648H20.8961C20.6189 11.6387 20.0552 11.9999 19.378 11.9999C18.2694 11.9999 17.3917 10.9479 17.3917 9.35341C17.3813 7.61995 18.3555 6.58788 19.4726 6.58788C20.112 6.58788 20.5707 6.88592 20.7807 7.27031H20.8005V4.62589H21.9753V4.62378ZM20.8015 8.86265C20.8015 8.75734 20.792 8.62886 20.7722 8.52249C20.6672 8.01277 20.2955 7.59784 19.7601 7.59784C19.0053 7.59784 18.5854 8.3424 18.5854 9.31023C18.5854 10.2559 19.0063 10.9479 19.7516 10.9479C20.2283 10.9479 20.6492 10.5866 20.7637 10.0222C20.793 9.90526 20.8024 9.77783 20.8024 9.63987V8.86265H20.8015Z" fill="#003D79"/>
<path d="M22.8066 11.882V6.70374H23.9918V11.882H22.8066Z" fill="#003D79"/>
<path d="M24.822 8.37409C24.822 7.67165 24.8126 7.17141 24.7842 6.70382H25.8057L25.8435 7.69166H25.8823C26.1112 6.95868 26.6551 6.70382 27.1535 6.70382C27.2671 6.70382 27.3342 6.68276 27.4297 6.70382V7.85279C27.3352 7.83173 27.2302 7.81067 27.0864 7.81067C26.5227 7.81067 26.1405 8.21402 26.0355 8.79851C26.0166 8.91541 25.9977 9.05442 25.9977 9.20397V11.8831H24.823V8.37409H24.822Z" fill="#003D79"/>
<path d="M27.9746 11.882V6.70374H29.1579V11.882H27.9746Z" fill="#003D79"/>
<path d="M36.5289 1.22748C35.9424 0.482908 35.3191 0.819911 34.8244 1.09373C34.6163 1.20852 33.1124 2.15739 33.1124 2.15739C32.2886 2.53547 31.6463 2.12264 31.3947 1.77511C31.3692 1.73825 31.3465 1.70455 31.3295 1.67085L31.2708 1.55816C31.181 1.3886 31.0732 1.19693 30.9398 1.00842C30.8689 0.906269 30.7894 0.803061 30.7024 0.707226C30.1387 0.0732383 29.2373 -0.370132 27.7314 0.435517C27.0183 0.895737 24.6953 2.37329 24.6953 2.37329C23.8232 2.77348 23.1545 2.28588 22.9379 1.92886C22.9284 1.91517 22.9189 1.89937 22.9123 1.88568L22.8839 1.83198L22.7364 1.56448C22.673 1.4539 22.603 1.34016 22.5236 1.22326C22.4517 1.12111 22.3722 1.02001 22.2862 0.922065C21.7262 0.29229 20.8305 -0.15108 19.337 0.639825C18.4346 1.21378 16.3348 2.55022 16.3348 2.55022C16.3348 2.55127 16.3348 2.55127 16.3339 2.55127C15.4703 3.101 14.7969 3.52858 14.7969 3.52858L15.5923 4.61541C15.9272 4.97032 16.5562 5.5527 17.5285 5.06194C17.5285 5.06194 20.2138 3.33059 20.2242 3.32532C22.5198 1.92254 23.6529 3.26319 24.1533 4.15625C24.1703 4.18363 24.1854 4.21417 24.2006 4.24155L24.2015 4.2426C24.2072 4.25313 24.2119 4.26367 24.2167 4.2742L24.2734 4.3774C24.5165 4.78918 24.9024 5.05562 25.3611 5.04299C25.6137 5.03772 25.7858 4.94505 26.0355 4.79129L28.6338 3.11364C28.6357 3.11259 28.6366 3.11154 28.6395 3.11154C30.9634 1.69191 32.1155 3.11996 32.6083 4.01302C32.6461 4.0899 32.6906 4.16362 32.7341 4.23312C32.9781 4.60067 33.3139 4.84184 33.7405 4.83025C34.0223 4.82393 34.3383 4.63542 34.3846 4.60067L37.5002 2.59866C37.5031 2.59655 37.1843 2.06156 36.5289 1.22748Z" fill="url(#paint0_linear_294_5565)"/>
<defs>
<linearGradient id="paint0_linear_294_5565" x1="16.7015" y1="7.84756" x2="41.8103" y2="-2.56703" gradientUnits="userSpaceOnUse">
<stop stop-color="#FDB913"/>
<stop offset="0.2247" stop-color="#FFCB05"/>
<stop offset="0.3933" stop-color="#FAA61A"/>
<stop offset="0.5281" stop-color="#FFCB05"/>
<stop offset="0.6461" stop-color="#FAA61A"/>
<stop offset="0.6683" stop-color="#FCB415"/>
<stop offset="0.6975" stop-color="#FFC10E"/>
<stop offset="0.7285" stop-color="#FFC907"/>
<stop offset="0.764" stop-color="#FFCB05"/>
<stop offset="0.7974" stop-color="#FFCB05"/>
<stop offset="1" stop-color="#FFCB05"/>
</linearGradient>
</defs>
</svg>
