<svg width="37" height="37" viewBox="0 0 37 37" fill="none" xmlns="http://www.w3.org/2000/svg">
<g filter="url(#filter0_d_65_9024)">
<path d="M4 28.4288C4.22624 27.6566 4.45399 26.8843 4.67721 26.1113C4.80962 25.6539 4.99879 25.4877 5.29313 25.583C5.56325 25.6707 5.62379 25.907 5.49667 26.3575C5.3582 26.8477 5.222 27.3387 5.07143 27.8753C5.17736 27.8266 5.24243 27.8006 5.30372 27.7671C6.85336 26.8996 8.39996 26.0282 9.95263 25.1668C10.1259 25.0707 10.1781 24.9602 10.1774 24.7673C10.1713 21.9047 10.1774 19.0422 10.1675 16.1796C10.166 15.8106 10.3007 15.5773 10.6192 15.402C11.5711 14.8783 12.5124 14.3363 13.4582 13.8019C13.5074 13.7736 13.5551 13.7432 13.6065 13.718C13.8524 13.5983 14.0734 13.6517 14.1997 13.8606C14.3291 14.0748 14.2678 14.3241 14.0204 14.4674C13.3092 14.8798 12.5918 15.28 11.8768 15.6848C11.7073 15.7809 11.5386 15.88 11.3335 15.9981C12.1938 16.483 13.0141 16.945 13.8343 17.4062C15.3082 18.2341 16.7845 19.0589 18.2569 19.8891C18.4052 19.973 18.524 20.0157 18.6958 19.9188C20.9575 18.6419 23.2236 17.3726 25.4891 16.1018C25.5352 16.0759 25.5791 16.0439 25.6578 15.9928C25.5019 15.9029 25.3741 15.8274 25.2454 15.755C23.0708 14.5345 20.8954 13.3162 18.7238 12.0912C18.5649 12.0012 18.4499 11.9936 18.2872 12.0874C17.4519 12.5676 16.6082 13.0327 15.7675 13.5023C15.7184 13.5297 15.6707 13.561 15.62 13.5869C15.3438 13.7302 15.1017 13.686 14.9746 13.4702C14.8391 13.2408 14.9246 12.9938 15.2053 12.8344C15.9696 12.4014 16.7217 11.9433 17.5086 11.5552C17.9505 11.3372 18.0958 11.0765 18.0837 10.5779C18.0451 8.97169 18.0693 7.36392 18.0685 5.75615C18.0685 5.65705 18.0602 5.55718 18.0519 5.36279C17.6811 5.747 17.3679 6.07176 17.0554 6.39499C16.9827 6.4697 16.9101 6.54441 16.8352 6.61683C16.6014 6.84477 16.3471 6.87221 16.1625 6.69154C15.9718 6.50477 15.99 6.25396 16.2215 6.01611C16.5454 5.68373 16.8745 5.35593 17.2014 5.0266C17.4617 4.76435 17.7174 4.49753 17.9838 4.24139C18.3137 3.92349 18.6845 3.91663 19.0121 4.23834C19.6129 4.82915 20.2046 5.43063 20.7948 6.03288C21.0119 6.25396 21.021 6.50858 20.8402 6.68925C20.6631 6.86611 20.4021 6.85239 20.1887 6.63894C19.7899 6.23871 19.398 5.83162 18.9493 5.37193C18.9402 5.55185 18.9304 5.65019 18.9304 5.74929C18.9296 7.47065 18.9342 9.192 18.9243 10.9134C18.9228 11.1413 18.9917 11.2656 19.1929 11.3776C21.5363 12.682 23.8698 14.0054 26.2177 15.3021C26.6604 15.5468 26.8548 15.8411 26.8367 16.3625C26.7996 17.4169 26.8261 18.4735 26.8253 19.5293C26.8253 19.5956 26.8268 19.6627 26.8253 19.729C26.8147 20.0324 26.6437 20.2192 26.385 20.2116C26.1398 20.204 25.9764 20.021 25.9749 19.7305C25.9711 18.8844 25.9733 18.0374 25.9733 17.1912C25.9733 17.0868 25.9733 16.9823 25.9733 16.8398C25.878 16.8847 25.8038 16.9145 25.7342 16.9534C23.5422 18.1815 21.3524 19.4127 19.1581 20.6354C18.9856 20.7315 18.913 20.8375 18.9266 21.0349C18.9425 21.2712 18.9364 21.5106 18.9289 21.7477C18.9243 21.8895 18.978 21.9467 19.1188 21.968C21.612 22.3484 23.1707 23.7892 23.8555 26.2173C23.8577 26.2257 23.866 26.2325 23.8978 26.2744C23.9932 26.2226 24.0961 26.1677 24.1975 26.1105C24.7249 25.8148 25.2485 25.5129 25.7804 25.2255C25.9249 25.1477 25.9756 25.0562 25.9749 24.8916C25.9688 23.8647 25.9749 22.8371 25.9733 21.8102C25.9733 21.5845 26.0619 21.4176 26.2813 21.3558C26.4826 21.2994 26.6672 21.3574 26.761 21.5548C26.811 21.66 26.8231 21.7919 26.8238 21.9124C26.8284 22.882 26.8223 23.8525 26.8329 24.8222C26.8337 24.9213 26.8995 25.0661 26.9789 25.1111C28.5883 26.0259 30.2046 26.9285 31.8193 27.8334C31.8352 27.8418 31.8548 27.8433 31.9184 27.8601C31.8564 27.6276 31.8026 27.4164 31.7436 27.2068C31.6437 26.8508 31.5363 26.4963 31.4409 26.1387C31.3721 25.8811 31.4856 25.6531 31.7035 25.5822C31.9419 25.5037 32.1779 25.6219 32.2559 25.8902C32.5033 26.7372 32.7454 27.5857 32.9747 28.438C33.0731 28.8039 32.8778 29.1561 32.5078 29.2674C31.6687 29.5212 30.8243 29.7583 29.9798 29.9931C29.7317 30.0625 29.51 29.9283 29.4456 29.6996C29.3828 29.4732 29.5024 29.2491 29.7551 29.1706C30.2235 29.0265 30.6972 28.8976 31.1678 28.7619C31.2639 28.7345 31.3577 28.701 31.5113 28.6522C30.7236 28.2093 29.9927 27.7984 29.2625 27.3875C28.3977 26.9018 27.5305 26.4216 26.671 25.9268C26.5075 25.8323 26.3895 25.8483 26.2351 25.9383C25.5579 26.3331 24.8769 26.7219 24.1899 27.0993C24.0333 27.1854 23.9886 27.2823 23.9871 27.4553C23.9652 30.0549 22.2642 32.2184 19.7589 32.845C16.6316 33.6272 13.4015 31.3554 13.0564 28.1323C13.0436 28.0095 12.9989 27.8807 13.0209 27.7648C13.1086 27.3036 12.8597 27.0978 12.4882 26.9102C11.8904 26.6091 11.3207 26.2508 10.732 25.9306C10.6427 25.8818 10.4883 25.8582 10.4074 25.9032C8.80478 26.7913 7.20823 27.6909 5.61092 28.5874C5.58747 28.6003 5.56401 28.6125 5.48305 28.6552C6.05584 28.8214 6.55977 28.967 7.06295 29.1134C7.14467 29.137 7.22941 29.1538 7.30508 29.1904C7.51921 29.2948 7.61153 29.4694 7.55326 29.705C7.49878 29.923 7.27027 30.064 7.04479 30.0015C6.1822 29.7606 5.3181 29.5235 4.4661 29.2468C4.28526 29.1881 4.15511 28.9708 4.00151 28.8267C4.00151 28.6933 4.00151 28.5607 4.00151 28.4273L4 28.4288ZM18.5104 32.1338C21.0528 32.1284 23.1374 30.0198 23.1351 27.4553C23.1328 24.8916 21.0452 22.7883 18.5006 22.7868C15.9461 22.7852 13.8524 24.903 13.8623 27.4789C13.8721 30.0419 15.965 32.1383 18.5104 32.133V32.1338ZM13.1185 26.2912C13.1503 26.1822 13.1699 26.1113 13.1911 26.0412C13.8191 23.9493 15.1773 22.619 17.2793 22.0663C17.5374 21.9985 17.9051 22.0214 18.0277 21.8552C18.1601 21.6768 18.0519 21.3254 18.0716 21.0509C18.0867 20.8428 18.0133 20.7292 17.8302 20.6278C15.6525 19.4142 13.4794 18.1914 11.3055 16.9716C11.2261 16.9274 11.1428 16.8908 11.0596 16.8504C11.0437 16.8855 11.0301 16.9008 11.0301 16.9168C11.0293 19.5979 11.0278 22.2798 11.0346 24.9609C11.0346 25.0364 11.0944 25.1454 11.1587 25.1828C11.7958 25.5517 12.439 25.9093 13.1185 26.2905V26.2912Z" fill="url(#paint0_radial_65_9024)"/>
</g>
<path d="M18.7178 27.4581C18.7178 27.0404 18.7132 26.6226 18.7185 26.2049C18.7238 25.7856 18.9327 25.5759 19.3458 25.5691C19.6099 25.5645 19.8732 25.5653 20.1373 25.5691C20.8977 25.579 21.4909 26.0669 21.5764 26.8231C21.6271 27.2706 21.6203 27.7372 21.5583 28.1831C21.4645 28.8555 20.8894 29.3251 20.2182 29.3472C19.9171 29.3571 19.6152 29.3564 19.314 29.3487C18.9349 29.3396 18.7253 29.1254 18.7193 28.7389C18.7125 28.312 18.7178 27.8843 18.7178 27.4574V27.4581ZM19.5849 28.4896C19.7801 28.4896 19.9572 28.4934 20.1342 28.4888C20.48 28.4789 20.7146 28.2822 20.7396 27.9392C20.7623 27.6182 20.7623 27.2927 20.7381 26.9718C20.7131 26.6417 20.4831 26.4442 20.1539 26.4305C19.9685 26.4221 19.7824 26.429 19.5849 26.429V28.4903V28.4896Z" fill="url(#paint1_radial_65_9024)"/>
<path d="M17.1371 27.0268V26.4261C16.702 26.4261 16.2783 26.4489 15.8599 26.4139C15.7116 26.4009 15.53 26.2744 15.4483 26.1448C15.39 26.0518 15.4316 25.8391 15.505 25.7354C15.5723 25.6409 15.7418 25.5806 15.869 25.5761C16.3305 25.5578 16.7928 25.5623 17.2552 25.5715C17.6872 25.5799 17.9914 25.8673 17.9997 26.3026C18.0141 27.0718 18.0141 27.8417 17.9997 28.6109C17.9921 29.0485 17.6917 29.3374 17.2597 29.3473C16.7981 29.358 16.3358 29.3542 15.8735 29.3496C15.586 29.3466 15.4021 29.1796 15.3953 28.9357C15.3885 28.6849 15.5837 28.4981 15.8811 28.492C16.2934 28.4844 16.7066 28.4897 17.1341 28.4897V27.8951C16.8186 27.8951 16.5106 27.8951 16.2034 27.8951C16.0808 27.8951 15.9575 27.9012 15.8357 27.8905C15.5716 27.8669 15.3953 27.6908 15.3945 27.4598C15.3945 27.2288 15.5701 27.0451 15.8349 27.0329C16.1361 27.0192 16.438 27.0275 16.7399 27.0268C16.8617 27.0268 16.9835 27.0268 17.1356 27.0268H17.1371Z" fill="url(#paint2_radial_65_9024)"/>
<defs>
<filter id="filter0_d_65_9024" x="0" y="0" width="37" height="37" filterUnits="userSpaceOnUse" color-interpolation-filters="sRGB">
<feFlood flood-opacity="0" result="BackgroundImageFix"/>
<feColorMatrix in="SourceAlpha" type="matrix" values="0 0 0 0 0 0 0 0 0 0 0 0 0 0 0 0 0 0 127 0" result="hardAlpha"/>
<feOffset/>
<feGaussianBlur stdDeviation="2"/>
<feComposite in2="hardAlpha" operator="out"/>
<feColorMatrix type="matrix" values="0 0 0 0 0 0 0 0 0 0 0 0 0 0 0 0 0 0 0.4 0"/>
<feBlend mode="overlay" in2="BackgroundImageFix" result="effect1_dropShadow_65_9024"/>
<feBlend mode="normal" in="SourceGraphic" in2="effect1_dropShadow_65_9024" result="shape"/>
</filter>
<radialGradient id="paint0_radial_65_9024" cx="0" cy="0" r="1" gradientUnits="userSpaceOnUse" gradientTransform="translate(32.0927 28.5305) rotate(-149.742) scale(25.1795 18.4545)">
<stop stop-color="#F2F3F6"/>
<stop offset="1" stop-color="#E5E6EC"/>
</radialGradient>
<radialGradient id="paint1_radial_65_9024" cx="0" cy="0" r="1" gradientUnits="userSpaceOnUse" gradientTransform="translate(21.5196 28.7706) rotate(-142.634) scale(2.73118 2.21838)">
<stop stop-color="#F2F3F6"/>
<stop offset="1" stop-color="#E5E6EC"/>
</radialGradient>
<radialGradient id="paint2_radial_65_9024" cx="0" cy="0" r="1" gradientUnits="userSpaceOnUse" gradientTransform="translate(17.9286 28.77) rotate(-139.79) scale(2.56897 2.13279)">
<stop stop-color="#F2F3F6"/>
<stop offset="1" stop-color="#E5E6EC"/>
</radialGradient>
</defs>
</svg>
