<svg width="62" height="24" viewBox="0 0 62 24" fill="none" xmlns="http://www.w3.org/2000/svg">
<g clip-path="url(#clip0_40_7983)">
<path d="M28.2363 5.29119C28.5577 5.29119 28.8772 5.28996 29.1946 5.28738C29.5122 5.28478 29.8034 5.28161 30.0682 5.27773C30.333 5.27384 30.5593 5.26808 30.7469 5.26038C30.9346 5.25268 31.0619 5.24238 31.1288 5.22949L30.9398 5.74247C30.8549 5.71929 30.756 5.6987 30.6428 5.6807C30.5452 5.6653 30.4261 5.65054 30.2861 5.63637C30.1459 5.62226 29.9846 5.6152 29.802 5.6152C29.7404 5.6152 29.6664 5.61708 29.5803 5.62096C29.4942 5.62485 29.4112 5.62931 29.3315 5.6345C29.239 5.63961 29.1452 5.64472 29.05 5.6499V7.75558C29.3148 7.75307 29.554 7.74529 29.7674 7.73247C29.9808 7.71959 30.162 7.70677 30.3112 7.69388C30.486 7.67848 30.6403 7.66048 30.774 7.6399L30.6544 8.1991C30.477 8.17599 30.2958 8.1541 30.1106 8.13352C29.9512 8.11552 29.7776 8.09946 29.59 8.08536C29.4023 8.07117 29.2223 8.06412 29.05 8.06412V10.4822C29.3534 10.4822 29.6324 10.4693 29.8869 10.4436C30.1415 10.4179 30.3639 10.3884 30.5541 10.355C30.7753 10.319 30.977 10.2766 31.1596 10.2277L31.0478 10.8524C31.0169 10.8499 30.9706 10.8473 30.909 10.8448C30.8473 10.8422 30.7785 10.8396 30.7026 10.837C30.6268 10.8345 30.547 10.8325 30.4635 10.8312C30.3799 10.83 30.3008 10.8287 30.2262 10.8274C30.1517 10.8261 30.0856 10.8248 30.0277 10.8235C29.9699 10.8222 29.9281 10.8216 29.9023 10.8216H28.2363V10.8062C28.2517 10.7522 28.2665 10.6854 28.2806 10.6056C28.2948 10.5259 28.307 10.4269 28.3172 10.3087C28.3275 10.1904 28.3353 10.0497 28.3405 9.88638C28.3456 9.72312 28.3482 9.53221 28.3482 9.31366V6.80298C28.3482 6.5845 28.3456 6.39359 28.3405 6.23033C28.3353 6.06707 28.3275 5.9256 28.3172 5.80611C28.307 5.68654 28.2948 5.58691 28.2806 5.50722C28.2665 5.42746 28.2517 5.36066 28.2363 5.30666V5.29119Z" fill="#FFF3E5"/>
<path d="M34.4145 6.17313H34.3297C34.3091 6.11403 34.2763 6.04715 34.2313 5.97256C34.1864 5.89807 34.1271 5.82795 34.0539 5.76244C33.9807 5.69686 33.892 5.64222 33.7878 5.59852C33.6836 5.55483 33.5609 5.53294 33.4195 5.53294C33.2936 5.53294 33.1817 5.55224 33.084 5.59083C32.9863 5.62934 32.9046 5.68333 32.8391 5.75279C32.7735 5.82219 32.724 5.90447 32.6906 5.99956C32.6572 6.09473 32.6405 6.20012 32.6405 6.31588C32.6405 6.50095 32.6926 6.67776 32.7966 6.84613C32.9008 7.01451 33.0313 7.18101 33.188 7.34557C33.3449 7.51014 33.5146 7.67462 33.6972 7.83918C33.8797 8.00374 34.0495 8.17471 34.2063 8.35216C34.3631 8.52954 34.4936 8.71533 34.5977 8.90941C34.7019 9.10356 34.7539 9.31246 34.7539 9.53613C34.7539 9.70322 34.7249 9.87101 34.6671 10.0394C34.6092 10.2078 34.5199 10.3589 34.3991 10.4925C34.2783 10.6262 34.1227 10.7349 33.9324 10.8184C33.7422 10.902 33.5159 10.9438 33.2537 10.9438C33.1071 10.9438 32.9677 10.9303 32.8352 10.9033C32.7029 10.8763 32.5806 10.8428 32.4689 10.803C32.3571 10.7631 32.2568 10.7201 32.168 10.6738C32.0793 10.6275 32.0067 10.5851 31.9502 10.5465L32.0389 9.69421H32.1353C32.1635 9.81508 32.2099 9.93011 32.2741 10.0394C32.3384 10.1487 32.4175 10.2451 32.5113 10.3286C32.6051 10.4122 32.7125 10.4791 32.8332 10.5292C32.9541 10.5794 33.0865 10.6044 33.2305 10.6044C33.3616 10.6044 33.4793 10.5845 33.5834 10.5446C33.6876 10.5048 33.7769 10.4495 33.8515 10.3788C33.926 10.3081 33.9831 10.2239 34.0231 10.1262C34.0629 10.0284 34.0829 9.92176 34.0829 9.80608C34.0829 9.64411 34.0533 9.49431 33.9942 9.35681C33.935 9.21924 33.8572 9.08873 33.7608 8.96535C33.6645 8.84196 33.5552 8.7224 33.433 8.60671C33.3109 8.49096 33.1856 8.37462 33.057 8.25765C32.9285 8.14067 32.8032 8.02044 32.681 7.89707C32.5589 7.77368 32.4496 7.64188 32.3531 7.50178C32.2568 7.36162 32.1791 7.21125 32.1198 7.0505C32.0607 6.88982 32.0311 6.7131 32.0311 6.52025C32.0311 6.3171 32.0703 6.13396 32.1487 5.9707C32.2272 5.80743 32.3313 5.66792 32.4611 5.55224C32.591 5.43656 32.7382 5.3478 32.9028 5.2861C33.0673 5.22441 33.237 5.1936 33.4117 5.1936C33.5404 5.1936 33.6586 5.20382 33.7666 5.22441C33.8745 5.24501 33.9716 5.2694 34.0577 5.29769C34.144 5.32599 34.2191 5.35428 34.2834 5.38256C34.3477 5.41085 34.4004 5.43396 34.4415 5.45196L34.4145 6.17313Z" fill="#FFF3E5"/>
<path d="M37.1569 5.63268C36.8534 5.63268 36.5796 5.64614 36.3354 5.67314C36.0912 5.7002 35.8803 5.72908 35.7029 5.75996C35.4973 5.79854 35.3133 5.84094 35.1514 5.88723L35.2632 5.26245C35.2941 5.26505 35.3404 5.26756 35.4021 5.27016C35.4639 5.27274 35.5325 5.27527 35.6085 5.27787C35.6842 5.28045 35.764 5.28239 35.8475 5.28369C35.9311 5.28492 36.0102 5.28622 36.0846 5.2875C36.1592 5.2888 36.2256 5.2901 36.2833 5.29139C36.3412 5.29269 36.3829 5.29327 36.4086 5.29327H38.6108C38.6364 5.29327 38.6783 5.29269 38.7361 5.29139C38.7939 5.2901 38.8602 5.2888 38.9347 5.2875C39.0093 5.28622 39.0884 5.28492 39.1719 5.28369C39.2555 5.28239 39.3352 5.28045 39.411 5.27787C39.4868 5.27527 39.5556 5.27274 39.6173 5.27016C39.6791 5.26756 39.7253 5.26505 39.7563 5.26245L39.868 5.88723C39.7036 5.84094 39.5184 5.79854 39.3128 5.75996C39.1352 5.72908 38.9244 5.7002 38.6802 5.67314C38.436 5.64614 38.1621 5.63268 37.8588 5.63268V9.31574C37.8588 9.53429 37.862 9.7252 37.8684 9.88846C37.8749 10.0517 37.8825 10.1925 37.8916 10.3107C37.9006 10.429 37.9121 10.528 37.9262 10.6077C37.9403 10.6874 37.9552 10.7542 37.9706 10.8082V10.8237H37.0488V10.8082C37.0643 10.7542 37.0784 10.6874 37.0913 10.6077C37.1042 10.528 37.1157 10.429 37.1259 10.3107C37.1363 10.1925 37.144 10.0517 37.1492 9.88846C37.1543 9.7252 37.1569 9.53429 37.1569 9.31574V5.63268Z" fill="#FFF3E5"/>
<path d="M40.4194 5.2946C40.7408 5.2946 41.0604 5.29338 41.3778 5.29079C41.6954 5.2882 41.9865 5.28503 42.2513 5.28115C42.5162 5.27726 42.7425 5.2715 42.9302 5.2638C43.1178 5.25609 43.2451 5.2458 43.3119 5.23291L43.123 5.74589C43.0382 5.72271 42.9392 5.70212 42.826 5.68412C42.7283 5.66872 42.6094 5.65396 42.4692 5.63978C42.3292 5.62567 42.1678 5.61862 41.9852 5.61862C41.9235 5.61862 41.8497 5.62049 41.7636 5.62438C41.6773 5.62827 41.5944 5.63273 41.5148 5.63792C41.4222 5.64303 41.3283 5.64813 41.2332 5.65332V7.759C41.4981 7.75647 41.7372 7.7487 41.9505 7.73589C42.164 7.72301 42.3452 7.71019 42.4943 7.6973C42.6691 7.6819 42.8234 7.6639 42.9571 7.64331L42.8375 8.20251C42.6602 8.1794 42.4789 8.15752 42.2938 8.13693C42.1344 8.11894 41.9609 8.10288 41.7732 8.08877C41.5855 8.07458 41.4054 8.06753 41.2332 8.06753V10.4856C41.5365 10.4856 41.8155 10.4728 42.0701 10.4471C42.3246 10.4214 42.547 10.3918 42.7373 10.3584C42.9584 10.3224 43.1603 10.28 43.3427 10.2311L43.2309 10.8559C43.2001 10.8533 43.1538 10.8508 43.0921 10.8482C43.0304 10.8456 42.9617 10.8431 42.8857 10.8405C42.8099 10.8379 42.7302 10.8359 42.6466 10.8346C42.5631 10.8334 42.4841 10.8321 42.4096 10.8308C42.335 10.8295 42.2687 10.8282 42.2109 10.8269C42.153 10.8256 42.1113 10.8251 42.0855 10.8251H40.4194V10.8096C40.4349 10.7556 40.4496 10.6888 40.4638 10.609C40.478 10.5293 40.4902 10.4304 40.5005 10.3121C40.5107 10.1938 40.5184 10.0531 40.5236 9.8898C40.5287 9.72654 40.5313 9.53563 40.5313 9.31708V6.80639C40.5313 6.58792 40.5287 6.39701 40.5236 6.23375C40.5184 6.07047 40.5107 5.92902 40.5005 5.80953C40.4902 5.68996 40.478 5.59032 40.4638 5.51064C40.4496 5.43087 40.4349 5.36407 40.4194 5.31008V5.2946Z" fill="#FFF3E5"/>
<path d="M45.7451 5.63268C45.4418 5.63268 45.1679 5.64614 44.9237 5.67314C44.6795 5.7002 44.4685 5.72908 44.2911 5.75996C44.0854 5.79854 43.9017 5.84094 43.7397 5.88723L43.8515 5.26245C43.8824 5.26505 43.9287 5.26756 43.9904 5.27016C44.052 5.27274 44.1209 5.27527 44.1966 5.27787C44.2726 5.28045 44.3522 5.28239 44.4357 5.28369C44.5192 5.28492 44.5984 5.28622 44.673 5.2875C44.7475 5.2888 44.8137 5.2901 44.8716 5.29139C44.9294 5.29269 44.9713 5.29327 44.9969 5.29327H47.199C47.2248 5.29327 47.2665 5.29269 47.3244 5.29139C47.3822 5.2901 47.4485 5.2888 47.523 5.2875C47.5976 5.28622 47.6766 5.28492 47.7601 5.28369C47.8437 5.28239 47.9234 5.28045 47.9993 5.27787C48.0752 5.27527 48.1439 5.27274 48.2056 5.27016C48.2673 5.26756 48.3136 5.26505 48.3444 5.26245L48.4564 5.88723C48.2917 5.84094 48.1066 5.79854 47.9009 5.75996C47.7236 5.72908 47.5127 5.7002 47.2685 5.67314C47.0242 5.64614 46.7504 5.63268 46.447 5.63268V9.31574C46.447 9.53429 46.4503 9.7252 46.4566 9.88846C46.4631 10.0517 46.4708 10.1925 46.4798 10.3107C46.4887 10.429 46.5004 10.528 46.5145 10.6077C46.5287 10.6874 46.5434 10.7542 46.5589 10.8082V10.8237H45.6371V10.8082C45.6526 10.7542 45.6667 10.6874 45.6795 10.6077C45.6924 10.528 45.704 10.429 45.7142 10.3107C45.7244 10.1925 45.7322 10.0517 45.7374 9.88846C45.7425 9.7252 45.7451 9.53429 45.7451 9.31574V5.63268Z" fill="#FFF3E5"/>
<path d="M49.043 10.8089C49.0584 10.7549 49.0725 10.6881 49.0854 10.6084C49.0983 10.5287 49.1098 10.4297 49.12 10.3114C49.1304 10.1931 49.1381 10.0524 49.1433 9.88914C49.1484 9.72587 49.151 9.53497 49.151 9.31641V6.80573C49.151 6.58725 49.1484 6.39635 49.1433 6.23308C49.1381 6.06981 49.1304 5.92836 49.12 5.80886C49.1098 5.68929 49.0983 5.58966 49.0854 5.50997C49.0725 5.43021 49.0584 5.36341 49.043 5.30942V5.29395H49.9647V5.30942C49.9493 5.36341 49.9344 5.43021 49.9203 5.50997C49.9062 5.58966 49.8946 5.68929 49.8857 5.80886C49.8767 5.92836 49.869 6.06981 49.8624 6.23308C49.8561 6.39635 49.8528 6.58725 49.8528 6.80573V9.31641C49.8528 9.53497 49.8561 9.72587 49.8624 9.88914C49.869 10.0524 49.8767 10.1931 49.8857 10.3114C49.8946 10.4297 49.9062 10.5287 49.9203 10.6084C49.9344 10.6881 49.9493 10.7549 49.9647 10.8089V10.8244H49.043V10.8089Z" fill="#FFF3E5"/>
<path d="M55.5756 6.14267L55.541 6.15807C55.3405 5.97293 55.0994 5.82513 54.8179 5.71457C54.5363 5.60399 54.2272 5.54871 53.8903 5.54871C53.5663 5.54871 53.2694 5.59953 52.9995 5.7011C52.7295 5.8026 52.4975 5.94982 52.3034 6.14267C52.1093 6.33545 51.9582 6.572 51.8502 6.85224C51.7422 7.13248 51.6883 7.45131 51.6883 7.80873C51.6883 8.20207 51.7396 8.56912 51.8425 8.90977C51.9453 9.25041 52.0982 9.54548 52.3014 9.79484C52.5045 10.0443 52.7584 10.2403 53.0631 10.383C53.3678 10.5257 53.7232 10.5971 54.1295 10.5971C54.2761 10.5971 54.4227 10.5816 54.5691 10.5508C54.7156 10.5199 54.8565 10.4742 54.9915 10.4139C55.1265 10.3535 55.2536 10.2802 55.3733 10.194C55.4928 10.1079 55.6014 10.0096 55.6991 9.899L55.7415 9.926L55.433 10.7127C55.2401 10.7873 55.0275 10.8445 54.7947 10.8844C54.5621 10.9242 54.3274 10.9441 54.0909 10.9441C53.6153 10.9441 53.1801 10.8754 52.7855 10.7378C52.3908 10.6002 52.0514 10.4055 51.7673 10.1536C51.4832 9.9016 51.2621 9.59882 51.104 9.24529C50.9459 8.89177 50.8667 8.49901 50.8667 8.06709C50.8667 7.82283 50.8982 7.58247 50.9612 7.34592C51.0243 7.10938 51.1162 6.88442 51.237 6.67098C51.3578 6.45761 51.507 6.26159 51.6843 6.08284C51.8617 5.90418 52.0642 5.74926 52.2917 5.61817C52.5194 5.48701 52.77 5.38479 53.0439 5.31158C53.3177 5.2383 53.614 5.20166 53.9328 5.20166C54.429 5.20166 54.8892 5.27746 55.3134 5.4292L55.5756 6.14267Z" fill="#FFF3E5"/>
<path d="M58.9693 5.20166C59.3987 5.20166 59.7953 5.27171 60.1592 5.41178C60.523 5.55195 60.8372 5.74861 61.1021 6.00186C61.3668 6.25511 61.5739 6.55918 61.723 6.914C61.8722 7.26875 61.9467 7.66087 61.9467 8.09027C61.9467 8.33451 61.9185 8.57488 61.8618 8.81143C61.8053 9.04798 61.7224 9.27164 61.613 9.48249C61.5038 9.69333 61.3694 9.88807 61.2101 10.0667C61.0506 10.2455 60.8688 10.3997 60.6644 10.5295C60.46 10.6594 60.2344 10.761 59.9876 10.8342C59.7407 10.9075 59.4746 10.9441 59.1892 10.9441C58.7598 10.9441 58.3633 10.8754 57.9994 10.7378C57.6357 10.6002 57.3212 10.4055 57.0565 10.1536C56.7916 9.9016 56.5848 9.59882 56.4356 9.24529C56.2865 8.89177 56.2119 8.49901 56.2119 8.06709C56.2119 7.82283 56.2402 7.58247 56.2968 7.34592C56.3533 7.10938 56.4362 6.88442 56.5454 6.67098C56.6548 6.45761 56.7884 6.26159 56.9466 6.08284C57.1047 5.90418 57.286 5.74926 57.4903 5.61817C57.6947 5.48701 57.921 5.38479 58.1692 5.31158C58.4172 5.2383 58.684 5.20166 58.9693 5.20166ZM59.1892 10.5971C59.4746 10.5971 59.7356 10.5456 59.9721 10.4428C60.2087 10.3399 60.4124 10.1908 60.5834 9.9954C60.7543 9.80002 60.8873 9.56153 60.9826 9.27999C61.0776 8.99845 61.1252 8.67905 61.1252 8.32164C61.1252 7.92571 61.0796 7.55865 60.9883 7.22059C60.897 6.88248 60.7614 6.58934 60.5814 6.34128C60.4014 6.09314 60.1771 5.89907 59.9085 5.75891C59.6397 5.61882 59.3267 5.54871 58.9693 5.54871C58.684 5.54871 58.423 5.59953 58.1865 5.7011C57.9499 5.8026 57.7462 5.94982 57.5752 6.14267C57.4042 6.33545 57.2711 6.572 57.176 6.85224C57.081 7.13248 57.0334 7.45131 57.0334 7.80873C57.0334 8.20207 57.0784 8.56912 57.1683 8.90977C57.2583 9.25041 57.3932 9.54548 57.5734 9.79484C57.7532 10.0443 57.9783 10.2403 58.2482 10.383C58.5181 10.5257 58.8318 10.5971 59.1892 10.5971Z" fill="#FFF3E5"/>
<path d="M32.0621 16.0761C31.9592 16.0736 31.8306 16.0717 31.6764 16.0703C31.5221 16.0691 31.3543 16.0671 31.1731 16.0646C30.9919 16.062 30.8028 16.06 30.6061 16.0588C30.4094 16.0574 30.2173 16.0562 30.0296 16.055C29.842 16.0536 29.6633 16.0543 29.4935 16.0568C29.3239 16.0594 29.176 16.0632 29.05 16.0684V17.2139C29.05 17.4324 29.0533 17.6232 29.0596 17.7865C29.0662 17.9498 29.0739 18.0906 29.0829 18.2089C29.0918 18.3272 29.1034 18.4261 29.1175 18.5058C29.1316 18.5855 29.1465 18.6524 29.1619 18.7063V18.7218H28.2363V18.7063C28.2517 18.6524 28.2665 18.5855 28.2806 18.5058C28.2948 18.4261 28.307 18.3272 28.3172 18.2089C28.3275 18.0906 28.3353 17.9498 28.3405 17.7865C28.3456 17.6232 28.3482 17.4324 28.3482 17.2139V14.7032C28.3482 14.4847 28.3456 14.2937 28.3405 14.1305C28.3353 13.9672 28.3275 13.8258 28.3172 13.7063C28.307 13.5867 28.2948 13.4871 28.2806 13.4074C28.2665 13.3276 28.2517 13.2608 28.2363 13.2067V13.1914H29.1619V13.2067C29.1465 13.2608 29.1316 13.3276 29.1175 13.4074C29.1034 13.4871 29.0918 13.5867 29.0829 13.7063C29.0739 13.8258 29.0662 13.9672 29.0596 14.1305C29.0533 14.2937 29.05 14.4847 29.05 14.7032V15.6905C29.1838 15.6956 29.3355 15.6988 29.5051 15.7001C29.6748 15.7014 29.8522 15.7014 30.0373 15.7001C30.2225 15.6988 30.4108 15.6969 30.6023 15.6943C30.7939 15.6917 30.979 15.6885 31.1576 15.6847C31.3364 15.6809 31.5034 15.6763 31.659 15.6712C31.8146 15.6661 31.9489 15.6609 32.0621 15.6557V14.7032C32.0621 14.4847 32.0589 14.2937 32.0525 14.1305C32.046 13.9672 32.0382 13.8258 32.0293 13.7063C32.0203 13.5867 32.0087 13.4871 31.9946 13.4074C31.9804 13.3276 31.9656 13.2608 31.9503 13.2067V13.1914H32.8759V13.2067C32.8604 13.2608 32.8456 13.3276 32.8315 13.4074C32.8174 13.4871 32.8051 13.5867 32.7948 13.7063C32.7846 13.8258 32.7769 13.9672 32.7717 14.1305C32.7665 14.2937 32.7639 14.4847 32.7639 14.7032V17.2139C32.7639 17.4324 32.7665 17.6232 32.7717 17.7865C32.7769 17.9498 32.7846 18.0906 32.7948 18.2089C32.8051 18.3272 32.8174 18.4261 32.8315 18.5058C32.8456 18.5855 32.8604 18.6524 32.8759 18.7063V18.7218H31.9503V18.7063C31.9656 18.6524 31.9804 18.5855 31.9946 18.5058C32.0087 18.4261 32.0203 18.3272 32.0293 18.2089C32.0382 18.0906 32.046 17.9498 32.0525 17.7865C32.0589 17.6232 32.0621 17.4324 32.0621 17.2139V16.0761Z" fill="#FFF3E5"/>
<path d="M36.5006 13.0991C36.93 13.0991 37.3266 13.1691 37.6904 13.3093C38.0543 13.4495 38.3685 13.6462 38.6333 13.8994C38.8981 14.1526 39.1052 14.4567 39.2543 14.8115C39.4033 15.1663 39.4779 15.5584 39.4779 15.9878C39.4779 16.232 39.4496 16.4725 39.3931 16.7089C39.3365 16.9454 39.2536 17.1692 39.1443 17.38C39.035 17.5908 38.9007 17.7857 38.7414 17.9643C38.5819 18.143 38.3999 18.2972 38.1955 18.4271C37.9912 18.5569 37.7656 18.6585 37.5187 18.7317C37.2719 18.8051 37.0058 18.8417 36.7204 18.8417C36.291 18.8417 35.8945 18.7729 35.5307 18.6353C35.1668 18.4978 34.8525 18.303 34.5877 18.051C34.3229 17.799 34.1159 17.4963 33.9668 17.1429C33.8178 16.7893 33.7432 16.3965 33.7432 15.9646C33.7432 15.7204 33.7714 15.4799 33.8279 15.2434C33.8846 15.0069 33.9675 14.782 34.0767 14.5686C34.186 14.3552 34.3197 14.1591 34.4779 13.9804C34.6359 13.8018 34.8172 13.6468 35.0216 13.5157C35.226 13.3845 35.4522 13.2823 35.7004 13.2091C35.9484 13.1357 36.2153 13.0991 36.5006 13.0991ZM36.7204 18.4945C37.0058 18.4945 37.2668 18.4432 37.5032 18.3403C37.7398 18.2375 37.9437 18.0883 38.1146 17.8929C38.2856 17.6975 38.4186 17.4591 38.5137 17.1775C38.6089 16.8961 38.6565 16.5765 38.6565 16.2192C38.6565 15.8232 38.6108 15.4562 38.5195 15.1181C38.4282 14.78 38.2926 14.4869 38.1126 14.2387C37.9326 13.9907 37.7084 13.7966 37.4398 13.6564C37.171 13.5163 36.858 13.4463 36.5006 13.4463C36.2153 13.4463 35.9543 13.497 35.7177 13.5985C35.4812 13.7001 35.2774 13.8473 35.1065 14.0402C34.9355 14.2331 34.8024 14.4696 34.7072 14.7498C34.6121 15.03 34.5646 15.3489 34.5646 15.7062C34.5646 16.0996 34.6095 16.4667 34.6996 16.8074C34.7895 17.1479 34.9245 17.443 35.1045 17.6924C35.2845 17.9418 35.5095 18.1379 35.7795 18.2805C36.0494 18.4232 36.363 18.4945 36.7204 18.4945Z" fill="#FFF3E5"/>
<path d="M40.0718 18.7063C40.1001 18.6651 40.1321 18.6041 40.1681 18.5231C40.2041 18.4422 40.2325 18.3399 40.253 18.2166C40.2813 18.0366 40.3128 17.834 40.3475 17.6091C40.3822 17.3842 40.4182 17.1483 40.4555 16.9014C40.4928 16.6546 40.53 16.402 40.5674 16.1437C40.6046 15.8852 40.6406 15.6307 40.6754 15.38C40.71 15.1293 40.7435 14.8877 40.7756 14.6549C40.8077 14.4223 40.8367 14.2096 40.8623 14.0167C40.8881 13.8238 40.9093 13.6562 40.926 13.5134C40.9427 13.3707 40.955 13.2634 40.9626 13.1914H41.4524L43.8783 17.7268L46.2847 13.1914H46.6511L47.2837 17.7731C47.3016 17.9171 47.3209 18.0404 47.3416 18.1433C47.362 18.2461 47.3826 18.3342 47.4032 18.4074C47.4238 18.4808 47.4436 18.5412 47.4629 18.5887C47.4822 18.6363 47.5009 18.6755 47.5188 18.7063V18.7218H46.547V18.7063C46.5598 18.6781 46.5721 18.6317 46.5837 18.5675C46.5952 18.5032 46.601 18.4261 46.601 18.3362C46.601 18.3027 46.5998 18.2686 46.5972 18.2339C46.5946 18.1992 46.5907 18.1613 46.5855 18.1202L46.0958 14.4256L43.8205 18.7063L43.5543 18.6755L41.2635 14.387C41.1734 14.9964 41.0951 15.5594 41.0282 16.0761C40.9999 16.2973 40.9717 16.5178 40.9433 16.7375C40.9151 16.9574 40.89 17.1624 40.8682 17.3527C40.8463 17.543 40.8289 17.7107 40.8161 17.8559C40.8033 18.0013 40.7968 18.1086 40.7968 18.178C40.7968 18.2654 40.7993 18.3425 40.8045 18.4094C40.8096 18.4762 40.8148 18.5328 40.82 18.579C40.8277 18.6331 40.8353 18.6806 40.8431 18.7218H40.0718V18.7063Z" fill="#FFF3E5"/>
<path d="M48.3867 13.1921C48.7082 13.1921 49.0275 13.1909 49.3451 13.1883C49.6627 13.1857 49.9539 13.1825 50.2186 13.1786C50.4835 13.1748 50.7098 13.169 50.8974 13.1612C51.0851 13.1535 51.2124 13.1432 51.2793 13.1304L51.0903 13.6433C51.0054 13.6203 50.9065 13.5996 50.7933 13.5817C50.6957 13.5662 50.5767 13.5514 50.4366 13.5373C50.2964 13.5232 50.1351 13.5161 49.9525 13.5161C49.8909 13.5161 49.8169 13.518 49.7308 13.5219C49.6446 13.5258 49.5617 13.5302 49.4821 13.5354C49.3895 13.5405 49.2956 13.5457 49.2005 13.5507V15.6566C49.4654 15.654 49.7045 15.6462 49.9179 15.6333C50.1313 15.6206 50.3125 15.6077 50.4616 15.5948C50.6365 15.5794 50.7908 15.5613 50.9244 15.5409L50.8049 16.1001C50.6275 16.0768 50.4463 16.055 50.2611 16.0345C50.1017 16.0164 49.9282 16.0004 49.7405 15.9862C49.5527 15.9721 49.3728 15.9651 49.2005 15.9651V18.3832C49.504 18.3832 49.7829 18.3703 50.0374 18.3446C50.292 18.3188 50.5143 18.2893 50.7046 18.2559C50.9258 18.2199 51.1275 18.1774 51.3101 18.1286L51.1983 18.7534C51.1674 18.7508 51.1211 18.7482 51.0594 18.7456C50.9978 18.743 50.9289 18.7404 50.8531 18.738C50.7772 18.7354 50.6975 18.7334 50.614 18.7321C50.5304 18.7309 50.4513 18.7295 50.3767 18.7283C50.3023 18.7271 50.2361 18.7257 50.1782 18.7245C50.1204 18.7231 50.0786 18.7225 50.0529 18.7225H48.3867V18.707C48.4023 18.6531 48.417 18.5862 48.4311 18.5065C48.4454 18.4268 48.4575 18.3279 48.4677 18.2096C48.478 18.0913 48.4858 17.9505 48.4909 17.7872C48.4961 17.6239 48.4987 17.4332 48.4987 17.2146V14.7039C48.4987 14.4854 48.4961 14.2945 48.4909 14.1312C48.4858 13.9679 48.478 13.8265 48.4677 13.707C48.4575 13.5874 48.4454 13.4878 48.4311 13.4081C48.417 13.3284 48.4023 13.2615 48.3867 13.2076V13.1921Z" fill="#FFF3E5"/>
<path d="M12.015 23.9429C18.6007 23.9429 23.9393 18.6043 23.9393 12.0187C23.9393 5.43314 18.6007 0.0944824 12.015 0.0944824C5.42948 0.0944824 0.0908203 5.43314 0.0908203 12.0187C0.0908203 18.6043 5.42948 23.9429 12.015 23.9429Z" fill="#FFF3E5"/>
<path d="M8.65434 6.93495C8.64733 6.99124 8.64055 7.05062 8.63402 7.11334C8.62751 7.17606 8.62274 7.23401 8.61973 7.28719C8.55651 7.28529 8.47724 7.28338 8.38192 7.28195C8.28658 7.28028 8.20983 7.27956 8.15162 7.27956C8.09343 7.27956 8.01063 7.28076 7.90326 7.28267C7.79589 7.28457 7.71561 7.28624 7.66244 7.28719C7.65943 7.28719 7.65666 7.28314 7.65416 7.27503C7.65163 7.26716 7.65039 7.26001 7.65039 7.25405C7.65039 7.24904 7.65163 7.2426 7.65416 7.23449C7.65666 7.22638 7.65943 7.22185 7.66244 7.2209C7.72162 7.21398 7.76052 7.20134 7.77908 7.18321C7.79766 7.16533 7.80693 7.13576 7.80693 7.0945V6.43366C7.80693 6.39264 7.79766 6.36307 7.77908 6.34495C7.76052 6.32681 7.72162 6.31441 7.66244 6.30726C7.65943 6.3063 7.65666 6.30178 7.65416 6.29367C7.65163 6.2858 7.65039 6.27912 7.65039 6.27411C7.65039 6.26815 7.65163 6.26123 7.65416 6.25313C7.65666 6.24501 7.65943 6.24097 7.66244 6.24097C7.71561 6.24215 7.79188 6.24359 7.89121 6.24549C7.99056 6.24765 8.07235 6.24859 8.13656 6.24859C8.19075 6.24859 8.26751 6.24788 8.36685 6.24645C8.4662 6.24478 8.54647 6.24311 8.60769 6.24097C8.60569 6.28222 8.60643 6.33541 8.60996 6.4005C8.61346 6.46585 8.61623 6.52451 8.61823 6.57674C8.61823 6.5808 8.61446 6.58509 8.60693 6.58962C8.59942 6.59392 8.58911 6.5963 8.57607 6.5963C8.56906 6.5963 8.56302 6.59535 8.55801 6.5932C8.55301 6.59129 8.5505 6.58915 8.5505 6.58723C8.54246 6.52404 8.51611 6.46419 8.47148 6.40743C8.42683 6.35066 8.36385 6.32228 8.28257 6.32228H8.19225C8.17219 6.32228 8.15262 6.32729 8.13356 6.33731C8.11448 6.34732 8.10497 6.37213 8.10497 6.41124V6.7227H8.15612C8.2063 6.7227 8.2467 6.70768 8.2773 6.67763C8.30789 6.64733 8.32571 6.60775 8.33074 6.55862C8.33074 6.55576 8.33501 6.5529 8.34352 6.55028C8.35206 6.54789 8.35884 6.54669 8.36385 6.54669C8.37087 6.54669 8.37815 6.54789 8.38567 6.55028C8.3932 6.5529 8.39696 6.55576 8.39696 6.55862C8.39696 6.59582 8.3957 6.63041 8.3932 6.6626C8.39069 6.69457 8.38943 6.72771 8.38943 6.76182C8.38943 6.79686 8.39069 6.82978 8.3932 6.86055C8.3957 6.89107 8.39696 6.92446 8.39696 6.96047C8.39696 6.96358 8.3932 6.96619 8.38567 6.96881C8.37815 6.9712 8.37087 6.97263 8.36385 6.97263C8.35884 6.97263 8.3523 6.9712 8.34429 6.96881C8.33625 6.96619 8.33174 6.96358 8.33074 6.96047C8.3247 6.90848 8.30789 6.86794 8.2803 6.83932C8.2527 6.81071 8.21133 6.79639 8.15612 6.79639H8.10497V7.11715C8.10497 7.15316 8.11448 7.17702 8.13356 7.18871C8.15262 7.20015 8.17219 7.20588 8.19225 7.20588H8.27052C8.34679 7.20588 8.41452 7.1782 8.47374 7.12312C8.53292 7.06803 8.57006 7.00006 8.5851 6.91993C8.5851 6.91803 8.58737 6.91634 8.59188 6.91539C8.59641 6.91444 8.60166 6.91397 8.60769 6.91397C8.61873 6.91397 8.62952 6.91587 8.64006 6.91993C8.6506 6.92399 8.65536 6.92899 8.65434 6.93495Z" fill="#004441" stroke="#004441" stroke-width="3.88889e-05" stroke-miterlimit="2" stroke-linejoin="round"/>
<path d="M8.32598 8.16333C8.3852 8.19839 8.44089 8.24036 8.49307 8.28902C8.54525 8.33766 8.57134 8.3992 8.57134 8.47336C8.57134 8.57973 8.53296 8.6632 8.4562 8.72401C8.37943 8.78482 8.28284 8.81512 8.16644 8.81512C8.09521 8.81512 8.03425 8.80533 7.98357 8.78577C7.93289 8.76622 7.87494 8.75024 7.80972 8.73832C7.80872 8.70207 7.80821 8.65413 7.80821 8.5938C7.80821 8.5337 7.80672 8.48051 7.80371 8.43425C7.80371 8.43115 7.80795 8.42853 7.81649 8.42591C7.82503 8.42352 7.8323 8.42232 7.83831 8.42232C7.84535 8.42232 7.85212 8.42328 7.85863 8.42519C7.86517 8.42733 7.86893 8.43019 7.86993 8.43425C7.88898 8.52368 7.92889 8.59737 7.98959 8.65557C8.05031 8.71376 8.10925 8.74286 8.16644 8.74286C8.22465 8.74286 8.26654 8.72996 8.29212 8.70446C8.31771 8.67893 8.33052 8.64389 8.33052 8.59976C8.33052 8.54562 8.30443 8.50007 8.25225 8.46287C8.20007 8.42567 8.14388 8.38966 8.08367 8.3546C8.02245 8.31931 7.96576 8.2778 7.91358 8.22963C7.8614 8.18145 7.83531 8.12232 7.83531 8.05196C7.83531 7.95871 7.87068 7.88001 7.94143 7.81633C8.01216 7.75266 8.10925 7.7207 8.23267 7.7207C8.28786 7.7207 8.33552 7.72762 8.37567 7.74121C8.4158 7.75458 8.45896 7.76602 8.50512 7.77507C8.50612 7.81109 8.50788 7.85617 8.51039 7.91054C8.51289 7.96467 8.51615 8.00927 8.52016 8.04433C8.52016 8.04742 8.51589 8.05028 8.50738 8.05267C8.49884 8.05529 8.49207 8.05649 8.48705 8.05649C8.48003 8.05649 8.47301 8.05554 8.46598 8.05339C8.45896 8.05148 8.45443 8.04838 8.45243 8.04433C8.43338 7.96611 8.40526 7.90457 8.36816 7.85998C8.33102 7.81538 8.28534 7.79296 8.23117 7.79296C8.18402 7.79296 8.14689 7.80561 8.11979 7.83065C8.0927 7.85568 8.07915 7.8874 8.07915 7.92557C8.07915 7.97565 8.10448 8.01858 8.15516 8.05411C8.20583 8.08988 8.26279 8.12613 8.32598 8.16333Z" fill="#004441" stroke="#004441" stroke-width="3.88889e-05" stroke-miterlimit="2" stroke-linejoin="round"/>
<path d="M8.72294 9.60363C8.72294 9.60863 8.71917 9.61316 8.71164 9.61722C8.70413 9.62127 8.69533 9.62318 8.68531 9.62318C8.68128 9.62318 8.67577 9.62246 8.66873 9.62104C8.66172 9.61937 8.65772 9.6177 8.65672 9.61555C8.64264 9.56046 8.60928 9.49941 8.5566 9.43287C8.50393 9.36609 8.4545 9.3327 8.40836 9.3327H8.38578C8.36268 9.3327 8.34614 9.33748 8.3361 9.34702C8.32605 9.35656 8.32106 9.37134 8.32106 9.39137V10.1049C8.32106 10.145 8.33059 10.1746 8.34965 10.1936C8.36872 10.2127 8.40736 10.2254 8.46555 10.2313C8.46856 10.2313 8.47132 10.2356 8.47383 10.244C8.47633 10.2525 8.47759 10.2595 8.47759 10.2645C8.47759 10.2704 8.47633 10.2773 8.47383 10.2855C8.47132 10.2936 8.46856 10.2976 8.46555 10.2976C8.41738 10.2976 8.36795 10.2962 8.31728 10.2938C8.26661 10.2912 8.2187 10.29 8.17355 10.29C8.12737 10.29 8.0792 10.2912 8.02905 10.2938C7.97887 10.2962 7.9292 10.2976 7.88002 10.2976C7.87702 10.2976 7.87425 10.2936 7.87175 10.2855C7.86924 10.2773 7.86797 10.2704 7.86797 10.2645C7.86797 10.2595 7.86924 10.2528 7.87175 10.2449C7.87425 10.2368 7.87702 10.2323 7.88002 10.2313C7.93923 10.2242 7.97811 10.2118 7.99668 10.1936C8.01524 10.1755 8.02452 10.1459 8.02452 10.1049V9.39137C8.02452 9.36943 8.02002 9.35393 8.01097 9.34558C8.00195 9.337 7.98488 9.3327 7.95979 9.3327H7.94776C7.90661 9.3327 7.85594 9.36347 7.79574 9.42524C7.73553 9.487 7.69289 9.55045 7.6678 9.61555C7.6668 9.61865 7.66302 9.62079 7.65651 9.62174C7.64998 9.6227 7.64471 9.62318 7.6407 9.62318C7.63166 9.62318 7.62289 9.62127 7.61438 9.61722C7.60583 9.61316 7.60156 9.60863 7.60156 9.60363C7.61161 9.55354 7.62238 9.49201 7.63392 9.41928C7.64547 9.34654 7.65374 9.28597 7.65875 9.23779C7.69389 9.24376 7.74857 9.24875 7.82283 9.25281C7.8971 9.25687 8.014 9.25901 8.17355 9.25901C8.31001 9.25901 8.42365 9.25687 8.51447 9.25281C8.60528 9.24875 8.66523 9.24376 8.69433 9.23779C8.69736 9.28597 8.70136 9.3432 8.70637 9.40949C8.7114 9.4758 8.71691 9.54043 8.72294 9.60363Z" fill="#004441" stroke="#004441" stroke-width="3.88889e-05" stroke-miterlimit="2" stroke-linejoin="round"/>
<path d="M8.65434 11.4506C8.64733 11.5069 8.64055 11.5663 8.63402 11.629C8.62751 11.6917 8.62274 11.7497 8.61973 11.8028C8.55651 11.8007 8.47724 11.799 8.38192 11.7976C8.28658 11.7962 8.20983 11.7952 8.15162 11.7952C8.09343 11.7952 8.01063 11.7964 7.90326 11.7983C7.79589 11.8002 7.71561 11.8019 7.66244 11.8028C7.65943 11.8028 7.65666 11.7988 7.65416 11.7907C7.65163 11.7828 7.65039 11.7756 7.65039 11.7697C7.65039 11.7647 7.65163 11.7582 7.65416 11.7501C7.65666 11.742 7.65943 11.7375 7.66244 11.7365C7.72162 11.7296 7.76052 11.717 7.77908 11.6988C7.79766 11.681 7.80693 11.6514 7.80693 11.6101V10.9493C7.80693 10.9083 7.79766 10.8787 7.77908 10.8606C7.76052 10.8425 7.72162 10.83 7.66244 10.8229C7.65943 10.8219 7.65666 10.8174 7.65416 10.8093C7.65163 10.8014 7.65039 10.7948 7.65039 10.7898C7.65039 10.7838 7.65163 10.7769 7.65416 10.7688C7.65666 10.7607 7.65943 10.7568 7.66244 10.7568C7.71561 10.7578 7.79188 10.7592 7.89121 10.7611C7.99056 10.7633 8.07235 10.7642 8.13656 10.7642C8.19075 10.7642 8.26751 10.7635 8.36685 10.7618C8.4662 10.7604 8.54647 10.7587 8.60769 10.7568C8.60569 10.7979 8.60643 10.851 8.60996 10.9164C8.61346 10.9815 8.61623 11.0402 8.61823 11.0924C8.61823 11.0964 8.61446 11.1007 8.60693 11.1053C8.59942 11.1096 8.58911 11.1119 8.57607 11.1119C8.56906 11.1119 8.56302 11.111 8.55801 11.1088C8.55301 11.1069 8.5505 11.105 8.5505 11.1029C8.54246 11.0397 8.51611 10.9798 8.47148 10.9231C8.42683 10.8663 8.36385 10.8379 8.28257 10.8379H8.19225C8.17219 10.8379 8.15262 10.8429 8.13356 10.8529C8.11448 10.8632 8.10497 10.8878 8.10497 10.9269V11.2383H8.15612C8.2063 11.2383 8.2467 11.2233 8.2773 11.1933C8.30789 11.1632 8.32571 11.1234 8.33074 11.0743C8.33074 11.0714 8.33501 11.0685 8.34352 11.0659C8.35206 11.0635 8.35884 11.0623 8.36385 11.0623C8.37087 11.0623 8.37815 11.0635 8.38567 11.0659C8.3932 11.0685 8.39696 11.0714 8.39696 11.0743C8.39696 11.1115 8.3957 11.146 8.3932 11.1782C8.39069 11.2102 8.38943 11.2433 8.38943 11.2775C8.38943 11.3127 8.39069 11.3454 8.3932 11.3762C8.3957 11.4067 8.39696 11.4401 8.39696 11.4761C8.39696 11.4792 8.3932 11.4818 8.38567 11.4845C8.37815 11.4871 8.37087 11.4883 8.36385 11.4883C8.35884 11.4883 8.3523 11.4871 8.34429 11.4845C8.33625 11.4818 8.33174 11.4792 8.33074 11.4761C8.3247 11.4241 8.30789 11.3836 8.2803 11.355C8.2527 11.3263 8.21133 11.312 8.15612 11.312H8.10497V11.6328C8.10497 11.6688 8.11448 11.6926 8.13356 11.7043C8.15262 11.7158 8.17219 11.7215 8.19225 11.7215H8.27052C8.34679 11.7215 8.41452 11.6939 8.47374 11.6387C8.53292 11.5837 8.57006 11.5159 8.5851 11.4356C8.5851 11.4337 8.58737 11.432 8.59188 11.431C8.59641 11.4301 8.60166 11.4296 8.60769 11.4296C8.61873 11.4296 8.62952 11.4315 8.64006 11.4356C8.6506 11.4396 8.65536 11.4446 8.65434 11.4506Z" fill="#004441" stroke="#004441" stroke-width="3.88889e-05" stroke-miterlimit="2" stroke-linejoin="round"/>
<path d="M8.72294 12.6142C8.72294 12.6191 8.71917 12.6237 8.71164 12.6278C8.70413 12.6317 8.69533 12.6337 8.68531 12.6337C8.68128 12.6337 8.67577 12.633 8.66873 12.6315C8.66172 12.6299 8.65772 12.6281 8.65672 12.6263C8.64264 12.571 8.60928 12.5101 8.5566 12.4433C8.50393 12.3766 8.4545 12.3432 8.40836 12.3432H8.38578C8.36268 12.3432 8.34614 12.348 8.3361 12.3575C8.32605 12.3671 8.32106 12.3818 8.32106 12.4019V13.1154C8.32106 13.1555 8.33059 13.1851 8.34965 13.2041C8.36872 13.2232 8.40736 13.2358 8.46555 13.2419C8.46856 13.2419 8.47132 13.2461 8.47383 13.2547C8.47633 13.263 8.47759 13.27 8.47759 13.275C8.47759 13.281 8.47633 13.2881 8.47383 13.2959C8.47132 13.3041 8.46856 13.3081 8.46555 13.3081C8.41738 13.3081 8.36795 13.3067 8.31728 13.3044C8.26661 13.3016 8.2187 13.3005 8.17355 13.3005C8.12737 13.3005 8.0792 13.3016 8.02905 13.3044C7.97887 13.3067 7.9292 13.3081 7.88002 13.3081C7.87702 13.3081 7.87425 13.3041 7.87175 13.2959C7.86924 13.2881 7.86797 13.281 7.86797 13.275C7.86797 13.27 7.86924 13.2633 7.87175 13.2554C7.87425 13.2473 7.87702 13.2427 7.88002 13.2419C7.93923 13.2347 7.97811 13.2222 7.99668 13.2041C8.01524 13.186 8.02452 13.1564 8.02452 13.1154V12.4019C8.02452 12.38 8.02002 12.3644 8.01097 12.3561C8.00195 12.3475 7.98488 12.3432 7.95979 12.3432H7.94776C7.90661 12.3432 7.85594 12.3739 7.79574 12.4358C7.73553 12.4975 7.69289 12.561 7.6678 12.6263C7.6668 12.6291 7.66302 12.6312 7.65651 12.6322C7.64998 12.6332 7.64471 12.6337 7.6407 12.6337C7.63166 12.6337 7.62289 12.6317 7.61438 12.6278C7.60583 12.6237 7.60156 12.6191 7.60156 12.6142C7.61161 12.5641 7.62238 12.5025 7.63392 12.4298C7.64547 12.357 7.65374 12.2965 7.65875 12.2483C7.69389 12.2545 7.74857 12.2595 7.82283 12.2633C7.8971 12.2674 8.014 12.2695 8.17355 12.2695C8.31001 12.2695 8.42365 12.2674 8.51447 12.2633C8.60528 12.2595 8.66523 12.2545 8.69433 12.2483C8.69736 12.2965 8.70136 12.3537 8.70637 12.4199C8.7114 12.4862 8.71691 12.551 8.72294 12.6142Z" fill="#004441" stroke="#004441" stroke-width="3.88889e-05" stroke-miterlimit="2" stroke-linejoin="round"/>
<path d="M8.46557 14.7782C8.46557 14.7854 8.4643 14.7926 8.4618 14.8002C8.4593 14.8075 8.45653 14.8114 8.45352 14.8114C8.40434 14.8114 8.35493 14.8101 8.30525 14.8075C8.25558 14.8052 8.20767 14.8037 8.1615 14.8037C8.11536 14.8037 8.06718 14.8052 8.017 14.8075C7.96683 14.8101 7.91717 14.8114 7.86799 14.8114C7.86499 14.8114 7.86223 14.8073 7.85972 14.7992C7.85722 14.7913 7.85596 14.7841 7.85596 14.7782C7.85596 14.7733 7.85722 14.7668 7.85972 14.7587C7.86223 14.7506 7.86499 14.746 7.86799 14.7451C7.92719 14.7381 7.96608 14.7255 7.98464 14.7074C8.00322 14.6895 8.01249 14.6597 8.01249 14.6186V13.9579C8.01249 13.9168 8.00322 13.8872 7.98464 13.8692C7.96608 13.851 7.92719 13.8386 7.86799 13.8314C7.86499 13.8305 7.86223 13.826 7.85972 13.8178C7.85722 13.8099 7.85596 13.8034 7.85596 13.7983C7.85596 13.7924 7.85722 13.7854 7.85972 13.7773C7.86223 13.7692 7.86499 13.7651 7.86799 13.7651C7.91717 13.7651 7.96683 13.7666 8.017 13.769C8.06718 13.7716 8.11536 13.7728 8.1615 13.7728C8.20767 13.7728 8.25558 13.7716 8.30525 13.769C8.35493 13.7666 8.40434 13.7651 8.45352 13.7651C8.45653 13.7651 8.4593 13.769 8.4618 13.7766C8.4643 13.7839 8.46557 13.7914 8.46557 13.7983C8.46557 13.8034 8.4643 13.8102 8.4618 13.8186C8.4593 13.8271 8.45653 13.8314 8.45352 13.8314C8.3963 13.8374 8.35818 13.85 8.33912 13.8692C8.32004 13.8882 8.31052 13.9178 8.31052 13.9579V14.6186C8.31052 14.6587 8.32004 14.6885 8.33912 14.7074C8.35818 14.7265 8.3963 14.7391 8.45352 14.7451C8.45653 14.7451 8.4593 14.7494 8.4618 14.7579C8.4643 14.7666 8.46557 14.7733 8.46557 14.7782Z" fill="#004441" stroke="#004441" stroke-width="3.88889e-05" stroke-miterlimit="2" stroke-linejoin="round"/>
<path d="M8.67405 15.9481C8.66801 15.9942 8.66073 16.0517 8.65222 16.1206C8.64369 16.1893 8.63741 16.2412 8.63341 16.2764C8.58824 16.2764 8.53231 16.287 8.46558 16.3088C8.39884 16.3302 8.32733 16.3409 8.25109 16.3409C8.14873 16.3409 8.05816 16.3257 7.97938 16.2952C7.90061 16.2644 7.83515 16.2241 7.78296 16.174C7.73078 16.1237 7.69189 16.0662 7.66633 16.0016C7.64073 15.9369 7.62793 15.8695 7.62793 15.7991C7.62793 15.6536 7.68538 15.5251 7.80028 15.4137C7.91519 15.3024 8.06946 15.2468 8.26314 15.2468C8.34841 15.2468 8.41866 15.2541 8.47386 15.2692C8.52904 15.2844 8.57973 15.2919 8.62587 15.2919C8.62788 15.34 8.63091 15.3942 8.6349 15.4545C8.63891 15.5145 8.64294 15.57 8.64695 15.6201C8.64695 15.6232 8.64245 15.6258 8.63341 15.6284C8.62436 15.6307 8.61636 15.6322 8.60932 15.6322C8.60431 15.6322 8.59854 15.6309 8.592 15.6291C8.58549 15.6269 8.58122 15.624 8.57922 15.6201C8.56618 15.5468 8.52878 15.4783 8.46709 15.4147C8.40537 15.3507 8.33537 15.3191 8.2571 15.3191C8.1387 15.3191 8.05591 15.3644 8.00874 15.4552C7.96159 15.5461 7.93801 15.6608 7.93801 15.7991C7.93801 15.9345 7.96133 16.0466 8.00801 16.1356C8.05465 16.2243 8.13569 16.2687 8.25109 16.2687C8.3434 16.2687 8.41866 16.2368 8.47686 16.1723C8.53506 16.1082 8.57873 16.0335 8.60782 15.9481C8.60881 15.9441 8.61309 15.941 8.6206 15.9391C8.62814 15.9371 8.63441 15.936 8.63942 15.936C8.64445 15.936 8.65146 15.9374 8.6605 15.9399C8.66954 15.9425 8.67405 15.9451 8.67405 15.9481Z" fill="#004441" stroke="#004441" stroke-width="3.88889e-05" stroke-miterlimit="2" stroke-linejoin="round"/>
<path d="M8.7514 17.3046C8.7514 17.455 8.69999 17.583 8.59712 17.6882C8.49427 17.7936 8.34903 17.8463 8.16136 17.8463C7.97373 17.8463 7.82823 17.7934 7.72487 17.6875C7.62151 17.5817 7.56982 17.454 7.56982 17.3046C7.56982 17.155 7.62151 17.0255 7.72487 16.9162C7.82823 16.8068 7.97373 16.7522 8.16136 16.7522C8.345 16.7522 8.48926 16.8061 8.59412 16.9139C8.69899 17.0216 8.7514 17.1519 8.7514 17.3046ZM8.44135 17.3046C8.44135 17.166 8.42127 17.0515 8.38114 16.9607C8.34099 16.8697 8.26773 16.8244 8.16136 16.8244C8.05401 16.8244 7.9805 16.8702 7.94086 16.962C7.90122 17.0538 7.8814 17.1681 7.8814 17.3046C7.8814 17.444 7.90122 17.5571 7.94086 17.6439C7.9805 17.7306 8.05401 17.7741 8.16136 17.7741C8.26773 17.7741 8.34099 17.7305 8.38114 17.6432C8.42127 17.5558 8.44135 17.4431 8.44135 17.3046Z" fill="#004441" stroke="#004441" stroke-width="3.88889e-05" stroke-miterlimit="2" stroke-linejoin="round"/>
<path d="M6.1814 18.3027C6.72434 18.2372 13.4816 18.0965 13.4816 18.0965C14.26 18.0965 15.0319 17.8431 15.7973 17.3361C16.5625 16.8292 17.1252 16.1963 17.4849 15.4375C17.511 15.3786 17.5667 15.3492 17.6517 15.3492C17.7432 15.3492 17.825 15.3738 17.897 15.4227C17.969 15.4718 18.005 15.5324 18.005 15.6044C17.475 16.736 17.0434 17.8154 16.7098 18.8423C14.2437 18.7638 12.4872 18.7245 11.4407 18.7245C10.4071 18.7245 8.65406 18.7638 6.1814 18.8423C6.07676 18.8423 6.02441 18.7507 6.02441 18.5675C6.02441 18.404 6.07676 18.3158 6.1814 18.3027ZM10.0211 11.5943C10.0211 11.5649 10.0328 11.5366 10.0536 11.5158C10.0745 11.4948 10.1028 11.4832 10.1322 11.4832H12.677C13.3311 11.4832 13.7743 11.3329 14.0065 11.0319C14.2387 10.731 14.4007 10.198 14.4922 9.43242C14.4922 9.32796 14.5838 9.2755 14.767 9.2755C14.9501 9.2755 15.0416 9.32796 15.0416 9.43242C15.0416 9.75963 15.0221 10.1717 14.9829 10.6687C14.9435 11.1464 14.924 11.5356 14.924 11.8366C14.924 12.144 14.9435 12.5363 14.9829 13.014C15.0221 13.5241 15.0416 13.9429 15.0416 14.2698C15.0416 14.3746 14.9501 14.4268 14.767 14.4268C14.5838 14.4268 14.4922 14.3746 14.4922 14.2698C14.3941 13.4718 14.2224 12.9127 13.9771 12.5921C13.7318 12.2713 13.2984 12.1113 12.677 12.1113H10.1322C10.1028 12.1113 10.0745 12.0994 10.0536 12.0786C10.0328 12.0579 10.0211 12.0295 10.0211 12.0002V11.5943ZM11.3426 5.93935C11.0597 5.93935 6.73742 5.80866 6.1814 5.7433C6.07676 5.7433 6.02441 5.6515 6.02441 5.46833C6.02441 5.28517 6.07676 5.1936 6.1814 5.1936C7.82983 5.2723 9.51751 5.31141 11.2444 5.31141C12.9844 5.31141 14.6753 5.2723 16.3172 5.1936C16.4677 6.20764 16.6869 7.20855 16.9746 8.19612C16.9746 8.32705 16.8602 8.3924 16.6312 8.3924C16.5201 8.3924 16.4513 8.34661 16.4252 8.25503C15.9411 6.71132 14.9075 5.93935 13.3245 5.93935H11.3426Z" fill="#004441" stroke="#004441" stroke-width="9.25926e-05" stroke-miterlimit="2" stroke-linejoin="round"/>
</g>
<defs>
<clipPath id="clip0_40_7983">
<rect width="61.9794" height="24" fill="white"/>
</clipPath>
</defs>
</svg>
