<svg width="90" height="92" viewBox="0 0 90 92" fill="none" xmlns="http://www.w3.org/2000/svg">
<circle cx="45" cy="45" r="45" fill="#004441"/>
<g filter="url(#filter0_d_2_9685)">
<circle cx="45.0001" cy="44.9999" r="38.3465" stroke="white" stroke-opacity="0.7" stroke-width="2"/>
</g>
<path d="M64.9974 35.1553C64.9974 36.3806 64.5166 37.5636 63.6424 38.4086L43.317 58.098C42.3991 58.943 41.1752 59.45 39.9076 59.45C38.64 59.45 37.4161 58.943 36.5419 58.098L26.3573 48.2533C25.4831 47.4083 25.0023 46.2252 25.0023 44.9999C25.0023 43.7746 25.5268 42.6338 26.4011 41.7465C27.319 40.9015 28.4992 40.4367 29.7668 40.3945C31.0344 40.3945 32.2145 40.8592 33.1325 41.7043L39.9076 48.2533L56.8673 31.8596C57.7852 31.0146 58.9654 30.5498 60.233 30.5498C61.5006 30.5921 62.6807 31.0568 63.5987 31.9441C64.4729 32.7892 64.9974 33.9299 64.9974 35.1553Z" fill="white"/>
<defs>
<filter id="filter0_d_2_9685" x="1.65356" y="4.65332" width="86.6931" height="86.6931" filterUnits="userSpaceOnUse" color-interpolation-filters="sRGB">
<feFlood flood-opacity="0" result="BackgroundImageFix"/>
<feColorMatrix in="SourceAlpha" type="matrix" values="0 0 0 0 0 0 0 0 0 0 0 0 0 0 0 0 0 0 127 0" result="hardAlpha"/>
<feOffset dy="3"/>
<feGaussianBlur stdDeviation="2"/>
<feColorMatrix type="matrix" values="0 0 0 0 0 0 0 0 0 0 0 0 0 0 0 0 0 0 0.12 0"/>
<feBlend mode="normal" in2="BackgroundImageFix" result="effect1_dropShadow_2_9685"/>
<feBlend mode="normal" in="SourceGraphic" in2="effect1_dropShadow_2_9685" result="shape"/>
</filter>
</defs>
</svg>
