<svg width="40" height="40" viewBox="0 0 40 40" fill="none" xmlns="http://www.w3.org/2000/svg">
<path d="M10 25C12.7614 25 15 22.7614 15 20C15 17.2386 12.7614 15 10 15C7.23858 15 5 17.2386 5 20C5 22.7614 7.23858 25 10 25Z" stroke="#004441" stroke-width="2" stroke-linecap="round" stroke-linejoin="round"/>
<path d="M30 15C32.7614 15 35 12.7614 35 10C35 7.23858 32.7614 5 30 5C27.2386 5 25 7.23858 25 10C25 12.7614 27.2386 15 30 15Z" stroke="#004441" stroke-width="2" stroke-linecap="round" stroke-linejoin="round"/>
<path d="M30 35C32.7614 35 35 32.7614 35 30C35 27.2386 32.7614 25 30 25C27.2386 25 25 27.2386 25 30C25 32.7614 27.2386 35 30 35Z" stroke="#004441" stroke-width="2" stroke-linecap="round" stroke-linejoin="round"/>
<path d="M14.5 17.8334L25.5 12.1667" stroke="#004441" stroke-width="2" stroke-linecap="round" stroke-linejoin="round"/>
<path d="M14.5 22.1667L25.5 27.8334" stroke="#004441" stroke-width="2" stroke-linecap="round" stroke-linejoin="round"/>
</svg>
