<svg width="57" height="18" viewBox="0 0 57 18" fill="none" xmlns="http://www.w3.org/2000/svg">
<g clip-path="url(#clip0_2_9026)">
<mask id="path-1-inside-1_2_9026" fill="white">
<path d="M25.2637 15.3508C25.1187 15.2759 25.0733 15.1261 25.1731 15.0104C25.2728 14.9014 25.4722 14.8674 25.6263 14.9423C25.717 14.9899 25.8167 15.0376 25.9255 15.0853C26.6688 15.4257 27.3669 15.5959 27.938 15.5959C28.4547 15.5959 28.8808 15.4461 29.1437 15.1534C29.1618 15.1329 29.18 15.1193 29.18 15.1057C29.2525 15.0104 29.3159 14.915 29.3522 14.8197C29.4247 14.6223 29.4157 14.418 29.3069 14.2341C29.1981 14.0367 28.9715 13.8528 28.627 13.6962C28.4003 13.5941 28.1102 13.4988 27.7658 13.4239C26.8864 13.24 26.2428 12.9745 25.8892 12.6272C25.5085 12.2391 25.4813 11.7761 25.8892 11.211C26.1612 10.8365 26.7142 10.605 27.4213 10.5641C28.0287 10.5301 28.7629 10.639 29.5063 10.925C29.6695 10.9863 29.7329 11.1361 29.6514 11.2518C29.5698 11.3744 29.3703 11.4221 29.2162 11.3608C28.5816 11.1157 27.9743 11.0271 27.4757 11.0544C26.9952 11.0816 26.6235 11.2246 26.4694 11.4493C26.1974 11.8238 26.1974 12.1166 26.4241 12.3413C26.6779 12.6 27.2128 12.8043 27.9471 12.9609C28.3459 13.0426 28.6814 13.1583 28.9624 13.2877C29.4247 13.4988 29.7329 13.7643 29.8961 14.0503C30.0684 14.3431 30.0865 14.6631 29.9686 14.9627C29.9143 15.0989 29.8327 15.2419 29.7239 15.3712C29.6967 15.3985 29.6786 15.4257 29.6695 15.4393C29.2797 15.8751 28.6632 16.093 27.9199 16.093C27.2309 16.093 26.4241 15.9023 25.5719 15.5142C25.4903 15.4598 25.3816 15.4121 25.2637 15.3508Z"/>
</mask>
<path d="M25.2637 15.3508L25.7251 14.4636L25.7225 14.4623L25.2637 15.3508ZM25.1731 15.0104L24.4354 14.3352L24.4252 14.3463L24.4154 14.3577L25.1731 15.0104ZM25.6263 14.9423L26.0917 14.0572L26.0777 14.0498L26.0634 14.0429L25.6263 14.9423ZM25.9255 15.0853L26.3419 14.1761L26.3344 14.1726L26.3268 14.1693L25.9255 15.0853ZM29.1437 15.1534L29.8878 15.8215L29.8916 15.8172L29.1437 15.1534ZM29.18 15.1057L28.3841 14.5002L28.18 14.7685V15.1057H29.18ZM29.3522 14.8197L30.2869 15.1753L30.2909 15.1645L29.3522 14.8197ZM29.3069 14.2341L28.431 14.7167L28.4384 14.7302L28.4463 14.7434L29.3069 14.2341ZM28.627 13.6962L29.0408 12.7859L29.0378 12.7845L28.627 13.6962ZM27.7658 13.4239L27.9782 12.4467L27.9704 12.445L27.7658 13.4239ZM25.8892 12.6272L25.1754 13.3275L25.1819 13.3342L25.1885 13.3407L25.8892 12.6272ZM25.8892 11.211L25.0801 10.6234L25.0784 10.6257L25.8892 11.211ZM27.4213 10.5641L27.3653 9.56569L27.3636 9.56579L27.4213 10.5641ZM29.5063 10.925L29.1472 11.8584L29.1547 11.8612L29.5063 10.925ZM29.6514 11.2518L28.834 10.6757L28.8263 10.6866L28.8189 10.6977L29.6514 11.2518ZM29.2162 11.3608L29.5857 10.4315L29.5765 10.4279L29.2162 11.3608ZM27.4757 11.0544L27.4211 10.0559L27.4191 10.056L27.4757 11.0544ZM26.4694 11.4493L27.2785 12.0369L27.2865 12.026L27.2941 12.0149L26.4694 11.4493ZM26.4241 12.3413L27.138 11.6409L27.1281 11.6311L26.4241 12.3413ZM27.9471 12.9609L27.7385 13.9389L27.7464 13.9405L27.9471 12.9609ZM28.9624 13.2877L28.5442 14.1961L28.5471 14.1974L28.9624 13.2877ZM29.8961 14.0503L29.0275 14.5459L29.0342 14.5574L29.8961 14.0503ZM29.9686 14.9627L30.8973 15.3336L30.8992 15.3288L29.9686 14.9627ZM29.7239 15.3712L30.4315 16.0778L30.4617 16.0476L30.4893 16.0148L29.7239 15.3712ZM29.6695 15.4393L30.4148 16.106L30.4624 16.0529L30.5019 15.9935L29.6695 15.4393ZM25.5719 15.5142L25.0167 16.3459L25.0839 16.3908L25.1574 16.4243L25.5719 15.5142ZM25.7225 14.4623C25.8483 14.5272 26.0192 14.6725 26.0902 14.9286C26.168 15.2089 26.0851 15.4839 25.9307 15.6631L24.4154 14.3577C24.1613 14.6526 24.0512 15.0603 24.163 15.4632C24.268 15.8419 24.5341 16.0995 24.8049 16.2393L25.7225 14.4623ZM25.9107 15.6856C25.7766 15.832 25.627 15.8808 25.5339 15.8954C25.4349 15.9109 25.314 15.9023 25.1892 15.8417L26.0634 14.0429C25.5623 13.7993 24.8706 13.8597 24.4354 14.3352L25.9107 15.6856ZM25.161 15.8274C25.2756 15.8877 25.397 15.9455 25.5242 16.0012L26.3268 14.1693C26.2364 14.1297 26.1584 14.0922 26.0917 14.0572L25.161 15.8274ZM25.5091 15.9945C26.3414 16.3756 27.1834 16.5959 27.938 16.5959V14.5959C27.5503 14.5959 26.9963 14.4758 26.3419 14.1761L25.5091 15.9945ZM27.938 16.5959C28.6262 16.5959 29.3712 16.3967 29.8878 15.8215L28.3996 14.4852C28.3904 14.4956 28.2832 14.5959 27.938 14.5959V16.5959ZM29.8916 15.8172C29.8792 15.8312 29.8692 15.8412 29.8733 15.837C29.8735 15.8368 29.8797 15.8305 29.8855 15.8244C29.8919 15.8177 29.9032 15.8058 29.9165 15.7908C29.938 15.7666 29.9945 15.7017 30.0475 15.6078C30.1026 15.5103 30.18 15.3361 30.18 15.1057H28.18C28.18 14.8821 28.255 14.7147 28.3061 14.6242C28.3552 14.5373 28.4061 14.4797 28.4207 14.4632C28.4364 14.4455 28.4518 14.4301 28.4407 14.4414C28.4363 14.446 28.4173 14.4653 28.3958 14.4895L29.8916 15.8172ZM29.9758 15.7112C30.0621 15.5978 30.1978 15.4094 30.2869 15.1753L28.4175 14.4642C28.4231 14.4494 28.4278 14.4399 28.4298 14.4361C28.4317 14.4322 28.4319 14.4323 28.4291 14.4369C28.4263 14.4415 28.4214 14.449 28.4137 14.46C28.406 14.471 28.3963 14.4842 28.3841 14.5002L29.9758 15.7112ZM30.2909 15.1645C30.4553 14.7168 30.4457 14.195 30.1675 13.7249L28.4463 14.7434C28.422 14.7025 28.4039 14.6488 28.3999 14.5905C28.396 14.5345 28.4065 14.4942 28.4135 14.475L30.2909 15.1645ZM30.1827 13.7516C29.9252 13.2842 29.4754 12.9835 29.0408 12.7859L28.2131 14.6066C28.3291 14.6593 28.3973 14.7043 28.4324 14.7322C28.468 14.7605 28.4544 14.7591 28.431 14.7167L30.1827 13.7516ZM29.0378 12.7845C28.7363 12.6487 28.3778 12.5336 27.9782 12.4467L27.5533 14.4011C27.8427 14.464 28.0644 14.5396 28.2161 14.6079L29.0378 12.7845ZM27.9704 12.445C27.1332 12.27 26.7299 12.0513 26.5899 11.9138L25.1885 13.3407C25.7556 13.8977 26.6397 14.2101 27.5611 14.4027L27.9704 12.445ZM26.6031 11.9269C26.5728 11.8961 26.5715 11.8861 26.5778 11.8997C26.5857 11.9166 26.593 11.9432 26.5934 11.971C26.5941 12.0241 26.5712 11.9748 26.7 11.7963L25.0784 10.6257C24.7993 11.0123 24.586 11.477 24.5936 12C24.6015 12.5469 24.8479 12.9937 25.1754 13.3275L26.6031 11.9269ZM26.6984 11.7986C26.7157 11.7748 26.906 11.5956 27.479 11.5625L27.3636 9.56579C26.5223 9.6144 25.6067 9.89821 25.0801 10.6234L26.6984 11.7986ZM27.4772 11.5626C27.9306 11.5372 28.5237 11.6184 29.1473 11.8583L29.8654 9.99169C29.0022 9.65962 28.1267 9.52302 27.3653 9.5657L27.4772 11.5626ZM29.1547 11.8612C29.0313 11.8148 28.8554 11.6997 28.7544 11.4688C28.644 11.2163 28.668 10.9112 28.834 10.6757L30.4687 11.828C30.7163 11.4767 30.7494 11.0388 30.5868 10.6672C30.4337 10.3172 30.1445 10.0965 29.8579 9.98884L29.1547 11.8612ZM28.8189 10.6977C28.9508 10.4997 29.1251 10.4281 29.2214 10.4044C29.3241 10.379 29.4504 10.3777 29.5857 10.4315L28.8467 12.29C29.1361 12.4051 29.4392 12.4106 29.7006 12.3461C29.9555 12.2832 30.2704 12.1266 30.4838 11.806L28.8189 10.6977ZM29.5765 10.4279C28.8224 10.1366 28.0739 10.0202 27.4211 10.0559L27.5302 12.0529C27.8746 12.0341 28.3409 12.0947 28.8559 12.2936L29.5765 10.4279ZM27.4191 10.056C27.1007 10.074 26.7794 10.1319 26.4865 10.2462C26.2033 10.3568 25.874 10.5494 25.6447 10.8837L27.2941 12.0149C27.2547 12.0724 27.217 12.1021 27.2028 12.1122C27.1886 12.1222 27.1895 12.1188 27.2138 12.1093C27.2654 12.0892 27.3701 12.062 27.5323 12.0528L27.4191 10.056ZM25.6603 10.8617C25.462 11.1346 25.2766 11.4917 25.2605 11.9132C25.2427 12.3787 25.4363 12.7701 25.72 13.0514L27.1281 11.6311C27.149 11.6518 27.1869 11.6965 27.2174 11.7681C27.2491 11.8426 27.2617 11.9204 27.259 11.9897C27.2542 12.115 27.2048 12.1385 27.2785 12.0369L25.6603 10.8617ZM25.7102 13.0416C25.9766 13.3131 26.3194 13.4919 26.6337 13.6177C26.9615 13.749 27.3381 13.8535 27.7385 13.9389L28.1556 11.9829C27.8218 11.9117 27.5638 11.8357 27.3771 11.761C27.1769 11.6809 27.1254 11.6282 27.1379 11.641L25.7102 13.0416ZM27.7464 13.9405C28.0704 14.0069 28.3328 14.0988 28.5442 14.1961L29.3806 12.3793C29.0299 12.2179 28.6215 12.0783 28.1477 11.9812L27.7464 13.9405ZM28.5471 14.1974C28.8855 14.3519 28.9996 14.4969 29.0276 14.5459L30.7647 13.5547C30.4663 13.0317 29.9639 12.6457 29.3777 12.378L28.5471 14.1974ZM29.0342 14.5574C29.0406 14.5683 29.0429 14.5748 29.0436 14.5768C29.0442 14.5788 29.044 14.5787 29.0439 14.5773C29.0438 14.576 29.044 14.576 29.0436 14.5781C29.0433 14.5803 29.0421 14.5865 29.0381 14.5966L30.8992 15.3288C31.1269 14.7501 31.09 14.1075 30.758 13.5433L29.0342 14.5574ZM29.04 14.5918C29.0224 14.6357 28.9942 14.6852 28.9585 14.7277L30.4893 16.0148C30.6712 15.7985 30.8061 15.5621 30.8973 15.3336L29.04 14.5918ZM29.0163 14.6646C28.9149 14.7662 28.8514 14.8636 28.8371 14.8852L30.5019 15.9935C30.5057 15.9878 30.4785 16.0308 30.4315 16.0778L29.0163 14.6646ZM28.9242 14.7726C28.7848 14.9284 28.4848 15.093 27.9199 15.093V17.093C28.8417 17.093 29.7745 16.8218 30.4148 16.106L28.9242 14.7726ZM27.9199 15.093C27.4067 15.093 26.742 14.9483 25.9864 14.6042L25.1574 16.4243C26.1062 16.8564 27.0551 17.093 27.9199 17.093V15.093ZM26.1272 14.6826C25.9862 14.5884 25.7511 14.4771 25.7251 14.4636L24.8024 16.238C24.8402 16.2577 24.8756 16.2754 24.9051 16.2901C24.9372 16.306 24.9581 16.3163 24.9798 16.3273C25.0252 16.3503 25.0283 16.3537 25.0167 16.3459L26.1272 14.6826Z" fill="#D9B9A9" mask="url(#path-1-inside-1_2_9026)"/>
<mask id="path-3-inside-2_2_9026" fill="white">
<path d="M31.1035 10.7901C31.1035 10.6605 31.242 10.5581 31.4152 10.5581C31.5883 10.5581 31.7268 10.6605 31.7268 10.7901V15.8609C31.7268 15.9906 31.5883 16.093 31.4152 16.093C31.242 16.093 31.1035 15.9906 31.1035 15.8609V10.7901Z"/>
</mask>
<path d="M32.1035 10.7901C32.1035 11.1091 31.929 11.3256 31.7907 11.4282C31.6552 11.5289 31.518 11.5581 31.4152 11.5581V9.55811C31.1392 9.55811 30.8461 9.63849 30.5981 9.82276C30.3473 10.0091 30.1035 10.3415 30.1035 10.7901H32.1035ZM31.4152 11.5581C31.3124 11.5581 31.1751 11.5289 31.0396 11.4282C30.9014 11.3256 30.7268 11.1091 30.7268 10.7901H32.7268C32.7268 10.3415 32.483 10.009 32.2323 9.82276C31.9842 9.63849 31.6911 9.55811 31.4152 9.55811V11.5581ZM30.7268 10.7901V15.8609H32.7268V10.7901H30.7268ZM30.7268 15.8609C30.7268 15.542 30.9014 15.3255 31.0396 15.2228C31.1751 15.1222 31.3124 15.093 31.4152 15.093V17.093C31.6911 17.093 31.9842 17.0126 32.2323 16.8283C32.483 16.6421 32.7268 16.3096 32.7268 15.8609H30.7268ZM31.4152 15.093C31.518 15.093 31.6552 15.1222 31.7907 15.2229C31.929 15.3255 32.1035 15.542 32.1035 15.8609H30.1035C30.1035 16.3096 30.3473 16.642 30.5981 16.8283C30.8461 17.0126 31.1392 17.093 31.4152 17.093V15.093ZM32.1035 15.8609V10.7901H30.1035V15.8609H32.1035Z" fill="#D9B9A9" mask="url(#path-3-inside-2_2_9026)"/>
<mask id="path-5-inside-3_2_9026" fill="white">
<path d="M31.753 13.9441C31.6342 14.0465 31.4331 14.0669 31.2868 13.9783C31.1497 13.8896 31.1223 13.7395 31.2411 13.6303C31.7439 13.1733 32.3106 12.8936 32.8682 12.7708C33.2705 12.6821 33.6635 12.6753 34.0018 12.7435C34.3583 12.8186 34.6691 12.9686 34.8885 13.2006C35.0987 13.4189 35.2176 13.6986 35.2176 14.0328V15.8474C35.2176 15.9838 35.0713 16.093 34.8885 16.093C34.7057 16.093 34.5594 15.9838 34.5594 15.8474V14.0328C34.5594 13.8009 34.4863 13.6167 34.3583 13.4803C34.2303 13.3507 34.0566 13.262 33.8372 13.2142C33.6087 13.1665 33.3436 13.1733 33.0602 13.2347C32.6214 13.337 32.1644 13.5689 31.753 13.9441Z"/>
</mask>
<path d="M31.753 13.9441L32.4055 14.7019L32.4163 14.6926L32.4269 14.683L31.753 13.9441ZM31.2868 13.9783L30.7437 14.8179L30.7559 14.8258L30.7683 14.8333L31.2868 13.9783ZM31.2411 13.6303L30.5684 12.8904L30.5647 12.8938L31.2411 13.6303ZM32.8682 12.7708L33.0833 13.7474L33.0836 13.7474L32.8682 12.7708ZM34.0018 12.7435L34.2078 11.7649L34.1995 11.7633L34.0018 12.7435ZM34.8885 13.2006L34.162 13.8878L34.1682 13.8943L34.8885 13.2006ZM34.3583 13.4803L35.0876 12.7961L35.0789 12.7868L35.0699 12.7777L34.3583 13.4803ZM33.8372 13.2142L34.0499 12.2371L34.0418 12.2354L33.8372 13.2142ZM33.0602 13.2347L32.8485 12.2574L32.8408 12.259L32.8331 12.2608L33.0602 13.2347ZM31.1005 13.1864C31.2227 13.0812 31.3511 13.0441 31.4487 13.0362C31.5491 13.0279 31.6772 13.0455 31.8053 13.1232L30.7683 14.8333C31.283 15.1454 31.9569 15.0882 32.4055 14.7019L31.1005 13.1864ZM31.8299 13.1386C31.9454 13.2133 32.1156 13.3824 32.1573 13.6667C32.2028 13.9761 32.0673 14.2293 31.9175 14.3668L30.5647 12.8938C30.2961 13.1405 30.1149 13.5234 30.1786 13.9573C30.2386 14.3661 30.4911 14.6545 30.7437 14.8179L31.8299 13.1386ZM31.9138 14.3703C32.289 14.0292 32.6985 13.8321 33.0833 13.7474L32.6532 11.7942C31.9227 11.9551 31.1987 12.3174 30.5684 12.8904L31.9138 14.3703ZM33.0836 13.7474C33.3682 13.6846 33.6195 13.6866 33.8041 13.7238L34.1995 11.7633C33.7076 11.664 33.1728 11.6797 32.6529 11.7943L33.0836 13.7474ZM33.7958 13.7221C34.0131 13.7678 34.1193 13.8426 34.162 13.8878L35.615 12.5134C35.2189 12.0947 34.7035 11.8693 34.2077 11.765L33.7958 13.7221ZM34.1682 13.8943C34.1893 13.9161 34.1988 13.9333 34.2043 13.9469C34.2097 13.9604 34.2176 13.9863 34.2176 14.0328H36.2176C36.2176 13.4404 35.9988 12.9119 35.6087 12.5069L34.1682 13.8943ZM34.2176 14.0328V15.8474H36.2176V14.0328H34.2176ZM34.2176 15.8474C34.2176 15.5318 34.3902 15.3194 34.5235 15.2199C34.6551 15.1217 34.7883 15.093 34.8885 15.093V17.093C35.1715 17.093 35.4692 17.0097 35.7197 16.8228C35.9718 16.6346 36.2176 16.2995 36.2176 15.8474H34.2176ZM34.8885 15.093C34.9887 15.093 35.1219 15.1217 35.2535 15.2199C35.3868 15.3194 35.5594 15.5318 35.5594 15.8474H33.5594C33.5594 16.2995 33.8052 16.6346 34.0573 16.8228C34.3077 17.0097 34.6055 17.093 34.8885 17.093V15.093ZM35.5594 15.8474V14.0328H33.5594V15.8474H35.5594ZM35.5594 14.0328C35.5594 13.5767 35.409 13.1387 35.0876 12.7961L33.6289 14.1644C33.6023 14.136 33.5818 14.1022 33.5697 14.0696C33.558 14.0383 33.5594 14.0227 33.5594 14.0328H35.5594ZM35.0699 12.7777C34.777 12.4811 34.4145 12.3164 34.0499 12.2371L33.6246 14.1913C33.6626 14.1996 33.6776 14.2073 33.6773 14.2072C33.677 14.207 33.6734 14.2051 33.6675 14.2009C33.6615 14.1965 33.6543 14.1906 33.6467 14.1829L35.0699 12.7777ZM34.0418 12.2354C33.6475 12.153 33.2374 12.1731 32.8485 12.2574L33.272 14.212C33.4498 14.1735 33.5699 14.18 33.6327 14.1931L34.0418 12.2354ZM32.8331 12.2608C32.22 12.4038 31.6108 12.7204 31.0791 13.2053L32.4269 14.683C32.7179 14.4175 33.0229 14.2702 33.2873 14.2086L32.8331 12.2608Z" fill="#D9B9A9" mask="url(#path-5-inside-3_2_9026)"/>
<mask id="path-7-inside-4_2_9026" fill="white">
<path d="M38.4274 12.6976C39.0579 12.6976 39.6244 12.8885 40.0356 13.1953C40.4467 13.5022 40.7026 13.9249 40.7026 14.3953C40.7026 14.8657 40.4467 15.2885 40.0356 15.5953C39.6244 15.9021 39.0579 16.093 38.4274 16.093C37.797 16.093 37.2305 15.9021 36.8193 15.5953C36.4082 15.2885 36.1523 14.8657 36.1523 14.3953C36.1523 13.9249 36.4082 13.5022 36.8193 13.1953C37.2305 12.8885 37.8061 12.6976 38.4274 12.6976ZM39.5787 13.5362C39.2863 13.3181 38.8752 13.1817 38.4274 13.1817C37.9797 13.1817 37.5777 13.3181 37.2762 13.5362C36.9838 13.7544 36.8011 14.0612 36.8011 14.3953C36.8011 14.7294 36.9838 15.0362 37.2762 15.2544C37.5686 15.4725 37.9797 15.6089 38.4274 15.6089C38.8752 15.6089 39.2772 15.4725 39.5787 15.2544C39.8711 15.0362 40.0538 14.7294 40.0538 14.3953C40.0538 14.0612 39.8711 13.7544 39.5787 13.5362Z"/>
</mask>
<path d="M37.2762 13.5362L36.69 12.7261L36.684 12.7304L36.6781 12.7348L37.2762 13.5362ZM39.5787 15.2544L40.1649 16.0645L40.1709 16.0602L40.1768 16.0558L39.5787 15.2544ZM38.4274 13.6976C38.8622 13.6976 39.2144 13.8303 39.4375 13.9968L40.6336 12.3939C40.0344 11.9468 39.2536 11.6976 38.4274 11.6976V13.6976ZM39.4375 13.9968C39.6614 14.1639 39.7026 14.3143 39.7026 14.3953H41.7026C41.7026 13.5354 41.2321 12.8404 40.6336 12.3939L39.4375 13.9968ZM39.7026 14.3953C39.7026 14.4763 39.6614 14.6268 39.4375 14.7938L40.6336 16.3967C41.2321 15.9502 41.7026 15.2552 41.7026 14.3953H39.7026ZM39.4375 14.7938C39.2144 14.9603 38.8622 15.093 38.4274 15.093V17.093C39.2536 17.093 40.0344 16.8438 40.6336 16.3967L39.4375 14.7938ZM38.4274 15.093C37.9927 15.093 37.6405 14.9603 37.4174 14.7938L36.2213 16.3967C36.8205 16.8438 37.6013 17.093 38.4274 17.093V15.093ZM37.4174 14.7938C37.1935 14.6268 37.1523 14.4763 37.1523 14.3953H35.1523C35.1523 15.2552 35.6228 15.9502 36.2213 16.3967L37.4174 14.7938ZM37.1523 14.3953C37.1523 14.3143 37.1935 14.1639 37.4174 13.9968L36.2213 12.3939C35.6228 12.8404 35.1523 13.5354 35.1523 14.3953H37.1523ZM37.4174 13.9968C37.6392 13.8313 38 13.6976 38.4274 13.6976V11.6976C37.6122 11.6976 36.8218 11.9458 36.2213 12.3939L37.4174 13.9968ZM40.1768 12.7348C39.6939 12.3745 39.0675 12.1817 38.4274 12.1817V14.1817C38.6828 14.1817 38.8787 14.2616 38.9807 14.3377L40.1768 12.7348ZM38.4274 12.1817C37.7793 12.1817 37.17 12.3787 36.69 12.7261L37.8624 14.3464C37.9854 14.2574 38.1802 14.1817 38.4274 14.1817V12.1817ZM36.6781 12.7348C36.194 13.096 35.8011 13.6763 35.8011 14.3953H37.8011C37.8011 14.4149 37.7949 14.4226 37.7999 14.4137C37.8062 14.4025 37.8267 14.3732 37.8742 14.3377L36.6781 12.7348ZM35.8011 14.3953C35.8011 15.1143 36.194 15.6946 36.6781 16.0558L37.8742 14.4529C37.8267 14.4174 37.8062 14.3881 37.7999 14.3769C37.7949 14.368 37.8011 14.3757 37.8011 14.3953H35.8011ZM36.6781 16.0558C37.161 16.4161 37.7874 16.6089 38.4274 16.6089V14.6089C38.1721 14.6089 37.9762 14.529 37.8742 14.4529L36.6781 16.0558ZM38.4274 16.6089C39.0756 16.6089 39.6849 16.4119 40.1649 16.0645L38.9925 14.4442C38.8695 14.5332 38.6747 14.6089 38.4274 14.6089V16.6089ZM40.1768 16.0558C40.6609 15.6946 41.0538 15.1143 41.0538 14.3953H39.0538C39.0538 14.3757 39.06 14.368 39.055 14.3769C39.0487 14.3881 39.0282 14.4174 38.9807 14.4529L40.1768 16.0558ZM41.0538 14.3953C41.0538 13.6763 40.6609 13.096 40.1768 12.7348L38.9807 14.3377C39.0282 14.3732 39.0487 14.4025 39.055 14.4137C39.06 14.4226 39.0538 14.4149 39.0538 14.3953H41.0538Z" fill="#D9B9A9" mask="url(#path-7-inside-4_2_9026)"/>
<mask id="path-9-inside-5_2_9026" fill="white">
<path d="M41.6377 12.9424C41.6377 12.8064 41.7838 12.6976 41.9665 12.6976C42.1492 12.6976 42.2953 12.8064 42.2953 12.9424V13.2483C42.3227 13.2279 42.341 13.2075 42.3684 13.1939C42.7794 12.888 43.3457 12.6976 43.9759 12.6976C44.6062 12.6976 45.1725 12.888 45.5835 13.1939C45.9945 13.4998 46.2502 13.9212 46.2502 14.3903C46.2502 14.8593 45.9945 15.2808 45.5835 15.5867C45.1725 15.8926 44.6062 16.083 43.9759 16.083C43.3457 16.083 42.7794 15.8926 42.3684 15.5867C42.341 15.5663 42.3227 15.5459 42.2953 15.5323V17.7552C42.2953 17.8912 42.1492 18 41.9665 18C41.7838 18 41.6377 17.8912 41.6377 17.7552V12.9424ZM45.1177 13.5338C44.8254 13.3162 44.4144 13.1803 43.9668 13.1803C43.5192 13.1803 43.1174 13.3162 42.8159 13.5338C42.5237 13.7513 42.341 14.0572 42.341 14.3903C42.341 14.7234 42.5237 15.0293 42.8159 15.2468C43.1082 15.4644 43.5192 15.6003 43.9668 15.6003C44.4144 15.6003 44.8162 15.4644 45.1177 15.2468C45.4099 15.0293 45.5926 14.7234 45.5926 14.3903C45.5926 14.0572 45.4099 13.7513 45.1177 13.5338Z"/>
</mask>
<path d="M42.2953 13.2483H41.2953V15.2391L42.8924 14.0505L42.2953 13.2483ZM42.3684 13.1939L42.8129 14.0897L42.8934 14.0497L42.9654 13.9961L42.3684 13.1939ZM42.2953 15.5323L42.7398 14.6365L41.2953 13.9198V15.5323H42.2953ZM42.8159 13.5338L42.2307 12.7229L42.2248 12.7272L42.2189 12.7316L42.8159 13.5338ZM45.1177 15.2468L45.7029 16.0577L45.7088 16.0534L45.7147 16.049L45.1177 15.2468ZM42.6377 12.9424C42.6377 13.2594 42.4639 13.4721 42.3306 13.5712C42.1991 13.6691 42.0662 13.6976 41.9665 13.6976V11.6976C41.6842 11.6976 41.3869 11.7805 41.1366 11.9668C40.8846 12.1543 40.6377 12.4894 40.6377 12.9424H42.6377ZM41.9665 13.6976C41.8669 13.6976 41.734 13.6691 41.6024 13.5712C41.4691 13.4721 41.2953 13.2594 41.2953 12.9424H43.2953C43.2953 12.4894 43.0484 12.1543 42.7965 11.9668C42.5461 11.7805 42.2488 11.6976 41.9665 11.6976V13.6976ZM41.2953 12.9424V13.2483H43.2953V12.9424H41.2953ZM42.8924 14.0505C42.9202 14.0298 42.9422 14.0116 42.9544 14.0015C42.9598 13.997 42.9659 13.9919 42.9668 13.9911C42.9691 13.9892 42.9678 13.9903 42.9653 13.9923C42.9557 14.0002 42.8991 14.0469 42.8129 14.0897L41.9239 12.2981C41.8103 12.3544 41.7309 12.4181 41.6984 12.4447C41.6902 12.4514 41.6832 12.4573 41.6797 12.4602C41.6763 12.4632 41.6779 12.4618 41.6755 12.4638C41.6746 12.4646 41.6744 12.4647 41.6745 12.4647C41.6747 12.4645 41.6842 12.4565 41.6983 12.4461L42.8924 14.0505ZM42.9654 13.9961C43.1885 13.8301 43.5408 13.6976 43.9759 13.6976V11.6976C43.1507 11.6976 42.3704 11.9459 41.7713 12.3917L42.9654 13.9961ZM43.9759 13.6976C44.4111 13.6976 44.7634 13.8301 44.9864 13.9961L46.1805 12.3917C45.5815 11.9459 44.8012 11.6976 43.9759 11.6976V13.6976ZM44.9864 13.9961C45.2103 14.1627 45.2502 14.3118 45.2502 14.3903H47.2502C47.2502 13.5307 46.7787 12.8369 46.1805 12.3917L44.9864 13.9961ZM45.2502 14.3903C45.2502 14.4688 45.2103 14.6179 44.9864 14.7845L46.1805 16.3889C46.7787 15.9437 47.2502 15.2499 47.2502 14.3903H45.2502ZM44.9864 14.7845C44.7634 14.9505 44.4111 15.083 43.9759 15.083V17.083C44.8012 17.083 45.5815 16.8347 46.1805 16.3889L44.9864 14.7845ZM43.9759 15.083C43.5408 15.083 43.1885 14.9505 42.9654 14.7845L41.7713 16.3889C42.3704 16.8347 43.1507 17.083 43.9759 17.083V15.083ZM42.9654 14.7845C42.9795 14.795 42.989 14.803 42.9892 14.8031C42.9894 14.8032 42.9891 14.803 42.9882 14.8023C42.9858 14.8003 42.9875 14.8016 42.984 14.7987C42.9805 14.7958 42.9735 14.7899 42.9653 14.7832C42.9329 14.7566 42.8534 14.6929 42.7398 14.6365L41.8509 16.4281C41.7646 16.3854 41.708 16.3386 41.6984 16.3307C41.6959 16.3287 41.6946 16.3276 41.6969 16.3296C41.6978 16.3303 41.7039 16.3355 41.7093 16.3399C41.7215 16.3501 41.7435 16.3682 41.7713 16.3889L42.9654 14.7845ZM41.2953 15.5323V17.7552H43.2953V15.5323H41.2953ZM41.2953 17.7552C41.2953 17.4382 41.4691 17.2255 41.6024 17.1264C41.734 17.0284 41.8668 17 41.9665 17V19C42.2488 19 42.5462 18.9171 42.7965 18.7308C43.0484 18.5432 43.2953 18.2082 43.2953 17.7552H41.2953ZM41.9665 17C42.0662 17 42.1991 17.0284 42.3307 17.1264C42.4639 17.2255 42.6377 17.4382 42.6377 17.7552H40.6377C40.6377 18.2082 40.8846 18.5432 41.1365 18.7308C41.3869 18.9171 41.6842 19 41.9665 19V17ZM42.6377 17.7552V12.9424H40.6377V17.7552H42.6377ZM45.7147 12.7316C45.232 12.3723 44.6061 12.1803 43.9668 12.1803V14.1803C44.2226 14.1803 44.4187 14.2601 44.5206 14.336L45.7147 12.7316ZM43.9668 12.1803C43.3194 12.1803 42.7106 12.3766 42.2307 12.7229L43.4012 14.3446C43.5241 14.2559 43.7191 14.1803 43.9668 14.1803V12.1803ZM42.2189 12.7316C41.735 13.0917 41.341 13.6712 41.341 14.3903H43.341C43.341 14.4109 43.3345 14.4195 43.3392 14.4111C43.3453 14.4004 43.3655 14.3713 43.413 14.336L42.2189 12.7316ZM41.341 14.3903C41.341 15.1094 41.735 15.6889 42.2189 16.049L43.413 14.4446C43.3655 14.4093 43.3453 14.3802 43.3392 14.3695C43.3345 14.3611 43.341 14.3697 43.341 14.3903H41.341ZM42.2189 16.049C42.7016 16.4083 43.3275 16.6003 43.9668 16.6003V14.6003C43.711 14.6003 43.5149 14.5204 43.413 14.4446L42.2189 16.049ZM43.9668 16.6003C44.6142 16.6003 45.223 16.404 45.7029 16.0577L44.5324 14.4359C44.4095 14.5247 44.2145 14.6003 43.9668 14.6003V16.6003ZM45.7147 16.049C46.1986 15.6889 46.5926 15.1094 46.5926 14.3903H44.5926C44.5926 14.3697 44.5991 14.3611 44.5944 14.3695C44.5883 14.3802 44.5681 14.4093 44.5206 14.4446L45.7147 16.049ZM46.5926 14.3903C46.5926 13.6712 46.1986 13.0917 45.7147 12.7316L44.5206 14.336C44.5681 14.3713 44.5883 14.4004 44.5944 14.4111C44.5991 14.4195 44.5926 14.4109 44.5926 14.3903H46.5926Z" fill="#D9B9A9" mask="url(#path-9-inside-5_2_9026)"/>
<path d="M50.7297 15.7051L50.8186 15.6522L50.7297 15.7051Z" stroke="#D9B9A9"/>
<mask id="path-12-inside-6_2_9026" fill="white">
<path d="M54.2763 12.6976C54.8332 12.6976 55.3446 12.8612 55.719 13.1476C56.0294 13.3793 56.1572 13.6111 56.2668 13.8566C56.5499 14.5451 56.0111 14.5178 55.8468 14.5178H52.8244C52.8518 14.6814 52.9066 14.8314 52.9705 14.9678C53.0892 15.1791 53.2627 15.3359 53.4819 15.445C53.7101 15.554 54.0023 15.6086 54.3402 15.6086C54.7054 15.6086 55.1346 15.5336 55.6094 15.3836C55.7737 15.3291 55.9655 15.3904 56.0385 15.5131C56.1116 15.6358 56.0294 15.779 55.865 15.8335C55.3172 16.004 54.8059 16.0858 54.3493 16.0926C53.8836 16.0994 53.4727 16.0176 53.1349 15.854C52.797 15.6904 52.5048 15.4654 52.3679 15.1518C52.0574 14.4633 52.0483 13.7816 52.8336 13.1476C53.1988 12.8544 53.7193 12.6976 54.2763 12.6976ZM55.2624 13.4952C54.9976 13.3044 54.6506 13.1885 54.2763 13.1885C53.9019 13.1885 53.5549 13.3044 53.2901 13.4952C53.0984 13.6384 52.9431 13.8156 52.861 14.0202H55.7007C55.6002 13.8156 55.4542 13.6384 55.2624 13.4952Z"/>
</mask>
<path d="M55.719 13.1476L55.1114 13.9419L55.1207 13.9489L55.719 13.1476ZM56.2668 13.8566L57.1917 13.4763L57.186 13.4625L57.1799 13.4489L56.2668 13.8566ZM52.8244 14.5178V13.5178H51.6431L51.8382 14.6829L52.8244 14.5178ZM52.9705 14.9678L52.0651 15.3922L52.0807 15.4255L52.0986 15.4575L52.9705 14.9678ZM53.4819 15.445L53.0363 16.3402L53.0435 16.3438L53.0507 16.3472L53.4819 15.445ZM55.6094 15.3836L55.9106 16.3372L55.9175 16.335L55.9243 16.3327L55.6094 15.3836ZM55.865 15.8335L56.1621 16.7884L56.1711 16.7856L56.18 16.7826L55.865 15.8335ZM54.3493 16.0926L54.3639 17.0925L54.3642 17.0925L54.3493 16.0926ZM52.3679 15.1518L53.2843 14.7515L53.2795 14.7408L52.3679 15.1518ZM52.8336 13.1476L52.2076 12.3677L52.2054 12.3695L52.8336 13.1476ZM55.2624 13.4952L55.8607 12.6939L55.854 12.6889L55.8472 12.684L55.2624 13.4952ZM53.2901 13.4952L52.7053 12.684L52.6986 12.6889L52.6919 12.6939L53.2901 13.4952ZM52.861 14.0202L51.9331 13.6473L51.3814 15.0202H52.861V14.0202ZM55.7007 14.0202V15.0202H57.3059L56.5983 13.5793L55.7007 14.0202ZM54.2763 13.6976C54.646 13.6976 54.9355 13.8073 55.1115 13.9419L56.3265 12.3532C55.7536 11.9151 55.0205 11.6976 54.2763 11.6976V13.6976ZM55.1207 13.9489C55.1963 14.0053 55.233 14.0483 55.256 14.0803C55.2825 14.1172 55.3096 14.1654 55.3537 14.2642L57.1799 13.4489C57.0327 13.1192 56.816 12.7187 56.3172 12.3463L55.1207 13.9489ZM55.3419 14.2368C55.3786 14.326 55.3321 14.263 55.3535 14.111C55.3654 14.0262 55.3973 13.9257 55.461 13.8267C55.5243 13.7286 55.6018 13.6584 55.673 13.6113C55.7412 13.5662 55.8007 13.544 55.8361 13.5332C55.8718 13.5224 55.8964 13.5192 55.9039 13.5183C55.9083 13.5177 55.9177 13.5178 55.8468 13.5178V15.5178C55.858 15.5178 55.9964 15.5213 56.1393 15.5044C56.2776 15.488 56.5292 15.4428 56.7762 15.2795C57.0637 15.0894 57.2789 14.7809 57.334 14.3897C57.3819 14.0491 57.2966 13.7314 57.1917 13.4763L55.3419 14.2368ZM55.8468 13.5178H52.8244V15.5178H55.8468V13.5178ZM51.8382 14.6829C51.8849 14.962 51.9755 15.201 52.0651 15.3922L53.876 14.5433C53.8378 14.4618 53.8188 14.4009 53.8107 14.3527L51.8382 14.6829ZM52.0986 15.4575C52.3246 15.8598 52.6549 16.1504 53.0363 16.3402L53.9274 14.5497C53.8706 14.5214 53.8538 14.4984 53.8424 14.478L52.0986 15.4575ZM53.0507 16.3472C53.454 16.5399 53.9054 16.6086 54.3402 16.6086V14.6086C54.0992 14.6086 53.9663 14.5681 53.913 14.5427L53.0507 16.3472ZM54.3402 16.6086C54.835 16.6086 55.3684 16.5084 55.9106 16.3372L55.3082 14.43C54.9007 14.5587 54.5759 14.6086 54.3402 14.6086V16.6086ZM55.9243 16.3327C55.7947 16.3757 55.6704 16.3703 55.5644 16.3377C55.4665 16.3077 55.2991 16.2259 55.1793 16.0246L56.8978 15.0016C56.7049 14.6776 56.4051 14.5039 56.152 14.426C55.8908 14.3457 55.5884 14.337 55.2944 14.4345L55.9243 16.3327ZM55.1793 16.0246C55.0214 15.7595 55.0381 15.4464 55.1652 15.216C55.2773 15.0126 55.4417 14.9204 55.5501 14.8844L56.18 16.7826C56.4528 16.6921 56.7404 16.5011 56.9165 16.1818C57.1075 15.8355 57.1287 15.3895 56.8978 15.0016L55.1793 16.0246ZM55.568 14.8787C55.1005 15.0241 54.6843 15.0875 54.3344 15.0927L54.3642 17.0925C54.9274 17.0841 55.5339 16.9838 56.1621 16.7884L55.568 14.8787ZM54.3347 15.0927C53.991 15.0977 53.7407 15.0363 53.5707 14.954L52.699 16.754C53.2048 16.9989 53.7762 17.1011 54.3639 17.0925L54.3347 15.0927ZM53.5707 14.954C53.4584 14.8995 53.3823 14.8483 53.3347 14.8067C53.2891 14.7668 53.2823 14.747 53.2843 14.7516L51.4515 15.5521C51.7271 16.1831 52.2692 16.5458 52.699 16.754L53.5707 14.954ZM53.2795 14.7408C53.1688 14.4953 53.1644 14.3632 53.1757 14.2968C53.1831 14.2531 53.2135 14.126 53.4617 13.9256L52.2054 12.3695C51.6683 12.8031 51.3107 13.3339 51.204 13.9617C51.1011 14.5667 51.2565 15.1198 51.4563 15.5629L53.2795 14.7408ZM53.4595 13.9274C53.6072 13.8089 53.8896 13.6976 54.2763 13.6976V11.6976C53.5489 11.6976 52.7904 11.9 52.2076 12.3677L53.4595 13.9274ZM55.8472 12.684C55.4061 12.3661 54.8531 12.1885 54.2763 12.1885V14.1885C54.4482 14.1885 54.5891 14.2426 54.6776 14.3064L55.8472 12.684ZM54.2763 12.1885C53.6994 12.1885 53.1464 12.3661 52.7053 12.684L53.8749 14.3064C53.9635 14.2426 54.1043 14.1885 54.2763 14.1885V12.1885ZM52.6919 12.6939C52.3984 12.913 52.1021 13.2266 51.9331 13.6473L53.7888 14.393C53.7859 14.4003 53.7873 14.3934 53.8031 14.3744C53.8191 14.3551 53.8464 14.3279 53.8884 14.2965L52.6919 12.6939ZM52.861 15.0202H55.7007V13.0202H52.861V15.0202ZM56.5983 13.5793C56.4274 13.2313 56.1781 12.9309 55.8607 12.6939L54.6641 14.2965C54.7302 14.3459 54.7731 14.4 54.8031 14.461L56.5983 13.5793Z" fill="#D9B9A9" mask="url(#path-12-inside-6_2_9026)"/>
<path d="M6.96853 5.99308H7.41173L7.46492 5.55308C7.59802 4.45194 8.00796 3.4728 8.58579 2.72449C8.84438 2.39004 9.13728 2.10231 9.45745 1.86817C9.22079 2.06909 9.00244 2.29985 8.80567 2.55311C8.20222 3.3246 7.79898 4.32614 7.6452 5.42371L7.56543 5.99308H8.14037H15.0093H15.5805L15.5049 5.42696C15.3572 4.31987 14.9463 3.32389 14.3456 2.55052C14.1555 2.30239 13.9432 2.07592 13.7126 1.87802C14.0288 2.11091 14.3192 2.39587 14.5775 2.72601C15.154 3.46847 15.5641 4.45138 15.6972 5.55308L15.7504 5.99308H16.1936H20.881C21.0631 5.99308 21.2215 6.05036 21.3169 6.11947C21.3731 6.16026 21.389 6.18836 21.393 6.19941L20.4518 15.9986C20.4064 16.4698 20.1927 16.8209 19.8504 17.0651C19.4964 17.3177 18.9727 17.4768 18.2942 17.4768H4.86795C4.11811 17.4768 3.59648 17.2822 3.26141 17.0172C2.93014 16.7552 2.74803 16.3995 2.71043 15.9998L2.7103 15.9984L1.76345 6.20912C1.76609 6.19876 1.78014 6.16676 1.84382 6.12003C1.93871 6.0504 2.09482 5.99308 2.27496 5.99308H6.96853ZM21.394 6.20464C21.3938 6.20467 21.3933 6.20321 21.3932 6.20014C21.3942 6.20307 21.3942 6.20461 21.394 6.20464ZM1.76332 6.20961C1.76333 6.21174 1.76309 6.21276 1.76296 6.21274C1.76284 6.21272 1.76284 6.21165 1.76332 6.20961Z" stroke="#D9B9A9"/>
<path d="M12.105 15.6139L12.1041 15.4069C12.1003 15.4069 12.0964 15.4069 12.0925 15.4069C11.1597 15.4069 10.0787 15.1356 8.9388 14.6186L8.70792 13.9534C8.48976 13.8418 8.1968 13.8837 8.04721 14.0465C7.89761 14.2092 7.95371 14.4279 8.17187 14.5395C8.34017 14.6279 8.50223 14.7023 8.65806 14.7674C9.90469 15.3348 11.089 15.6139 12.105 15.6139ZM12.105 15.6139C13.1896 15.6093 14.0809 15.293 14.6606 14.6558L12.105 15.4069V15.6139ZM15.0969 13.9627C15.2652 13.5162 15.234 13.0604 14.9847 12.6279C14.7416 12.2092 14.2866 11.8232 13.6072 11.5162L15.0969 13.9627ZM15.0969 13.9627C15.0221 14.1627 14.9037 14.3627 14.7416 14.5581L15.0969 13.9627Z" stroke="#D9B9A9"/>
</g>
<defs>
<clipPath id="clip0_2_9026">
<rect width="56.3478" height="18" fill="white"/>
</clipPath>
</defs>
</svg>
