<svg width="88" height="23" viewBox="0 0 88 23" fill="none" xmlns="http://www.w3.org/2000/svg">
<path d="M9.74162 4.61577L9.94559 4.70733L10.1498 4.61636C11.0312 4.22381 12.1222 4.00184 13.1386 3.92339L13.1389 3.92336L14.3222 3.83129C14.3223 3.83129 14.3224 3.83128 14.3225 3.83127C15.2379 3.76112 16.1437 3.77287 17.0755 3.78495C17.438 3.78965 17.8044 3.7944 18.1769 3.7944H18.3888V3.9292V3.94571V3.96223V3.97874V3.99526V4.01177V4.02829V4.0448V4.06132V4.07783V4.09435V4.11086V4.12738V4.14389V4.16041V4.17692V4.19344V4.20995V4.22647V4.24298V4.2595V4.27601V4.29253V4.30904V4.32556V4.34207V4.35859V4.3751V4.39162V4.40814V4.42465V4.44117V4.45768V4.4742V4.49071V4.50723V4.52374V4.54026V4.55677V4.57329V4.5898V4.60632V4.62284V4.63935V4.65587V4.67238V4.6889V4.70541V4.72193V4.73844V4.75496V4.77148V4.78799V4.80451V4.82102V4.83754V4.85405V4.87057V4.88709V4.9036V4.92012V4.93663V4.95315V4.96966V4.98618V5.0027V5.01921V5.03573V5.05224V5.06876V5.08528V5.10179V5.11831V5.13482V5.15134V5.16786V5.18437V5.20089V5.2174V5.23392V5.25044V5.26695V5.28347V5.29998V5.3165V5.33302V5.34953V5.36605V5.38256V5.39908V5.4156V5.43211V5.44863V5.46515V5.48166V5.49818V5.51469V5.53121V5.54773V5.56424V5.58076V5.59728V5.61379V5.63031V5.64683V5.66334V5.67986V5.69637V5.71289V5.72941V5.74592V5.76244V5.77896V5.79547V5.81199V5.82851V5.84502V5.86154V5.87806V5.89457V5.91109V5.92761V5.94412V5.96064V5.97716V5.99367V6.01019V6.02671V6.04322V6.05974V6.07626V6.09277V6.10929V6.12581V6.14232V6.15884V6.17536V6.19187V6.20839V6.22491V6.24143V6.25794V6.27446V6.29098V6.30749V6.32401V6.34053V6.35704V6.37356V6.39008V6.40659V6.42311V6.43963V6.45615V6.47266V6.48918V6.5057V6.52221V6.53873V6.55525V6.57177V6.58828V6.6048V6.62132V6.63783V6.65435V6.67087V6.68739V6.7039V6.72042V6.73694V6.75345V6.76997V6.78649V6.80301V6.81952V6.83604V6.85256V6.86907V6.88559V6.90211V6.91863V6.93514V6.95166V6.96818V6.9847V7.00121V7.01773V7.03425V7.05077V7.06728V7.0838V7.10032V7.11684V7.13335V7.14987V7.16639V7.18291V7.19942V7.21594V7.23246V7.24898V7.26549V7.28201V7.29853V7.31505V7.33156V7.34808V7.3646V7.38112V7.39763V7.41415V7.43067V7.44719V7.4637V7.48022V7.49674V7.51326V7.52977V7.54629V7.56281V7.57933V7.59584V7.61236V7.62888V7.6454V7.66192V7.67843V7.69495V7.71147V7.72799V7.7445V7.76102V7.77754V7.79406V7.81058V7.82709V7.84361V7.86013V7.87665V7.89316V7.90968V7.9262V7.94272V7.95924V7.97575V7.99227V8.00879V8.02531V8.04182V8.05834V8.07486V8.09138V8.1079V8.12441V8.14093V8.15745V8.17397V8.19049V8.207V8.22352V8.24004V8.25656V8.27308V8.28959V8.30611V8.32263V8.33915V8.35567V8.37218V8.3887V8.40522V8.42174V8.43826V8.45477V8.47129V8.48781V8.50433V8.52085V8.53736V8.55388V8.5704V8.58692V8.60344V8.61995V8.63647V8.65299V8.66951V8.68603V8.70254V8.71906V8.73558V8.7521V8.76862V8.78514V8.80165V8.81817V8.83469V8.85121V8.86773V8.88424V8.90076V8.91728V8.9338V8.95032V8.96683V8.98335V8.99987V9.01639V9.03291V9.04943V9.06594V9.08246V9.09898V9.1155V9.13202V9.14853V9.16505V9.18157V9.19809V9.21461V9.23113V9.24764V9.26416V9.28068V9.2972V9.31372V9.33024V9.34675V9.36327V9.37979V9.39631V9.41283V9.42934V9.44586V9.46238V9.4789V9.49542V9.51194V9.52845V9.54497V9.56149V9.57801V9.59453V9.61105V9.62756V9.64408V9.6606V9.67712V9.69364V9.71016V9.72667V9.74319V9.75971V9.77623V9.79275V9.80927V9.82578V9.8423V9.85882V9.87534V9.89186V9.90837V9.92489V9.94141V9.95793V9.97445V9.99097V10.0075V10.024V10.0405V10.057V10.0736V10.0901V10.1066V10.1231V10.1396V10.1561V10.1727V10.1892V10.2057V10.2222V10.2387V10.2553V10.2718V10.2883V10.3048V10.3213V10.3379V10.3544V10.3709V10.3874V10.4039V10.4204V10.437V10.4535V10.47V10.4865V10.503V10.5196V10.5361V10.5526V10.5691V10.5856V10.6021V10.6187V10.6352V10.6517V10.6682V10.6847V10.7013V10.7178V10.7343V10.7508V10.7673V10.7838V10.8004V10.8169V10.8334V10.8499V10.8664V10.883V10.8995V10.916V10.9325V10.949V10.9655V10.9821V10.9986V11.0151V11.0316V11.0481V11.0647V11.0812V11.0977V11.1142V11.1307V11.1472V11.1638V11.1803V11.1968V11.2133V11.2298V11.2464V11.2629V11.2794V11.2959V11.3124V11.3289V11.3455V11.362V11.3785V11.395V11.4115V11.4281V11.4446V11.4611V11.4776V11.4941V11.5106V11.5272V11.5437V11.5602V11.5767V11.5932V11.6098V11.6263V11.6428V11.6593V11.6758V11.6923V11.7089V11.7254V11.7419V11.7584V11.7749V11.7915V11.808V11.8245V11.841V11.8575V11.874V11.8906V11.9071V11.9236V11.9401V11.9566V11.9732V11.9897V12.0062V12.0227V12.0392V12.0557V12.0723V12.0888V12.1053V12.1218V12.1383V12.1549V12.1714V12.1879V12.2044V12.2209V12.2374V12.254V12.2705V12.287V12.3035V12.32V12.3366V12.3531V12.3696V12.3861V12.7103C18.3888 15.2918 15.9995 17.4999 12.9556 17.4999H1.49609V3.7944H1.70772C2.13685 3.7944 2.55567 3.78662 2.96873 3.77894C3.84562 3.76266 4.69657 3.74685 5.56516 3.80698L5.56611 3.80705L6.74972 3.88673L6.74987 3.88674C7.81996 3.95846 8.79079 4.18893 9.74162 4.61577Z" stroke="#D9B9A9"/>
<path d="M9.71342 5.32507L9.94228 5.443L10.1712 5.3252C10.9754 4.91141 12.0716 4.67834 13.208 4.55464L14.3778 4.46472C15.3364 4.41668 16.3221 4.42153 17.2994 4.42633C17.4255 4.42695 17.5514 4.42757 17.6772 4.42808V4.44069V4.45768V4.47466V4.49164V4.50862V4.52559V4.54255V4.55952V4.57648V4.59343V4.61039V4.62733V4.64428V4.66122V4.67815V4.69509V4.71202V4.72894V4.74586V4.76278V4.7797V4.79661V4.81351V4.83042V4.84732V4.86421V4.8811V4.89799V4.91488V4.93176V4.94864V4.96551V4.98238V4.99925V5.01611V5.03297V5.04983V5.06668V5.08353V5.10038V5.11722V5.13406V5.15089V5.16773V5.18456V5.20138V5.2182V5.23502V5.25184V5.26865V5.28546V5.30226V5.31906V5.33586V5.35266V5.36945V5.38624V5.40302V5.4198V5.43658V5.45336V5.47013V5.4869V5.50366V5.52043V5.53719V5.55394V5.57069V5.58744V5.60419V5.62093V5.63767V5.65441V5.67115V5.68788V5.7046V5.72133V5.73805V5.75477V5.77149V5.7882V5.80491V5.82161V5.83832V5.85502V5.87172V5.88841V5.9051V5.92179V5.93848V5.95516V5.97184V5.98852V6.00519V6.02186V6.03853V6.0552V6.07186V6.08852V6.10518V6.12183V6.13849V6.15513V6.17178V6.18842V6.20507V6.2217V6.23834V6.25497V6.2716V6.28823V6.30485V6.32148V6.33809V6.35471V6.37133V6.38794V6.40455V6.42115V6.43776V6.45436V6.47095V6.48755V6.50414V6.52074V6.53732V6.55391V6.57049V6.58707V6.60365V6.62023V6.6368V6.65337V6.66994V6.68651V6.70307V6.71963V6.73619V6.75275V6.7693V6.78586V6.80241V6.81895V6.8355V6.85204V6.86858V6.88512V6.90166V6.91819V6.93472V6.95125V6.96778V6.9843V7.00083V7.01735V7.03386V7.05038V7.0669V7.08341V7.09992V7.11642V7.13293V7.14943V7.16594V7.18243V7.19893V7.21543V7.23192V7.24841V7.2649V7.28139V7.29787V7.31436V7.33084V7.34732V7.3638V7.38027V7.39674V7.41322V7.42969V7.44615V7.46262V7.47908V7.49555V7.51201V7.52846V7.54492V7.56138V7.57783V7.59428V7.61073V7.62718V7.64363V7.66007V7.67651V7.69295V7.70939V7.72583V7.74227V7.7587V7.77513V7.79156V7.80799V7.82442V7.84085V7.85727V7.87369V7.89012V7.90654V7.92295V7.93937V7.95579V7.9722V7.98861V8.00502V8.02143V8.03784V8.05424V8.07065V8.08705V8.10346V8.11986V8.13625V8.15265V8.16905V8.18544V8.20184V8.21823V8.23462V8.25101V8.2674V8.28378V8.30017V8.31655V8.33294V8.34932V8.3657V8.38208V8.39846V8.41483V8.43121V8.44759V8.46396V8.48033V8.4967V8.51307V8.52944V8.54581V8.56217V8.57854V8.5949V8.61127V8.62763V8.64399V8.66035V8.67671V8.69307V8.70943V8.72578V8.74214V8.75849V8.77484V8.7912V8.80755V8.8239V8.84025V8.8566V8.87294V8.88929V8.90564V8.92198V8.93832V8.95467V8.97101V8.98735V9.00369V9.02003V9.03637V9.05271V9.06905V9.08539V9.10172V9.11806V9.13439V9.15073V9.16706V9.18339V9.19973V9.21606V9.23239V9.24872V9.26505V9.28138V9.29771V9.31403V9.33036V9.34669V9.36301V9.37934V9.39567V9.41199V9.42831V9.44464V9.46096V9.47728V9.49361V9.50993V9.52625V9.54257V9.55889V9.57521V9.59153V9.60785V9.62417V9.64049V9.6568V9.67312V9.68944V9.70576V9.72207V9.73839V9.75471V9.77102V9.78734V9.80366V9.81997V9.83629V9.8526V9.86892V9.88523V9.90155V9.91786V9.93417V9.95049V9.9668V9.98311V9.99943V10.0157V10.0321V10.0484V10.0647V10.081V10.0973V10.1136V10.1299V10.1462V10.1626V10.1789V10.1952V10.2115V10.2278V10.2441V10.2604V10.2768V10.2931V10.3094V10.3257V10.342V10.3583V10.3746V10.391V10.4073V10.4236V10.4399V10.4562V10.4725V10.4888V10.5052V10.5215V10.5378V10.5541V10.5704V10.5867V10.6031V10.6194V10.6357V10.652V10.6683V10.6847V10.701V10.7173V10.7336V10.7499V10.7663V10.7826V10.7989V10.8152V10.8316V10.8479V10.8642V10.8805V10.8969V10.9132V10.9295V10.9458V10.9622V10.9785V10.9948V11.0111V11.0275V11.0438V11.0601V11.0765V11.0928V11.1091V11.1255V11.1418V11.1581V11.1745V11.1908V11.2071V11.2235V11.2398V11.2562V11.2725V11.2888V11.3052V11.3215V11.3379V11.3542V11.3706V11.3869V11.4033V11.4196V11.436V11.4523V11.4687V11.485V11.5014V11.5177V11.5341V11.5504V11.5668V11.5831V11.5995V11.6159V11.6322V11.6486V11.6649V11.6813V11.6977V11.714V11.7304V11.7468V11.7631V11.7795V11.7959V11.8123V11.8286V11.845V11.8614V11.8778V11.8941V11.9105V11.9269V11.9433V11.9597V11.9761V11.9924V12.0088V12.0252V12.0416V12.058V12.0744V12.0908V12.1072V12.1236V12.14V12.1564V12.1728V12.1892V12.2056V12.222V12.2384V12.2548V12.2712V12.2876V12.304V12.3205V12.3369V12.3533V12.3697V12.3861V12.7103C17.6772 14.9415 15.6071 16.8654 12.9559 16.8654H7.74849H6.9278H2.20801V12.7103V12.3861V11.1738V4.42728C2.4256 4.42574 2.64436 4.42348 2.86397 4.42121C3.74236 4.41213 4.63427 4.40291 5.51883 4.43932L6.68813 4.51856C7.85463 4.63579 8.83096 4.87036 9.71342 5.32507Z" stroke="#D9B9A9"/>
<path d="M6.92682 16.8654H3.86684C4.72669 14.6642 7.09573 13.0393 9.94115 13.0393C12.4477 13.0393 14.593 14.3036 15.652 16.1136C14.8887 16.5853 13.9594 16.8654 12.9549 16.8654H7.74751H6.92682Z" stroke="#D9B9A9"/>
<path d="M13.0157 16.8249V16.8249L13.0091 16.825L10.4414 16.8588V5.19708C11.2123 4.86225 12.1937 4.66499 13.207 4.55469L14.3768 4.46477C15.3354 4.41672 16.3211 4.42157 17.2983 4.42638C17.4244 4.427 17.5504 4.42762 17.6761 4.42812V4.44074V4.45773V4.47471V4.49169V4.50866V4.52563V4.5426V4.55957V4.57652V4.59348V4.61043V4.62738V4.64432V4.66127V4.6782V4.69513V4.71206V4.72899V4.74591V4.76283V4.77974V4.79665V4.81356V4.83046V4.84736V4.86426V4.88115V4.89804V4.91493V4.93181V4.94868V4.96556V4.98243V4.9993V5.01616V5.03302V5.04988V5.06673V5.08358V5.10043V5.11727V5.13411V5.15094V5.16777V5.1846V5.20143V5.21825V5.23507V5.25188V5.2687V5.2855V5.30231V5.31911V5.33591V5.3527V5.3695V5.38628V5.40307V5.41985V5.43663V5.4534V5.47018V5.48695V5.50371V5.52047V5.53723V5.55399V5.57074V5.58749V5.60424V5.62098V5.63772V5.65446V5.67119V5.68792V5.70465V5.72138V5.7381V5.75482V5.77153V5.78825V5.80496V5.82166V5.83837V5.85507V5.87176V5.88846V5.90515V5.92184V5.93853V5.95521V5.97189V5.98857V6.00524V6.02191V6.03858V6.05525V6.07191V6.08857V6.10523V6.12188V6.13853V6.15518V6.17183V6.18847V6.20511V6.22175V6.23839V6.25502V6.27165V6.28828V6.3049V6.32152V6.33814V6.35476V6.37137V6.38798V6.40459V6.4212V6.4378V6.4544V6.471V6.4876V6.50419V6.52078V6.53737V6.55396V6.57054V6.58712V6.6037V6.62028V6.63685V6.65342V6.66999V6.68656V6.70312V6.71968V6.73624V6.7528V6.76935V6.7859V6.80245V6.819V6.83555V6.85209V6.86863V6.88517V6.9017V6.91824V6.93477V6.9513V6.96783V6.98435V7.00087V7.01739V7.03391V7.05043V7.06694V7.08345V7.09996V7.11647V7.13298V7.14948V7.16598V7.18248V7.19898V7.21548V7.23197V7.24846V7.26495V7.28144V7.29792V7.3144V7.33089V7.34737V7.36384V7.38032V7.39679V7.41326V7.42973V7.4462V7.46267V7.47913V7.49559V7.51205V7.52851V7.54497V7.56142V7.57788V7.59433V7.61078V7.62723V7.64367V7.66012V7.67656V7.693V7.70944V7.72588V7.74231V7.75875V7.77518V7.79161V7.80804V7.82447V7.84089V7.85732V7.87374V7.89016V7.90658V7.923V7.93942V7.95583V7.97225V7.98866V8.00507V8.02148V8.03789V8.05429V8.0707V8.0871V8.1035V8.1199V8.1363V8.1527V8.1691V8.18549V8.20188V8.21828V8.23467V8.25106V8.26745V8.28383V8.30022V8.3166V8.33299V8.34937V8.36575V8.38213V8.39851V8.41488V8.43126V8.44763V8.46401V8.48038V8.49675V8.51312V8.52949V8.54586V8.56222V8.57859V8.59495V8.61132V8.62768V8.64404V8.6604V8.67676V8.69312V8.70947V8.72583V8.74218V8.75854V8.77489V8.79124V8.80759V8.82395V8.84029V8.85664V8.87299V8.88934V8.90568V8.92203V8.93837V8.95472V8.97106V8.9874V9.00374V9.02008V9.03642V9.05276V9.0691V9.08543V9.10177V9.11811V9.13444V9.15078V9.16711V9.18344V9.19977V9.21611V9.23244V9.24877V9.2651V9.28143V9.29775V9.31408V9.33041V9.34674V9.36306V9.37939V9.39571V9.41204V9.42836V9.44469V9.46101V9.47733V9.49365V9.50997V9.5263V9.54262V9.55894V9.57526V9.59158V9.6079V9.62422V9.64053V9.65685V9.67317V9.68949V9.70581V9.72212V9.73844V9.75476V9.77107V9.78739V9.8037V9.82002V9.83633V9.85265V9.86896V9.88528V9.90159V9.91791V9.93422V9.95054V9.96685V9.98316V9.99948V10.0158V10.0321V10.0484V10.0647V10.081V10.0974V10.1137V10.13V10.1463V10.1626V10.1789V10.1952V10.2115V10.2279V10.2442V10.2605V10.2768V10.2931V10.3094V10.3257V10.3421V10.3584V10.3747V10.391V10.4073V10.4236V10.4399V10.4563V10.4726V10.4889V10.5052V10.5215V10.5378V10.5542V10.5705V10.5868V10.6031V10.6194V10.6357V10.6521V10.6684V10.6847V10.701V10.7173V10.7337V10.75V10.7663V10.7826V10.799V10.8153V10.8316V10.8479V10.8642V10.8806V10.8969V10.9132V10.9296V10.9459V10.9622V10.9785V10.9949V11.0112V11.0275V11.0439V11.0602V11.0765V11.0928V11.1092V11.1255V11.1418V11.1582V11.1745V11.1909V11.2072V11.2235V11.2399V11.2562V11.2726V11.2889V11.3052V11.3216V11.3379V11.3543V11.3706V11.387V11.4033V11.4197V11.436V11.4524V11.4687V11.4851V11.5014V11.5178V11.5341V11.5505V11.5668V11.5832V11.5995V11.6159V11.6323V11.6486V11.665V11.6814V11.6977V11.7141V11.7305V11.7468V11.7632V11.7796V11.7959V11.8123V11.8287V11.8451V11.8614V11.8778V11.8942V11.9106V11.9269V11.9433V11.9597V11.9761V11.9925V12.0089V12.0253V12.0417V12.058V12.0744V12.0908V12.1072V12.1236V12.14V12.1564V12.1728V12.1892V12.2056V12.222V12.2384V12.2549V12.2713V12.2877V12.3041V12.3205V12.3369V12.3533V12.3698V12.3862V12.7103C17.6761 13.9744 17.0406 15.1105 16.0073 15.8719L16.0073 15.8719C15.2044 16.4635 14.166 16.8249 13.0157 16.8249Z" stroke="#D9B9A9"/>
<path d="M12.9739 16.8654H10.4414V13.0637C12.7062 13.2457 14.6697 14.4539 15.6516 16.1149C14.8915 16.5865 13.9764 16.8654 12.9739 16.8654Z" stroke="#D9B9A9"/>
<path d="M9.96106 0.5C11.8175 0.5 13.3162 1.62172 13.7448 3.07059L13.5627 3.08455C13.1408 1.59988 11.648 0.558363 9.95652 0.558363C8.26124 0.558363 6.7813 1.58629 6.33691 3.05376L6.15842 3.04163C6.6132 1.60553 8.11096 0.5 9.96106 0.5Z" stroke="#D9B9A9"/>
<path d="M9.97741 14.2555L9.97732 14.2556L9.94173 14.2892L9.9065 14.2558L9.9057 14.2551C9.60415 13.9709 9.30327 13.6867 9.00219 13.4023C8.80038 13.2116 8.59847 13.0209 8.39619 12.83C8.70602 12.396 9.28298 12.1276 9.94146 12.1276C10.6007 12.1276 11.1772 12.3959 11.4873 12.83C10.993 13.2962 10.4993 13.7625 10.0055 14.229L9.97741 14.2555Z" stroke="#D9B9A9"/>
<path d="M9.94197 12.5928C10.2619 12.5922 10.554 12.6767 10.7763 12.8238C10.6243 12.9673 10.4725 13.1106 10.3205 13.254C10.1942 13.3732 10.0678 13.4925 9.94113 13.6121C9.68602 13.3711 9.43086 13.1303 9.17578 12.8895C9.15254 12.8676 9.1293 12.8457 9.10605 12.8237C9.32855 12.6767 9.62063 12.5922 9.94019 12.5928L9.94197 12.5928Z" stroke="#D9B9A9"/>
<path d="M10.4414 12.6664C10.5645 12.7051 10.6775 12.7582 10.7766 12.8238C10.6648 12.9293 10.5531 13.0348 10.4414 13.1402V12.6664Z" stroke="#D9B9A9"/>
<path d="M6.07764 6.26038C8.1668 6.26038 9.76105 7.76033 9.76105 9.49085C9.76105 11.2221 8.16687 12.7213 6.07764 12.7213C3.98817 12.7213 2.39453 11.2222 2.39453 9.49085C2.39453 7.76026 3.98825 6.26038 6.07764 6.26038Z" stroke="#D9B9A9"/>
<path d="M6.07823 6.89526C7.77492 6.89526 9.05032 8.11009 9.05032 9.49093C9.05032 10.8715 7.77489 12.0866 6.07823 12.0866C4.38108 12.0866 3.10645 10.8716 3.10645 9.49093C3.10645 8.10999 4.38105 6.89526 6.07823 6.89526Z" stroke="#D9B9A9"/>
<path d="M6.07764 6.89526C7.40116 6.89526 8.48338 7.64462 8.88197 8.63054C8.48336 9.61606 7.40111 10.3656 6.07764 10.3656C4.75374 10.3656 3.67246 9.61617 3.27392 8.63054C3.67244 7.6445 4.75369 6.89526 6.07764 6.89526Z" stroke="#D9B9A9"/>
<path d="M13.8072 6.26038C15.8969 6.26038 17.4904 7.76024 17.4904 9.49085C17.4904 11.2222 15.897 12.7213 13.8072 12.7213C11.7176 12.7213 10.1235 11.2228 10.1235 9.49085C10.1235 7.76035 11.7178 6.26038 13.8072 6.26038Z" stroke="#D9B9A9"/>
<path d="M13.8072 6.89526C15.5037 6.89526 16.7793 8.11012 16.7793 9.49093C16.7793 10.8715 15.5036 12.0866 13.8072 12.0866C12.1106 12.0866 10.8354 10.8716 10.8354 9.49093C10.8354 8.11004 12.1106 6.89526 13.8072 6.89526Z" stroke="#D9B9A9"/>
<path d="M13.8073 6.89526C15.1306 6.89526 16.2128 7.64473 16.6108 8.63059C16.213 9.61591 15.1306 10.3656 13.8073 10.3656C12.4833 10.3656 11.4015 9.6161 11.0029 8.63054C11.4015 7.64458 12.4832 6.89526 13.8073 6.89526Z" stroke="#D9B9A9"/>
<path d="M7.15956 8.19333C7.15956 8.18578 7.15949 8.17825 7.15937 8.17074C7.82425 8.39874 8.25596 8.96631 8.25596 9.56369C8.25596 10.3399 7.53083 11.0635 6.51323 11.0635C5.49487 11.0635 4.77051 10.34 4.77051 9.56369C4.77051 9.52649 4.7721 9.48955 4.77525 9.45293C5.01464 9.58332 5.29134 9.65526 5.57924 9.65526C6.39509 9.65526 7.15956 9.05466 7.15956 8.19333Z" stroke="#D9B9A9"/>
<path d="M14.0156 8.19333C14.0156 8.18572 14.0155 8.17812 14.0154 8.17054C14.681 8.39842 15.1126 8.96614 15.1126 9.56369C15.1126 10.3399 14.3881 11.0635 13.3693 11.0635C12.3522 11.0635 11.6274 10.3401 11.6274 9.56369C11.6274 9.52647 11.629 9.48952 11.6321 9.4529C11.8717 9.58329 12.1484 9.65526 12.4362 9.65526C13.2526 9.65526 14.0156 9.05415 14.0156 8.19333Z" stroke="#D9B9A9"/>
<mask id="path-18-inside-1_2_9005" fill="white">
<path fill-rule="evenodd" clip-rule="evenodd" d="M47.3779 12.6443C46.8774 13.0973 46.2782 13.3253 45.5841 13.3253C45.0228 13.3253 44.5456 13.2229 44.0585 12.9708V11.9322C44.4505 12.1688 44.9422 12.3944 45.4281 12.3944C46.4405 12.3944 47.0434 11.7731 47.0434 10.8925C47.0434 10.0108 46.4196 9.37085 45.4069 9.37085C44.954 9.37085 44.5877 9.5159 44.3011 9.80656C43.9939 10.1218 43.8352 10.5718 43.8352 11.1669V15.2688H43.7589C43.2008 15.2688 42.7482 14.8653 42.7482 14.3679V11.0132C42.7482 9.58965 43.7246 8.44052 45.402 8.44052C46.23 8.44052 46.9028 8.69282 47.4127 9.20012C47.8923 9.67393 48.1304 10.275 48.1304 10.9976C48.1304 11.641 47.8796 12.1907 47.3779 12.6443ZM24.3338 13.2294C23.2714 13.2294 22.7437 12.5848 22.7437 11.6845V8.26899C22.7437 7.77142 23.196 7.36811 23.7543 7.36811H23.8303V8.53615H25.6665V9.46674H23.8303V11.7923C23.8303 12.1877 24.0285 12.299 24.452 12.299H25.6665V13.2294H24.3338ZM30.6454 12.6362C30.108 13.0954 29.463 13.3253 28.7132 13.3253C27.9707 13.3253 27.3288 13.0951 26.7923 12.6362C26.2536 12.1756 25.9849 11.5894 25.9849 10.8828C25.9849 9.50456 27.1655 8.44052 28.7132 8.44052C29.4564 8.44052 30.0995 8.67229 30.64 9.13421C31.182 9.59775 31.4528 10.1823 31.4528 10.8828C31.4528 11.5894 31.1838 12.1756 30.6454 12.6362ZM35.7259 9.66529C35.5665 9.90381 35.4429 10.0748 35.356 10.178C35.26 10.2901 35.1654 10.38 35.0718 10.4419C35.8271 10.6596 36.1082 11.1261 36.1082 11.8212L36.1085 13.2294H36.0319C35.4738 13.2294 35.0212 12.8261 35.0212 12.3285V11.9165C35.0212 11.4668 34.7952 11.1613 34.2602 11.1613H33.2732V13.2294H33.1972C32.6391 13.2294 32.1865 12.8261 32.1865 12.3285V7.33084C32.1865 6.83326 32.6391 6.42969 33.1972 6.42969H33.2732V10.2209H33.5946C33.9473 10.2209 34.1796 10.1137 34.3126 9.91002L35.2254 8.53615L36.4639 8.53534L35.7259 9.66529ZM41.3359 12.6362C40.7991 13.0954 40.1535 13.3253 39.4037 13.3253C38.6615 13.3253 38.0198 13.0951 37.4827 12.6362C36.944 12.1756 36.6756 11.5894 36.6756 10.8828C36.6756 9.50456 37.8559 8.44052 39.4037 8.44052C40.1471 8.44052 40.7903 8.67229 41.3304 9.13421C41.8724 9.59775 42.1432 10.1823 42.1432 10.8828C42.1432 11.5894 41.8745 12.1756 41.3359 12.6362ZM40.5515 9.79062C40.2519 9.51104 39.8711 9.37085 39.4037 9.37085C38.4036 9.37085 37.8053 10.021 37.8053 10.8828C37.8053 11.7326 38.4182 12.3944 39.4037 12.3944C40.3904 12.3944 41.0023 11.7326 41.0023 10.8828C41.0023 10.4316 40.8509 10.0697 40.5515 9.79062ZM29.8608 9.79062C29.5612 9.51104 29.1807 9.37085 28.7132 9.37085C27.7132 9.37085 27.1149 10.021 27.1149 10.8828C27.1149 11.7326 27.7278 12.3944 28.7132 12.3944C29.6993 12.3944 30.3122 11.7326 30.3122 10.8828C30.3122 10.4316 30.1604 10.0697 29.8608 9.79062ZM59.1447 12.6097C58.6457 13.087 58.0041 13.3253 57.2252 13.3253C56.4042 13.3253 55.7347 13.0724 55.2251 12.5654C54.7462 12.0856 54.5078 11.4843 54.5078 10.7679C54.5078 9.4997 55.6059 8.44052 57.0495 8.44052C57.6069 8.44052 58.0907 8.54479 58.5797 8.78413V9.8333C58.1874 9.59667 57.6954 9.37085 57.2104 9.37085C56.1979 9.37085 55.5947 9.99214 55.5947 10.873C55.5947 11.7426 56.2327 12.3944 57.231 12.3944C57.683 12.3944 58.0553 12.2431 58.3531 11.9392C58.6491 11.6367 58.803 11.1923 58.803 10.5956V7.33084C58.803 6.83326 59.2553 6.42969 59.8136 6.42969H59.8896V10.7485C59.8896 11.5095 59.643 12.1318 59.1447 12.6097ZM62.2135 7.97914C62.0993 8.09314 61.9357 8.14554 61.7361 8.14554C61.3632 8.14554 61.0966 7.9 61.0966 7.57017C61.0966 7.23224 61.3586 7.00425 61.7361 7.00425C62.0999 7.00425 62.3762 7.24467 62.3762 7.57017C62.3762 7.73117 62.3235 7.8692 62.2135 7.97914ZM67.7351 10.5956C67.7351 10.2136 67.573 9.91137 67.247 9.68203C66.9538 9.47593 66.5869 9.37085 66.1416 9.37085C65.1582 9.37085 64.5269 10.0564 64.5269 10.9017C64.5269 11.7156 65.1958 12.3944 66.1319 12.3944C66.782 12.3944 67.1301 12.0554 67.5012 11.6334V12.8509C67.3119 12.9771 67.0946 13.1146 66.8723 13.1953C66.6381 13.2828 66.3591 13.3253 66.0358 13.3253C64.4717 13.3253 63.4402 12.1699 63.4402 10.8349C63.4402 10.1494 63.6789 9.5829 64.1594 9.1407C64.6698 8.67256 65.3385 8.44052 66.1576 8.44052C67.7108 8.44052 68.822 9.23551 68.822 10.6721V13.2294H68.7457C68.1877 13.2294 67.7351 12.8261 67.7351 12.3285V10.5956ZM52.8585 10.3212C52.721 9.94244 52.5489 9.75605 52.1526 9.55912C51.2114 9.08964 50.2844 9.48889 49.8533 10.3174L52.8585 10.3212ZM52.0293 13.3109C51.335 13.4422 50.654 13.3409 49.9896 13.0103C49.3416 12.6872 48.9069 12.2069 48.6896 11.5729C48.2498 10.2901 49.151 8.8603 50.6 8.514C51.3186 8.34247 52.0075 8.42026 52.6619 8.74658C53.7492 9.28819 54.1451 10.1261 54.0761 11.2061L49.6978 11.198C49.7621 11.6386 50.0687 11.9833 50.4988 12.1977C50.9351 12.4152 51.3365 12.4671 51.7091 12.3641C52.122 12.2483 52.4574 11.9476 52.7301 11.6675L53.6225 12.2472C53.2584 12.8279 52.7628 13.1716 52.0293 13.3109ZM61.1929 8.53615H62.2796V13.2294H62.2032C61.6455 13.2294 61.1929 12.8261 61.1929 12.3285V8.53615Z"/>
</mask>
<path fill-rule="evenodd" clip-rule="evenodd" d="M47.3779 12.6443C46.8774 13.0973 46.2782 13.3253 45.5841 13.3253C45.0228 13.3253 44.5456 13.2229 44.0585 12.9708V11.9322C44.4505 12.1688 44.9422 12.3944 45.4281 12.3944C46.4405 12.3944 47.0434 11.7731 47.0434 10.8925C47.0434 10.0108 46.4196 9.37085 45.4069 9.37085C44.954 9.37085 44.5877 9.5159 44.3011 9.80656C43.9939 10.1218 43.8352 10.5718 43.8352 11.1669V15.2688H43.7589C43.2008 15.2688 42.7482 14.8653 42.7482 14.3679V11.0132C42.7482 9.58965 43.7246 8.44052 45.402 8.44052C46.23 8.44052 46.9028 8.69282 47.4127 9.20012C47.8923 9.67393 48.1304 10.275 48.1304 10.9976C48.1304 11.641 47.8796 12.1907 47.3779 12.6443ZM24.3338 13.2294C23.2714 13.2294 22.7437 12.5848 22.7437 11.6845V8.26899C22.7437 7.77142 23.196 7.36811 23.7543 7.36811H23.8303V8.53615H25.6665V9.46674H23.8303V11.7923C23.8303 12.1877 24.0285 12.299 24.452 12.299H25.6665V13.2294H24.3338ZM30.6454 12.6362C30.108 13.0954 29.463 13.3253 28.7132 13.3253C27.9707 13.3253 27.3288 13.0951 26.7923 12.6362C26.2536 12.1756 25.9849 11.5894 25.9849 10.8828C25.9849 9.50456 27.1655 8.44052 28.7132 8.44052C29.4564 8.44052 30.0995 8.67229 30.64 9.13421C31.182 9.59775 31.4528 10.1823 31.4528 10.8828C31.4528 11.5894 31.1838 12.1756 30.6454 12.6362ZM35.7259 9.66529C35.5665 9.90381 35.4429 10.0748 35.356 10.178C35.26 10.2901 35.1654 10.38 35.0718 10.4419C35.8271 10.6596 36.1082 11.1261 36.1082 11.8212L36.1085 13.2294H36.0319C35.4738 13.2294 35.0212 12.8261 35.0212 12.3285V11.9165C35.0212 11.4668 34.7952 11.1613 34.2602 11.1613H33.2732V13.2294H33.1972C32.6391 13.2294 32.1865 12.8261 32.1865 12.3285V7.33084C32.1865 6.83326 32.6391 6.42969 33.1972 6.42969H33.2732V10.2209H33.5946C33.9473 10.2209 34.1796 10.1137 34.3126 9.91002L35.2254 8.53615L36.4639 8.53534L35.7259 9.66529ZM41.3359 12.6362C40.7991 13.0954 40.1535 13.3253 39.4037 13.3253C38.6615 13.3253 38.0198 13.0951 37.4827 12.6362C36.944 12.1756 36.6756 11.5894 36.6756 10.8828C36.6756 9.50456 37.8559 8.44052 39.4037 8.44052C40.1471 8.44052 40.7903 8.67229 41.3304 9.13421C41.8724 9.59775 42.1432 10.1823 42.1432 10.8828C42.1432 11.5894 41.8745 12.1756 41.3359 12.6362ZM40.5515 9.79062C40.2519 9.51104 39.8711 9.37085 39.4037 9.37085C38.4036 9.37085 37.8053 10.021 37.8053 10.8828C37.8053 11.7326 38.4182 12.3944 39.4037 12.3944C40.3904 12.3944 41.0023 11.7326 41.0023 10.8828C41.0023 10.4316 40.8509 10.0697 40.5515 9.79062ZM29.8608 9.79062C29.5612 9.51104 29.1807 9.37085 28.7132 9.37085C27.7132 9.37085 27.1149 10.021 27.1149 10.8828C27.1149 11.7326 27.7278 12.3944 28.7132 12.3944C29.6993 12.3944 30.3122 11.7326 30.3122 10.8828C30.3122 10.4316 30.1604 10.0697 29.8608 9.79062ZM59.1447 12.6097C58.6457 13.087 58.0041 13.3253 57.2252 13.3253C56.4042 13.3253 55.7347 13.0724 55.2251 12.5654C54.7462 12.0856 54.5078 11.4843 54.5078 10.7679C54.5078 9.4997 55.6059 8.44052 57.0495 8.44052C57.6069 8.44052 58.0907 8.54479 58.5797 8.78413V9.8333C58.1874 9.59667 57.6954 9.37085 57.2104 9.37085C56.1979 9.37085 55.5947 9.99214 55.5947 10.873C55.5947 11.7426 56.2327 12.3944 57.231 12.3944C57.683 12.3944 58.0553 12.2431 58.3531 11.9392C58.6491 11.6367 58.803 11.1923 58.803 10.5956V7.33084C58.803 6.83326 59.2553 6.42969 59.8136 6.42969H59.8896V10.7485C59.8896 11.5095 59.643 12.1318 59.1447 12.6097ZM62.2135 7.97914C62.0993 8.09314 61.9357 8.14554 61.7361 8.14554C61.3632 8.14554 61.0966 7.9 61.0966 7.57017C61.0966 7.23224 61.3586 7.00425 61.7361 7.00425C62.0999 7.00425 62.3762 7.24467 62.3762 7.57017C62.3762 7.73117 62.3235 7.8692 62.2135 7.97914ZM67.7351 10.5956C67.7351 10.2136 67.573 9.91137 67.247 9.68203C66.9538 9.47593 66.5869 9.37085 66.1416 9.37085C65.1582 9.37085 64.5269 10.0564 64.5269 10.9017C64.5269 11.7156 65.1958 12.3944 66.1319 12.3944C66.782 12.3944 67.1301 12.0554 67.5012 11.6334V12.8509C67.3119 12.9771 67.0946 13.1146 66.8723 13.1953C66.6381 13.2828 66.3591 13.3253 66.0358 13.3253C64.4717 13.3253 63.4402 12.1699 63.4402 10.8349C63.4402 10.1494 63.6789 9.5829 64.1594 9.1407C64.6698 8.67256 65.3385 8.44052 66.1576 8.44052C67.7108 8.44052 68.822 9.23551 68.822 10.6721V13.2294H68.7457C68.1877 13.2294 67.7351 12.8261 67.7351 12.3285V10.5956ZM52.8585 10.3212C52.721 9.94244 52.5489 9.75605 52.1526 9.55912C51.2114 9.08964 50.2844 9.48889 49.8533 10.3174L52.8585 10.3212ZM52.0293 13.3109C51.335 13.4422 50.654 13.3409 49.9896 13.0103C49.3416 12.6872 48.9069 12.2069 48.6896 11.5729C48.2498 10.2901 49.151 8.8603 50.6 8.514C51.3186 8.34247 52.0075 8.42026 52.6619 8.74658C53.7492 9.28819 54.1451 10.1261 54.0761 11.2061L49.6978 11.198C49.7621 11.6386 50.0687 11.9833 50.4988 12.1977C50.9351 12.4152 51.3365 12.4671 51.7091 12.3641C52.122 12.2483 52.4574 11.9476 52.7301 11.6675L53.6225 12.2472C53.2584 12.8279 52.7628 13.1716 52.0293 13.3109ZM61.1929 8.53615H62.2796V13.2294H62.2032C61.6455 13.2294 61.1929 12.8261 61.1929 12.3285V8.53615Z" stroke="#D9B9A9" stroke-width="2" mask="url(#path-18-inside-1_2_9005)"/>
</svg>
