<svg width="32" height="32" viewBox="0 0 32 32" fill="none" xmlns="http://www.w3.org/2000/svg">
<g clip-path="url(#clip0_87_883)">
<path d="M18 31.5C25.4558 31.5 31.5 25.4558 31.5 18C31.5 10.5442 25.4558 4.5 18 4.5C10.5442 4.5 4.5 10.5442 4.5 18C4.5 25.4558 10.5442 31.5 18 31.5Z" stroke="#121212" stroke-opacity="0.7" stroke-width="2" stroke-linecap="round" stroke-linejoin="round"/>
<path d="M18 19.5C20.4853 19.5 22.5 17.4853 22.5 15C22.5 12.5147 20.4853 10.5 18 10.5C15.5147 10.5 13.5 12.5147 13.5 15C13.5 17.4853 15.5147 19.5 18 19.5Z" stroke="#121212" stroke-opacity="0.7" stroke-width="2" stroke-linecap="round" stroke-linejoin="round"/>
<path d="M9.25195 28.2735C9.62322 27.0378 10.3829 25.9548 11.4183 25.185C12.4537 24.4152 13.7097 23.9996 15 24H21C22.2918 23.9996 23.5494 24.4161 24.5855 25.1877C25.6217 25.9593 26.3811 27.0447 26.751 28.2825" stroke="#121212" stroke-opacity="0.7" stroke-width="2" stroke-linecap="round" stroke-linejoin="round"/>
</g>
<defs>
<clipPath id="clip0_87_883">
<rect width="32" height="32" fill="white"/>
</clipPath>
</defs>
</svg>
