<svg width="23" height="23" viewBox="0 0 23 23" fill="none" xmlns="http://www.w3.org/2000/svg">
<path d="M11.4153 2.5575H18.7104C19.0314 2.5575 19.3312 2.61041 19.5958 2.80443C19.9556 3.0443 20.1743 3.44645 20.1814 3.87682C20.1884 4.70228 20.1849 5.52421 20.1884 6.34262L20.192 18.6645C20.192 18.915 20.1849 19.1619 20.072 19.3877C19.878 19.8145 19.4829 20.1109 19.0208 20.1708C18.8973 20.1885 18.7739 20.1955 18.6504 20.1955L4.29656 20.192C4.13429 20.192 3.96849 20.1814 3.80622 20.1708C3.05837 20.1073 2.50453 19.4547 2.5645 18.7069C2.5645 13.8106 2.57156 8.91777 2.5645 4.01792C2.5645 3.59108 2.68797 3.22421 3.00545 2.93142C3.23828 2.70565 3.54518 2.57866 3.86619 2.56808C4.08137 2.56102 4.29656 2.56102 4.51174 2.56102H11.4153V2.5575Z" fill="#D52E2F"/>
<path d="M6.854 5.1856H5.48528C5.24893 5.1856 5.19249 5.23851 5.18896 5.46781V6.20861C5.18896 6.42379 5.24541 6.4767 5.45354 6.48023L7.17148 6.50493C7.48544 6.51198 7.79939 6.50493 8.10982 6.51198C8.51903 6.51904 8.88237 6.65661 9.21044 6.90707C9.95829 7.4856 10.0218 8.62502 9.39035 9.29879C9.04464 9.67272 8.55783 9.88437 8.04985 9.87732C7.19617 9.88437 6.34249 9.87732 5.48881 9.87379C5.24541 9.87379 5.19249 9.93023 5.19249 10.1736V10.9144C5.19602 11.1402 5.26304 11.2037 5.48881 11.2037C6.26489 11.2037 7.03743 11.2072 7.8135 11.2037C8.02163 11.2037 8.22976 11.1896 8.43789 11.1649C9.18574 11.0908 9.87715 10.7204 10.3463 10.1313C11.0836 9.26351 11.2564 8.04649 10.7873 7.00585C10.2969 5.80999 9.32685 5.23146 8.04633 5.18207C7.65124 5.17149 7.25262 5.18207 6.854 5.1856ZM14.463 5.18207C16.1739 5.18207 17.5638 6.52962 17.5638 8.19465C17.5638 9.85968 16.1739 11.2072 14.4595 11.2072C12.7451 11.2072 11.3588 9.85968 11.3588 8.19818C11.3588 6.53667 12.7451 5.18207 14.463 5.18207ZM14.463 10.0043C15.4226 10.0043 16.2022 9.19296 16.2022 8.19465C16.2022 7.19634 15.4226 6.38851 14.4595 6.38851C13.5 6.38851 12.7169 7.19986 12.7169 8.19465C12.7169 9.19649 13.5 10.0043 14.463 10.0043ZM6.63528 14.0434C6.57884 13.9729 6.59648 13.8917 6.59648 13.8177V11.7681C6.58237 11.6341 6.53298 11.5812 6.40952 11.5529C6.36366 11.5423 6.3178 11.5353 6.27194 11.5353H5.47117C5.25599 11.5388 5.18896 11.6058 5.18896 11.8175V17.2747C5.18896 17.4828 5.24541 17.5428 5.45354 17.5463H6.2155C6.54709 17.5463 6.59295 17.5075 6.59295 17.1618V15.9448C6.59295 15.8072 6.62117 15.6873 6.72347 15.5885C6.86458 15.4439 7.00568 15.2993 7.15384 15.1617C7.26673 15.0558 7.34786 15.0629 7.45016 15.1864C7.54541 15.3028 7.6336 15.4227 7.72531 15.5427L9.10108 17.3453C9.19633 17.4687 9.31979 17.5463 9.48206 17.5463L10.6568 17.5428C10.7203 17.5428 10.7908 17.5499 10.8296 17.444C10.8014 17.3947 10.7661 17.3241 10.7203 17.2641L9.07639 15.1511L8.40967 14.2833C8.30031 14.1387 8.30384 14.0575 8.43084 13.9235C8.44847 13.9023 8.46611 13.8847 8.48375 13.867L9.67961 12.6818L10.5933 11.7752C10.6426 11.7223 10.7273 11.6835 10.692 11.5741C10.6638 11.567 10.6356 11.5529 10.6038 11.5494C10.2158 11.5423 9.83482 11.5353 9.44679 11.5353C9.22455 11.5353 9.04111 11.6235 8.88237 11.7893C8.20154 12.5019 7.51013 13.2003 6.81872 13.9023C6.76933 13.9588 6.73053 14.0328 6.63528 14.0434ZM11.3658 13.2497V13.8177C11.3764 14.2092 11.3411 14.5973 11.4046 14.9853C11.6445 16.5374 13.0344 17.6486 14.6006 17.5428C16.248 17.497 17.5568 16.1388 17.5462 14.4914C17.5568 13.6166 17.5462 12.7453 17.5462 11.8704V11.754C17.5321 11.6235 17.4791 11.5565 17.3486 11.5529C17.0347 11.5459 16.7242 11.5459 16.4103 11.5529C16.2798 11.56 16.2268 11.6235 16.2198 11.754V11.9516C16.2092 12.8335 16.2057 13.7118 16.1916 14.5937C16.1845 14.9747 16.054 15.3416 15.8247 15.645C15.2638 16.3928 14.2055 16.548 13.4541 15.9907C12.9744 15.6308 12.6992 15.0629 12.7134 14.4667C12.7063 13.5919 12.7204 12.7206 12.7275 11.8457C12.7275 11.6023 12.671 11.5494 12.4276 11.5459H11.648C11.4152 11.5494 11.3658 11.6023 11.3658 11.8422V13.2497Z" fill="white"/>
</svg>
